<svg width="61" height="60" fill="none" xmlns="http://www.w3.org/2000/svg">
    <g clip-path="url(#a)">
        <path d="M30.75 60c16.569 0 30-13.431 30-30 0-16.569-13.431-30-30-30-16.569 0-30 13.431-30 30 0 16.569 13.431 30 30 30Z" fill="#1BA24B"/>
        <path d="M29.91 12.709c-9.143.435-16.36 8.05-16.332 17.204.009 2.788.682 5.42 1.87 7.746l-1.824 8.849a.668.668 0 0 0 .81.785l8.67-2.054a17.088 17.088 0 0 0 7.379 1.79c9.346.144 17.138-7.277 17.43-16.62.312-10.014-7.953-18.18-18.002-17.7Zm10.348 26.659a13.358 13.358 0 0 1-9.508 3.938c-2.103 0-4.116-.472-5.984-1.403l-1.207-.601-5.317 1.259 1.119-5.432-.595-1.166a13.293 13.293 0 0 1-1.462-6.103c0-3.592 1.4-6.968 3.938-9.508a13.469 13.469 0 0 1 9.508-3.938c3.591 0 6.968 1.4 9.507 3.938a13.358 13.358 0 0 1 3.938 9.508c0 3.56-1.42 6.99-3.938 9.508Z" fill="#fff"/>
        <path d="m39.084 33.584-3.326-.955a1.24 1.24 0 0 0-1.227.323l-.814.829c-.343.35-.863.462-1.317.278-1.573-.637-4.883-3.58-5.728-5.051a1.211 1.211 0 0 1 .096-1.344l.71-.918a1.24 1.24 0 0 0 .152-1.26l-1.399-3.165a1.24 1.24 0 0 0-1.937-.443c-.928.785-2.03 1.978-2.163 3.3-.236 2.33.764 5.268 4.542 8.795 4.367 4.076 7.863 4.614 10.14 4.063 1.291-.313 2.323-1.567 2.974-2.593a1.24 1.24 0 0 0-.703-1.86Z" fill="#fff"/>
        <path d="m42.47 17.31-2.605 2.669a13.357 13.357 0 0 1 4.33 9.881c0 3.56-1.42 6.99-3.937 9.508a13.358 13.358 0 0 1-9.508 3.938c-2.103 0-4.116-.472-5.984-1.403l-1.207-.601-5.317 1.26.11-.534-4.708 4.825a.669.669 0 0 0 .79.44l8.67-2.054a17.088 17.088 0 0 0 7.379 1.79c9.346.144 17.139-7.277 17.43-16.62a17.129 17.129 0 0 0-5.444-13.1Z" fill="#D1D1D1"/>
        <path d="m39.084 33.584-3.326-.955a1.24 1.24 0 0 0-1.227.323l-.814.829c-.343.35-.863.462-1.317.278-.909-.368-2.396-1.505-3.654-2.684l-2.313 2.37.24.228c4.367 4.076 7.863 4.614 10.14 4.063 1.291-.313 2.323-1.567 2.974-2.593.444-.7.093-1.63-.703-1.86Z" fill="#D1D1D1"/>
    </g>
    <defs>
        <clipPath id="a">
            <path fill="#fff" transform="translate(.75)" d="M0 0h60v60H0z"/>
        </clipPath>
    </defs>
</svg>
