<svg width="131" height="29" fill="none" xmlns="http://www.w3.org/2000/svg">
    <path d="M19.69 11.123c.108.048.216.145.323.145 1.67.01 3.335.016 5.005-.005.172 0 .34-.178.512-.27.032.146.016.323.097.437 1.998 2.957 4.003 5.91 6.012 8.856.636.938 1.277 1.87 1.912 2.801.7-.242 1.363-.468 2.08-.716-1.266-1.438-2.484-2.812-3.696-4.191-1.724-1.966-3.437-3.933-5.155-5.9.334.319.684.62.996.954 2.57 2.77 5.14 5.544 7.699 8.324.097.107.15.258.22.387l.227-.113c0-.695.01-1.39-.011-2.085-.005-.118-.124-.264-.232-.35-1.438-1.206-2.914-2.375-4.326-3.614a89.55 89.55 0 0 1-4.595-4.343c2.667 2.242 5.334 4.477 8.043 6.756.016-.205.022-.345.043-.485.081-.55.345-.786.9-.797.431-.011.862 0 1.325-.076-3.4-1.977-6.798-3.954-10.192-5.93.016-.033.037-.066.053-.098l2.145 1.164c.258.14.517.28.77.42 2.64 1.438 5.269 2.893 7.93 4.293.716.378 1.05.825.916 1.617-.022.113 0 .237 0 .258.62.356 1.19.684 1.761 1.008-.01.037-.016.07-.027.107h-2.957v1.401h.55c1.48 0 2.957-.005 4.438.006.173 0 .372.016.512.102a20.68 20.68 0 0 1 2.074 1.379H39.1c-.01.032-.027.065-.038.097.135.124.335.22.4.377.09.232.118.506.101.754-.005.06-.29.146-.447.146-1.659.01-3.318 0-4.977.016-.431.005-.744-.108-.922-.533-.264-.642-.7-.868-1.443-.868-6.276.038-12.553.027-18.829.011-.43 0-.727.108-.878.501-.29.765-.856.927-1.627.894-1.476-.059-2.957-.01-4.439-.027-.183 0-.517-.113-.517-.177-.005-.26.07-.528.173-.77.053-.13.22-.216.436-.405H.038L0 22.48c.738-.458 1.476-.921 2.225-1.363.102-.06.264-.032.399-.032H7.67a88.946 88.946 0 0 0-.07-1.369H4.66c-.016-.038-.032-.08-.049-.118.566-.334 1.126-.668 1.692-.997.032.032.07.065.102.097a16.997 16.997 0 0 1-.037-.749c-.017-.404.048-.754.463-.98 3.685-1.999 7.364-4.008 11.05-6.012.037-.022.08-.022.16.043-3.345 1.944-6.685 3.89-10.03 5.834l.016.08h1.007c.89-.005 1.078.146 1.212 1.008.011.07.022.146.038.275.83-.7 1.622-1.38 2.419-2.047 1.853-1.557 3.706-3.109 5.565-4.66.124-.103.275-.167.41-.253-1.439 1.325-2.856 2.672-4.321 3.965-1.632 1.438-3.13 3.038-4.983 4.218-.119.075-.232.264-.232.398.005.68.049 1.358.08 2.102.13-.119.206-.178.276-.248 1.357-1.466 2.715-2.936 4.078-4.402 1.686-1.815 3.383-3.62 5.074-5.43-.118.167-.22.35-.355.506-2.85 3.238-5.7 6.47-8.55 9.708-.091.102-.172.216-.274.35.722.243 1.379.464 2.052.695.07-.097.14-.188.21-.285 1.762-2.591 3.518-5.183 5.285-7.769.878-1.32 1.778-2.618 2.672-3.921Zm-6.314 9.917h18.306c-.242-.382-.474-.69-.652-1.029-.14-.269-.328-.328-.609-.323-1.06.016-2.122.006-3.178.006-4.197 0-8.393 0-12.584.005-.162 0-.388.027-.475.135-.28.355-.511.754-.808 1.206Zm1.584-2.36h15.154c-.231-.619-.55-.926-1.276-.915-4.18.043-8.361.043-12.542 0-.738-.005-1.099.264-1.336.916Zm-3.927 4.8c.005-.026.01-.058.022-.085-.534-.178-1.056-.378-1.595-.528-.485-.135-.679-.442-.695-.91-.027-.642-.06-1.283-.092-1.924-.027-.49.146-.91.61-1.094.538-.21.586-.592.522-1.077-.049-.356-.194-.533-.577-.523-.506.022-1.018.027-1.519.006-.883-.043-1.04.021-.835 1.034.038.194.291.388.49.496.485.258.733.625.728 1.18 0 .598.026 1.195.043 1.788.016.738-.054.835-.744 1.056-.485.156-.964.318-1.449.48.005.026.016.059.022.086 1.686.016 3.377.016 5.069.016Zm28.051-.01c.01-.027.022-.054.032-.086-.517-.173-1.029-.34-1.546-.512-.517-.172-.668-.377-.652-.921.022-.625.065-1.255.065-1.88 0-.534.216-.905.684-1.159.577-.312.7-.544.577-1.185-.027-.145-.248-.355-.388-.36-.7-.038-1.406-.033-2.107-.006-.145.005-.35.124-.414.248-.238.452-.065 1.04.387 1.276.501.264.695.652.652 1.207a48.575 48.575 0 0 0-.097 1.967c-.016.414-.215.657-.608.78-.56.178-1.121.372-1.681.556a.32.32 0 0 1 .01.07c1.703.005 3.395.005 5.086.005Zm-23.068-6.421h13.048c-.156-.49-.447-.642-.943-.636-3.717.021-7.44.021-11.157.005-.48-.005-.813.092-.948.63Zm.749-1.159H28.31c-.103-.393-.324-.5-.695-.495-3.383.016-6.772.016-10.155 0-.372-.006-.604.097-.695.495Zm.598-.9h10.36l.048-.15c-.178-.076-.35-.189-.533-.21-.297-.038-.598-.011-.895-.011h-8.425c-.275-.005-.517.005-.555.372Zm9.896-.7c.016-.048.027-.097.043-.14-.177-.054-.355-.156-.538-.156-1.196-.01-2.387-.005-3.583-.005h-4.88c-.216 0-.47-.049-.48.301h9.438Zm-.388-.576c.011-.049.016-.097.027-.146-.145-.021-.29-.07-.43-.07-.717-.005-1.434-.005-2.145-.005-1.89 0-3.787 0-5.678.005-.156 0-.318.049-.474.081.01.049.021.092.032.14 2.882-.005 5.775-.005 8.668-.005Zm-.285-.485c-.463-.259-7.882-.205-8.13 0h8.13Zm-.243-.377v-.092h-7.606v.092h7.606Zm-.231-.356v-.059h-7.17v.06h7.17Zm-6.96-.345c.005.022.005.044.01.065h6.745v-.064h-6.756Zm6.534-.177c-.005-.016-.005-.033-.01-.049h-6.32v.049h6.33Zm-.102-.2v-.048h-6.066v.048h6.066Zm-5.813-.398.016.048h5.511v-.048h-5.527Zm5.549.22c0-.01-.006-.026-.006-.037h-5.112v.038h5.118Zm13.015 11.012-.948-.873c-.06.641.043.728.948.873Zm-30.685-.84-.921.856c.932-.183 1.012-.253.92-.856Z" fill="#CCC"/>
    <path d="M20.127 10.438a6.024 6.024 0 0 0 0 .442c0 .08.01.318.021.399l.156.086 5.334-.022.35-.296c2.284-4.719 9.535-8.043 18.015-7.833 2.02.049 3.954.296 5.758.711C46.724 1.884 42.42.558 37.603.435 28.17.202 20.347 4.678 20.127 10.437ZM58.882 18.32c.049-3.534-2.79-6.653-7.16-8.539 1.288 1.54 2.005 3.292 1.983 5.15-.086 6.19-8.366 11.217-18.505 11.222-2.02 0-3.96-.2-5.775-.566 3.082 1.961 7.418 3.179 12.24 3.179 9.433-.011 17.142-4.687 17.217-10.446Z" fill="#CCC"/>
    <path d="M50.349 11.23c.668 3.933-2.915 7.898-8.367 9.067-1.691.366-4.827.232-4.827.232s-.054-1.186.049-1.31c2.936-1.982.108-2.833.108-2.833l-7.677-4.46c.986-2.937 4.229-5.587 8.156-6.438 6.007-1.299 11.782 1.314 12.558 5.742Zm-6.384 3.12c.032-.044.064-.092.102-.14.431-.545.862-1.089 1.304-1.633.08-.097.037-.135-.06-.188-.84-.437-1.68-.873-2.515-1.31a1.198 1.198 0 0 0-.108-.048c-.598.582-1.19 1.158-1.762 1.718.986.523 1.994 1.051 3.039 1.6Zm-.905.867-3.066-1.59c-.57.56-1.163 1.137-1.756 1.72-.005-.006 0 .005.01.01.89.463 1.773.932 2.662 1.39.038.021.151.005.189-.022.328-.226.652-.452.964-.69.345-.269.673-.549.997-.818Zm-8.69-1.94c.954.502 1.88.986 2.796 1.466.577-.56 1.164-1.137 1.735-1.692-1.019-.528-2.042-1.056-3.071-1.594-.242.28-.506.57-.743.867-.259.329-.49.657-.717.953Zm4.407-4.266a17.214 17.214 0 0 0-2.042 1.573l3.044 1.584c.587-.571 1.174-1.148 1.756-1.713-.905-.475-1.82-.954-2.758-1.444Zm-.361 9.142c.097-.043.959-.431 1.422-.647-.851-.447-1.621-.85-2.419-1.266l-.113.151c.824.361 1.536.469 1.11 1.762Zm5.123-7.995c.824.431 1.643.862 2.494 1.304.135-.35.291-.69.404-1.04.243-.738.34-1.47.081-2.187a1.451 1.451 0 0 0-.388-.609c-.872.862-1.734 1.703-2.59 2.532Zm1.53-3.087c-.56-.129-1.115-.102-1.675-.016-.89.14-1.713.42-2.5.781-.318.146-.625.302-.953.464.856.441 1.686.867 2.537 1.303.851-.824 1.713-1.67 2.591-2.532Zm-7.375 1.336c-.684-.35-1.38-.71-2.08-1.066-.043-.022-.14-.006-.193.016-.62.285-1.18.625-1.697 1.007-.173.13-.334.264-.48.383.83.43 1.638.846 2.43 1.26.652-.522 1.32-1.05 2.02-1.6Zm7.364 6.47c.803.415 1.616.835 2.425 1.256a7.085 7.085 0 0 0 1.104-1.692c.124-.275.124-.275-.173-.43a520.55 520.55 0 0 1-1.847-.97c-.517.63-1.024 1.25-1.509 1.836ZM32.361 9.614c-.049.049-.081.086-.113.124a6.967 6.967 0 0 0-1.105 1.772c-.038.097-.01.14.086.194.399.2.792.41 1.186.614.28.146.554.291.818.426l1.525-1.853c-.787-.42-1.584-.846-2.397-1.277Zm11.803 6.158c-.684.544-1.358 1.072-2.031 1.605l.092.054c.635.329 1.271.657 1.901.991.108.06.194.06.302-.005.533-.318 1.077-.63 1.6-.96.2-.123.366-.285.533-.414-.813-.43-1.61-.857-2.397-1.271Zm-1.89-9.503c-1.693-.275-4.014.01-5.291.495.533.28 1.061.56 1.595.84.242.13.242.13.506-.02.668-.378 1.384-.701 2.128-.97.34-.13.69-.227 1.061-.345Zm.549 12.778c.005 0 .01-.01 0-.016-.054-.032-.087-.048-.119-.07-.528-.275-1.061-.55-1.584-.83-.107-.059-.177-.054-.296.011-.883.496-2.365.776-3.383 1.088l.005.291c0-.01.081.011.092.011 1.805.22 3.54.043 5.285-.485Zm5.209-9.756c-.005.065-.016.13-.021.188-.092.84-.394 1.654-.82 2.457-.048.092-.037.14.07.194.54.275 1.073.555 1.606.83.038.021.08.032.135.053.188-1.346-.119-2.585-.97-3.722Z" fill="#CCC"/>
    <path d="M62.244 9.318h4.74v1.54h-3.07v2.71h2.79v1.541h-2.79v2.71h3.345v1.54h-5.015V9.319ZM68.1 9.318h1.74l1.362 4.25h.668v-4.25h1.676v4.25h.668l1.363-4.25h1.74l-1.605 5.02 1.605 5.022h-1.74l-1.363-4.251h-.668v4.25H71.87v-4.25h-.668l-1.363 4.25H68.1l1.606-5.02-1.606-5.021ZM78.141 9.318h1.675v4.25h.313l2.02-4.25h1.853l-2.375 5.02 2.375 5.022H82.15l-2.02-4.251h-.313v4.25h-1.675V9.319ZM84.837 13.778h3.346v1.115h-3.346v-1.115ZM89.298 9.318h1.675v5.888l2.376-5.888h1.81V19.36h-1.675v-5.894l-2.365 5.894h-1.821V9.318ZM96.269 9.318h2.564l1.821 7.488h.011l1.821-7.488h2.564V19.36h-1.676v-7.176l-1.74 7.176h-1.95l-1.74-7.176v7.176H96.27V9.318ZM106.176 9.318h5.856V19.36h-1.676v-8.502h-2.51v8.502h-1.676V9.318h.006ZM113.433 9.318h3.625c.313 0 .577.107.792.323.216.215.323.48.323.792v7.811c0 .313-.107.577-.323.792a1.075 1.075 0 0 1-.792.323h-3.905v-1.54h3.07c.183 0 .28-.092.28-.28v-2.43h-2.79v-1.54h2.79v-2.43c0-.183-.091-.28-.28-.28h-2.79V9.317ZM119.289 9.318h1.675v4.25h.312l2.021-4.25h1.853l-2.376 5.02 2.376 5.022h-1.853l-2.021-4.251h-.312v4.25h-1.675V9.319ZM127.094 9.318h3.626v1.54h-2.791c-.188 0-.28.092-.28.28v6.406c0 .189.092.28.28.28H131v1.535h-3.906c-.312 0-.576-.107-.792-.323a1.079 1.079 0 0 1-.323-.792v-7.811c0-.313.108-.577.323-.792.216-.216.48-.323.792-.323ZM19.685 10.083a6.024 6.024 0 0 0 0 .442c0 .08.01.317.021.398l.157.086 5.333-.021.35-.296c2.284-4.72 9.535-8.043 18.015-7.833a28.84 28.84 0 0 1 5.759.71C46.292 1.534 41.988.204 37.166.085c-9.433-.237-17.26 4.24-17.481 9.999Z" fill="#fff"/>
    <path d="m19.841 11.085-.205-.113-.005-.038c-.01-.08-.016-.29-.021-.388v-.016a6.174 6.174 0 0 1 0-.447c.107-2.812 1.998-5.409 5.322-7.31C28.245.875 32.587-.105 37.161.008c4.681.118 9.013 1.357 12.197 3.501l.339.232-.399-.091a29.076 29.076 0 0 0-5.742-.712c-4.105-.102-8.011.61-11.297 2.064-3.179 1.4-5.538 3.437-6.648 5.732l-.006.016-.382.323-5.382.01Zm-.065-.21.103.054 5.285-.022.312-.27c1.132-2.316 3.513-4.374 6.718-5.79 3.308-1.46 7.235-2.177 11.361-2.075 1.838.044 3.637.254 5.366.625C45.802 1.415 41.643.262 37.156.154c-9.374-.231-17.18 4.218-17.396 9.929a5.99 5.99 0 0 0 0 .436v.016c.006.081.011.248.016.34Z" fill="#fff"/>
    <path d="m47.051 5.224 1.536-1.401.29-1.12L48.216.73l3.906 3.388-5.07 1.105Z" fill="#fff"/>
    <path d="m46.788 5.358 1.729-1.573.28-1.077-.743-2.214 4.234 3.674-5.5 1.19ZM48.377.973l.582 1.724-.302 1.169-1.341 1.223 4.643-1.008L48.377.973ZM19.701 10.665c.108.048.216.145.323.145 1.67.01 3.335.016 5.005-.005.172 0 .34-.178.512-.27.032.146.016.324.097.437 1.993 2.963 4.002 5.91 6.007 8.862.635.937 1.276 1.869 1.912 2.8.7-.242 1.363-.468 2.08-.716-1.267-1.438-2.484-2.812-3.696-4.19-1.724-1.967-3.437-3.933-5.156-5.9.334.318.684.62.997.954 2.57 2.769 5.14 5.543 7.698 8.323.097.108.151.259.221.388l.226-.113c0-.695.011-1.39-.01-2.085-.006-.119-.124-.264-.232-.35-1.438-1.207-2.915-2.376-4.326-3.615a89.506 89.506 0 0 1-4.595-4.342c2.666 2.24 5.333 4.477 8.043 6.755.016-.204.021-.344.043-.484.08-.55.345-.787.9-.798.43-.01.861 0 1.325-.075-3.4-1.977-6.799-3.954-10.193-5.931.016-.033.038-.065.054-.098.717.388 1.428.776 2.144 1.164.259.14.517.28.77.42 2.64 1.439 5.27 2.893 7.93 4.294.717.377 1.051.824.916 1.616-.021.113 0 .237 0 .259.62.355 1.191.684 1.762 1.007-.01.038-.016.07-.027.108h-2.957v1.4h.549c1.481 0 2.957-.005 4.439.006.172 0 .372.016.512.102.706.415 1.395.862 2.074 1.38h-5.942c-.011.032-.027.064-.038.096.135.124.334.221.399.378.091.231.118.506.102.754-.005.059-.29.145-.447.145-1.66.01-3.319 0-4.978.016-.43.006-.743-.107-.921-.533-.264-.641-.7-.867-1.444-.867-6.276.037-12.552.026-18.828.01-.431 0-.727.108-.878.501-.291.765-.857.927-1.627.895-1.476-.06-2.958-.011-4.44-.027-.182 0-.516-.113-.516-.178-.006-.259.07-.528.172-.77.054-.13.221-.216.437-.405H.043c-.01-.032-.027-.07-.037-.102.738-.458 1.476-.921 2.225-1.363.102-.059.264-.032.398-.032h5.048a89.058 89.058 0 0 0-.07-1.368H4.666c-.017-.038-.033-.081-.049-.119.566-.334 1.126-.668 1.692-.997.032.033.07.065.102.097a16.993 16.993 0 0 1-.038-.748c-.016-.404.049-.755.464-.98 3.684-2 7.364-4.009 11.049-6.013.037-.022.08-.022.161.043-3.345 1.945-6.685 3.89-10.03 5.834l.016.081H9.04c.889-.005 1.077.146 1.212 1.008.01.07.022.145.038.274.83-.7 1.621-1.379 2.419-2.047a2308.57 2308.57 0 0 1 5.565-4.66c.123-.102.274-.167.409-.253-1.438 1.325-2.855 2.672-4.32 3.965-1.633 1.438-3.13 3.039-4.984 4.218-.118.076-.231.264-.231.399.005.679.048 1.358.08 2.1.13-.118.205-.177.275-.247 1.358-1.465 2.715-2.936 4.078-4.401 1.687-1.816 3.384-3.62 5.075-5.43-.118.166-.22.35-.355.506-2.85 3.238-5.7 6.47-8.55 9.708-.092.102-.172.215-.275.35.722.242 1.38.463 2.053.695l.21-.286c1.761-2.591 3.518-5.182 5.285-7.768.878-1.325 1.777-2.624 2.677-3.927Zm-6.319 9.917h18.306c-.243-.382-.474-.69-.652-1.029-.14-.269-.329-.328-.609-.323-1.061.016-2.122.006-3.178.006-4.197 0-8.394 0-12.585.005-.162 0-.388.027-.474.135-.28.355-.512.754-.808 1.206Zm1.584-2.36H30.12c-.232-.619-.55-.926-1.277-.915-4.18.043-8.36.043-12.541 0-.738-.005-1.1.264-1.336.916Zm-3.927 4.8c.005-.026.01-.058.021-.085-.533-.178-1.056-.378-1.594-.528-.485-.135-.68-.442-.695-.91a229.72 229.72 0 0 0-.092-1.924c-.027-.49.145-.91.609-1.094.538-.21.587-.592.522-1.077-.048-.356-.194-.533-.576-.523-.507.022-1.018.027-1.52.006-.883-.043-1.04.021-.834 1.034.037.194.29.388.49.496.485.258.733.625.727 1.18 0 .598.027 1.195.043 1.788.016.738-.054.835-.743 1.056-.485.156-.964.318-1.45.48.006.026.017.059.022.086 1.686.016 3.378.016 5.07.016Zm28.056-.01c.01-.027.022-.054.032-.086l-1.546-.512c-.517-.172-.668-.377-.652-.921.022-.625.065-1.255.065-1.88 0-.534.215-.905.684-1.159.577-.312.7-.544.577-1.185-.027-.145-.248-.355-.388-.36-.7-.038-1.406-.033-2.107-.006-.145.005-.35.124-.414.248-.237.452-.065 1.04.387 1.277.501.264.695.651.652 1.206a48.57 48.57 0 0 0-.097 1.967c-.016.414-.215.657-.608.78-.56.178-1.121.372-1.681.556a.32.32 0 0 1 .01.07c1.703.005 3.395.005 5.086.005ZM16.027 16.59h13.048c-.156-.49-.447-.64-.943-.635-3.717.021-7.44.021-11.157.005-.485-.005-.819.092-.948.63Zm.743-1.158h11.545c-.102-.393-.323-.5-.695-.495a1067.5 1067.5 0 0 1-10.155 0c-.371-.006-.598.097-.695.495Zm.599-.9h10.36c.015-.048.031-.102.048-.15-.178-.076-.35-.189-.534-.21-.296-.038-.598-.011-.894-.011h-8.426c-.274-.005-.517.005-.554.372Zm9.896-.7c.016-.048.027-.097.043-.14-.178-.054-.356-.156-.539-.156-1.196-.01-2.386-.005-3.582-.005h-4.881c-.216 0-.469-.049-.48.301h9.439Zm-.388-.576c.01-.049.016-.097.027-.146-.146-.021-.291-.07-.431-.07-.717-.005-1.433-.005-2.144-.005-1.891 0-3.787 0-5.678.005-.157 0-.318.049-.474.081.01.049.021.092.032.14 2.887-.005 5.775-.005 8.668-.005Zm-.286-.485c-.463-.259-7.881-.205-8.129 0h8.13Zm-.242-.377v-.092h-7.607v.092h7.607Zm-.232-.356v-.059h-7.17v.06h7.17Zm-6.96-.344c.005.021.005.043.01.064h6.746v-.064h-6.756Zm6.535-.184c-.006-.016-.006-.032-.011-.048h-6.32v.048h6.33Zm-.103-.194v-.048h-6.066v.048h6.066Zm-5.812-.398.016.048h5.51v-.048h-5.526Zm5.548.22c0-.01-.005-.026-.005-.037h-5.112v.038h5.117ZM38.346 22.15l-.948-.873c-.06.641.038.728.948.873Zm-30.69-.84-.922.856c.938-.183 1.013-.253.921-.856Z" fill="#fff"/>
    <path d="M58.51 17.819c.049-3.534-2.79-6.653-7.16-8.539 1.288 1.54 2.005 3.292 1.983 5.15-.08 6.19-8.36 11.216-18.5 11.222-2.02 0-3.96-.2-5.775-.566 3.082 1.961 7.419 3.179 12.24 3.179 9.428-.006 17.137-4.682 17.212-10.446Z" fill="#E21C1C"/>
    <path d="M41.276 28.34c-4.681 0-9.034-1.131-12.266-3.19l-.345-.22.404.08a29.16 29.16 0 0 0 5.743.566h.016c10.08-.005 18.343-5.004 18.424-11.146.022-1.8-.636-3.512-1.96-5.101l-.206-.248.297.129c2.198.948 4.019 2.22 5.263 3.674 1.293 1.508 1.966 3.216 1.94 4.94-.038 2.812-1.86 5.457-5.134 7.445-3.265 1.977-7.58 3.07-12.16 3.076-.005-.005-.01-.005-.016-.005Zm-11.824-3.098c3.167 1.902 7.348 2.947 11.824 2.947h.017c9.379-.005 17.066-4.654 17.142-10.37.021-1.686-.636-3.356-1.907-4.838-1.18-1.374-2.877-2.58-4.924-3.507 1.201 1.53 1.82 3.238 1.799 4.956-.038 3.022-1.999 5.861-5.517 7.995-3.507 2.128-8.145 3.297-13.058 3.302h-.016c-1.826 0-3.631-.162-5.36-.485Z" fill="#fff"/>
    <path d="m32.129 23.508-1.535 1.4-.291 1.121.662 1.972-3.905-3.389 5.069-1.104Z" fill="#E21C1C"/>
    <path d="m31.122 28.243-4.235-3.674 5.5-1.19-1.729 1.572-.28 1.078.744 2.214Zm-3.9-3.593 3.576 3.108-.581-1.724.301-1.169 1.342-1.223-4.639 1.008Z" fill="#fff"/>
</svg>
