<svg width="282" height="242" fill="none" xmlns="http://www.w3.org/2000/svg"><path d="M182.295 175.635c-42.687-42.393-112.067-42.393-154.649 0L0 148.18c57.94-57.542 152.107-57.542 210.048 0l-27.753 27.455z" fill="#fff"/><path d="M182.295 175.635c-42.687-42.393-112.067-42.393-154.649 0L0 148.18c57.94-57.542 152.107-57.542 210.048 0l-27.753 27.455z" fill="#000" fill-opacity=".1"/><path d="M177.082 241.331c-38.046 0-76.092-14.417-105.13-43.146l27.66-27.466c42.709 42.41 112.125 42.41 154.728 0L282 198.185c-28.72 28.729-66.766 43.146-104.918 43.146z" fill="#fff"/><path d="M177.082 241.331c-38.046 0-76.092-14.417-105.13-43.146l27.66-27.466c42.709 42.41 112.125 42.41 154.728 0L282 198.185c-28.72 28.729-66.766 43.146-104.918 43.146z" fill="#000" fill-opacity=".1"/><path d="M200.663 45.361c0 25.107-20.561 45.362-45.809 45.362-25.354 0-45.808-20.36-45.808-45.362C109.046 20.254 129.606 0 154.854 0c25.355 0 45.809 20.254 45.809 45.361z" fill="#fff"/><path d="M200.663 45.361c0 25.107-20.561 45.362-45.809 45.362-25.354 0-45.808-20.36-45.808-45.362C109.046 20.254 129.606 0 154.854 0c25.355 0 45.809 20.254 45.809 45.361z" fill="#000" fill-opacity=".1"/></svg>