<?xml version="1.0" encoding="utf-8"?>
<svg width="131" version="1.1" id="Слой_1" xmlns="http://www.w3.org/2000/svg" xmlns:xlink="http://www.w3.org/1999/xlink" x="0px" y="0px"
	 viewBox="528 26.8 1897.8 541.5" style="enable-background:new 528 26.8 1897.8 541.5;" xml:space="preserve">
<style type="text/css">
	.st0{opacity:0.2;}
	.st1{clip-path:url(#SVGID_2_);}
	.st2{fill:#CCCCCC;}
	.st3{fill:#FFFFFF;}
	.st4{fill:#E21C1C;}
	.st5{clip-path:url(#SVGID_4_);fill:#CCCCCC;}
	.st6{clip-path:url(#SVGID_6_);fill:#E21C1C;}
	.st7{clip-path:url(#SVGID_8_);fill:#FFFFFF;}
	.st8{clip-path:url(#SVGID_10_);}
	.st9{clip-path:url(#SVGID_12_);fill:#CCCCCC;}
	.st10{clip-path:url(#SVGID_14_);fill:#E21C1C;}
	.st11{clip-path:url(#SVGID_16_);fill:#FFFFFF;}
</style>
<g class="st0">
	<g>
		<defs>
			<path id="SVGID_1_" d="M1523,432.4c11.2-11.2,17.6-23.7,17.6-39.9V115.1c-1.9-24.9-9.3-32.2-20.6-43.2c-5.1-5-17-11.8-32.8-13.1
				l0,0l880.6-1.5V481l-882.7-31.2v-1.3C1502.6,449.4,1518.3,437.6,1523,432.4z"/>
		</defs>
		<clipPath id="SVGID_2_">
			<use xlink:href="#SVGID_1_"  style="overflow:visible;"/>
		</clipPath>
		<g id="zoQHMf.tif_3_" class="st1">
			<g>
				<path class="st2" d="M1474.8,57.5c2.7,0,5.5,0,8.2,0c4.4,0.5,8.7,1.3,13.1,1.6c12.4,1,24.6,3,36.9,4.9c14.9,2.3,30,3.7,44.9,6.3
					c13.9,2.4,27.9,3.8,41.9,5.8c12.8,1.8,25.5,3.8,38.3,5.6c14.5,2,29,3.9,43.4,5.9c18,2.5,36,4.9,54,7.6
					c8.9,1.3,17.9,1.7,26.8,2.7c13.5,1.6,26.9,3.7,40.4,5.4c12.5,1.6,25,2.8,37.5,4.5c20.7,2.8,41.4,5.9,62.1,8.9
					c14.3,2,28.6,3.9,42.9,5.9c9.6,1.4,19.1,3,28.7,4.3c15.8,2.2,31.6,4,47.3,6.3c15.9,2.2,31.8,4.8,47.7,7.2
					c18.3,2.7,36.7,5.3,55,8c9.9,1.4,19.8,2.9,29.8,4.3c18.5,2.6,37,5.2,55.5,7.7c6.4,0.9,12.5,3.6,18.6,4.2
					c11.3,1.1,22.7,2.1,34,3.4c12.8,1.5,25.5,2.8,38.3,4.6c10.9,1.5,21.9,2.5,32.7,4.6c3.8,0.7,8.4,0.8,9.2,4.8
					c1,4.5,2,9.9-2.9,13.7c-2.5,1.9-4,4.3-3.8,7.9c0.4,8.1,3.4,15.9,2.1,24.2c-0.3,1.6,0.5,3.3,0.8,5c0.6,4.2,1.7,8.8,1.2,12.6
					c-0.6,4.1,0,8-0.3,11.9c-0.6,6.3,3.7,12.3,0.7,19c-0.9,2-1.3,7.7,3,8.5c5.9,1.1,6.8,4.7,6.9,9.5c0,2.5,1,5.2,0.5,7.6
					c-1.1,4.6,1.2,11-5.9,13c-1.5,0.4-1.1,1.9-0.7,3.1c1.5,5.1,1,10.5,2.2,15.6c1.3,5.3-1.5,10.7,0.5,15.6c1.3,3.4,0.5,4.6-2.3,5.7
					c-2.8,1.1-3.7,3.3-3.4,6.2c0.2,1.3,0.6,2.7,0.7,4c0.2,3.3,0.9,7.4-3,8.8c-3.8,1.5-7.8,1.1-9.1-4.2c-0.2-1-1.4-2.2-2.2-1.4
					c-2.7,2.4-7.6,4.5-7.5,7.6c0.2,8-6.9,12.3-8.5,19.4c-1,4.3,0.1,3.8,2.7,3.8c6.7,0,13.4,0.5,20-0.1c8.3-0.8,15.7,22.5,13.7,20.7
					c-0.4-0.4-0.7,0.3-0.6,0.9c1.4,4.5-2.3,3.7-4.5,3.9c-2.3,0.2-5.5,0.8-5-3.5c0.2-1.7-0.9-0.8-1.6-0.8c-6.6,0.3-13.3,0.2-19.9,1.3
					c-1,0.2-2-0.3-2.5,1.6c-0.8,3.1-7.6,3.8-9.1,0.8c-1.1-2.3-2.1-1.7-3.9-1.6c-12.8,0.5-25.4,1.9-38.1,3c-16.4,1.4-33,1.7-49.5,2.2
					c-17.6,0.5-35.1,1.7-52.6,2.4c-4.8,0.2-9.9-1.4-14.8,0.7c0.8,2.1,3.4,0.9,3.8,3.2c-2.9,1.4-6.7,2.5-8.3-0.5
					c-1.2-2.1-1.7-2-3.6-2.2c-6.5-0.9-12.9,0.7-19.3,0.8c-16.4,0.3-32.7,1-49,1.9c-21.1,1.1-42.1,1.5-63.2,2.2s-42.3,1.5-63.4,2.2
					c6,0.1,12,0.1,17.9,0.2c1.3,0,3.8-0.5,3.2,1.8c-0.5,2-1,2.4,1.3,1.7c1.1-0.4,2.6-0.8,2.8,1c0.2,1.4-1.3,1.4-2.2,1.7
					c-1.9,0.6-3.9,2.4-5.7,1.1c-4.9-3.5-10.8-2.6-16-4.2c-10-3.1-20-4.6-31.3-2.1c6.3,0.9,11.9-1.2,17.1,1.6
					c-5.4,1.3-10.8,3.3-16.4,1.2c-7.1-2.6-14.3-3.7-22.5-2.5c3.7,1.9,7.7-0.6,11.3,3.3c-5.9,0.2-11,1.9-15.5,0.1
					c-8.2-3.3-16.7-2.7-25.1-2.8c-1,0-2.4-0.4-2.7,0.7c-1,3.5-3.2,1.9-5.3,1.7c-6.6-0.6-13.4-3.1-21.2,0.7c5.9,0,10.5,0.3,15-0.1
					c4.3-0.4,6.5,2.4,9.1,4.8c1.4,1.3-0.6,2.5-1.4,2.1c-2.5-1.4-4.7-3.4-7.8-1.6c-2-4-5.4-1.5-8.2-1.9c1,0.3,2.5,0.4,1.8,1.7
					c-0.8,1.5-1.8,3.4-3.9,3.6c-0.9,0.1-2.2,0.2-2.4-1.3c-0.4-3.6-4.1-5-6-6c-6.5-3.3-13.9-2.8-21.1-1.6c3.2,0.5,6.4,0.5,9.6,0.5
					c2.5,0,5.3-0.1,6.1,2.6c0.8,2.9-2.9,2-4,3.6c-0.8,1.2-1.9,1.9-3.4,0.6c-1.8-1.7,0.9-2.2,0.9-3.5c-1.8,0.1-2.9,1-4,2.1
					c-2.1,2.3-2.4,2.3-3.4-0.6c-0.6-1.7-1.9-1.4-2.9-1.6c-1.4-0.3-2.2,0.5-1.5,2.2c0.5,1.2-0.3,2.5-1.3,1.9c-2.4-1.6-5.9-0.2-8-3
					c1.7-1.1,5-0.9,4.6-3.1c-0.5-2.3-3.3-1.6-5.3-1.6c-0.7,0-1.4,0-2.1,0c-6.6,0-13.3,1.8-19.5,1.4c-8.9-0.6-17.4,1.1-26.1,1.3
					c8.4,1.1,17.4-2.8,24.9,3.7c-0.8,1.3-1.3,3.4-3.8,4.2c-0.9-3.3-3.3-4.4-6.4-4.9c-4.6-0.7-9,0.8-13.6,1.1c-2.3,0.1-6,4.1-6.5-2
					c0-0.4-1.7-0.8-2.7-1.1c-7.4-2-14.6-0.4-21.9,0.5c4.4,0.3,8.9,0.3,13.3,0.2c3.8-0.1,5.7,2.4,7.2,5.3c0.4,0.8,1.1,2,0.1,2.8
					c-1.2,0.9-1.8-0.4-2.4-1.2c-3.4-4.3-8.8-2.2-13.1-4c-2-0.8-2.8,1.1-2.3,3.3c0.2,1.1,0.5,2.7-1,3c-1.7,0.3-1.6-1.5-2-2.5
					c-1.1-2.6-2.8-5.1-5.5-5.7c-7.8-1.8-15.8-1.8-23.7-0.7c5.3,1.7,11.1-0.7,16.3,2.3c-5.2,1.6-10.5,1-15.7,1.2
					c-2.9,0.1-5.9,0-6.1,4.1c-0.1,1.2-0.8,1.8-2,1.8c-1.6-0.1-2.5-1.2-3.1-2.4c-0.7-1.4,0.8-1.3,1.4-2c1.4-1.3,3.3-2.8-0.7-3.9
					c-4.2-1.2-8.3-0.7-12.5-1.1c-6.2-0.6-11.7,4.5-18.1,2c-6.7-2.6-13.5,0.2-20.3-0.7c0,0.5,0,1,0,1.5c5.9,0,11.8,0,17.7,0
					c-4,1.2-6.6,3-8.9,6.5c-1.3,2-4.3,3.7-7.2,4.4c-2.6,0.6-5.2,1-5.8-2c-0.6-3,2-3.8,4.6-3.9c0.1,0,0.2-0.5,0.4-0.9
					c-1.3-2-3.5,0-5.2-1.2c-5-3.4-5.2-3.1-7.6,2.5c-0.5,1.1,0.6,3.6-1.9,3.4c-2-0.1-2-1.9-2.5-3.4s-1.4-2.8-3.2-2.8
					c-2,0-1.8,1.6-2.1,2.9c-0.2,0.8-0.6,1.6-0.8,2.4c-0.3,1.3-0.5,2.4-2.3,1.7c-1.2-0.4-2.7-1.4-2.2-2.4c3.1-5.4-1.8-4.3-4.1-5
					c-3.6-1.1-7.2-2.1-10.9-2.5c-3.8-0.4-7.7-0.1-11.6-0.1c3.4,1.2,6.8,1.2,10.2,1.2c0.9,0,1.9,0.3,2,1.2c0.2,1.5-1.2,1.4-2.1,1.4
					c-6.1,0.3-12.3,0.3-18.3-1.3c-1.2-0.3-2.3-1-3.3,0.2c-2.1,2.6-2.8,6.9-7.7,5.9c-0.3-0.1-0.9,1-1.1,1.6c-0.6,1.4-1.4,2-2.7,0.9
					c-1.2-1-0.9-2,0.1-3c0.8-0.8,1.4-1.7,2.4-2.9c-7.8-0.6-15.3-0.2-22.2-3.9c1.7,4.5,1.7,4.5-3.1,4.7c-1.7,0-3.4-0.1-5.1,0
					c-5.2,0.6-10.3-1-15.5-0.5c1.8,1.2,4,0,5.8,1.5c-1,2.5-4.3,1.8-5.6,4c-1.7,2.8-2.7,1.9-3.2-0.9c-0.5-2.7-1.4-3.2-3.4-0.7
					c-2.8,3.4-4.7,2.9-5.8-1.1c-0.6-2-2.3-1.6-3.3-1.2c-3,1.2-5.6,0.3-8.3-0.9c-1.8-0.8-3.6-1-5.8,0.1c-2.3,1.2-5.3,1.4-8,1.5
					c-6.5,0.2-12.3,1.9-17.8,5.9c-0.8-2,0.2-3.3,1.2-4.7c0.5-0.7,2-1.4,1-2.5s-2.3-0.5-3.1,0.5c-1.8,2.2-4.2,2.1-6.6,1.9
					c-3.8-0.2-7.1-0.3-5,5.3c0.6,1.5-0.2,3.3-2.1,3.4c-2,0.1-2.5-1.3-2.1-3.2c0.6-3-1.6-5.4-3.7-5c-4,0.7-6.9-1.9-10.6-2.3
					c1.8,4.2,1.1,5.1-3.1,4.9c-1.7-0.1-3.3-2.3-5.2-0.4c-2.3,2.3-3.7,0.7-4.7-1.5c-1.8,1.3,0.7,3.6-1.1,4.3
					c-2.1,0.8-2.8-1.6-3.9-2.7c-1.2-1.3-2.7-2-4.3-2.5c-3.6-1.3-7.2-2.4-10.8-3.6c-0.3,2.3,3.7,2.3,2.7,4.2c-1,2.1-3.7,0.8-5.6,1.1
					c-0.2,0-0.5,0-0.1,0c2.5,3.6,6.2,1.2,9.7,1.3c1.4,0.1,2.8,0.3,2.9,2.1c0,0.9-0.6,2.3-1,2c-3.4-2.7-6.9,0.1-10.2-0.6
					c-6-1.3-12-3-17.9-4.9c-2.6-0.9-6.1,0.6-7-3.9c-0.2-1.1-4.1-2.3-4.9-0.8c-1.9,3.6-4.7,2.1-6.5,1.2c-4.4-2.1-8.5-0.4-12.7,0.1
					c4.6,2.4,9.6,1.7,14.3,1.4c4.8-0.3,7.3,2.3,9.8,5.4c0.8,1.1,1.8,2.2,0.5,3.6s-2.4,0.5-3.5-0.4c-2.5-2.1-5.1-2.4-7.9-0.5
					c-1.9,1.3-4.4,1.7-5.7,0.2c-2.1-2.4,2.9-1.7,2.2-4.3c-6.8,0.8-12.2-3.9-18.7-5.7c0.8,2.2,1.7,3.7,4,3.7c5.2,0.1,9.1,3,10.5,7.4
					c0.5,1.7,0.6,3-1.4,3.7c-1.9,0.7-3.9,1.8-5.7,0.1c-2-1.9-0.1-2.5,1.3-3.2c0.3-0.1,0.4-1.2,0.3-1.3c-1.9-1.1-2.9-4.2-5.3-3.4
					c-1.4,0.5-5.5-2.1-4.4,3c0.4,2-1.8,0.8-3.1,0.8c-3.9-0.1-6.2-4.5-10.2-3.7c-2.9,0.6-5.2-0.6-7.6-2.1c-4.4-2.6-8.7-5.5-14.2-4.5
					c-1.9,0.3-4.2,0.7-4.3-2c0-2.4,2.4-1.8,4-1.9c19.7-1.5,39.5-0.8,59.3-1.9c18.5-1.1,37.1-1.1,55.7-1.7
					c28.9-0.8,57.9-1.7,86.8-2.6c11.1-0.3,22.2-0.6,33.2-0.7c36.5-0.4,72.9-2.3,109.4-3.2c17-0.4,34-1,51-1.8
					c24.3-1.1,48.7-0.5,73-3.4c16.7-2,33.7-1.2,50.5-2c22.6-1,45.3-1.2,68-2.2c19.7-0.8,39.4-1.5,59.1-2c24.2-0.6,48.3-1.3,72.5-2.2
					c17.7-0.7,35.4-1.7,53.1-1.9c23.4-0.3,46.7-2.1,70-2.3c10.9-0.1,21.8-0.6,32.6-1.4c14.9-1.1,29.9-1.4,44.8-2.5
					c21-1.5,42.1-1,63-3.9c8.5-1.2,17.3-0.8,26-1.3c9.7-0.6,19.4-1.1,29.1-1.5c10.1-0.5,11.4-3,2.2-2.8c-8.8,0.2-17.7,0.4-26.4,1.1
					c-15.4,1.3-30.9,2.1-46.3,3.7c-16.9,1.7-34,0.9-50.9,2.2c-17.7,1.3-35.4,1.5-53.1,1.9c-23.1,0.5-46.2,1.4-69.3,2.5
					c-22.4,1.1-44.8,2.2-67.3,2.9c-10.3,0.3-20.8,0.2-30.9,1.3c-11.9,1.3-23.8,1-35.6,1.7c-17.2,1-34.6,0.9-51.8,1.8
					c-17.9,0.9-35.7,0.1-53.6,1.1c-22.6,1.2-45.3,0.6-67.9,1.4c-15.9,0.5-31.8,2.5-47.7,2.9c-28.1,0.7-56.3,1.2-84.4,2
					c-25.2,0.7-50.4,1.2-75.7,2.1c-22.1,0.7-44.3,1.4-66.4,2c-28.8,0.8-57.6,1.1-86.4,2.2c-20.4,0.7-40.9,1.2-61.3,2
					c-21.3,0.8-42.5,1-63.8,2.1c-1.6,0.1-4.2,0.6-4.2-1.6s2.6-2.1,4.4-2.2c7.3-0.3,14.6-0.8,21.8-0.9c19.6-0.4,39.1-0.5,58.7-1.3
					c6.8-0.3,13.7-0.9,21.6-1c-2.3-1.6-3.6-1.2-5-1.2c-23,0.2-46,0.8-69,2.1c-9.5,0.5-19.1-0.8-28.6,0.9c-1.6,0.3-4.4,0.5-4.6-2
					c-0.1-2.5,2.5-1.6,4-1.7c17.5-0.8,35-1.4,52.5-2.1c15.3-0.7,30.7-0.9,46-1.2c6.3-0.1,12.8-0.6,19.7-1c-1.9-2.6-3.9-2.9-6.2-3.1
					c-3.6-0.3-7.1,0.9-10.7,0.9c-20.3-0.1-40.6,1.4-60.9,1.3c-9.4,0-18.8-0.8-28.3,0.7c-4.3,0.7-8.9,0.1-13.3,0
					c-1,0-2.2-0.2-2.1-1.6c0.1-0.9,0.7-1.4,1.7-1.5c3.9-0.3,7.8-1.1,11.6-0.9c30.2,1.1,60.3-0.4,90.5-0.8c3.3,0,6.7-0.8,10.6-1.3
					c-3.6-4.1-6.7-7.9-8.4-12.6c-1.4-3.9-2.2-8-7.6-8.1c-1.5,0-1.4-1.7-1.8-2.8c-4.5-12.1-6.1-24.9-8.1-37.5
					c-0.5-3.1-1.9-6.4,1.8-8.7c4-0.8,5.4,1.8,6.2,4.9c0.7,2.7,2.8,3,4.8,2.4c3.2-0.9,2.9-4.3,3.4-6.7c0.5-2.1-1.7-2.5-3.5-2.7
					c-3.8-0.3-7.4,0.4-11,1.8c-2.8,0.5-5.7,0.8-8.5,1.6c-5.8,1.6-11.9,2.8-17.7,1.4c-10.2-2.5-20.3-3.1-30.7-2.8
					c-7.5,0.3-9.3-2.5-8.8-10.1c0.4-5.4-0.4-10.8-0.8-16.3c-0.1-2-1.7-2.9-3.5-3.2c-3.3-0.6-4.1-2.8-4.6-5.8
					c-1.9-12-0.8-24.1-0.9-36.2c0-2.1,0.9-4.2,2.7-4.6c6.1-1.2,5.8-5.5,5.5-10c-0.2-3.7,0-7.5-0.1-11.2
					c-0.1-34.2,0.2-68.4-0.6-102.5c-0.4-16.7,0.2-33.3-0.2-50c0-1-0.1-2.2,1.2-2.4c1.2-0.2,2.2,0.8,2.1,1.7
					c-0.3,3.9,2.3,7.1,2.4,10.9c0.3,8.6,0.8,17.2,1,25.8c0.3,16.9,0,33.7,0.8,50.6c0.7,15.6,0.5,31.3,0.2,46.9
					c-0.4,25.9,0.9,51.8,1.1,77.7c0.1,9.7,0,19.5-0.1,29.2c0,1.9-0.3,4.2,2.2,4.5c3,0.3,6.2,1.1,8.9-0.9c0.9-0.6,0.4-1.5,0-2.3
					c-3.6-7.4-2.4-15.9,3.1-21.7c1.3-1.4,3.7-3.5,4.4-2.6c1.8,2.4,3,0.9,4.7,0.4c6.6-2,9.4-0.3,10.5,6.5c0.2,1.3,0.6,2.9,2,2.2
					c3.5-1.6,6.7,0.4,10.1,0.1c3.2-0.2,6.7,0.7,6.6-4.5c0-1.3,1.4-1.6,2.8-2.1c3.9-1.4,6,2.4,9.4,2.4c5.8,0.1,11.5-1,17.3-1
					c2.5,0,1.9-2.4,3.4-3.2c1.6,2.1,2,6.8,6.3,2.7c0.5,4.8-0.6,6.3-5.3,5.6c-7.8-1.2-8.4-0.5-9.6,6.9c-0.3,1.7-1.2,3-2.8,4.7
					c8,0.1,15.3,1.2,22.9,0.9c16.3-0.8,32.6-2.4,48.9-3.2c3.6-0.2,5.3-2.2,4.8-5.2c-1.2-7.2-0.3-14.5-1-21.7
					c-1.7-16.7-0.6-33.4-1.5-50.1c-1.1-19,0.3-38.1-1.3-57.1c-0.2-2.9-1.2-5.8-0.8-8.6c1.2-7.7,0.5-15.2-0.1-22.9
					c-0.8-10.4-0.5-20.9-0.8-31.4c-0.3-13.6-0.8-27.2-1.1-40.7c-0.2-9.4-0.2-18.8-0.3-28.2c0-2-0.5-4-3-3.9c-2.3,0.1-4.3,1.2-4.4,4
					c0,1.2-0.1,2.4,0,3.6c1,13.8,0.2,27.7,0.8,41.5c0.9,22.6,0,45.3,1.1,68c0.8,16.8,0.4,33.6,0.6,50.3c0.1,12.6,0,25.2,0.3,37.8
					c0.2,6.4-1.7,12.7,0,19.2c0.7,2.7-0.8,4.7-4.2,5.1c-8,0.8-15.9,1.8-23.9,2.2c-18.5,1-37,2.2-55.4,4.1c-8.1,0.9-16.3,0-24.4,1.6
					c-5.5,1.1-14.4-5.6-14.6-10.4c-0.8-17.6,0.1-35.3-0.7-53c-1.1-23.5-0.1-47.2-0.7-70.7c-0.5-18.2-0.7-36.4-0.5-54.6
					c0-3,1.4-6.8,0.2-8.9c-2.8-5.2,0.8-5.6,3.8-6.4c8.7-2.4,17.4-4.5,26.1-6.8c9.4-2.5,18.8-4.9,28.1-7.6c3.5-1,3.5-1.2,3.5-4.4
					c-1.1,0.7-0.2,2.5-1.6,2.9c-0.8,0.2-1.2-0.3-1.5-0.9c-1.8-3.5,1.7-9.2,6-9.8c0,0.8-0.2,1.7-0.1,2.5c1.2,8.1,1.2,8,9.1,5.7
					c12.8-3.6,25.6-7,38.4-10.5c1.4-0.4,2.9-0.7,3.8,0.4c1.1,1.3,0.1,2.5-0.6,3.7c-0.8,1.3-1.6,2.4-1.1,4.2
					c1.9,7.5,1.1,15.3,1.6,22.9c0.3,5-1,10.2,0.9,15.1c1.2-6.1,1.4-12.5,0.8-18.4c-1.2-12.6-0.3-25.1-0.4-37.7
					c0-5.8,2.8-7.9,8.5-7.1c18.2,2.6,36.3,5.5,54.4,8.1c3.6,0.5,6.8,1,6.1,6.4c1.9-8,7.1-4.7,11.3-4.2c0.9,0.1,2.3-0.1,2.5,1.2
					c0.1,1.1,0.1,2.6-1,3.3c-2.2,1.3-4.7,3.4-6.8,3.1c-6.5-1-9.3,1.9-10.5,7.7c-0.2,1-0.9,1.8-1.3,2.8c-2.7,6.1-2.6,6.4,3.6,8.4
					c0.7,0.2,1.7,0.2,1.8,1.4c-8.7,1.7-11.3,0.3-10.6-6.8c0.5-5.1-1.6-5.6-5.7-6c-5-0.4-11.9,0-14.6-3c-4.2-4.6-9-4.7-13.7-6.1
					c-6.4-1.9-7.2-1.2-7,5.5c0.5,14.9,1.5,29.9,1.9,44.8c0.4,14.8-0.4,29.6,0.6,44.3c0.7,10,1.1,20.1,1.2,30.1
					c0.2,37.8,2.5,75.6,1.6,113.4c-0.2,8.1,1.9,16.2-0.1,24.2c-0.2,0.8-0.2,1.9,0.8,2.2c1.5,0.4,1.8-1,2.5-2
					c8.7-13.1,18.1-25.8,28.9-37.3c2.1-2.2,2.9-1.4,4,0.7c0.9,1.8,0.6,3.7,0.7,5.5c0.1,1.3-0.1,3.2,1.8,3.1c1.9-0.1,0.7-1.9,1-2.9
					c0.7-2.6-1.2-5.4,0.4-8c0.2-0.3-0.4-1.6-0.8-1.6c-3.9-0.6-9.4-2.2-11.2,0.6c-3.5,5.4-4.8,3.2-7.1-0.2c-0.3-0.5-1.2-0.7-1.8-0.8
					c-1.6-0.3-3.2-0.8-2.9-2.8c0.3-1.9,2.1-1.9,3.6-2.1c4.7-0.6,9.1,1.1,13.7,1c15.5-0.4,31,1.3,46.6,1.2
					c10.5-0.1,21.1,1.3,31.6,1.9c2.1,0.1,3,1,4.1,2.9c3.3,5.8,4,12.2,5.1,18.6c0.5,3.1,2.7,3.4,4.8,3.7c1.9,0.2,5.2,0,5.2-2
					c0.1-5.7,4.2-9.6,5.7-14.5c2.5-8.1,6.1-10.9,14.1-9.5c11.3,2,22.8,0.9,34.2,1.5c15.2,0.7,30.5,1.1,45.8,1.5
					c5.7,0.1,7.8,2.2,8.1,7.7c0.2,3,1.4,5.6,2,8.4c0.4,1.8,1.1,1.8,2.8,1.8c6-0.1,6.9-4.2,7.9-8.7c1.7-7.7,4.5-9.5,12.2-8.3
					c1,0.1,2,0.2,3.1,0.2c23.9,0.1,47.7-0.3,71.6,1.9c5,0.5,8.2,1.7,9.2,7.1c0.8-5.1-0.2-9.6-0.8-14.2c-0.4-3-1.7-4.4-5-4.4
					c-6.1,0.1-12.3,0.2-18.4-0.3c-12.2-0.9-24.6-2.3-36.7-1.3c-11.2,1-22.1-0.6-33.1-0.8c-3.8-0.1-4.5,1-4.5,4.1
					c0.1,6.3,0,12.6,0.2,18.9c0.1,3-1.7,3.6-3.8,3.4c-1.8-0.2-4.4-0.3-4-3.4c2.1-17.1-1.6-34-0.6-51.1c0-0.1-0.4-0.3-0.8-0.5
					c-0.7,0.9,0,2.5-1.4,3.2c-2.1-3-1.8-6.4-1.8-9.8c0.1-13.3-0.9-26.5-2-39.7c-0.6-6.9-2.3-14-1.5-20.8c0.8-7.3-0.4-14.3-1-21.3
					c-1-11.7,0.2-23.5-1.5-35.2c-0.2-1.2-0.4-3.1,1.5-3.2c1.7-0.1,1.9,1.5,2.2,2.9c1.2,5,1.1,10.1,1.1,15.3
					c0.9-13.8-2.1-27.5-0.6-41.3c-1.2,1.6-2,2.3-4,2.2c-10.8-0.6-21.4-3.7-32.3-3.7c-4.5,0-5.5-2.5-3.2-6.7c1-1.7,2.7-3.9,0.8-5.5
					c-2.6-2.2-0.4-2.3,0.6-3.7c1.6-2.2,3.7-2.2,5.8-2.2c5.4-0.1,10.9-0.5,17.4,1.4c-3.1-2.3-5.6-1.5-7.9-1.9
					c-18.8-2.7-37.7-5.4-56.5-8c-18.2-2.5-36.4-5-54.5-7.5c-15.8-2.2-31.6-4.6-47.4-6.8c-19.7-2.7-39.4-5.4-59.1-8.1
					c-5.2-0.7-10.3-1.8-15.4,0.9c-2.2,1.2-4.8,2.4-4,5c1.1,3.6-0.9,6.5-0.8,10.7c-3.1-7.2-3.2-7.4-10.1-5.4
					c-11.3,3.2-22.4,7-33.9,9.5c-1.9,0.4-3.6,0.9-5.2-0.6c-0.2-4,3.1-4.5,5.7-5.3c13.5-4.2,26.5-8,39.5-11.8
					c1.2-0.3,2.6-0.4,2.9-1.7C1466.9,59.8,1471,58.8,1474.8,57.5z M1502.4,360.9c-3,3.7-4.1,8.3-4.5,12.8c-1,11.5,0,22.7,2.8,34
					c3.3,13,11.8,20.7,23.6,24.6c13,4.3,25.9-2.5,32.9-14.7c3.2-5.6,4.6-11.9,8.3-17.2c1.4-2-0.5-3.1-1.9-4c-2.3-1.4-2.9,0.9-3,2.1
					c-0.2,6.8-4.1,12.2-7.3,17.7c-7.7,13.4-25.9,16.8-38,7.3c-14.9-11.6-17.4-35.5-13.9-49c0.2-0.8,0.8-1.5,2.2-1
					c0.3,3.2,1.2,7.8,0.5,9.6c-2.7,7.3-0.4,13.7,1,20.3c1.9,8.5,7.1,14.9,14.6,18.7c10.8,5.6,20.9-1.2,26.7-8.7
					c0.7-0.8,1.2-1.9,0.5-2.8c-1-1.4-2.4-0.8-3.7-0.5c-11.7,2.1-25.4-4.8-31.1-14.8c-2.4-4.3-5.6-7.8-4.5-13.3
					c0.6-2.7-3.6-4.5-2.9-6.7c1.5-5.2-2.5-9.3-2.1-14.1c4.2-1.9,5-6.6,8-9.5c10.5-10.1,27.8-12.6,39.4,0.2c1.4,1.5,3.5,2.5,5,1.2
					c1.9-1.6,0.1-3.6-1.2-4.7c-6.6-6-13.4-10.5-23.4-9.8C1518.1,339.4,1505.8,349.9,1502.4,360.9z M2271.1,200.4
					c-2.3-1.3-2.7-4.7-6.4-6c1.9,37,5.7,73.3,7,110.2c9.9-10.3,6.9-8.3,19.8-8.4c5,0,6.5,1.9,6.3,6.9c-0.1,2-0.7,4.5,2.1,5.1
					c6,1.1,12,2.2,18.2,2.3c1,0,2.1-0.1,2.3-1.5c0.1-0.9-0.3-2-1.1-2.1c-3.7-0.5-7.6-0.8-11,0.6c-2.8,1.2-5.8,1.3-7.9,0.1
					c-2.6-1.5-0.3-4,0.8-5.6c1.9-2.7,2.5-5.8,1.8-8.8c-0.8-3.4-0.6-6.8-0.8-10.2c-0.8-11.2-1.7-22.4-2.2-33.6
					c-0.6-14.3-1.9-28.5-2.8-42.7c-0.1-1.7,0-3.5,1.8-4.4c2.3-1.2,9.7,0.3,11.9,2.4c-11.5,0.2-9.8-2-9.9,10.3c0,0.9,0,1.7,0.1,2.6
					c2.3,23.4,3.6,46.8,4.3,70.3c0.3,9.7-0.2,7.4,9,9.4c4.8,1,6.1-0.7,5.3-5.1c-0.1-0.7-0.1-1.4-0.1-2c-1.3-15.6-2.3-31.2-4.1-46.7
					c-1.1-10-0.2-20.1-1.7-30.1c-0.4-2.7-2-5.2-1.2-8.3c2.2-9.4,0.2-12.3-9.3-12.7c-4-0.2-7,0.1-6.4-5.2c0.1-1.1-0.8-2.2-2.4-2.2
					c-2,0.1-3.3-0.4-2.7-3c0.2-1.2-0.6-2.1-2.3-1.4c-1.9,0.8-0.9,1.4-0.2,2.3c1,1.5-0.7,2.9-0.1,4.5c0.3,0.9,0.8,2.1-0.7,2.4
					c-1.1,0.2-1.2-1-1.8-1.5c-0.8-0.6-0.1-2.2-1.5-2.4c-3.4,6.7-3.2,7.1,4.2,7.4c1.5,0.1,3,0.3,4.5,0.6c0.9,0.1,2.1,0.8,1.6,1.5
					c-2.1,2.9,1.7,4.3,1.7,6.6c-1.5,0.8-2.4-0.1-2.9-0.9c-2.6-3.6-6.4-4.7-10.5-5.4c-1.3-0.2-3.3,0.2-3.5-1.4
					c-1-6.5-6.3-5.3-10.3-5.7c-4.3-0.4-7.8-0.6-6.8-7.1c0.7,5.2-1.8,6.6-5.3,5.7c-4.2-1-8.2-1-12.2,0.4c-1-2.4,0.5-4.3,0.2-6.4
					c-0.3-1.8-1.4-4.1,0.2-6c-3-0.5-2.4,3.5-4.7,3.8c-0.3,0-0.6,0-1.2,0c-0.1-2.1-0.2-4.2-0.4-7.5c-0.1,1.9-0.1,2.6-0.2,3.3
					c-0.8,4.4-1.5,4.7-5,1.8c-0.7-0.6-1.6-1.1-2.3-0.4c-1.9,1.9-2.7,4.4-2.6,7c0,2.1,2.2,2,3.8,2.7c2.9,1.3,6.7-0.3,9.3,2.4
					c-1.2,2.2-3.1-0.3-4.2,1.2c2.2,7.1,8.8,4.8,13.5,6.6c4.4,1.6,6.5,0,7.1-4.2c0.4-3.2,2.8-3.9,4.7-2.7c3.9,2.6,7.7,5.7,8.7,10.8
					C2271.9,199.9,2271.5,200.1,2271.1,200.4z M2178,182c-0.8-0.9-1.6-2.4-2.4-2.5c-7.1-0.2-12.2-6.3-19.5-6
					c-3.8,0.1-8.2-0.9-5.8-6.9c0.3-0.7,0.3-2.2-1.1-2c-2.2,6.7,2.4,11.4,5.7,16.3c-2.6,1.1-2.5-2.4-4.7-1c0,3.3-0.2,6.7,0,10.1
					c1.5,19.9,2.2,39.8,3.2,59.7c0.6,13,0.6,25.9,0.9,38.9c0.1,3.1,0.9,6.2,1.5,9.7c5.8-7.8,7.1-9.9,6.9-14.5
					c-0.6-12.9-0.8-25.9-2.3-38.7c-1.9-16.9-2-34-3.8-50.9c-0.2-1.5,0.1-3.1,0.2-4.6c0.1-0.7,0.3-1.4,1.1-1.4c0.8,0,1.2,0.6,1.4,1.2
					c0.4,1.1,0.8,2.2,1.1,3.4c2,6.5,0.6,13.3,1.1,19.9c1.6,20.7,3.2,41.4,3,62.2c0,1.5-0.1,3.1,0.1,4.6c0.8,8.3,0.8,8.4,9.2,9.4
					c3.9,0.5,6.3,1.9,6.6,6.1c0.1,2.6,0.6,5.2,1.1,8.8c1.5-2.5,2.6-4,3.2-5.7c2.6-6.4,7.3-8.2,13.9-7.2c7.1,1,8,0,7-7.2
					c-1.4-11-1.5-22-2.1-33c-0.5-10.7-2.3-21.3-2.5-32c-0.1-8-2.7-15.8-1.7-23.9c0.4-3.4,3.2-6.2,2.4-10c-0.4-1.6,0-3.7,2.2-4
					c2.3-0.2,2.5,2,3,3.5c1.4,4.2,0.2,8.5,0.8,12.7c2.3,18.4,2.9,37,4,55.5c0.6,9.8,0.4,19.7,1.2,29.5c0.6,6.3,0.6,12.7,1.8,19.6
					c3-6.4,6.9-9.9,14.3-8.8c6.4,0.9,7,0.2,6.4-6.6c-1.4-17.3-2.1-34.6-3-52c-0.5-10.8-1.4-21.6-2-32.4c-0.1-1.5-0.5-4,1.9-4
					c1.5,0,1.9,2.2,1.9,3.8c1,23.8,3.8,47.5,3.1,71.4c-0.1,2.9,0.3,5.7,0.6,8.6c0.8,7.4-0.8,14.9,1.2,21.9c-2.6,1.3-2.6-3.2-4.7-0.9
					c-1.1,1.2-2.5,1.7-3.4,2.4c5.3,2.9,7.9,1.1,11.4-4.2c3.8-5.8,4.7-11.4,4.3-17.6c-0.8-10.3-2.4-20.6-2.6-30.9
					c-0.3-16.4-3.3-32.5-3.5-48.9c-0.1-7.4-4.1-12.9-11.3-15.5c-1.2-0.4-2.7-0.9-2.9-2.5c-0.3-2-1.7-2.2-3.3-2.4
					c-2.7-0.2-5.4-0.8-8.1-1c-4.6-0.4-8-1.8-7.4-7.4c-0.7,4.1-0.7,4-4.2,4.3c-4.5,0.4-8.8-1-13.2-1.2c-4.5-0.2-6-2.7-3.9-6.7
					c0.7-1.3,1.5-2.5,1.3-4.3c0.1,4.6-3.3,4.2-5.2,3.1c-2.1-1.2-5-1.4-6.1-2.7c-3.1-3.4-4.3,0.1-4,1.2c0.6,2.6-4.8,6,0.9,7.9
					c3.4,1.1,7.2,1,10.7,2.9c-1.8,1.3-4,0.3-4.9,2.1C2178.6,181.4,2178.3,181.7,2178,182z M2020.4,315.1c0.6,1.3,0.6,3.2,2.9,2.8
					c6.3-1.1,12.5,1.1,18.7,0.6c6.5-0.5,12.8,0.2,19.2,0.5c4.8,0.3,9.6,1,14.7,0.3c-1-2.6-2.9-2-4.5-2c-15.8,0-31.6-0.1-47.4-0.7
					c-1.6-0.1-2.4-0.9-3.5-1.7c0.9-3.4,3.7-2.5,5.9-2.5c15.8-0.1,31.6,1.7,47.5,1c4.9-0.2,7.7,1,7.6,6.7c-0.1,2.9-0.3,6.8,4.3,7.6
					c4.7,0.8,4.7-3.3,6.1-5.9c0.3-0.6,0.7-1.2,0.8-1.9c0.8-4.4,3.5-5.7,7.8-5.5c11.7,0.5,23.5,0.7,35.3,1.3
					c3.2,0.2,6.6,0.2,10.9,2.6c-15.7,3.2-30.3,0.3-43.8,1c10.3,2.6,21.7,0.1,32.8,2.2c2.7,0.5,5.6,1.6,8.1-1.2c1-1.1,2.3-0.1,2.9,1
					c1,1.7,2.1,3.4,2.4,5.5c0.3-2.3,0.3-4.4,0.3-6.6s0-4.4,0-6.7c0-7.4-0.2-7.7-7.4-7.6c-15.7,0.2-31.4-0.3-47-2
					c-3.1-0.3-4.3,1.1-4.4,4.1c0,4.6-0.2,9.2-0.3,13.8c0,2.2-0.5,4.2-3.2,4.3c-3.1,0.2-3.7-2.4-3.8-4.5c-0.3-4,0-8,0-12
					c0-4.7-2.2-6.9-6.9-6.9c-11.3,0-22.5,0-33.8,0c-7.8,0-15.5-0.6-23-3.1c-2.4-0.8-2.7-1.3-1.5-3.4c1.6-2.8,3.5-5.6,4.4-8.6
					c1.6-5.6,5.5-7.2,10.7-7.2c2.2,0,4.4,0,6.7,0c5.8,0,6.3-0.7,5.7-6.6c-1.7-15.9-2.2-31.9-3-47.9c-0.4-8.5-0.3-17.1-1.3-25.5
					c-0.6-5.1-0.7-10.4-1.8-15.6c-0.6-3,0.3-7.9,3-11.4c2.6,41.5,6.5,82.8,5,124.5c3.9-7.5,9.4-14.1,8.6-23.4
					c-1-11-1.1-22.1-1.9-33.1c-1-13.7-0.8-27.5-2.2-41.2c-0.7-7.3-0.1-14.7-0.1-22c0-1-0.2-2.2,1-2.6c1.6-0.5,1.9,1.1,2.6,1.9
					c0.9,0.9,0.9,2,0.6,3.3c-1.6,5.9,0.3,11.9,0.1,17.9c-0.3,14.6,1.1,29.3,1.4,43.9c0.3,11.8,1.8,23.5,1.1,35.3
					c-0.2,2.7,0.9,3.7,3.6,3.6c4.2-0.1,8.5-0.2,12.7,0c2.9,0.2,3.5-1.2,3.4-3.6c-0.4-8.2-0.6-16.3-1.1-24.5
					c-1.3-20.7-2.2-41.5-4.2-62.1c-0.8-8.8,3.6-16.5,3.1-25.2c-0.2-3.1,3.4-3.3,5.5-2c4.4,2.7,7.7,6.7,10.9,10.6
					c0.5,0.6,0.7,1.3,0.2,1.9c-0.8,0.9-1.4,0.2-2.1-0.3c-2.3-1.4-2.8-4.7-6.3-5.5c0,3.8-0.3,7.4,0.1,10.9c2,17.4,2.6,34.9,3.8,52.3
					c1.1,17,1.7,34,1.3,51.1c-0.1,2.8,0.5,5.4,1.1,8.1c0.3,1.2,1.5,2.1,2.1,1c2.3-4.2,7.5-6.9,7.3-12.5c-0.3-7.3-0.3-14.7-1.3-21.9
					c-2-14-2.6-28.1-3.7-42.2c-0.9-11.5-0.9-23.1-1.2-34.7c0-1.1-1.5-3,0.6-3.3c2-0.3,2.1,1.8,2.2,3.3c1.4,19,3.1,38,4,57
					c0.6,13.7,2.1,27.4,1.4,41.2c-0.1,1.9,1.2,2.7,2.9,2.8c2,0.2,4.1,0.4,6.1,0.5c9.4,0.3,11.6,3.6,8,12.5c-2.4-3.4-2.2-2.8-6.1-1
					c-2.6,1.1-2.7,2.7-4.1,5c3.8-0.2,7.6,1.2,9.6-1.3c4.5-5.8,9.7-11.5,9.1-19.8c-1.4-19-2.4-38-4.2-57c-0.9-8.8-0.2-17.7-1.6-26.5
					c-0.6-4-1-8.2,0.6-12.3c1.7,0.4,1.7,1.5,2,2.4c1.7,4.8,0.6,9.8,1.1,14.7c2.3,25.1,3.3,50.3,4,75.5c0.3,9-1.7,8.6,8.9,9.6
					c10.9,1,9.5,4.7,9.4,12.3c0,1,0,2.2-1.3,2.4c-1,0.1-1.2-1-1.8-1.6c-1-0.8,0.4-2.4-0.2-2.7c-5.5-0.7-3.2,6.8-8.4,5.8
					c0.9,0.3,1.5,0.4,2.2,0.4c10.5,0.2,10.4,0.2,9.9-10.5c-1.1-23.5-3.8-46.8-4.4-70.3c-0.2-7.1-0.2-14.3-1.1-21.4
					c-0.8-6.1-1.2-12.1,0.3-18.2c2.2-9.3,0.3-12-8-12.1c-5.1,0-6.6-2.8-4-7.4c0.7-1.3,2.4-2.2,1.4-4c-2.7,2.4-4.6-2.8-5.9-1.3
					c-4.1,4.8-5.8-0.2-8.1-1.7c-1.9,1.4-0.6,3.6-2.2,5.1c-0.8-1.3-1.5-2.4-2.1-3.3c-3.6,1.4-1.3,6.6-5.5,7.3
					c-3.5,0.5-6.7-1-10.1-1.2c-1.3-0.1-2.7-0.5-4-0.6c-2.9-0.2-5.7,0.1-8.6-0.9c-4-1.5-1-5.5-3.1-7.9c0.7,7.4,0.2,7.3-7.2,6.8
					c-7.7-0.5-15.2-3.8-23.6-0.8c1.1-2.8-1.2-5,0.5-7.4c0.2-0.3,0.9-1,0.1-0.9c-5.6,0.6-4.8-4.4-6.9-7.8c0.1,2.4,2.2,4.9-0.3,5.6
					c-1.9,0.5-1.7-2.4-2.7-3.7c-0.3-0.4-0.5-0.9-0.9-1.2c-1-0.7-2.1-1.4-1.6-2.8c0.6-1.7,2.3-1.5,3.5-1.3c5.8,0.9,11.8,0.7,17.6,1.4
					c23.2,2.8,46.3,6.5,69.1,11.5c0.5,0.1,1.1,0.3,1.5,0.2c10.6-3,20.4,2,30.6,3.1c8.5,1,17,4.3,25.3,3.7c9.5-0.6,18.1,2.3,27.1,3.5
					c6.9,0.9,13.6,3.4,20.5,3.8c7.7,0.4,15.4,1.2,22.9,2.4c13.9,2.3,27.8,4.3,41.8,5.3c9.5,0.7,18.9,2.2,28.2,3.7
					c7.7,1.3,15.3,4.1,23.2,2.2c-12.1-1.8-24.4-3.5-36.6-5.3c-7.7-1.1-15.4-3.1-23.2-3.3c-10.6-0.3-20.9-2.4-31.3-3.4
					c-12.3-1.2-24.5-3.7-36.7-5.5c-20.4-2.9-40.7-5.6-61.1-8.6c-19.8-2.9-39.6-6.1-59.4-8.9c-18.5-2.6-37.1-4.8-55.6-7.4
					c-15.3-2.1-30.5-4.8-45.9-6.9c-21.7-3-43.6-5.1-65.2-8.6c-23.5-3.9-47.2-6.3-70.7-10c-14.3-2.2-28.6-4.2-42.9-6.1
					c-11.6-1.6-23.3-2.3-34.8-4.5c-8.6-1.6-17.2-0.8-25.7-2.2c-14.8-2.4-29.6-4.1-44.4-6.1c3.9,1.2,7.8,2.2,11.7,2.6
					c21.3,2,42.1,6.7,63.2,9.8c1.9,0.3,4.6,1.1,5.6,0.1c2.7-2.3,5.6-1.8,8.3-1.5c17.7,2.4,35.3,5.7,53,7.3
					c8.3,0.7,15.4,4.8,23.6,5.5c11.1,1,22.2,1.4,33.3,3.4c12.9,2.3,25.9,3.6,38.8,5.4c3.6,0.5,6.2,1.8,5.6,6.7
					c-0.4,3.6-0.9,7-2.4,10.3c-0.6,1.4-1.8,3.6,0.7,4.2c4.6,1.1,9.3,2.4,14.1,2.1c3.7-0.2,3.3-3.5,4-5.7c0.7-1.9-0.5-3.2-2.4-3.9
					c-4.1-1.5-6.1-4.5-5.9-9c-3.2,1.1-0.8,4.6-3,6c-1.6-2.3-2.7-6.7-1.7-7.8c1.9-2.1,4.1-0.7,6.2-0.2c1.7,0.4,3.3,1,5,1
					c17.6,0.1,34.7,4.4,52.1,6.4c12,1.4,11.9,1.7,9.4,13.5c-0.1,0.5,0,1-0.1,1.5c-0.9,4.9-0.9,4.9,4,7.9c-4.5-0.2-9.3,2.7-10.1-4.5
					c-0.1-1.5-2.2-1.2-3.5-1.3c-4.2-0.5-8.4-1.3-12.7-1.4c-5.8-0.2-8.3-2.9-7.5-8.6c0-0.1-0.4-0.3-1-0.6c0,3,2.6,7.8-2.8,7.3
					c-5.1-0.5-10.2-0.2-15.2-1.3c-2.9-0.6-7-2.3-8.7-0.2c-2.5,3.1-5.3,4-9.2,4.3c2.7,4,6.8,6.3,7.1,11c-0.3,0.3-0.6,0.6-0.9,0.9
					c-1.9-2.2-4.1-4.2-5.5-6.6c-1.7-2.9-3.3-4.2-6.8-1.1c1.3-6.4-1.8-7-6-6.7c-2.2,0.1-4.7,0.3-4.5-3.2c0-0.9-0.7-1.5-1.6-1.8
					c-5.2-1.5-10.9-3.3-16-1.7c-2.9,0.9-4.6,1.5-7.1-2.2c4.2,61,7.3,120.5,7,180.1c2.4-2.6,2.4-2.6,2.8-8.6c0.2-3.7,3.2-6.3,6.6-5.7
					c13.3,2,26.8,2.4,40.2,2.4c4.8,0,9.5,0.6,14.2,1.1c2.1,0.2,2.9,1.1,3.2,3.2c0.4,3.2,1,6.4,1.6,9.7c1.4-0.7,1.7-1.5,1.6-2.4
					c-0.1-6.1,0-12.2-0.4-18.3c-0.2-2.9-2.3-3.8-5.1-3.8c-17.6,0-35.1,0.3-52.7-0.9c-3.1-0.2-5.9-0.8-8.8-1.9c-3-1.2-3-2.8-1.7-5.1
					c2.2-4,4.4-8.1,6.9-12c1.1-1.7,2.5-3.9,4.6-3.7c6.3,0.7,12.6-0.5,18.8,1.3c2.2,0.6,3.1,1.7,3.4,3.8c0.4,3.4,1,6.8,1.6,10.5
					c3.1-2.4,4.3-5.5,5.7-8.3c2.4-4.5,5.8-6.5,10.7-6.1c2.7,0.3,5.4,0.8,8.1,0.9c5.5,0.4,7.8-2,6.6-7.3c-0.6-2.7-0.7-5.4-0.8-8.1
					c-0.2-18.3-2.5-36.5-3.5-54.7c-0.8-13.6,0.1-27.4-2.7-40.9c-0.1-0.4,0.3-1.2,0.4-1.2c5.3-0.5,3.4-4.5,3.7-7.3
					c0.2-2.1,0.1-4.1,3.1-4.3s3.5,1.5,4.1,3.9c0.5,2.1-0.2,4-0.1,6c1.2,20.3,2.7,40.6,3.5,60.9c0.6,15.7,0.2,31.3,0.4,47
					c0.2,16.3,0.7,32.7,1,49c0,2.5,0.2,5.2-2.1,7c-0.1,0.1-0.3,0.1-0.5,0.2c0.1,0.1,0.2,0.2,0.4,0.4c3.9-0.8,2.5-3.9,2.8-6.4
					C2014.8,319.8,2015.4,315.8,2020.4,315.1z M1412.6,149.8c0.5-0.1,1.1-0.1,1.6-0.2c-0.8-10.7,0.4-21.4-0.8-32.1
					c-0.5-4.3,0.3-8.7,0.5-13.1c0.1-1.3,0.7-2.4,2-2.6c1.7-0.3,1.8,1.3,2.1,2.4c0.4,1.4,0.6,3,0.8,4.5c0.6,6.2,0.4,12.5,0.1,18.8
					c-0.4,11.1,0,22.1,0.7,33.2c1.2,19.9,0,39.9,0.8,59.9c0.5,13.5,1.4,27.1,0.5,40.7c-0.5,7.7-0.1,15.4-0.3,23.1
					c-0.1,3.5-1,7-0.5,10.6c0.1,1.1,0.2,2,1.5,2.2c1.2,0.1,2.1-0.5,2.3-1.6c0.3-1.1,0.6-2.5,0.2-3.5c-2.7-7.4-1.3-14.9-0.9-22.3
					c0.9-15.2-1.2-30.4-1.2-45.6c0.1-22.1,0.3-44.1-0.7-66.2c-0.8-15.3-0.2-30.6-0.2-46c0-2.9,0-5.8,0.1-8.7c0-1,0.1-2.2,1.5-2.2
					c1.1,0,1.8,0.9,2,2c0.2,1,0.2,2,0.2,3.1c0.3,23.9,0.1,47.7,0.8,71.6c0.6,21.4,1.2,42.8,0.3,64.2c-0.2,6.1,0.9,12.2,1,18.3
					c0.1,10.6-0.7,21.1-1.1,31.6c-0.1,4,1.4,5.8,5.4,5.3c10.8-1.3,21.7-1.9,32.6-2.1c3.6-0.1,5.6-1.9,5.4-5.9
					c-0.2-6-0.7-11.9-0.8-17.8c-0.4-25.1-1-50.1-2.1-75.2c-0.6-12.7-0.7-25.5-1-38.2c-0.4-20.9-0.8-41.8-1.9-62.7
					c-0.3-6.1-0.1-6.3-5.9-4.9c-15.6,3.6-31.1,7.4-46.6,11.3c-12.9,3.2-25.3,7.9-38.4,10.4c-9.4,1.8-9.3,1.8-9.2,11
					c0.1,37.5-0.1,75,0.1,112.4c0.1,19.9-0.3,39.8-1.1,59.7c-0.3,7.7,0.3,7.9,8.1,7c10.8-1.2,21.6-2.2,32.5-2.9
					c6.8-0.4,8.8-2.5,7.4-9.3c-0.7-3.5-1.2-7.2-1.2-10.4c0-3.5,0.2-7.3,0.4-10.9c0.8-15.4-0.2-30.8-0.3-46.2
					c-0.1-13.6-1.3-27.3-0.6-41c0.6-12.3-1.6-24.5-1.4-36.9c0.2-8.2,0.9-16.5,0.3-24.8c-0.3-3.7-0.1-7.5-0.1-11.2
					c0-1.2-0.3-3.6,1.8-3.7c2-0.1,2.1,1.8,2.3,3.3c0.3,3.2,0.9,6.4,0.9,9.6C1412.7,128.5,1412.6,139.2,1412.6,149.8z M1750.1,288.3
					c-4.5-0.7-4.4-2-2.6-4.3c1.9-2.4,3.4-5.1,4.9-7.8c2.4-4.4,6.1-6.5,11-5.7c6.1,0.9,12.2,0.3,18.2,0.2c3.8-0.1,4.9-1.2,4.7-4.6
					c-0.7-8.5-1.5-16.9-2-25.4c-1.2-22.1-1.7-44.2-3.4-66.3c-0.7-8.8,0.1-17.7-1.6-26.5c-0.3-1.7-0.8-4.4,1.7-4.6
					c2-0.1,2.7,2.4,2.8,4.3c0.3,4.2,0.8,8.5,1,12.7c0.8,24.9,1.9,49.7,3.3,74.5c0.8,15.9-1.2,31.9-0.1,47.8c0.1,0.8,0.4,2.1-1.2,2.4
					c-0.5-1.1-0.9-2.2-1.4-3.3c-0.4-0.9-0.5-2.9-0.8-2.6c-1.7,1.5-4.7-0.6-5.1,0.9c-1.1,4.4-6.8,4.9-7.3,9.8c3.4-0.3,6.8-1.1,10-0.7
					c6.8,0.8,10.8-1.9,13.7-7.9c2-4.2,5.3-8.4,9.8-9.1c10.1-1.7,20.1,0.5,30.5,1.6c-4.4,5.4-10.1,8.2-13.4,13.5
					c-0.5,0.8-0.9,1.3-1.9,0.9c-3.7-1.5-5-1.2-8.5,1.5c6.7,2.3,13.8,0.9,20.7,1.7c5.7,0.7,7.3-0.7,6.5-6.4c-0.7-5-1.6-10.1-1.9-15.2
					c-0.8-12.5-1.4-25.1-2.1-37.7c-0.3-5.9-0.7-11.8-1.3-17.7c-1.4-13.7-2-27.4-3.1-41.1c-0.6-7.6,0.3-15.3-1.4-22.9
					c-0.4-1.9-3-5.6,2.5-4.3c0.9,0.2,1.3-0.9,1.3-1.9c0-4.2,0-8.5,0-12.7c-0.5-0.1-0.9-0.1-1.4-0.2c1.4,5.3-2.3,8.7-4.2,12.8
					c-0.6,1.2-1.6,1.6-3,0.8c-1.6-1-0.1-1.6,0.2-2.4c1.2-3,2.2-6.1,3.7-9c1.8-3.7,0.5-4.8-3.2-5c-8.8-0.5-17.6-1.7-26.3-3.3
					c-3.1-0.6-4.9-1-4.3-5.1c0.4-2.7-0.1-5.9-0.6-9.2c-2.2,2.1,0.3,5.4-3.1,6.7c-0.7-2.2-1.4-4.3-2.8-8.4c-0.1,7.3-6.2,3.5-8.2,7.1
					c-0.5,0.8-1.7-0.4-1.7-1.1c0-1.5,0.3-2.9,0.6-4.4c0.1-0.5,2.2-0.3,0.6-1.4c-0.3-0.3-1.3,0-1.8,0.3c-0.9,0.6-0.8,1.8-1.1,2.8
					c-1.3,3.7-2.6,7.3-4.2,10.9c-0.5,1.1-0.8,3.1-3.2,1.5c-6-4.1-13.2-4.6-20-5.3c-6.8-0.7-13-1.3-12.7-10.8
					c-0.5,4.2-1.4,7.6-0.2,11.7c1.4,4.7,0.1,10.1,0.5,15.2c1.1,14.4,1.6,28.8,2,43.3c0.4,14.1,1.8,28.2,1.9,42.2
					c0.2,20.6,0.3,41.2,1.1,61.9C1742.1,289.3,1741.9,289.3,1750.1,288.3z M1922.4,147.3c-2.4,1.2-2.3,2.8-2.6,4
					c-0.9,3.8-3,5.6-6.9,5.1c-4.6-0.6-9.3-1.3-13.9-2.1c-0.9-0.1-2.3-0.1-1.7-1.7c0.3-0.9,1.3-0.9,2.2-0.7c4.2,0.8,8.5,0.6,12.6,2.1
					c2,0.8,3.9,0.5,4.5-1.8c0.9-3.2,3.7-5.9,2.7-9.5c-0.1-0.3-0.8-0.6-1.3-0.6c-8.8-0.6-17.6-3.8-26.8-0.6c2.4-3.1-1.8-7.8,2.5-10.8
					c0.2-0.2-0.2-1.6-0.6-2.3c-1.6-2.4-5.8-2.8-8-0.8c-1.8,1.6-3.4,3.7-6.6,2.8c-2.1-0.6-3.7,0.8-4.8,2.9c-0.6,1.1-1.1,2.9-3.2,2.6
					c-6.7-1.1-13.4-2.2-20.1-3.3c-3.9-0.6-8.1-0.8-6-6.8c0.3-1-0.7-2.4-1.1-3.6c-0.3,0.1-0.6,0.1-0.9,0.2c2.1,55,4.1,110,6.3,166.5
					c1.6-3.1,2.5-4.7,3.2-6.5c2.3-6,5.8-8.7,12.2-8.6c4.9,0.1,9.8,0.7,14.7,1.1c3.6,0.3,5.8,2.1,6.5,5.9c0.5,3.1,0.8,6.3,3.1,9.5
					c1.9-3,3.6-5.5,5-8.1c2.7-4.9,6.6-6.7,12.2-6.6c5,0.1,9.8,1.1,14.7,1.3c4.4,0.2,5.9-1.3,5.4-5.5c-0.8-7.1-1.9-14.2-1.9-21.3
					c0-10.8-1-21.4-1.7-32.1c-1.2-18.8-2.7-37.7-2.6-56.6c0-1.3-0.5-3.1,0.7-3.9C1924.5,154.6,1922.1,151,1922.4,147.3z M2053.2,410
					c-1.5-0.1-3.7,0.6-2.8-1.7c1.3-3-0.6-5.1-1.5-7.6c-2.7-7.5-6.7-14.8-5.3-23.4c0.3-1.7,0.1-4-1.9-4.2c-6.3-0.7-12.5,0.7-18.7,1.3
					c-0.4,0-0.8,0.6-1,1.1c-3.2,5.4-8.6,6-14.2,6.5c-7.6,0.6-15.1,1.4-22.7,1.4c-9.9,0.1-18.7,6.3-28.8,6.2
					c-6.8-0.1-14.3,3.5-19.5-4.3c-0.8-1.3-3.5-1.5-5.3-1c-1.9,0.5-3.6,0.4-5.5,0.1c-3.7-0.6-7.4-1.2-9.2,3.8c-0.6,1.8-3.1,3-5.6,3
					c-3.1,0-6.1-0.1-9.2,0c-3.7,0.1-6-1.8-6.4-5.2c-0.3-2.5-1.1-3.5-3.5-4.1c-4.5-1.1-6.6-7.3-3.9-10.8c-5-0.4-5.6,0.2-5.7,3.8
					c0,7.1,1.5,14.6-4.8,20.2c-0.4,0.3-0.3,1.3-0.4,1.9c-0.4,5.3-2.7,10.1-4.6,15c-1.9,5.1-2.2,5.3,3.5,4.9
					c17.4-1.3,34.9-0.7,52.3-1.7c24.1-1.4,48.3-1.6,72.5-2.3c10-0.3,20.1-0.6,30.1-1.4C2038.2,411,2045.7,414.2,2053.2,410z
					 M2317.6,190.2c-0.8,1-1,1.8-0.6,2.6c3.5,8.3,2.4,17.2,3.2,25.7c1.4,15.1,1,30.3,2.5,45.4c0.7,7.3,0.6,14.6,1.4,21.9
					c1.2,10.6,1,21.4,1.4,32.2c0,1.5,0.1,3.4-2,3.5c-1.4,0-1.9-1.5-1.7-2.7c0.9-6.6-3.4-6.5-7.9-6.5c-11.6,0-23.2,0-34.8,0
					c-2.7,0-5.6,0.3-6.3-3.8c-0.6,6.1-0.6,11.8-0.6,17.6c0,1.9,0,4.1-2.5,4.3c-2.7,0.2-2.7-2.4-3-4c-0.7-3.8,0-7.8-1-11.7
					c-0.5-1.8-1-3.3-3.2-3.3c-4.3,0-8.4-1.3-12.7-1.2c-8.7,0.3-17.4,0.3-26-0.9c-1.3-0.2-3.1,0.2-3.7-1.3c-0.8-2.4-2-1.2-3.5-1
					c-2,0.3-1.8,1.5-1.8,3c0.1,6.3,0,12.6,0.1,19c0,1.1-0.5,3,1.1,2.8c1.6-0.1,1.3-1.7,1-3.2c-1-5.6,3.4-10.8,8.9-10.9
					c9.2-0.1,18.4,1.3,27.6,1.2c5.2-0.1,9.6,1.6,9.5,8.3c0,5.4,4.7,5.9,8.3,6.2c4.1,0.3,2.7-3.9,3.5-6.2c0.5-1.3,0.3-2.8,0.9-4
					c0.8-1.7,1.4-3.4,4.2-3.7c8.7-0.9,17.4,0.4,26.1,0.3c7.1,0,14.1,0.8,15.6,10.1c0.4,2.2,4.6,2.2,5.9-0.1c0.9-1.4,1.3-3.1,1.7-4.8
					c1-3.9,3.3-5.7,7.4-5.4c5.3,0.4,10.5,0.8,15.8,1.1c1.6,0.1,2.8,0.7,2.7,2.4c-0.1,1.7-1.7,1.3-2.8,1.3c-5,0.1-10.1,0-15.3,0
					c7.4,1.5,16.6-2.9,20.4,5.6c0-2.1,0-5.8,0-9.6c0-4-1.7-6.3-6.2-6.3c-5.7-0.1-11.5-0.6-17.2-1c-1.1-0.1-2.7,0.2-2.5-1.7
					c0.2-1.1,1.4-1.6,2.4-1.5c5.1,0.3,10.2,0.5,15.3,1.1c4.2,0.5,5.9-0.9,5-5.1c-1.8-8.5-1.6-17.1-1.9-25.6
					c-0.2-5.4-2.9-10.5-1.5-16.2c2-7.9-3.3-15.5-1.3-23.9c1.3-5.4-0.1-11.4-0.3-17.1c0-1.3-0.2-2.5-1.5-3c-2.5-1.1-3.3-1.9-0.2-3.4
					c2.2-1.1,2.1-3.5,1.2-5.4c-1.1-2.4-3.5-1.8-5.5-1.5c-2.7,0.4-1.7,2.5-1.6,4.1c1,15.8,2.4,31.6,3,47.4
					c0.7,15.8-0.8,31.8,4.3,47.2c-2.3,0.6-4.7-2.1-4.9-1.7c-3.3,4.8-7.5,1.2-11.3,1.3c-1.6,0.1-3.9,0.8-4.5-1.3
					c-0.5-1.9,0.5-4,2-5.5c2.2-2.1,4.3-3.7,7.7-2.5c3.9,1.3,4.7-0.9,4.4-4.3c-0.3-3.2-0.9-6.5-0.7-9.6c1-14.5-1.8-28.8-2.5-43.3
					c-0.4-7.1-0.9-14.2-1.1-21.3c-0.2-5.7,0.2-11.5-7.4-12.7c-0.2,0-0.3-0.7-0.5-1.2c3.7-1.8,9.1,3.1,11.1-4.1
					c1.5,2.7,2.1,5.5,5.3,4.6c1.5-0.4,2.4-1.3,2.5-2.8c0.1-1.9,0.4-3.8-0.5-5.6c-0.4-0.9-0.6-2.1-2-2c-1,0.1-1.2,1-1.7,1.7
					c-2.5,4.2-10.9,5.9-13.1,2.1c-2.5-4.4-6.1-4.2-9.8-4.8C2319.4,194.9,2317.3,193.9,2317.6,190.2z M2265.1,298.6
					c0.9-2.5-1.9-3.6-2-6c-0.5-12.9-1.2-25.8-2-38.7c-0.3-4.9-1.1-9.8-1.5-14.7c-1.1-11.6-2.5-23.2-3-34.8c-0.3-6,0-6.1-8.7-6.6
					c-5.1-0.3-2.7,3.9-3.3,6.3c-0.1,0.6,0,1.4,0.1,2c2,15.9,1.9,32,3.7,48c1.3,11.7,2.4,23.7,1.3,35.6c-0.3,3.2,1.1,4.1,4.1,4.3
					C2257.9,294.3,2262.5,294.3,2265.1,298.6z M1636.3,368.2c-3.3-0.9-6.3-0.8-9.3-0.1c-3.7,0.9-7.8,1.8-11.2,1.7
					c-7.5-0.3-15.1-0.3-22.6,0.3c-3.4,0.2-6.3,0-9.4-1.2c-2.4-1-4-2.4-3.7-5.3s1.5-4.5,4.5-5.3c2.7-0.7,5.4-0.7,8.1-0.7
					c8.8,0,17.6,0,26.4,0c0-0.4,0-0.8,0-1.2c-27.4,0.1-54.8-1.2-82.2,1.6c0,0.4,0,0.8,0,1.2c12.8,0,25.6,0,39.2,0
					c-2.1,2.9-4.1,2.2-5.9,2.2c-8,0.1-16.1,0-24.1,0.1c-1.6,0-3.7-0.7-4.2,1.7c-1,4.4-5,5.3-7.9,5c-4-0.5-7.7,0.7-11.6,0.4
					c-3.2-0.2-4.3,1.2-4.1,4.3c0.4,5.9,1.7,11.6,3.6,17.2c0.4,1.2-0.1,3.4,2,2.7c1.2-0.4,3-1.4,2.3-3.8c-1.3-4.5-0.3-9.2-0.5-13.8
					c-0.1-2.8,1.2-4,3.7-4.6c4.7-1.2,9.5-1,14.2-0.2c2.1,0.4,3.1,0.1,2.4-2.2c-0.4-1.3-2.1-3-0.4-4c1.8-1,3.4,0.6,4.7,2.2
					c3.3,4.1,6.7,8.2,11.2,11.2c-2.4-2.5-2.5-6-4.1-8.9c-1.3-2.2-0.5-5.1,1.7-5.5c5.1-0.9,10.3-2.7,15.6-0.3c3.2,1.5,5.1,4,4.6,7.2
					c-1,6,0.5,11.8,0.6,17.7c0.1,4.9-2.6,6.9-7.1,5.1c4.9,10.5,5.9,11.3,12.7,9.5c-1.4-1.3-5.7-2.6,0-4c1.5-0.4,0.8-1.9,0.9-3
					c0.5-4.5-3.6-7.7-2.9-12.7c0.9-6.5,3.5-10.3,10.1-10.6c5.4-0.3,10.9-0.3,16.3-0.9C1618.7,370.1,1627.7,373.1,1636.3,368.2z
					 M1848.6,316.1c1.8-7.3,5.5-10.1,12.9-9.7c18.8,1,37.6,2,56.4,2.7c7.2,0.3,8.6,1.3,8.6,8.7c0,3.5,0,7,2.3,9.9
					c0-8.3-0.1-16.4,0-24.6c0-2.9-0.7-4.3-4-4.3c-7-0.1-14.1-0.4-21.1-0.5c-10.7-0.2-21.4-1.4-32.1-1.6c-6.2-0.1-12.5,0.4-18.5-1.6
					c-3.9-1.3-4.5,0.4-4.5,3.6C1848.6,304.5,1848.6,310.3,1848.6,316.1z M1417.8,441.7c2.2,1.7,4.7,1.3,6.9,1
					c12.7-2.2,25.5-1,38.3-1.5c27.4-1,54.8-1.2,82.1-2.4c19.9-0.8,39.7-0.9,59.6-2c17.7-1,35.4,0.2,53.2-1.1
					c11.5-0.9,23.1-0.6,34.6-0.9c15.5-0.3,31-1.3,46.5-1.4c7.8,0,15.6-0.3,23.5-0.7c18.2-1,36.3-3.1,54.5-2.4
					c1.9,0.1,4.1,0.7,6.1-1.4c-12.2,0.9-23.9-0.3-35.7,1c-12.4,1.3-25.1,0.9-37.5,1.7c-13.6,0.9-27.2,0.3-40.8,1.2
					c-13.6,0.9-27.2,1.8-40.9,1.4c-5.4-0.2-11-0.6-16.3,0.2c-15.3,2-30.6,0.1-45.9,1.7c-10.6,1.1-21.4,0-32.1,0.9
					c-15.1,1.3-30.3-0.1-45.5,1c-17.3,1.2-34.7,0.1-52,1.2c-17.8,1.1-35.6,0.8-53.5,1.2C1421.2,440.5,1419.3,439.7,1417.8,441.7z
					 M2286.1,378.4c4.9-6.3,5.8-0.1,8.3,2.6c-0.7-6.6,4.9-2.1,6.4-4.9c-2.1-2.1-4.8-0.9-7.2-1.3c-1.2-0.2-3,0.4-3.2-1.6
					c-0.4-3,3.5-5.3,6.5-5.3c5.6,0,12.2,3.1,16.3-3.8c0.7-1.1,2-1.4,3.2-0.9c1.4,0.6,2.2,1.9,1.6,3.3c-1.3,3.4-2.3,7.3-7,7.8
					c-1.8,0.2-3.6,0.6-5.4,1c3.1,0.5,6.5-0.8,8.9,1.1c2.7,2.1,2.6,0.8,3-1.3c0.6-3.3,1.7-6.2,5.2-7.7c1.3-0.6,3.7,0.1,3.9-1.8
					c0.1-2-2.1-2.9-3.6-3.9c-1.4-0.9-3.1-2-4.6-2c-10,0.3-19.9-2-29.9-0.6c-6.1,0.8-12.4,1.3-18.6,0.7c-5.1-0.5-9.3,1.6-12.9,5.8
					c2.5,0.9,4-0.3,5.6-1.2c1.2-0.7,3-1,3.6,0.4c0.8,1.6-1.3,1.5-2.1,2.2c-2.1,1.7-4.2,3.5-6.9,5.8c3,0.2,4.1-2.5,6.5-1.6
					c-0.8,3-1.5,5.9-2.3,8.8c0,0,0.3,0.1,0.4,0.2c2.1-0.2,2-1.9,2.5-3.3c1.2-3.6,3.5-4.8,7.1-2.7c2.3,1.3,5.1,2,5,5.6
					c0,1.4,1.3,2.5,2.7,2.6c1.6,0.1,2.1-1.5,2.7-2.7c1.8-3.3-0.5-5.5-2.2-7.7c-1.5-1.9-1.3-3.8-0.7-5.8c0.3-0.9,1.3-1.1,2.2-0.9
					c2,0.5,3.6,1.5,4.4,3.7C2286.8,371.8,2286.4,374.7,2286.1,378.4z M2203.9,374.1c0-0.1,0-0.2,0.1-0.4c-3.2,0-6.5,0.1-9.7,0
					c-1.2,0-3.2,0.3-3.1-1.7c0.1-1.6,1.7-2,3.1-2c4.8,0.1,9.6-0.7,14.3,0.5c1,0.2,2.1,0.9,2.8-0.2c0.4-0.6,0-1.6-0.2-2.4
					c-0.4-1.4-1.5-1.3-2.4-0.9c-5.5,2.5-11.2,1-16.8,0.6c-2.3-0.2-5.3,0.3-5.2-3.2c0.1-3,2.3-4.5,5.2-4.6c2.9-0.2,5.8,0,8.7,0
					c-2.2-0.6-4.4-0.7-6.5-0.6c-12.8,0.6-25.8-5.4-38.5,1.7c-3.5,2-3.9,1.3-2,4.6c0.5,0.9,0.2,1.6-0.3,2.3c-1.6,2.8-1.5,5.8-1.4,8.9
					c0,0.9-1,2.2,0.3,2.7c1.6,0.5,1.6-1.1,2.3-2c1.5-2.4,2.6-5.6,6.8-4.2c0.4,0.1,3.3,5.2,3.5-0.5c0-0.6,1.7-0.1,2,0.6
					c1.8,3.3,5.2,6.1,3,10.7c-0.6,1.1-1.5,2.9,0,4c7.2-1.4,5-5.4,3.3-9.8c-1.6-4.3-5.9-9.1,1.8-12.7c2.7-1.3,5.1-2,7.7-1.4
					c2.7,0.6,3.2,3,3.5,5.6c0.4,2.9-0.2,5.8-0.2,8.6c0,1.8-0.5,3.8,1.8,4.9c-2.4-4.7,0.3-9.1,5.4-9.1
					C2196.7,374.1,2200.3,374.1,2203.9,374.1z M2156.3,322.9c5.5-6.6,5.9-7.1,11.8-6.2c11,1.6,22,0.8,33,1.8
					c3.6,0.3,6.3,0.1,5.6,5.1c-0.3,2.1,0.9,4.5,1.4,6.7c1.6-0.3,2-1.5,1.6-2.3c-2.7-4.7-0.9-9.7-0.8-14.5c0.1-3.8-1.1-5.8-5.3-5.5
					c-14,0.8-27.9-1.3-41.9-0.9c-3.2,0.1-5.3-0.7-6.1-4.1c-0.2,6.5-0.2,12.6-0.2,18.7C2155.5,322.1,2156,322.5,2156.3,322.9z
					 M1842.4,400.7c-3.6,5-14.3,9.2-19.6,8.7c-3.3-0.3-6.3-0.2-9.5,0.2c-5.2,0.5-11.1,1.8-15.6,0.5c-7.4-2.2-11.5-0.9-14.1,6.1
					c-0.1,0.1-0.2,0.3-0.3,0.4c-0.9,0.9-2.9,1.3-2,3c0.8,1.3,2.5,0.7,3.8,0.7c12.2-0.3,24.4-0.7,36.6-0.9c3.1-0.1,3.6-1.3,2.4-3.8
					c-1.8-3.6,0.1-4,3.2-4.7c4.1-0.9,6.3,1.8,8.2,3.9c4.4,4.7,9.7,6.5,15.6,5.3c5.7-1.1,12.1-1.9,15-8.6c-2.2-0.4-3,1.3-4.1,2.1
					c-8.5,6.1-14.8,6.6-23.9,1.3c-4.1-2.4-4.3-5-1-8.5C1838.9,404.4,1841.5,403.5,1842.4,400.7z M2081.5,420.8
					c-2.1-1.4-3.8-0.9-5.4-0.8c-12.7,0.6-25.5,1.8-38.2,1.7c-16.1-0.1-32.2,1.1-48.3,1.8c-12.3,0.5-24.6,0.9-36.9,1.2
					c-18.7,0.6-37.3,1.5-56,1.8c-6.6,0.1-13.1,0.9-19.7,1.1c-7.7,0.2-15.3,0-23,0c0,0.5,0,1,0,1.5c4,0.3,7.9-0.3,11.9-0.4
					c22.3-0.7,44.6-0.1,66.9-1.4c7.8-0.5,15.6-0.7,23.5-1c22.8-0.9,45.7-1.9,68.5-3c15-0.8,30.2-1.8,45.4-1.2
					C2073.7,422.3,2077.3,421.3,2081.5,420.8z M1469.1,132c0,2.2-0.1,4.3,0,6.5c0.3,5.9,0.8,11.8,0.9,17.7c0.4,33,0.8,65.9,1.1,98.9
					c0.1,11.4,0,22.8,0,34.3c0,2.3-0.4,4.8,2.5,7.1c0.6-6.2,0.6-11.6,0.7-17.3c0.4-17.2-1.6-34.3-1.9-51.5
					c-0.3-20.8,0.2-41.6-1.2-62.4C1470.5,154.1,1472.7,143,1469.1,132z M1643,409.2c-3.8,3.2-7.9,4.2-12.6,4.9
					c-6.3,0.9-12.6,0.5-18.8,0.8c-4.2,0.2-8.6,0.5-10.3,5.1c-1.1,2.9-3.2,4.3-6.7,6.4c14-0.2,26.6,0.7,39.5-1.4
					c-1.5-1.8-2.7-3.2-3.8-4.7c-0.8-1.1-2.8-2.2-0.9-3.7c1.3-1,3.1-1.5,4.6,0.1c1.8,1.8,3.8,3.6,5.6,5.3
					C1634.6,416.1,1638.5,412.7,1643,409.2z M1759.2,370.7c-1.1-2.1-0.2-4.4-0.6-6.5c-0.2-1-0.3-2.2-1.7-2c-1.1,0.2-1,1.2-0.8,2.1
					c0.1,0.7,0.2,1.4,0.1,2c-0.1,1.6-0.5,3.4-2.2,3.6c-1.9,0.3-1.6-1.9-1.9-3.1c-0.8-3.1-1.7-6-5.9-5.6c-0.4,0-1-0.2-1.4-0.6
					c-3-2.7-5-2.3-7,1.6c1.7,0.6,2.9-2.7,4.4-0.7c1.2,1.6-0.9,2.8-1,4c-0.4,3.3-0.9,7.1,1,10c1.8,2.8,3.1,4.6,0.9,8
					c-1.1,1.7-1.5,5.9,2.4,6.5c2.2,0.3,5.9,1.8,6.5-1.6c0.5-2.7,2.5-7.1-2.6-8.4c-0.8-0.2-1.9,0.1-1.6-1.2c0.1-0.6,0.8-1.4,1.3-1.4
					c1.4-0.2,2.8-0.1,4.2-0.1c-0.6-0.6-1.3-0.5-1.9-0.6c-1.6-0.3-4.6,0.5-4.4-1.8c0.2-2.7,3.2-2,5.1-1.9c4.8,0.3,9.2,2,13.5,4.4
					C1765.5,369.6,1764.4,368.4,1759.2,370.7z M1752.2,358.1c7.4-1,14.8,0.4,22.1-0.8c4.3-0.7,6.5-0.7,10.2,2.6
					c4.7,4.1,5.1,8.1,4.5,13.2c-0.5,4.2-1.7,8.3-1.2,12.6c0.2,1.8,0.5,4.4,2.8,4.2c2.7-0.3,1.9-2.9,1.4-4.6
					c-0.9-3.1,1.4-6.5-1.7-9.5c-1.2-1.2,8.2-6.3,10.1-4.3c3.6,3.7,4.4,0.7,5.5-1.1c-5.2-2.9-13.8,1.8-16.1-7.9
					c-0.3-1.4-1.9-2.5-1-4.1c1-1.9,2.8-1.7,4.5-1.6c10.8,1,21.7,0.3,32.5,1.8c3.9,0.5,7.9,0.1,11.9,0.1c0-0.6,0-1.2,0-1.8
					C1809.2,355.6,1780.7,353.6,1752.2,358.1z M1414.1,154.4c0.1,26.5-0.7,53.1,0.4,79.6c0.8,19.6,0.2,39.2,0.2,58.8
					c0,0.9,0,1.7,0,2.6c0,0.7,0,1.6,0.8,1.6s1.9-0.4,2.2-1c0.4-0.8,0.3-2,0.3-3c0.5-13.9-2-27.7-1.3-41.6c0.1-2.6-1.3-5.3-1.1-8
					c1.1-14.3,0.2-28.7,0.2-43C1415.8,185,1414.7,169.7,1414.1,154.4z M1470.8,429.3c9.3,1.7,18.2-0.5,27.3,0.1
					c-7.4-6-9.3-15.6-15.7-22.4C1479,414.9,1476.4,422.6,1470.8,429.3z M1358.6,334c-7.6,7.7-7.6,11-2.2,18.6
					c2.7,3.9,5.7,5.3,10.3,5c4.1-0.2,8.2,0,12.2,0.4c8.4,0.7,16.5-0.9,24.6-2.5c1.4-0.3,2.9-0.7,2.6-2.5c-0.3-1.7-1.8-1.9-3.2-1.8
					c-1.2,0.1-2.3,0.4-3.5,0.7c-7.7,2.1-15.2,5.1-23.4,4.3c-2.5-0.2-5-0.3-7.6-0.9c-2.5-0.6-5.4-0.8-4.4-4.1
					c1.4-4.8-2.1-1.7-3.2-2.4c-0.2-0.1-0.1-0.6-0.2-1C1360.1,343.6,1358,339.5,1358.6,334z M1717,387.5c1.5,13.4,4.1,25.3,14.2,33.9
					c11.8,10.1,28.9,2.2,34.3-9.8c0.4-1,0.6-2.1-0.6-2.6c-0.9-0.4-1.6,0.5-1.9,1.3c-1.3,3-4,4.5-6.5,6.3c-5.5,4.1-11.7,5.3-18.4,3.8
					c-7.5-1.7-12.3-7.7-15.7-13.4c-2.1-3.5-3.6-8.9-3.1-14C1719.7,391.4,1720.3,389.3,1717,387.5z M1672.9,367.7
					c-1.5,1.7-3.6,1.6-5.5,2.3c-1.4,0.5-3.6,0.3-4,1.9c-1.2,4.9-4.6,8.5-6.7,12.9c-0.7,1.4-1.9,3.5,0.5,4.4c2.3,0.9,4.6,0,5.5-2.4
					c0.8-2.2,1-4.6,1.5-6.9c1.6-7.3,8.3-9.8,14-5.2c1,0.8,1.8,2.4,3.4,1.1c1.3-1,1.3-2.4,1.1-4.1c-0.6-7.6-10.3-2-11.6-8.3
					c-0.2-0.8-1.2-0.4-1.8,0c-2.5,1.7-4.4,0.1-6.5-0.9c-4.8-2.2-6.3-1.3-6.5,3.8c0,1.4-0.2,2.9-0.3,4.5
					C1661.5,366.2,1668.3,365.1,1672.9,367.7z M1718.4,423.4c-2.5-5.3-4.9-7.6-10.8-6.9c-7.2,0.9-14.6,2.4-21.8,1.2
					c-5.4-0.8-8.1,1.5-10.1,6.3C1689.9,425.2,1703.8,422.3,1718.4,423.4z M1583.4,317.6c1.6-2.6,0.2-4.8-0.1-7
					c-0.3-3.5,0.4-6,4.8-4.2c4.2,1.6,8.7,0.6,13.1,1c1.3,0.1,3.7,0.8,3.4-1.6c-0.2-1.6-2.3-1.6-3.9-1.6c-11.8,0-23.6,0-35.5-0.1
					c-3.4,0-6.8-0.4-10.1-0.7c-5.6-0.6-11.3-0.2-17.3-0.2c0.7,2.1,1.6,2,2.5,2.1c8.9,1.8,18,0.7,27,1.2c3.9,0.2,8.1-0.2,11.8,0
					c5,0.2,0.9,7.4,3.5,10.7C1582.6,317.3,1582.8,317.3,1583.4,317.6z M1835.3,362.6c-3,1.8-4.6,6-8.7,6.5c-3.9,0.5-7.9,0.6-13.7,1
					c6.3,2.4,5.1,4.5,1.4,6.6c2.2,0.4,3.8,0.7,5.5,0.9c1.8,0.2,3.7,0.1,5.5,0.5c2.6,0.6,4.2-5.1,6.8-1.3c1.4,2.1,1.3,5.1,1.9,7.7
					c0.2,0.9-1,2,0.4,2.7c1.7-0.2,2.3-1.7,2.5-2.9c0.4-2.6,6.5-5.9-0.7-7.9c-1-0.3-1.1-2.2-1-3.7
					C1835.4,369.4,1835.3,366,1835.3,362.6z M2110.6,409.2c2.5-0.1,5.1-0.2,7.6-0.4c1-0.1,2.1-0.1,2.1-1.6c0-3.8-6.8-9-10.1-7
					c-5.5,3.2-11.3,3.3-17.2,3.3c-2.4,0-4.4,0.6-5.5,2.9c-0.4,0.9-1.6,1.6-0.9,2.7c0.6,1,1.8,0.9,2.8,0.6
					C2096.5,408,2103.7,411.1,2110.6,409.2z M1635.9,402.5c2.5,0.6,3.9,0.2,5.5-2.5c3.4-5.7,4.9-12.4,8.9-17.8
					c0.8-1.2,2.3-2.8,1.1-4.1c-1.5-1.6-3,0.6-4.5,1c-0.5,0.1-0.8,0.6-1.2,0.9c-5.7,3.8-5.7,3.8-8-2.4c0-0.1-0.1-0.2-0.6-0.8
					c-0.9,5.2-0.9,10-0.7,14.8c0.1,2.2-0.1,5.5,1.1,6.3C1644.1,402.2,1636.4,400.8,1635.9,402.5z M1504.8,346.6
					c-1-0.2-1.7,2.9-3.1,1.2c-1.2-1.4,0.7-2.3,1.3-3.5c2.8-6,8.2-8.5,13.5-10.1c-6.2-3.3-9.2,0.6-11.8,5.9
					c-3.6,7.6-8.6,12.5-18.1,12c-8.6-0.5-17.3,0.5-26,1.3c-7.4,0.7-14.9,1-22.3,1.6c2.7,0.6,5.5,0.9,8.2,0.5
					c14.9-2,29.9-0.4,44.9-1.8C1497.3,353.2,1502.9,353.9,1504.8,346.6z M2209.8,361.2c0.6,0.5,0.9,0.9,1.3,1.2
					c1.6,0.8,3-0.3,4.4-0.5c6.5-0.9,7.6,0.1,7.4,6.4c-0.1,1.8-0.8,5.1,2.3,4.5c6.4-1.3,8.6,2.3,10,7.4c0.3,1.2,1.4,1.6,2.4,1.2
					s0.4-1.5,0.1-2.3c-2-5.2-4.1-10.3-6-15.5c-0.9-2.5-2.2-4.7-4.8-4.7C2221.2,358.8,2215.3,357.6,2209.8,361.2z M1332.1,307.4
					c-0.1,0-0.2,0-0.2,0c0-5.1,0.1-10.2,0-15.3c0-2,0.9-5.3-2.4-5.2c-3.1,0.1-3,3.2-2.9,5.6c0.2,4.2,0.8,8.4,0.9,12.6
					c0.2,6.3,0,12.6,0.1,18.8c0,1.8,0.2,3.8,2.5,3.7c2.5-0.1,2-2.3,2.1-3.9C1332.1,318.3,1332.1,312.8,1332.1,307.4z M1372.2,343.9
					c1.6,1.5,2.2,1.2,2.9,1c5.9-1.8,12.6-0.6,16.6,2.4c3.6,2.7,6.3,1.7,9.4,1.9c2.2,0.2,3.9-1.4,3.2-4.1c-1.2-4.1-0.3-6.7,4.8-6.9
					c-2.4-0.3-4.4-0.2-6.4-0.3c-4-0.2-7.6-0.3-7.8,5.3c0,1.1-0.8,2.4-2.9,1.8C1385.8,343,1379.5,344.5,1372.2,343.9z M1849.4,374.3
					c-2.2,0.8-3.2,2-3.8,3.5c-1.5,3.8-3.7,7.4-6.3,10.4c-3.7,4.3-7.3,8.9-14.4,8.4c-6.5-0.5-13.1,1.5-19.7,1.6
					c6.7,0.5,13.4,0,20,0.6c7.3,0.7,12.2-2.6,15.8-8.1C1844,385.7,1847.2,380.6,1849.4,374.3z M1851.1,372.5c3.6-6.2,8-3.6,11.9-3.6
					c4,0,8.3-0.7,10.8,4.1c-2.9-9.1-10.1-10.7-17.9-11.4c-3.1-0.3-5.3,0.5-4.4,4.5C1851.9,367.6,1851.4,369.2,1851.1,372.5z
					 M2086,419.8c0,0.4,0.1,0.8,0.1,1.2c29-1.1,58.1-2.2,87.1-3.3c0-0.2,0-0.4,0-0.6C2144.2,417.9,2115.1,418.9,2086,419.8z
					 M1921,314.2c-21.3-0.4-42.6-2.3-64-1.8C1878.3,312.8,1899.6,314.4,1921,314.2z M2288.6,396.3c-2.9,0-5.8,0.1-8.6,0
					c-2.9-0.1-2.8,1.2-1.6,3.1c1,1.5,1.9,3.6,4.1,3.3c5.6-0.7,11.2-1.6,16.7-2.6c1.2-0.2,2.2-1.2,1.9-2.6c-0.3-1.4-1.6-1.1-2.5-1.1
					C2295.3,396.2,2292,396.3,2288.6,396.3z M1945.6,314.8c2.2,1.3,4.5,1.7,6.9,1.8c11.2,0.5,22.5-0.9,33.6,0.9c3.1,0.5,6.4,0,9.6,1
					c1.1,0.3,2.6,0,2.6-1.6c0-1.3-1.2-1.4-2.3-1.5c-1.4,0-2.7-0.1-4.1,0c-6.1,0.2-12.2,1.2-18.1,0.6
					C1964.4,315.1,1955,314.6,1945.6,314.8z M2081.6,273.2c1.2,6.1-2.9,14.3-0.3,22.6c0.4,1.1,0,4.3-1.5,3.3
					c-2.2-1.5-6.3,0.6-6.6-3.1c-0.3-3.2,3.2,0.3,4.3-1.8c-2.9-1.4-5.8-0.4-8.4,0.4c-1.4,0.4-2.8,2.1-2.5,4c0.3,1.7,2.1,1.5,3.4,1.5
					c3.2,0,6.5,0,9.7,0.1c1.7,0.1,2-0.3,2.2-2.2C2083.1,289.1,2081.4,280.1,2081.6,273.2z M2137.5,380.7c-1.2,7.6,1.1,16.9,5.8,24.9
					c2.6,4.4,6.6,7.4,11.5,7.1c5.4-0.3,8.9-4.1,10.2-9.5c-0.8,0.8-1.2,2.3-2.1,2.7c-2.8,1.3-3.8,5.4-7.7,4.9
					c-10.9-1.3-15.3-9.9-16.1-19C2138.9,388,2138.4,384.4,2137.5,380.7z M1363.4,343.5c0.1,0,0.2,0,0.3,0c0-2.2,0-4.4,0-6.6
					c0-1.4,0.2-3,1.9-3c1.4,0,1.5,1.5,1.9,2.6c1.2,3.4,0.3,6.7,0,10c-0.4,4,1.1,5.9,5.5,6c4.7,0.1,9.3-1.1,14-1.3
					c-4.1,0-8.1,0.1-12.2-1c-3.1-0.8-4.8-1.9-5.3-5.6c-0.4-3.5-0.2-7.1-0.8-10.6c-0.2-1.7-0.6-3.2-2.7-2.9c-1.6,0.2-2.8,1.1-2.8,3.1
					C1363.4,337.3,1363.4,340.4,1363.4,343.5z M2374.4,402.8c-15.9-0.9-31.7-0.4-47.4,1.4c0,0.5,0.1,0.9,0.1,1.4
					C2342.8,404.6,2358.6,403.7,2374.4,402.8z M1542.5,374.1c4.2,1.7,6.3,5.3,6.5,9.2c0.2,4.2,3,4.9,5.7,5.9c1,0.4,2.4,0.3,3.2-0.9
					c0.8-1.3,0-2.1-0.9-3.1c-1.2-1.4-3-2.7-3.3-4.3C1552.3,374.6,1546.9,375.2,1542.5,374.1z M1661.5,307.2
					c10.4,1.5,20.9,0.8,31.3,1.3C1682.6,305,1672,306.4,1661.5,307.2z M2159.6,353.7c-4.6-2-10-2.1-12.2-0.2
					c-6.7,5.6-8.5,13.5-10,21.4C2140.1,370.9,2155.4,355.7,2159.6,353.7z M2005.4,287.4c-1.1,1.6-2.7,2.2-2.2,3.8
					c0.3,1.1,3.2,2,0.3,3.2c-1.4,0.6-3.4,1.8-4.3-1.2c-0.2-0.6-3-3.1-3.3-0.6c-0.5,4.7-3.7,4.3-6.8,5.1c2.6,0.5,5,0.5,7.5,0.5
					C2006.2,298.1,2006.2,298.1,2005.4,287.4z M1667.8,346.8c-9.2-4.8-18.5-4.5-27.6,0.9c-1.2,0.7-3.5,1.3-2.3,3.2
					c0.9,1.4,3,0.8,4.1-0.3C1649.7,342.8,1658.6,344.8,1667.8,346.8z M1490.4,406.3c2.6,12.8,14.8,26.5,24.4,27.5
					C1502.2,428.9,1497.1,417.6,1490.4,406.3z M1704.4,307.3c0,0.5,0,1,0,1.5c6.7,2.5,13.8,1.6,20.7,1.6c0.9,0,1.7-0.4,1.5-1.5
					c-0.2-0.9-0.9-1.5-1.8-1.5C1718,307.2,1711.2,307.3,1704.4,307.3z"/>
				<path class="st2" d="M1345.2,116.4c-1.1-1.9-2.4-3.4-2.1-5.4c0.9-4.9-1.3-6-5.5-4.4c-1.2,0.4-2.3,0.7-3.5-0.3
					c1.7-2.8,4.7-3.6,7.4-3.8c13.7-1.4,26-7.6,39.1-11.2c3.9-1.1,7.8-2.5,12-2.4c3.3,0.1,4.6,1.9,4.5,4.8c0,0.7,1.5,5.1-2.1,1.6
					c-0.1-0.1-0.4-0.3-0.4-0.2c-4.3,4.5-9.7-0.8-14.6,1.9c-4.8,2.6-10.7,3.2-16.1,4.7c-4.4,1.2-8.9,2.3-13.4,3.4
					c-4.1,1-6.4,4.7-3.7,7.4c4.5,4.7,3,10.2,3.2,15.4c0.4,15.7,0.2,31.4,0.2,47.2c0,2.9-0.3,5.9,2.1,8.1c0.8,0.8,1.3,2.3,0.6,2.8
					c-3.6,2.7-1.6,6.3-1.6,9.4c-0.1,31.8-0.1,63.6-0.1,95.3c0,6.5,0,12.9-0.1,19.4c0,1.2,0.3,2.8-2.5,3.9
					c-0.7-16.1,0.6-31.8-2.4-47.3c0,10.9-0.5,21.8,0.3,32.6c0.2,3.6,1.4,7.1,0.5,10.8c-0.3,1.3-0.6,2.5-2.1,2.3
					c-1.1-0.1-1.5-1.3-1.6-2.4c0-0.9-0.1-1.7-0.1-2.6c0.7-27.1-1.3-54.2-1.2-81.3c0.1-19.7-1.5-39.3-1.3-59
					c0.1-11.1,0.1-22.2,0.4-33.3c0.1-5.1,0-10.2,0.1-15.3C1341.2,116.1,1341.8,114.2,1345.2,116.4z"/>
				<path class="st2" d="M1559.2,255.6c-1.4-4.3-1.5-8.7-1.6-13.1c-0.4-10.4-0.1-20.8-1-31.2c-1.2-14.1-1.3-28.2-2.4-42.3
					c-0.6-8.5-0.8-17.3-0.8-25.9c0-13.5-0.9-26.9-1.8-40.3c-0.3-4.7,2.4-8.8,3.6-13.2c0.4-1.4,1.3-2.7,0.3-4.3
					c-2.3-3.6-0.4-7.4,3.7-8.8c5.2-1.8,10.2-0.3,15.2,0.3c18.2,2.2,36.2,5.4,54.4,7.6c13,1.6,25.8,4.3,38.7,6.2
					c6,0.9,12.1,1,18.1,2.3c1.3,0.3,2.7,0.3,3.8,2c-2.7,0.8-5.3,1.8-5.4,5.2c0,0.6-1.7,1.4-1.8,0.3c-0.3-3.4-2.8-1.6-4.2-1.8
					c-1.7-0.3-3.1,0.2-4.8-1.6c-1.7-1.7-4.3-0.3-5.4,2.3c-1.7,3.9-3.5,7.7-5.4,12c-2.5-4.4-6.8-3.8-10.4-4.2
					c-8.1-0.8-16.2-1.9-24.3-3.1c-3.7-0.5-7.1-1.4-8.4-5.8c0,12.5,0.8,24.7,0.8,36.9c0,18.6,0.1,37.2,1.1,55.8
					c1.1,21.3,0,42.6,1.1,63.8c1,20.2,0.3,40.5,1.1,60.7c0.1,3.2,2,8.8-5,9.2c-2.9,0.2-4.1-0.5-4.3-3.3c-0.3-3.5-0.2-7-0.2-10.5
					c0.2-7,0-13.9-0.1-20.9c-0.1-4-1.9-5.5-6.1-5.5c-15,0.2-30,0.3-45,0c-14.9-0.3-29.9-1.3-44.8-2c-1.4-0.1-3.2-0.2-3.2-1.8
					c0.1-2,2.1-2,3.6-1.9c10.6,0.3,21.1,0.7,31.7,1c1.5,0,3.1,0.1,4.6-0.1c3.6-0.5,5.4-2.4,4.9-6.3c-0.7-4.7-1-9.4,0-14.1
					c2.3,0.3,2.2,1.8,2.2,3.1c0.1,2.9,0,5.8,0.1,8.7c0,1.1-0.5,2.7,0.9,3.2c1.5,0.5,2.1-0.9,2.5-2c4.4-10.6,11.7-14.7,22.9-10.2
					c0.9,0.4,2,0.1,3.1,0.1c6.7,0.2,6.5,0.2,6.7-7c0.6-18.8-0.7-37.5-1.3-56.3c-0.7-21.3-1.8-42.6-1.9-63.9c0-4.7-1.3-9.4-1-14.3
					c0.1-2,0-4.1,2.1-5.9c1,3.9,1.7,7.6,1.8,11.4c0.6,27.1,1,54.1,2.2,81.2c0.5,12.1,0.8,24.1,0.9,36.2c0.1,10.2-0.9,20.5,3.8,30.1
					c0.8,1.7,2.4,4.3,0.2,6.8c-3-2.2-2.4-5.9-3.7-8.7c-0.5-1.1-0.6-2.6-2.1-2.4c-1.3,0.1-1.2,1.5-1.3,2.5c-0.8,4.3-4,6.2-7.8,7.5
					c-3.1,1.1-4.4-0.3-4.5-3.5c0.3,4.2-2,4.4-5.1,4.4c1.2,0.4,2.5,1.2,3.7,1.3c8.3,0.3,16.7-0.2,25,1.1c3,0.5,4.3-1.2,4.3-4.2
					c-0.1-13.7,0-27.3-0.2-41c-0.1-6.8-0.9-13.5-0.8-20.3c0.6-28-1.2-56-1.4-84c0-10-0.6-20.1-0.7-30.1c0-4.1-1.4-5.5-5.7-4.2
					c-6.9,2.1-13.8-0.3-20.6-1.4c-8-1.4-16.3-0.7-24.2-3.4c-3-1-3.1,1.9-3.1,4c-0.1,6.7-0.4,13.4,0.1,20c1.3,17.9,1.6,35.7,2.1,53.6
					c0.7,25.5,2.3,51.1,1.9,76.7C1560.3,250.5,1563,253.4,1559.2,255.6z"/>
				<path class="st2" d="M1718.4,281.2c-3.7,2.9-8.1,2.1-10.5,5.1c5.6,3.3,12.2,0,18.3,2.2c-1.8,2.4-4.2,2.3-6.5,2.2
					c-17.9-0.5-35.8-0.7-53.7-1.3c-10.6-0.3-21.4,0-32-1.7c-5-0.8-6.6-3.1-4-7.6c2.5-4.2,5.4-8.2,8.2-12.3c1-1.4,2.4-2.4,4.3-2.4
					c9.2-0.3,18.4,0.5,27.5,1.8c3.8,0.5,6,2.6,6.6,6.6c0.4,2.9,1.3,5.6,1.9,8.5c0.3,1.4,0.6,2.7,2.1,3.2c1.9,0.6,2.5-0.9,3.7-1.9
					c2.7-2.2,3.8-5.2,5.3-8c3.9-7.2,8.2-9.3,16.3-8.1c4.9,0.7,9.8,1.6,14.7,1.8c3.7,0.2,7,0.2,6.8,5.4c1.7-1.2-0.1-3.4,1.8-3.6
					c1.9-0.2,1.9,1.8,2.2,2.9c0.9,3.7,1.5,7.6,2.3,12c-3.5-1.6-4.3-4.5-5.9-6.7c-1.4-1.8-2.4-3.6-4.8-4.3c-1.2-0.3-2.5-2.7-2.9,0.7
					c0,0.4-1,0.8-1.5,1.1c-0.8,0.4-1.4-2-2.4-0.3C1718.1,277.6,1712.1,281.4,1718.4,281.2z M1645.6,284.5c6.3,0.8,12.5-1.7,18.9,1.1
					c2.6,1.1,6.1,0.2,9.1,0.2c1.1,0,2.2-0.3,2.2-1.6c0-1.1-0.8-2.1-1.8-2.2c-2.3-0.1-4.8,0.5-3.1-3.3c0.4-1.1-1.3-1.2-2.2-1.7
					c-1.1-0.6-1.8,0.2-1.8,1c-0.4,4-3.4,4-6.1,3.9C1655.4,281.6,1650.7,284.3,1645.6,284.5z"/>
				<path class="st2" d="M1511,277.5c-2.8-6.8-2.2-13.7-2.5-20.3c-0.6-16,0-32.1-0.3-48.1c-0.4-18-0.7-36-1.2-53.9
					c-0.5-18-1.3-36.1-1.8-54.1c-0.1-2.8-0.8-7.4,3.1-7.2c2.9,0.2,1.8,4.7,2,7.4c1.2,17.6-0.2,35.3,1.7,52.9c0.1,1.2,0,2.4,0,3.6
					c0,36.3,1.8,72.7,1.1,109C1513.1,270.2,1514.9,274.1,1511,277.5z"/>
				<path class="st2" d="M1631.3,112.4c4.8,4.1,9.4,7.5,9.5,15.7c0.1,9.5,0.9,19.2,1.2,28.8c0.3,7.2,0.2,14.6,0.2,22
					c0.1,22.5,2,44.9,1.1,67.4c0,1-0.3,1.9-1.2,2.9c-0.5-4-1.2-7.9-1.4-11.9c-0.8-15.1-1.2-30.2-2.2-45.3c-1.5-22.1-2.1-44.2-2-66.3
					C1636.5,120.5,1631.9,117.4,1631.3,112.4z"/>
				<path class="st2" d="M1696.4,252c-2.3-6.2-1.4-11.3-1.7-16.2c-1-18-2.1-36-3-54c-0.8-15.8-1-31.6-2.6-47.3
					c-0.2-1.9,0.4-4.3,2.5-4.3c1.6,0,2,2.5,2,4.1c0.3,5.8,0.8,11.6,0.9,17.3c0.2,12.1,1.1,24.1,1.4,36.2c0.4,18.9,1.3,37.8,2,56.7
					C1697.8,246.4,1698.1,248.5,1696.4,252z"/>
				<path class="st2" d="M1570.2,115.7c2.3,3.4,2.6,6.6,2.5,9.8c-0.5,17.9,0.9,35.8,1.3,53.7c0.5,22.6,1.9,45.2,1.8,67.9
					c0,2,0.8,4.4-1.7,6.4c-1.4-8.7-0.8-17.1-1.3-25.4c-1.3-19.3-0.7-38.8-2.7-58.1c-0.1-0.5-0.1-1-0.1-1.5c0.4-15.6-0.7-31.3-1-46.9
					C1568.8,119.8,1568.5,117.9,1570.2,115.7z"/>
				<path class="st2" d="M1673.4,264.1c0-2.2,0-4.4,0-6.6c-0.2-27-2.4-54-3.8-81c-0.7-14.6-1.7-29.3-1.3-43.9c0-1.2-0.6-3.2,1.1-3.4
					c1.8-0.2,2.1,1.9,2.5,3.3c0.2,0.8,0.2,1.7,0.2,2.5c-0.3,13.8,0.8,27.5,1.4,41.3c0.7,19.5,1.8,39,1.9,58.6
					c0,8.1-0.6,16.3,0.8,24.4C1676.5,261.3,1675.8,263,1673.4,264.1z"/>
				<path class="st2" d="M1725.1,254.1c-2.2-37.3-5.9-74.6-5.8-112.1C1723.3,179.2,1725.3,216.6,1725.1,254.1z"/>
				<path class="st2" d="M1948.2,267c-1.8-5.4-0.5-10.4-1.7-15.2c-1.1-4.2-1-8.8-1.2-13.2c-0.8-16.7-1.2-33.4-2.2-50
					c-0.5-9.3-1.7-18.6-1.4-27.9c0.1-3.1-3.4-4.9-3.9-8.5c6,7.4,15.5,4.7,22.8,9.1c-3.4,0-7,0.6-10.3-0.1c-5.2-1.3-5.9,1.6-5.1,5.2
					c1.5,6.7,0.7,13.6,1.4,20.3c1.1,10.4,1.3,21,1.8,31.5c0.6,14.1,1.2,28.2,1.7,42.3C1950.1,262.4,1950.7,264.6,1948.2,267z"/>
				<path class="st2" d="M1977.8,165.7c1.1,0.2,2.6,0.1,2.9,1.6c1.1,5.3,2.7,10.6,2.5,16.2c-0.3,5.1-0.5,10.3-0.1,15.4
					c0.9,10.3,2,20.7,1.9,31.1c-0.1,11.1,1.7,22.1,1,33.2c-0.1,1.8,0.5,3.7-1.5,6.3c-2.7-34.9-5.8-68.8-7.5-102.8
					C1977.2,166.3,1977.5,166,1977.8,165.7z"/>
				<path class="st2" d="M1971.5,275.2c-1.9-3.4-1.3-7-1.6-10.2c-1.4-20.3-2.9-40.7-3.8-61c-0.5-11.2-1.9-22.4-1.4-33.7
					c0.1-2,0.6-4.2-1.5-5.6c-0.6-0.4-1.9-0.6-0.9-1.7c0.5-0.5,1.5-1,2.2-0.9c1.8,0.3,2.7,1.4,3.2,3.4c1.6,7,1.1,14.2,1.6,21.3
					c0.9,11,1,22.1,1.4,33.2c0.7,16.5,2.3,32.9,2,49.5C1972.6,271.2,1973.3,273.2,1971.5,275.2z"/>
				<path class="st2" d="M2025.1,278.7c-2.8-7.2-2.4-14.9-2.8-22.3c-1-19.3-2.7-38.6-4.1-57.9c-0.6-8.5,0.7-17-0.7-25.5
					c-0.2-0.9,0.2-1.7,1.1-2.1c1-0.4,1.6,0.3,2,1c0.7,1.4,1.9,3,1.6,4.2c-1.4,6.5,1,12.7,1,19.1c0,19.7,1.3,39.4,1.9,59.2
					C2025.4,262.4,2026.8,270.4,2025.1,278.7z"/>
				<path class="st2" d="M2120.4,282.7c-2.2-33.4-5.9-66.7-4.8-100.2C2119.8,215.7,2120.2,249.2,2120.4,282.7z"/>
				<path class="st2" d="M1372.5,287.5c-1.2,0-2.4,0-3.6,0c-1.4-0.1-2.8-0.2-3-2.1c-0.2-1.5,0.4-2.8,1.7-3.4
					c1.9-0.8,3.8-1.3,5.9-1.4c9.3-0.4,18.6-1.5,27.9-2.8c2.2-0.3,4.9-0.8,5.5,2.1c0.7,3.2-2,3.2-4.2,3.7
					C1392.9,286.1,1382.6,285.9,1372.5,287.5z"/>
				<path class="st2" d="M1437.1,279.4c-1,0-2.1,0-3.1,0c-1.8,0-3.5-0.3-3.5-2.7c-0.1-2.2,0.6-3.8,2.9-4c9.1-1.1,18.2-2.1,27.4-3
					c1.8-0.2,2.9,0.6,3,2.6c0.1,2.2-0.6,3.7-3,4c-7.9,1.2-15.8,2.4-23.7,3.5C1437.1,279.6,1437.1,279.5,1437.1,279.4z"/>
				<path class="st2" d="M1369,206.5c-1.4,0-3-0.1-3.1-2.2c-0.1-1.8,0.7-2.9,2.4-3.4c10.6-3.2,21.6-4.4,32.5-6.2
					c1.5-0.3,3.1,0,3.7,1.9c0.5,1.5-0.3,2.3-1.6,2.6C1391.9,202.4,1380.6,204.8,1369,206.5z"/>
				<path class="st2" d="M1370,268c-1.2-0.2-3.6,0.7-4-2.1c-0.4-2.7,1.4-3.4,3.7-3.7c11.1-1.5,22.2-3.1,33.3-4.7
					c1.5-0.2,2.8-0.3,3.2,1.5c0.3,2-0.5,3.4-2.5,3.7C1392.6,264.5,1381.5,266.2,1370,268z"/>
				<path class="st2" d="M1370.4,247.6c-2.2,0.1-4.6-0.4-4.8-2.7c-0.2-2.5,2.2-2.9,4.4-3.2c10.1-1.4,20.2-2.5,30.1-4.8
					c0.5-0.1,1-0.2,1.5-0.3c1.7-0.1,3.8-0.2,4.2,1.9c0.4,1.9-1.6,2.5-3,2.8c-6.3,1.5-12.5,3.2-18.9,4
					C1379.4,246,1375,247.2,1370.4,247.6z"/>
				<path class="st2" d="M1369.1,226.8c-1.9,0.2-3.2-0.8-3.5-2.4c-0.5-2,0.9-3.1,2.8-3.5c7.2-1.3,14.3-2.6,21.5-3.9
					c3.8-0.7,7.7-1.5,11.5-2c1.4-0.2,3.3-0.5,3.7,1.6c0.3,2-1.1,2.5-2.7,2.9C1391.2,222,1380.2,224.4,1369.1,226.8z"/>
				<path class="st2" d="M1436.1,257.1c-2.5,0.5-5.1,0.8-5.4-2.6c-0.3-3.1,2.4-3.3,4.6-3.6c7.9-1.1,15.8-2.2,23.7-3
					c1.8-0.2,4.6-0.8,4.6,2.4c0,2.7-2.3,3-4.3,3.3C1451.6,254.9,1443.8,256,1436.1,257.1z"/>
				<path class="st2" d="M1369.5,165.5c-1.6-0.2-3.2,0.1-3.4-1.8c-0.2-1.6,0.9-2.5,2.3-2.9c5.3-1.4,10.5-3,15.8-3.9
					c4.6-0.7,9-1.9,13.5-2.9c1.3-0.3,2.7-0.3,4-0.4c1.3,0,2.3,0.5,2.7,1.9c0.5,1.7-0.9,2.2-1.9,2.5
					C1391.6,161.2,1380.4,163.1,1369.5,165.5z"/>
				<path class="st2" d="M1434.5,236.3c-1.5-0.2-3.6,0.4-3.9-2.1c-0.3-2.5,1.6-3.3,3.4-3.6c8.1-1.5,16.3-2.8,24.5-4.1
					c1.6-0.3,3.8-0.6,4.4,1.4c0.7,2.2-1.2,3.3-2.9,4c-6.2,2.4-13,2-19.4,3.4C1438.6,235.7,1436.6,235.9,1434.5,236.3z"/>
				<path class="st2" d="M1369.3,186c-1,0-2.5-0.2-2.9-1.7c-0.6-2,0.9-2.8,2.5-3.1c6.8-1.4,13.6-2.9,20.5-4c4.3-0.7,8.5-2.7,13-2.1
					c1,0.1,2.2,0,2.4,1.3c0.2,1.2-0.7,1.9-1.7,2.2C1392,181.2,1381,184.1,1369.3,186z"/>
				<path class="st2" d="M1434.4,172.6c-2.5,0.1-4.2-0.1-4.3-1.7c-0.2-1.8,0.8-3.4,2.7-3.9c4.1-1,8.2-2,12.4-2.8
					c4.3-0.9,8.7-1.5,13.1-2.2c1.3-0.2,2.9-0.3,3.3,1.6c0.3,1.6-0.2,2.6-1.9,3C1450.9,168.6,1442.1,170.7,1434.4,172.6z"/>
				<path class="st2" d="M1432.7,214.7c-1.1-0.1-2.8,0.1-3-1.7c-0.2-1.6,0.8-2.7,2.2-3c3.6-0.9,7.2-1.6,10.9-2.3
					c5.3-1,10.6-2,16-2.8c1.4-0.2,3.4-0.4,3.7,1.7c0.3,1.8-1,2.7-2.7,3.1C1450.9,211.7,1441.9,213.4,1432.7,214.7z"/>
				<path class="st2" d="M1434.7,150.7c-1.6,0.3-2.7-0.4-3-1.9c-0.5-2.7,1.7-3.7,3.6-4.1c5.6-1.3,11.3-2.3,16.9-3.4
					c2-0.4,4-0.7,6-1.2c1.5-0.3,2.8-0.4,3.3,1.3c0.5,1.8-0.4,3-2.1,3.5C1451.2,146.9,1443.2,149.7,1434.7,150.7z"/>
				<path class="st2" d="M1458.5,182.5c2.1-0.2,3.5,0.2,3.5,1.6c0.1,1.4-1.2,2.5-2.5,2.8c-5.7,1.5-11.5,2.9-17.3,4.2
					c-3,0.7-6,1.2-9,1.8c-1.7,0.3-3.1-0.2-3.6-2s0.5-3.1,2.2-3.4C1441,185.8,1450.2,184.1,1458.5,182.5z"/>
				<path class="st2" d="M1371.3,145c-2.5-0.2-4.4-0.4-4.6-2.4c-0.2-1.9,1.6-2.3,3.1-2.6c10.1-2.3,20.1-4.6,30.2-6.8
					c1.2-0.3,3-0.6,3.6,0.9c0.6,1.3-0.5,2.3-1.7,2.6C1391.5,139.5,1381.1,142.4,1371.3,145z"/>
				<path class="st2" d="M1432.1,128.5c-1.2,0-2.6-0.1-3-1.4c-0.4-1.4,0.3-2.8,1.7-3.3c2.2-0.8,4.5-1.5,6.8-1.9
					c6.2-1,12.2-2.9,18.2-4.6c1.6-0.5,3.2-1.1,4,0.7c0.9,1.9-0.5,3.3-2.2,3.8C1449.3,124.5,1440.8,126.7,1432.1,128.5z"/>
				<path class="st2" d="M1758.1,260.7c-0.9-7.3-2.3-14.1-2.5-21c-0.4-16.2-1.9-32.2-2.4-48.4c-0.5-15.3-1.2-30.5-1.8-45.8
					c-0.1-2.2-1.2-6,1.6-6.2c3.3-0.3,1.9,3.6,2.2,5.7c1.7,12.4,1.8,25,1.9,37.5c0.3,24,2.7,47.9,2.1,71.9
					C1759.3,256.3,1759.9,258.4,1758.1,260.7z"/>
				<path class="st2" d="M1807.5,260c-2.8-6.4-1.5-13-2.4-19.4c-1.1-7.4-0.6-14.9-1.2-22.4c-1.7-22.7-2.7-45.4-4-68.1
					c-0.1-1.5-0.3-3.2,1.3-4.1c1.1-0.7,1.8,0.3,2.7,0.8c1.7,0.9,1,2.1,1.1,3.5c0.6,5.6-0.3,11.4,0.9,16.7c0.9,3.7,0,7.2,0.3,10.7
					c1,12.2,1,24.5,1.4,36.8c0.4,14,0.8,28.1,1.2,42.1C1808.8,257.8,1809,258.9,1807.5,260z"/>
				<path class="st2" d="M1859.5,265.3c-0.5-2.1-1.2-4.2-1.3-6.3c-0.8-14.8-1.3-29.5-2.2-44.3c-1.2-19.8-3.3-39.7-3.4-59.5
					c0-6.3-4.1-9.8-5.3-14.8c0.5-0.2,0.7-0.4,0.7-0.3c6.6,8.6,16.7,7.5,25.8,9.4c0.8,0.2,1.6,0.4,2.4,0.8c0.4,0.2,0.6,0.7,1.7,2.2
					c-7.3-2.2-13.9-0.5-20.6-1.4c1.4,3.2-0.4,7.1,1.7,11.3c0.9,1.7-0.9,6.9-1.2,10.6c-0.2,2.9,0.2,5.4,4,7.1
					c-3.8,1.1-4.5,3.6-3.9,6.2c2,8.2,1.3,16.7,1.6,24.9c0.6,17.5,2.2,35.1,1.3,52.6c0,0.5-0.3,1-0.4,1.4
					C1860.1,265.2,1859.8,265.3,1859.5,265.3z"/>
				<path class="st2" d="M1885.6,267.7c-2.3-1.1-2.3-3-2.3-4.3c0.2-12.8-1.1-25.5-1.7-38.2c-1.1-21.1-4-42-4.1-63.1
					c0-1.6-0.7-2.9-1.7-4.2c-0.9-1.1-3.1-2.7-1.3-3.6c1.3-0.7,4.4-0.4,5.7,1.7c0.8,1.2,1.1,2.9,1.2,4.4c1.5,18,2.3,36,3.4,54
					c1,15.5-0.4,31,1.7,46.5C1886.8,263,1886.8,265.3,1885.6,267.7z"/>
				<path class="st2" d="M1888.3,146.9c2.9,1.2,4.7,2.9,5.6,5.3c1.9,5,5.9,9.2,3.2,15.6c-1.3,3.1,0.5,7.3,0.7,11
					c0.4,13.6,0.1,27.3,1.3,40.8c1.2,13.3,0.1,26.6,1.7,39.8c0.2,1.8,0.9,4.1-2.2,5.9c-0.6-6.3-1.2-12.3-1.6-18.2
					c-1.2-20.5-1.4-41.1-3.7-61.6c-0.6-5.4-0.3-10.8-0.4-16.2c-0.1-3.9-0.2-7.8-0.3-11.7C1892.4,153.4,1888.6,151.2,1888.3,146.9z"
					/>
				<path class="st2" d="M2178.9,181.2c4.2,7.3,12.7,5.9,19.9,8.9c-3.7,1.8-6.4-0.3-9.2,0c-2.5,0.3-3.8,0.6-3.5,3.6
					c1.3,14.1,1.4,28.2,2.2,42.3c1,16.2,1.9,32.3,2,48.5c0,0.7,0.3,1.4-1.3,2.3c-0.6-4.4-1.4-8.5-1.6-12.7
					c-1.7-24.6-3.2-49.2-4.8-73.8c-0.1-1.2,0-2.4,0.2-3.6c1.1-5.8-2.1-10.2-4.8-14.8C2178.3,181.7,2178.6,181.4,2178.9,181.2z"/>
				<path class="st2" d="M2210.3,183.9c4.7,5.2,8.3,8.9,8.8,15.6c1.6,19.8,2.3,39.7,3.6,59.5c0.5,8.1,1.9,16.2,1.3,24.4
					c-0.1,1.5,0.2,3.1-1,4.4c-1.9,0.1-1.7-1.4-1.8-2.4c-0.4-13.8-2.1-27.4-3.1-41.1c-1.2-16.3-2.2-32.5-3-48.8
					C2214.8,191.3,2210.7,189.4,2210.3,183.9z"/>
				<path class="st2" d="M2179.8,285.8c-0.9-6.4-1.1-12.8-1.6-19.2c-1.4-18.5-1.7-37.1-3.6-55.5c-0.6-6.3-0.4-12.5-0.6-18.7
					c0-1.2-0.5-3.2,1.5-3.2c1.4,0,2,1.7,2.1,3.1c0.4,4.4,1,8.8,1,13.2c0.1,21.1,2.8,42.1,2.4,63.3
					C2181,274.5,2182.3,280.2,2179.8,285.8z"/>
				<path class="st2" d="M2272.3,199.7c1.5,4.7,6.9,8.4,3.2,14.3c-0.6,1-0.3,2.7-0.2,4c2.8,23.4,3.1,47,4.5,70.6
					c0.1,1.3,1.2,3-0.9,3.3c-1.6,0.2-1.2-1.7-1.4-2.8c-1.9-12.8-2.4-25.7-3.4-38.6c-1.3-15.9-2.4-31.8-3.5-47.7
					c-0.1-0.8,0.3-1.6,0.5-2.4C2271.5,200.1,2271.9,199.9,2272.3,199.7z"/>
				<path class="st2" d="M2299,294.9c-2.5-1.6-1.9-3.4-1.9-5c-0.7-15.4-2.3-30.8-3.8-46.2c-1.2-12.7-1.8-25.4-2.7-38.2
					c-0.1-1.4,0.2-2.7,1.5-2.7c1.4,0,1.5,1.6,1.6,2.8c0.7,6.6,1.6,13.2,2,19.8c1.2,16.6,2.3,33.2,3.5,49.8
					C2299.6,281.5,2301.5,288.1,2299,294.9z"/>
				<path class="st2" d="M2330.9,297.6c-1-14.8-2-29.7-3.1-44.5c-0.9-13-1.8-26.1-2.8-39.1c-0.2-2.2,0.3-4.9,2-5
					c2.8-0.1,2.5,2.5,3,5c1.2,5-2.6,10.7,2.1,15.2c1.2,1.2-0.9,2.4-1.1,4c-0.9,9.7,0.9,19.3,1.2,29c0.3,10,1,20,1.4,30.1
					c0.1,1.9-0.9,3.8-1.4,5.7C2331.8,297.8,2331.3,297.7,2330.9,297.6z"/>
			</g>
		</g>
	</g>
</g>
<g>
	<path class="st3" d="M2100.2,57.6h231.1v79.2l-144.4,231.1h144.4v79.7h-245.5v-79.7l144.4-231.1h-130V57.6z"/>
</g>
<g>
	<path class="st3" d="M1652.4,57.6h89l62.4,283.7l63-283.7h89l-86.1,390h-131.1L1652.4,57.6z"/>
</g>
<g>
	<path class="st3" d="M1318.2,58.6h158.9c16.2,0,29.8,5.6,41,16.8s16.8,24.8,16.8,41v274.4c0,16.2-5.6,29.9-16.8,41
		c-11.2,11.2-24.8,16.8-41,16.8h-158.9c-16.2,0-29.9-5.6-41-16.8c-11.2-11.2-16.8-24.8-16.8-41V116.4c0-16.2,5.6-29.8,16.8-41
		C1288.4,64.2,1302.1,58.6,1318.2,58.6z M1433.8,138.4h-72.2c-9.6,0-14.4,4.8-14.4,14.4v201.6c0,9.6,4.8,14.4,14.4,14.4h72.2
		c9.6,0,14.4-4.8,14.4-14.4V152.8C1448.2,143.2,1443.4,138.4,1433.8,138.4z"/>
</g>
<rect x="2366.2" y="367.9" class="st4" width="31.7" height="79.7"/>
<g>
	<g class="st0">
		<defs>
			<path id="SVGID_3_" class="st0" d="M1249.9,436c-11.2-11.2-16.8-24.8-16.8-41V111.2c0-16.2,5.6-29.8,16.8-41
				c4.2-4.2,8.7-7.6,13.6-10.2v-4.9h-724V493h723.9v-46.7C1258.6,443.6,1254.1,440.2,1249.9,436z"/>
		</defs>
		<clipPath id="SVGID_4_">
			<use xlink:href="#SVGID_3_"  style="overflow:visible;"/>
		</clipPath>
		<path class="st5" d="M1420.5,210.3c55.8,81.8,111.4,163.8,167.1,245.8c2.1,3.1,4.4,6,6.6,9c21.3-7.2,42.1-14.2,65-21.9
			c-3.3-4.2-5.8-7.8-8.7-11c-90.2-102.4-180.5-204.7-270.6-307.1c-4.3-4.9-7.5-10.6-11.2-16c53.5,57.2,107.1,114.4,160.4,171.7
			c43.1,46.3,86,92.8,129,139.2c2.1,2.3,4.6,4.2,8.7,7.9c1.1-23.7,2.5-45.1,2.6-66.5c0-4.3-3.6-10.2-7.4-12.6
			c-58.6-37.3-105.9-88-157.6-133.4c-46.4-40.8-91.2-83.5-136.7-125.4c4.3,2.6,9.1,4.7,13,8c58.7,49.1,117.4,98.2,176,147.4
			c25.2,21.2,50.2,42.6,76.5,64.8c0.6-4.2,0.9-6.5,1.3-8.7c4.2-27.2,10.1-32.1,38.3-31.9c10.6,0.1,21.2,0,31.8,0
			c0.2-0.9,0.4-1.7,0.5-2.6c-105.9-61.4-211.6-122.9-317.4-184.4c2.6-2,4-2,5.1-1.4c116.5,63.4,232.9,127,349.5,190.2
			c13.1,7.1,15.2,18.2,14.7,31c-0.3,7.9-0.8,15.7-1.3,23.6c1.1-1,2.2-2.1,3.3-3.1c17.8,10.5,35.7,21,53.5,31.6
			c-0.5,1.2-1.1,2.5-1.6,3.7c-30.6,0-61.2,0-93.1,0c-0.7,14.4-1.4,28-2.2,43.4c6.8,0,12.3,0,17.9,0c47.3,0,94.5,0,141.8,0.1
			c4.2,0,9.3-0.9,12.5,1c23.6,14,46.9,28.7,70.3,43.1c-0.4,1.1-0.8,2.2-1.2,3.3c-62.4,0-124.9,0-191.5,0c6.7,6.1,12,8.7,13.8,12.8
			c3.2,7.7,5.5,16.3,5.4,24.4c0,2-10.7,5.5-16.4,5.6c-46.8,0.5-93.6-1-140.4,0.8c-24.4,0.9-42.2-4.2-51.4-28.4
			c-4.8-12.5-14-15.9-27.7-15.9c-198.5,0.5-391.4,0.9-589.9-0.3c-23.5-0.1-37.3,7.1-45.6,27.4c-5.5,13.5-15.4,17-29.1,16.9
			c-52.5-0.5-156,0.8-168.2,0.6c-10.2,0-8.9-28.9-6.2-34.7c2.1-6.1,17.5-9.8,17.5-9.8s-125.7,0-188.4,0c-0.6-1.5,0.2-14.5,0.7-14.9
			c17.5-13.2,41.3-17.8,59.7-28.6c4.5-2.7,10.8-3.2,16.3-3.2c46.8-0.2,93.6-0.1,140.4-0.1c5.9,0,11.8,0,17.4,0c0-15.8,0-29.2,0-44.3
			c-32,0-57.1,0-87.8,0c-0.3-1.1-0.5-16.4-0.8-17.5c18-10.3,30.4-6.5,50-17.7c0-0.8,0.5-4.6-0.1-8.3c-4.3-25,6.3-39.2,29-51.1
			c84.1-44.3,167.4-90.2,250.8-135.7c8.1-4.4,16.3-8.9,24.4-13.3c22.6-12.3,45.2-24.5,67.8-36.8c0.6,1,1.1,2,1.7,3
			c-107.5,62.6-215,125.1-322.5,187.7c14.6,2.3,28.2,2.1,41.9,2.4c17.5,0.4,25.8,7.9,28.4,25.2c0.7,4.4,0.8,8.9,1.4,15.4
			c85.8-72.1,170.1-142.9,254.4-213.7c-46.9,47.6-95.2,93.5-145.3,137.4c-44.7,39.2-91.3,76.1-136.9,114.3
			c-3.3,2.8-7.1,7.3-7.3,11.1c-0.7,22-0.3,44-0.3,66c2.4,1.2,4.8,2.4,7.1,3.6c2.3-4.1,3.9-8.8,7-12.2
			c81.1-87.9,162.2-175.6,243.5-263.2c9.9-10.6,21-20.2,31.5-30.2c-54.3,61.9-108.6,124.2-163,186.3
			c-38.3,43.7-76.8,87.1-116.8,132.6c22.7,7.8,43.7,15,65.8,22.6c20.1-29.4,40.4-58.9,60.5-88.5c63.5-93.3,198.2-296.9,203.6-296.8
			c52.8,0.6,111.2,0.4,164,0.1c3.4,0,6.8,8.3,10.3,6.7C1363.8,127.9,1392.3,169,1420.5,210.3z M1509.7,362.2
			c-2.6-3.3-9.8-4.2-14.9-4.2c-132.7-0.2-265.4-0.2-398.1-0.2c-33.5,0-67.1,0.2-100.6-0.2c-8.9-0.1-14.9,1.7-19.3,10.2
			c-5.6,10.7-12.9,20.6-20.6,32.6c193.6,0,384.9,0,579.1,0C1526,386.2,1518.6,373.5,1509.7,362.2z M1443,296.8
			c-132.2,1.4-264.5,1.4-396.7,0c-23.1-0.2-33.1,9.5-40.5,29c159.8,0,319.1,0,479.3,0C1477.7,305.1,1466.2,296.6,1443,296.8z
			 M1769.9,477.7c0.2-0.9,0.5-1.9,0.7-2.8c-15.3-5.1-30.5-10.3-45.8-15.2c-21.8-7-24.1-10.1-23.5-33.5c0.4-18.9,1.4-37.8,1.4-56.6
			c0-17.5,7.8-29.1,23.1-37.4c6.3-3.4,14.2-9.6,15.5-15.7c6.4-32,1.4-34.1-26.4-32.8c-16,0.8-32.1,0.5-48.1-0.1
			c-12.1-0.5-16.7,5.2-18.2,16.5c-2,15.3-0.4,27.3,16.5,34c14.8,5.9,20.1,19,19.3,34.6c-1,20.3-2,40.5-2.9,60.8
			c-0.7,14.8-6.8,24.6-22.1,28.8c-17.1,4.7-33.7,11-50.5,16.7c0.2,0.9,0.4,1.8,0.6,2.7C1662.9,477.7,1716.4,477.7,1769.9,477.7z
			 M882.5,477.4c0.1-0.7,0.3-1.5,0.4-2.2c-17.7-5.9-35.3-12.1-53.1-17.6c-12.4-3.9-18.8-11.5-19.3-24.7c-0.7-20.8-1.4-41.6-3-62.3
			c-1.4-17.6,4.8-29.8,20.6-38.2c14.2-7.6,19.8-26.1,12.3-40.4c-2.1-3.9-8.6-7.7-13.2-7.8c-22.2-0.8-44.4-1-66.6,0.2
			c-4.4,0.2-11.3,6.9-12.2,11.4c-3.8,20.2,0,27.6,18.3,37.4c15,8,21.7,19.7,21.7,36.6c0,19.8,1.4,39.6,2,59.5
			c0.5,17.2-4.2,23.7-20.6,29.2c-16.3,5.4-32.6,10.8-48.9,16.2c0.3,0.9,0.6,1.8,0.9,2.7C775.5,477.4,829,477.4,882.5,477.4z
			 M1421.8,254.2c-117.7,0.6-235.3,0.6-353-0.1c-15.7-0.1-25,4.6-29.9,20.1c137.8,0,275.4,0,412.8,0
			C1447.6,257.1,1437,254.1,1421.8,254.2z M1406.2,221.8c-107.1,0.4-214.2,0.4-321.3,0c-11.7,0-18.8,3.3-22,15.7
			c121.8,0,243.1,0,365.2,0C1425.1,225,1417.9,221.7,1406.2,221.8z M1391.8,197.2c-88.9,0.1-177.7,0.1-266.6,0.1
			c-9.5,0-19-0.8-28.3,0.3c-5.8,0.7-11.3,4.3-16.9,6.6c0.5,1.6,1,3.2,1.5,4.8c109.1,0,218.2,0,327.7,0
			C1408,197.4,1400.3,197.2,1391.8,197.2z M1394.7,187c-0.4-11.1-8.4-9.6-15.2-9.6c-51.5-0.1-102.9,0-154.4,0
			c-37.8,0-75.5-0.3-113.3,0.1c-5.7,0.1-11.3,3.2-17,5c0.4,1.5,0.9,3,1.3,4.5C1195.6,187,1294.9,187,1394.7,187z M1382.8,168.7
			c0.3-1.5,0.6-2.9,1-4.4c-5-0.9-10-2.5-15-2.5c-59.9-0.2-119.8-0.1-179.7-0.1c-22.6,0-45.3-0.1-67.9,0.1c-4.6,0-9.1,1.4-13.7,2.2
			c0.3,1.6,0.6,3.1,0.9,4.7C1199.9,168.7,1291.3,168.7,1382.8,168.7z M1374.5,153.3c-7.8-6.5-242.5-8.1-257.2,0
			C1202.9,153.3,1288.4,153.3,1374.5,153.3z M1365.9,141.4c0-0.9,0-1.9,0-2.8c-80.2,0-160.5,0-240.7,0c0,0.9,0,1.9,0,2.8
			C1205.4,141.4,1285.6,141.4,1365.9,141.4z M1359.3,130.2c0-0.6,0-1.3,0-1.9c-75.6,0-151.2,0-226.9,0c0,0.6,0,1.3,0,1.9
			C1208.1,130.2,1283.7,130.2,1359.3,130.2z M1138.9,119.3c0,0.7,0,1.4,0,2.1c71.1,0,142.3,0,213.4,0c0.1-0.7,0.2-1.4,0.3-2.1
			C1281.3,119.3,1210.1,119.3,1138.9,119.3z M1346.2,113.5c0-0.5,0-1,0-1.5c-66.6,0-133.3,0-199.9,0c-0.1,0.5-0.2,1-0.3,1.5
			C1212.7,113.5,1279.4,113.5,1346.2,113.5z M1341.2,107.4c0-0.5,0-1,0-1.5c-64,0-128,0-192,0c0,0.5,0,1,0,1.5
			C1213.2,107.4,1277.2,107.4,1341.2,107.4z M1158.2,94.7c0,0.5,0,1.1,0,1.6c58.1,0,116.2,0,174.3,0c0.1-0.5,0.3-1.1,0.4-1.6
			C1274.7,94.7,1216.5,94.7,1158.2,94.7z M1319.4,101.8c0-0.4,0-0.8,0-1.2c-53.9,0-107.8,0-161.8,0c-0.1,0.4-0.1,0.8-0.2,1.2
			C1211.4,101.8,1265.4,101.8,1319.4,101.8z M775.7,422.5c-10.3,9.5-19.2,17.6-30,27.5C774.5,445.4,777.6,442.7,775.7,422.5z
			 M1745.6,450.5c-10.3-9.6-18.9-17.6-29.1-27.1C1713.5,442.6,1716,444.8,1745.6,450.5z"/>
	</g>
	<g>
		<defs>
			<path id="SVGID_5_" d="M1249.9,437.7c-11.2-11.2-16.8-24.8-16.8-41V112.9c0-16.2,5.6-29.8,16.8-41c4.2-4.2,8.7-7.6,13.6-10.2
				v-4.9h-724v437.9h723.9V448C1258.6,445.3,1254.1,441.9,1249.9,437.7z"/>
		</defs>
		<clipPath id="SVGID_6_">
			<use xlink:href="#SVGID_5_"  style="overflow:visible;"/>
		</clipPath>
		<path class="st6" d="M890.1,463.4c0-3-0.4-3.5-3.2-4.4c-0.5-0.2-1.1-0.3-1.6-0.4c-12.3-3-36-14.6-48.3-17.6
			c-13.1-3.2-15-11.5-17.4-24.8c-1.8-9.8-1.6-19.6-1.2-29.5c0.2-4.4,0.4-8.7,0.6-13.2l0,0c0.4-11.6,0.7-17.5,1.1-29.1
			c0.1-3.6,0.4-7.2,1.1-10.7c0.8-4,3.2-6.7,7.6-7.6c5.3-1.1,10.5-8.2,15.7-9.6c2.7-0.7,4-2.1,4-4.5c-0.3-8.9,2.4-17.9,1.7-26.8
			c-0.5-6.3-3.7-11.2-10-13.3c-2.2-0.8-4.5-1.4-6.9-1.7c-15.3-2-44.8-4.8-60.1-2.6c-9.2,1.4-23.2,6.8-23.8,16.1
			c-0.5,8.3,5,19.4,4.9,27.7c-0.1,3.2,1,4.5,4.1,5.3c5.2,1.3,7.6,2.7,12.9,3.9c3.5,0.8,8.7,5.6,9.7,8.9c0.8,2.8,7,2.9,7.1,5.8
			c0.5,12.4,3.7,24.7,4.1,37.1c0,0.5,0.1,1,0.1,1.4c0.2,5.6,0.4,11,0.7,16.4c0.4,9.2,0.2,18.4-1.6,27.5c-2.4,11.7-9,19.7-20.7,22.8
			c-10.5,2.8-21,13.8-31.4,16.5c-3.2,0.8-6.4,1.6-9.5,2.4c-1.9,0.5-5.8,1.6-5.6,3.8c0.2,2.3,0.1-1,0,1.3c-0.1,1.6,3.4,2.4,4.9,2.6
			c0.7,0.1,1.3,0.2,2,0.2c10.4,0.1,20.7-2.5,31.1-2.6c37.5-0.1,86.4,2.7,123.9,2.6c0.8,0,1.7-0.2,2.5-0.4c1.2-0.2,1.7-1,1.6-2.2
			C890,462.3,890.1,465.7,890.1,463.4z"/>
	</g>
	<g>
		<defs>
			<path id="SVGID_7_" d="M1249.9,437.7c-11.2-11.2-16.8-24.8-16.8-41V112.9c0-16.2,5.6-29.8,16.8-41c4.2-4.2,8.7-7.6,13.6-10.2
				v-4.9h-724v437.9h723.9V448C1258.6,445.3,1254.1,441.9,1249.9,437.7z"/>
		</defs>
		<clipPath id="SVGID_8_">
			<use xlink:href="#SVGID_7_"  style="overflow:visible;"/>
		</clipPath>
		<path class="st7" d="M1425.9,197.5c55.8,81.9,111.4,163.9,167.1,245.8c2.1,3.1,4.4,6,6.6,9c21.3-7.2,42.1-14.2,65-21.9
			c-3.3-4.2-5.8-7.8-8.7-11c-90.2-102.3-180.4-204.6-270.5-307c-4.3-4.9-7.5-10.6-11.2-16c53.5,57.2,107.1,114.4,160.4,171.7
			c43.1,46.3,86,92.8,129,139.2c2.1,2.3,4.6,4.2,8.7,7.9c1.1-23.7,2.5-45.1,2.6-66.5c0-4.3-3.6-10.2-7.4-12.6
			c-58.6-37.3-105.9-88-157.6-133.4c-46.4-40.8-91.2-83.5-136.7-125.4c4.3,2.6,9.1,4.7,13,8c58.7,49.1,117.4,98.2,176,147.4
			c25.2,21.2,50.2,42.6,76.5,64.8c0.6-4.2,0.9-6.5,1.3-8.7c4.2-27.2,10.1-32.1,38.3-31.9c10.6,0.1,21.2,0,31.8,0
			c0.2-0.9,0.4-1.7,0.5-2.6c-105.9-61.4-211.7-123-317.5-184.5c2.6-2,4-2,5.1-1.4c116.5,63.4,232.9,127,349.5,190.2
			c13.1,7.1,15.2,18.2,14.7,31c-0.3,7.9-0.8,15.7-1.3,23.6c1.1-1,2.2-2.1,3.3-3.1c17.8,10.5,35.7,21,53.5,31.6
			c-0.5,1.2-1.1,2.5-1.6,3.7c-30.6,0-61.2,0-93.1,0c-0.7,14.4-1.4,28-2.2,43.4c6.8,0,12.3,0,17.9,0c47.3,0,94.5,0,141.8,0.1
			c4.2,0,9.3-0.9,12.5,1c23.6,14,46.9,28.7,70.3,43.1c-0.4,1.1-0.8,2.2-1.2,3.3c-62.4,0-124.9,0-191.5,0c6.7,6.1,12,8.7,13.8,12.8
			c3.2,7.7,5.5,16.3,5.4,24.4c0,2-10.7,5.5-16.4,5.6c-46.8,0.5-93.6-1-140.4,0.8c-24.4,0.9-42.2-4.2-51.4-28.4
			c-4.8-12.5-14-15.9-27.7-15.9c-198.5,0.5-397,0.9-595.5-0.3c-23.5-0.1-37.3,7.1-45.6,27.4c-5.5,13.5-15.4,17-29.1,16.9
			c-52.5-0.5-151-0.4-157.4-0.4c-6.3,0-9.3-0.9-14.2-4.6c-6.9-6.1-3.1-17.9,3.1-20.2c6.2-2.2,51.3-18.7,51.3-18.7l0,0
			c-62.7,0-165,0-227.7,0c21.6-16.4,43.4-30.3,65.7-43.5c4.5-2.7,10.8-3.2,16.3-3.2c46.8-0.2,93.6-0.1,140.4-0.1
			c5.9,0,11.8,0,17.4,0c0-15.8,0-29.2,0-44.3c-32,0-62.8,0-93.5,0c-0.3-1.1-0.5-2.2-0.8-3.4c18-10.3,36.1-20.7,55.6-31.9
			c0-0.8,0.5-4.6-0.1-8.3c-4.3-25,6.3-39.2,29-51.1c84-44.3,320.4-173.6,343-185.9c0.6,1,1.1,2,1.7,3
			c-107.5,62.6-215,125.1-322.5,187.7c14.6,2.3,28.2,2.1,41.9,2.4c17.5,0.4,25.8,7.9,28.4,25.2c0.7,4.4,0.8,8.9,1.4,15.4
			c85.7-72.2,170.1-143,254.4-213.8c-46.9,47.6-95.3,93.5-145.3,137.4c-44.7,39.2-91.3,76.1-136.9,114.3c-3.3,2.8-7.1,7.3-7.3,11.1
			c-0.7,22-0.3,44-0.3,66c0,2.7,2,2.8,4.3,0.8c5.1-4,172.1-185,253.4-272.6c9.9-10.6,21-20.2,31.5-30.2
			c-54.4,62.2-239.9,273.8-280,319.2c22.7,7.8,43.7,15,65.8,22.6c20.2-29.4,187.5-275.2,250.7-368.7c3.3-5.3,4.3-5.3,19.2-5.3
			c52.8,0,105.5,0.4,158.3,0.1c3.4,0,6.8-3,10.3-4.6C1369.3,115.1,1397.8,156.2,1425.9,197.5z M1515.2,349.4
			c-2.6-3.3-9.8-4.2-14.9-4.2c-132.7-0.2-265.4-0.2-398.1-0.2c-33.5,0-67.1,0.2-100.6-0.2c-8.9-0.1-14.9,1.7-19.3,10.2
			c-5.6,10.7-12.9,20.6-20.6,32.6c193.6,0,384.9,0,579.1,0C1531.4,373.4,1524.1,360.7,1515.2,349.4z M1448.5,284.1
			c-132.2,1.4-264.5,1.4-396.7,0c-23.1-0.2-33.1,9.5-40.5,29c159.8,0,319.1,0,479.4,0C1483.1,292.3,1471.7,283.8,1448.5,284.1z
			 M1775.4,464.9c0.2-0.9,0.5-1.9,0.7-2.8c-15.3-5.1-30.5-10.3-45.8-15.2c-21.8-7-24.1-10.1-23.5-33.5c0.4-18.9,1.4-37.8,1.4-56.6
			c0-17.5,7.8-29.1,23.1-37.4c6.3-3.4,14.2-9.6,15.5-15.7c6.4-32,1.4-34.1-26.4-32.8c-16,0.8-32.1,0.5-48.1-0.1
			c-12.1-0.5-16.7,5.2-18.2,16.5c-2,15.3-0.4,27.3,16.5,34c14.8,5.9,20.1,19,19.3,34.6c-1,20.3-2,40.5-2.9,60.8
			c-0.7,14.8-6.8,24.6-22.1,28.8c-17.1,4.7-33.7,11-50.5,16.7c0.2,0.9,0.4,1.8,0.6,2.7C1668.4,464.9,1721.9,464.9,1775.4,464.9z
			 M888,464.6c0.1-0.7,0.3-1.5,0.4-2.2c-17.7-5.9-35.3-12.1-53.1-17.6c-12.4-3.9-18.8-11.5-19.3-24.7c-0.7-20.8-1.4-41.6-3-62.3
			c-1.4-17.6,4.8-29.8,20.6-38.2c14.2-7.6,19.8-26.1,12.3-40.4c-2.1-3.9-8.6-7.7-13.2-7.8c-22.2-0.8-44.4-1-66.6,0.2
			c-4.4,0.2-11.3,6.9-12.2,11.4c-3.8,20.2,0,27.6,18.3,37.4c15,8,21.7,19.7,21.7,36.6c0,19.8,1.4,39.6,2,59.5
			c0.5,17.2-4.2,23.7-20.6,29.2c-16.3,5.4-31.8,10.5-48.1,15.9c0.5-0.4-0.1,1.7,0.2,2.9C781,464.6,834.5,464.6,888,464.6z
			 M1427.3,241.4c-117.7,0.6-235.3,0.6-353-0.1c-15.7-0.1-25,4.6-29.9,20.1c137.8,0,275.4,0,412.8,0
			C1453,244.3,1442.4,241.3,1427.3,241.4z M1411.7,209c-107.1,0.4-214.2,0.4-321.3,0c-11.7,0-18.8,3.3-22,15.7
			c121.8,0,243.1,0,365.2,0C1430.6,212.2,1423.4,209,1411.7,209z M1397.3,184.4c-88.9,0.1-285.6-0.7-294.9,0.4
			c-5.8,0.7-11.3,4.3-16.9,6.6c0.5,1.6,1,3.2,1.5,4.8c109.1,0,218.2,0,327.7,0C1413.4,184.6,1405.8,184.4,1397.3,184.4z
			 M1400.2,174.2c-0.4-11.1-8.4-9.6-15.2-9.6c-51.5-0.1-102.9,0-154.4,0c-37.8,0-75.5-0.3-113.3,0.1c-5.7,0.1-11.3,3.2-17,5
			c0.4,1.5,0.9,3,1.3,4.5C1201,174.2,1300.4,174.2,1400.2,174.2z M1388.3,155.9c0.3-1.5,0.6-2.9,1-4.4c-5-0.9-10-2.5-15-2.5
			c-59.9-0.2-224.9-0.2-247.6,0c-4.6,0-9.1,1.4-13.7,2.2c0.3,1.6,0.6,3.1,0.9,4.7C1205.3,155.9,1296.8,155.9,1388.3,155.9z
			 M1380,140.6c-7.8-6.5-242.5-8.1-257.2,0C1208.3,140.6,1293.8,140.6,1380,140.6z M1371.3,128.6c0-0.9,0-1.9,0-2.8
			c-80.2,0-160.5,0-240.7,0c0,0.9,0,1.9,0,2.8C1210.9,128.6,1291.1,128.6,1371.3,128.6z M1364.8,117.4c0-0.6,0-1.3,0-1.9
			c-75.6,0-151.2,0-226.9,0c0,0.6,0,1.3,0,1.9C1213.6,117.4,1289.2,117.4,1364.8,117.4z M1144.4,106.5c0,0.7,0,1.4,0,2.1
			c71.1,0,142.3,0,213.4,0c0.1-0.7,0.2-1.4,0.3-2.1C1286.8,106.5,1215.6,106.5,1144.4,106.5z M1351.6,100.8c0-0.5,0-1,0-1.5
			c-66.6,0-133.3,0-199.9,0c-0.1,0.5-0.2,1-0.3,1.5C1218.2,100.8,1284.9,100.8,1351.6,100.8z M1346.6,94.6c0-0.5,0-1,0-1.5
			c-64,0-128,0-192,0c0,0.5,0,1,0,1.5C1218.6,94.6,1282.6,94.6,1346.6,94.6z M1163.7,81.9c0,0.5,0,1.1,0,1.6c58.1,0,116.2,0,174.3,0
			c0.1-0.5,0.3-1.1,0.4-1.6C1280.2,81.9,1221.9,81.9,1163.7,81.9z M1324.8,89c0-0.4,0-0.8,0-1.2c-53.9,0-107.8,0-161.8,0
			c-0.1,0.4-0.1,0.8-0.2,1.2C1216.9,89,1270.9,89,1324.8,89z"/>
	</g>
</g>
</svg>
