<?xml version="1.0" encoding="utf-8"?>
<svg width="237" height="52"  version="1.1" id="Слой_1" xmlns="http://www.w3.org/2000/svg" xmlns:xlink="http://www.w3.org/1999/xlink" x="0px" y="0px"
	 viewBox="0 0 1897.8 541.5" style="enable-background:new 0 0 1897.8 541.5;" xml:space="preserve">
<style type="text/css">
	.st0{clip-path:url(#SVGID_2_);}
	.st1{fill:#CCCCCC;}
	.st2{clip-path:url(#SVGID_4_);fill:#CCCCCC;}
	.st3{clip-path:url(#SVGID_4_);fill:#111111;}
	.st4{clip-path:url(#SVGID_4_);fill:#E21C1C;}
	.st5{fill:#E21C1C;}
	.st6{fill:#111111;}
	.st7{fill:#FFFFFF;}
	.st8{fill:#5E5E5E;}
	.st9{fill:#5D5D5D;}
	.st10{fill:#898989;}
	.st11{fill:#808080;}
	.st12{fill:#8C8C8C;}
	.st13{fill:#989898;}
	.st14{fill:#6C6C6C;}
	.st15{fill:#6D6D6D;}
	.st16{fill:#B8B8B8;}
	.st17{fill:#565656;}
	.st18{fill:none;}
	.st19{clip-path:url(#SVGID_6_);fill:#CCCCCC;}
	.st20{clip-path:url(#SVGID_6_);fill:#111111;}
	.st21{clip-path:url(#SVGID_8_);fill:#CCCCCC;}
	.st22{clip-path:url(#SVGID_8_);fill:#E21C1C;}
	.st23{clip-path:url(#SVGID_8_);fill:#111111;}
	.st24{clip-path:url(#SVGID_10_);}
	.st25{clip-path:url(#SVGID_12_);fill:#CCCCCC;}
	.st26{clip-path:url(#SVGID_12_);fill:#E21C1C;}
	.st27{clip-path:url(#SVGID_12_);fill:#111111;}
</style>
<g>
	<defs>
		<path id="SVGID_9_" d="M995,405.6c11.2-11.2,17.6-23.7,17.6-39.9V88.3c-1.9-24.9-9.3-32.2-20.6-43.2c-5.1-5-17-11.8-32.8-13.1l0,0
			l880.6-1.5v423.7L957.1,423v-1.3C974.6,422.6,990.3,410.8,995,405.6z"/>
	</defs>
	<clipPath id="SVGID_2_">
		<use xlink:href="#SVGID_9_"  style="overflow:visible;"/>
	</clipPath>
	<g id="zoQHMf.tif_3_" class="st0">
		<g>
			<path class="st1" d="M946.8,30.7c2.7,0,5.5,0,8.2,0c4.4,0.5,8.7,1.3,13.1,1.6c12.4,1,24.6,3,36.9,4.9c14.9,2.3,30,3.7,44.9,6.3
				c13.9,2.4,27.9,3.8,41.9,5.8c12.8,1.8,25.5,3.8,38.3,5.6c14.5,2,29,3.9,43.4,5.9c18,2.5,36,4.9,54,7.6c8.9,1.3,17.9,1.7,26.8,2.7
				c13.5,1.6,26.9,3.7,40.4,5.4c12.5,1.6,25,2.8,37.5,4.5c20.7,2.8,41.4,5.9,62.1,8.9c14.3,2,28.6,3.9,42.9,5.9
				c9.6,1.4,19.1,3,28.7,4.3c15.8,2.2,31.6,4,47.3,6.3c15.9,2.2,31.8,4.8,47.7,7.2c18.3,2.7,36.7,5.3,55,8
				c9.9,1.4,19.8,2.9,29.8,4.3c18.5,2.6,37,5.2,55.5,7.7c6.4,0.9,12.5,3.6,18.6,4.2c11.3,1.1,22.7,2.1,34,3.4
				c12.8,1.5,25.5,2.8,38.3,4.6c10.9,1.5,21.9,2.5,32.7,4.6c3.8,0.7,8.4,0.8,9.2,4.8c1,4.5,2,9.9-2.9,13.7c-2.5,1.9-4,4.3-3.8,7.9
				c0.4,8.1,3.4,15.9,2.1,24.2c-0.3,1.6,0.5,3.3,0.8,5c0.6,4.2,1.7,8.8,1.2,12.6c-0.6,4.1,0,8-0.3,11.9c-0.6,6.3,3.7,12.3,0.7,19
				c-0.9,2-1.3,7.7,3,8.5c5.9,1.1,6.8,4.7,6.9,9.5c0,2.5,1,5.2,0.5,7.6c-1.1,4.6,1.2,11-5.9,13c-1.5,0.4-1.1,1.9-0.7,3.1
				c1.5,5.1,1,10.5,2.2,15.6c1.3,5.3-1.5,10.7,0.5,15.6c1.3,3.4,0.5,4.6-2.3,5.7c-2.8,1.1-3.7,3.3-3.4,6.2c0.2,1.3,0.6,2.7,0.7,4
				c0.2,3.3,0.9,7.4-3,8.8c-3.8,1.5-7.8,1.1-9.1-4.2c-0.2-1-1.4-2.2-2.2-1.4c-2.7,2.4-7.6,4.5-7.5,7.6c0.2,8-6.9,12.3-8.5,19.4
				c-1,4.3,0.1,3.8,2.7,3.8c6.7,0,13.4,0.5,20-0.1c8.3-0.8,15.7,22.5,13.7,20.7c-0.4-0.4-0.7,0.3-0.6,0.9c1.4,4.5-2.3,3.7-4.5,3.9
				c-2.3,0.2-5.5,0.8-5-3.5c0.2-1.7-0.9-0.8-1.6-0.8c-6.6,0.3-13.3,0.2-19.9,1.3c-1,0.2-2-0.3-2.5,1.6c-0.8,3.1-7.6,3.8-9.1,0.8
				c-1.1-2.3-2.1-1.7-3.9-1.6c-12.8,0.5-25.4,1.9-38.1,3c-16.4,1.4-33,1.7-49.5,2.2c-17.6,0.5-35.1,1.7-52.6,2.4
				c-4.8,0.2-9.9-1.4-14.8,0.7c0.8,2.1,3.4,0.9,3.8,3.2c-2.9,1.4-6.7,2.5-8.3-0.5c-1.2-2.1-1.7-2-3.6-2.2
				c-6.5-0.9-12.9,0.7-19.3,0.8c-16.4,0.3-32.7,1-49,1.9c-21.1,1.1-42.1,1.5-63.2,2.2c-21.1,0.7-42.3,1.5-63.4,2.2
				c6,0.1,12,0.1,17.9,0.2c1.3,0,3.8-0.5,3.2,1.8c-0.5,2-1,2.4,1.3,1.7c1.1-0.4,2.6-0.8,2.8,1c0.2,1.4-1.3,1.4-2.2,1.7
				c-1.9,0.6-3.9,2.4-5.7,1.1c-4.9-3.5-10.8-2.6-16-4.2c-10-3.1-20-4.6-31.3-2.1c6.3,0.9,11.9-1.2,17.1,1.6
				c-5.4,1.3-10.8,3.3-16.4,1.2c-7.1-2.6-14.3-3.7-22.5-2.5c3.7,1.9,7.7-0.6,11.3,3.3c-5.9,0.2-11,1.9-15.5,0.1
				c-8.2-3.3-16.7-2.7-25.1-2.8c-1,0-2.4-0.4-2.7,0.7c-1,3.5-3.2,1.9-5.3,1.7c-6.6-0.6-13.4-3.1-21.2,0.7c5.9,0,10.5,0.3,15-0.1
				c4.3-0.4,6.5,2.4,9.1,4.8c1.4,1.3-0.6,2.5-1.4,2.1c-2.5-1.4-4.7-3.4-7.8-1.6c-2-4-5.4-1.5-8.2-1.9c1,0.3,2.5,0.4,1.8,1.7
				c-0.8,1.5-1.8,3.4-3.9,3.6c-0.9,0.1-2.2,0.2-2.4-1.3c-0.4-3.6-4.1-5-6-6c-6.5-3.3-13.9-2.8-21.1-1.6c3.2,0.5,6.4,0.5,9.6,0.5
				c2.5,0,5.3-0.1,6.1,2.6c0.8,2.9-2.9,2-4,3.6c-0.8,1.2-1.9,1.9-3.4,0.6c-1.8-1.7,0.9-2.2,0.9-3.5c-1.8,0.1-2.9,1-4,2.1
				c-2.1,2.3-2.4,2.3-3.4-0.6c-0.6-1.7-1.9-1.4-2.9-1.6c-1.4-0.3-2.2,0.5-1.5,2.2c0.5,1.2-0.3,2.5-1.3,1.9c-2.4-1.6-5.9-0.2-8-3
				c1.7-1.1,5-0.9,4.6-3.1c-0.5-2.3-3.3-1.6-5.3-1.6c-0.7,0-1.4,0-2.1,0c-6.6,0-13.3,1.8-19.5,1.4c-8.9-0.6-17.4,1.1-26.1,1.3
				c8.4,1.1,17.4-2.8,24.9,3.7c-0.8,1.3-1.3,3.4-3.8,4.2c-0.9-3.3-3.3-4.4-6.4-4.9c-4.6-0.7-9,0.8-13.6,1.1c-2.3,0.1-6,4.1-6.5-2
				c0-0.4-1.7-0.8-2.7-1.1c-7.4-2-14.6-0.4-21.9,0.5c4.4,0.3,8.9,0.3,13.3,0.2c3.8-0.1,5.7,2.4,7.2,5.3c0.4,0.8,1.1,2,0.1,2.8
				c-1.2,0.9-1.8-0.4-2.4-1.2c-3.4-4.3-8.8-2.2-13.1-4c-2-0.8-2.8,1.1-2.3,3.3c0.2,1.1,0.5,2.7-1,3c-1.7,0.3-1.6-1.5-2-2.5
				c-1.1-2.6-2.8-5.1-5.5-5.7c-7.8-1.8-15.8-1.8-23.7-0.7c5.3,1.7,11.1-0.7,16.3,2.3c-5.2,1.6-10.5,1-15.7,1.2
				c-2.9,0.1-5.9,0-6.1,4.1c-0.1,1.2-0.8,1.8-2,1.8c-1.6-0.1-2.5-1.2-3.1-2.4c-0.7-1.4,0.8-1.3,1.4-2c1.4-1.3,3.3-2.8-0.7-3.9
				c-4.2-1.2-8.3-0.7-12.5-1.1c-6.2-0.6-11.7,4.5-18.1,2c-6.7-2.6-13.5,0.2-20.3-0.7c0,0.5,0,1,0,1.5c5.9,0,11.8,0,17.7,0
				c-4,1.2-6.6,3-8.9,6.5c-1.3,2-4.3,3.7-7.2,4.4c-2.6,0.6-5.2,1-5.8-2c-0.6-3,2-3.8,4.6-3.9c0.1,0,0.2-0.5,0.4-0.9
				c-1.3-2-3.5,0-5.2-1.2c-5-3.4-5.2-3.1-7.6,2.5c-0.5,1.1,0.6,3.6-1.9,3.4c-2-0.1-2-1.9-2.5-3.4c-0.5-1.5-1.4-2.8-3.2-2.8
				c-2,0-1.8,1.6-2.1,2.9c-0.2,0.8-0.6,1.6-0.8,2.4c-0.3,1.3-0.5,2.4-2.3,1.7c-1.2-0.4-2.7-1.4-2.2-2.4c3.1-5.4-1.8-4.3-4.1-5
				c-3.6-1.1-7.2-2.1-10.9-2.5c-3.8-0.4-7.7-0.1-11.6-0.1c3.4,1.2,6.8,1.2,10.2,1.2c0.9,0,1.9,0.3,2,1.2c0.2,1.5-1.2,1.4-2.1,1.4
				c-6.1,0.3-12.3,0.3-18.3-1.3c-1.2-0.3-2.3-1-3.3,0.2c-2.1,2.6-2.8,6.9-7.7,5.9c-0.3-0.1-0.9,1-1.1,1.6c-0.6,1.4-1.4,2-2.7,0.9
				c-1.2-1-0.9-2,0.1-3c0.8-0.8,1.4-1.7,2.4-2.9c-7.8-0.6-15.3-0.2-22.2-3.9c1.7,4.5,1.7,4.5-3.1,4.7c-1.7,0-3.4-0.1-5.1,0
				c-5.2,0.6-10.3-1-15.5-0.5c1.8,1.2,4,0,5.8,1.5c-1,2.5-4.3,1.8-5.6,4c-1.7,2.8-2.7,1.9-3.2-0.9c-0.5-2.7-1.4-3.2-3.4-0.7
				c-2.8,3.4-4.7,2.9-5.8-1.1c-0.6-2-2.3-1.6-3.3-1.2c-3,1.2-5.6,0.3-8.3-0.9c-1.8-0.8-3.6-1-5.8,0.1c-2.3,1.2-5.3,1.4-8,1.5
				c-6.5,0.2-12.3,1.9-17.8,5.9c-0.8-2,0.2-3.3,1.2-4.7c0.5-0.7,2-1.4,1-2.5c-1-1.1-2.3-0.5-3.1,0.5c-1.8,2.2-4.2,2.1-6.6,1.9
				c-3.8-0.2-7.1-0.3-5,5.3c0.6,1.5-0.2,3.3-2.1,3.4c-2,0.1-2.5-1.3-2.1-3.2c0.6-3-1.6-5.4-3.7-5c-4,0.7-6.9-1.9-10.6-2.3
				c1.8,4.2,1.1,5.1-3.1,4.9c-1.7-0.1-3.3-2.3-5.2-0.4c-2.3,2.3-3.7,0.7-4.7-1.5c-1.8,1.3,0.7,3.6-1.1,4.3c-2.1,0.8-2.8-1.6-3.9-2.7
				c-1.2-1.3-2.7-2-4.3-2.5c-3.6-1.3-7.2-2.4-10.8-3.6c-0.3,2.3,3.7,2.3,2.7,4.2c-1,2.1-3.7,0.8-5.6,1.1c-0.2,0-0.5,0-0.1,0
				c2.5,3.6,6.2,1.2,9.7,1.3c1.4,0.1,2.8,0.3,2.9,2.1c0,0.9-0.6,2.3-1,2c-3.4-2.7-6.9,0.1-10.2-0.6c-6-1.3-12-3-17.9-4.9
				c-2.6-0.9-6.1,0.6-7-3.9c-0.2-1.1-4.1-2.3-4.9-0.8c-1.9,3.6-4.7,2.1-6.5,1.2c-4.4-2.1-8.5-0.4-12.7,0.1c4.6,2.4,9.6,1.7,14.3,1.4
				c4.8-0.3,7.3,2.3,9.8,5.4c0.8,1.1,1.8,2.2,0.5,3.6c-1.3,1.4-2.4,0.5-3.5-0.4c-2.5-2.1-5.1-2.4-7.9-0.5c-1.9,1.3-4.4,1.7-5.7,0.2
				c-2.1-2.4,2.9-1.7,2.2-4.3c-6.8,0.8-12.2-3.9-18.7-5.7c0.8,2.2,1.7,3.7,4,3.7c5.2,0.1,9.1,3,10.5,7.4c0.5,1.7,0.6,3-1.4,3.7
				c-1.9,0.7-3.9,1.8-5.7,0.1c-2-1.9-0.1-2.5,1.3-3.2c0.3-0.1,0.4-1.2,0.3-1.3c-1.9-1.1-2.9-4.2-5.3-3.4c-1.4,0.5-5.5-2.1-4.4,3
				c0.4,2-1.8,0.8-3.1,0.8c-3.9-0.1-6.2-4.5-10.2-3.7c-2.9,0.6-5.2-0.6-7.6-2.1c-4.4-2.6-8.7-5.5-14.2-4.5c-1.9,0.3-4.2,0.7-4.3-2
				c0-2.4,2.4-1.8,4-1.9c19.7-1.5,39.5-0.8,59.3-1.9c18.5-1.1,37.1-1.1,55.7-1.7c28.9-0.8,57.9-1.7,86.8-2.6
				c11.1-0.3,22.2-0.6,33.2-0.7c36.5-0.4,72.9-2.3,109.4-3.2c17-0.4,34-1,51-1.8c24.3-1.1,48.7-0.5,73-3.4c16.7-2,33.7-1.2,50.5-2
				c22.6-1,45.3-1.2,68-2.2c19.7-0.8,39.4-1.5,59.1-2c24.2-0.6,48.3-1.3,72.5-2.2c17.7-0.7,35.4-1.7,53.1-1.9
				c23.4-0.3,46.7-2.1,70-2.3c10.9-0.1,21.8-0.6,32.6-1.4c14.9-1.1,29.9-1.4,44.8-2.5c21-1.5,42.1-1,63-3.9c8.5-1.2,17.3-0.8,26-1.3
				c9.7-0.6,19.4-1.1,29.1-1.5c10.1-0.5,11.4-3,2.2-2.8c-8.8,0.2-17.7,0.4-26.4,1.1c-15.4,1.3-30.9,2.1-46.3,3.7
				c-16.9,1.7-34,0.9-50.9,2.2c-17.7,1.3-35.4,1.5-53.1,1.9c-23.1,0.5-46.2,1.4-69.3,2.5c-22.4,1.1-44.8,2.2-67.3,2.9
				c-10.3,0.3-20.8,0.2-30.9,1.3c-11.9,1.3-23.8,1-35.6,1.7c-17.2,1-34.6,0.9-51.8,1.8c-17.9,0.9-35.7,0.1-53.6,1.1
				c-22.6,1.2-45.3,0.6-67.9,1.4c-15.9,0.5-31.8,2.5-47.7,2.9c-28.1,0.7-56.3,1.2-84.4,2c-25.2,0.7-50.4,1.2-75.7,2.1
				c-22.1,0.7-44.3,1.4-66.4,2c-28.8,0.8-57.6,1.1-86.4,2.2c-20.4,0.7-40.9,1.2-61.3,2c-21.3,0.8-42.5,1-63.8,2.1
				c-1.6,0.1-4.2,0.6-4.2-1.6c0-2.2,2.6-2.1,4.4-2.2c7.3-0.3,14.6-0.8,21.8-0.9c19.6-0.4,39.1-0.5,58.7-1.3c6.8-0.3,13.7-0.9,21.6-1
				c-2.3-1.6-3.6-1.2-5-1.2c-23,0.2-46,0.8-69,2.1c-9.5,0.5-19.1-0.8-28.6,0.9c-1.6,0.3-4.4,0.5-4.6-2c-0.1-2.5,2.5-1.6,4-1.7
				c17.5-0.8,35-1.4,52.5-2.1c15.3-0.7,30.7-0.9,46-1.2c6.3-0.1,12.8-0.6,19.7-1c-1.9-2.6-3.9-2.9-6.2-3.1
				c-3.6-0.3-7.1,0.9-10.7,0.9c-20.3-0.1-40.6,1.4-60.9,1.3c-9.4,0-18.8-0.8-28.3,0.7c-4.3,0.7-8.9,0.1-13.3,0c-1,0-2.2-0.2-2.1-1.6
				c0.1-0.9,0.7-1.4,1.7-1.5c3.9-0.3,7.8-1.1,11.6-0.9c30.2,1.1,60.3-0.4,90.5-0.8c3.3,0,6.7-0.8,10.6-1.3
				c-3.6-4.1-6.7-7.9-8.4-12.6c-1.4-3.9-2.2-8-7.6-8.1c-1.5,0-1.4-1.7-1.8-2.8c-4.5-12.1-6.1-24.9-8.1-37.5
				c-0.5-3.1-1.9-6.4,1.8-8.7c4-0.8,5.4,1.8,6.2,4.9c0.7,2.7,2.8,3,4.8,2.4c3.2-0.9,2.9-4.3,3.4-6.7c0.5-2.1-1.7-2.5-3.5-2.7
				c-3.8-0.3-7.4,0.4-11,1.8c-2.8,0.5-5.7,0.8-8.5,1.6c-5.8,1.6-11.9,2.8-17.7,1.4c-10.2-2.5-20.3-3.1-30.7-2.8
				c-7.5,0.3-9.3-2.5-8.8-10.1c0.4-5.4-0.4-10.8-0.8-16.3c-0.1-2-1.7-2.9-3.5-3.2c-3.3-0.6-4.1-2.8-4.6-5.8
				c-1.9-12-0.8-24.1-0.9-36.2c0-2.1,0.9-4.2,2.7-4.6c6.1-1.2,5.8-5.5,5.5-10c-0.2-3.7,0-7.5-0.1-11.2c-0.1-34.2,0.2-68.4-0.6-102.5
				c-0.4-16.7,0.2-33.3-0.2-50c0-1-0.1-2.2,1.2-2.4c1.2-0.2,2.2,0.8,2.1,1.7c-0.3,3.9,2.3,7.1,2.4,10.9c0.3,8.6,0.8,17.2,1,25.8
				c0.3,16.9,0,33.7,0.8,50.6c0.7,15.6,0.5,31.3,0.2,46.9c-0.4,25.9,0.9,51.8,1.1,77.7c0.1,9.7,0,19.5-0.1,29.2
				c0,1.9-0.3,4.2,2.2,4.5c3,0.3,6.2,1.1,8.9-0.9c0.9-0.6,0.4-1.5,0-2.3c-3.6-7.4-2.4-15.9,3.1-21.7c1.3-1.4,3.7-3.5,4.4-2.6
				c1.8,2.4,3,0.9,4.7,0.4c6.6-2,9.4-0.3,10.5,6.5c0.2,1.3,0.6,2.9,2,2.2c3.5-1.6,6.7,0.4,10.1,0.1c3.2-0.2,6.7,0.7,6.6-4.5
				c0-1.3,1.4-1.6,2.8-2.1c3.9-1.4,6,2.4,9.4,2.4c5.8,0.1,11.5-1,17.3-1c2.5,0,1.9-2.4,3.4-3.2c1.6,2.1,2,6.8,6.3,2.7
				c0.5,4.8-0.6,6.3-5.3,5.6c-7.8-1.2-8.4-0.5-9.6,6.9c-0.3,1.7-1.2,3-2.8,4.7c8,0.1,15.3,1.2,22.9,0.9c16.3-0.8,32.6-2.4,48.9-3.2
				c3.6-0.2,5.3-2.2,4.8-5.2c-1.2-7.2-0.3-14.5-1-21.7c-1.7-16.7-0.6-33.4-1.5-50.1c-1.1-19,0.3-38.1-1.3-57.1
				c-0.2-2.9-1.2-5.8-0.8-8.6c1.2-7.7,0.5-15.2-0.1-22.9c-0.8-10.4-0.5-20.9-0.8-31.4c-0.3-13.6-0.8-27.2-1.1-40.7
				c-0.2-9.4-0.2-18.8-0.3-28.2c0-2-0.5-4-3-3.9c-2.3,0.1-4.3,1.2-4.4,4c0,1.2-0.1,2.4,0,3.6c1,13.8,0.2,27.7,0.8,41.5
				c0.9,22.6,0,45.3,1.1,68c0.8,16.8,0.4,33.6,0.6,50.3c0.1,12.6,0,25.2,0.3,37.8c0.2,6.4-1.7,12.7,0,19.2c0.7,2.7-0.8,4.7-4.2,5.1
				c-8,0.8-15.9,1.8-23.9,2.2c-18.5,1-37,2.2-55.4,4.1c-8.1,0.9-16.3,0-24.4,1.6c-5.5,1.1-14.4-5.6-14.6-10.4
				c-0.8-17.6,0.1-35.3-0.7-53c-1.1-23.5-0.1-47.2-0.7-70.7c-0.5-18.2-0.7-36.4-0.5-54.6c0-3,1.4-6.8,0.2-8.9
				c-2.8-5.2,0.8-5.6,3.8-6.4c8.7-2.4,17.4-4.5,26.1-6.8c9.4-2.5,18.8-4.9,28.1-7.6c3.5-1,3.5-1.2,3.5-4.4c-1.1,0.7-0.2,2.5-1.6,2.9
				c-0.8,0.2-1.2-0.3-1.5-0.9c-1.8-3.5,1.7-9.2,6-9.8c0,0.8-0.2,1.7-0.1,2.5c1.2,8.1,1.2,8,9.1,5.7c12.8-3.6,25.6-7,38.4-10.5
				c1.4-0.4,2.9-0.7,3.8,0.4c1.1,1.3,0.1,2.5-0.6,3.7c-0.8,1.3-1.6,2.4-1.1,4.2c1.9,7.5,1.1,15.3,1.6,22.9c0.3,5-1,10.2,0.9,15.1
				c1.2-6.1,1.4-12.5,0.8-18.4c-1.2-12.6-0.3-25.1-0.4-37.7c0-5.8,2.8-7.9,8.5-7.1c18.2,2.6,36.3,5.5,54.4,8.1
				c3.6,0.5,6.8,1,6.1,6.4c1.9-8,7.1-4.7,11.3-4.2c0.9,0.1,2.3-0.1,2.5,1.2c0.1,1.1,0.1,2.6-1,3.3c-2.2,1.3-4.7,3.4-6.8,3.1
				c-6.5-1-9.3,1.9-10.5,7.7c-0.2,1-0.9,1.8-1.3,2.8c-2.7,6.1-2.6,6.4,3.6,8.4c0.7,0.2,1.7,0.2,1.8,1.4c-8.7,1.7-11.3,0.3-10.6-6.8
				c0.5-5.1-1.6-5.6-5.7-6c-5-0.4-11.9,0-14.6-3c-4.2-4.6-9-4.7-13.7-6.1c-6.4-1.9-7.2-1.2-7,5.5c0.5,14.9,1.5,29.9,1.9,44.8
				c0.4,14.8-0.4,29.6,0.6,44.3c0.7,10,1.1,20.1,1.2,30.1c0.2,37.8,2.5,75.6,1.6,113.4c-0.2,8.1,1.9,16.2-0.1,24.2
				c-0.2,0.8-0.2,1.9,0.8,2.2c1.5,0.4,1.8-1,2.5-2c8.7-13.1,18.1-25.8,28.9-37.3c2.1-2.2,2.9-1.4,4,0.7c0.9,1.8,0.6,3.7,0.7,5.5
				c0.1,1.3-0.1,3.2,1.8,3.1c1.9-0.1,0.7-1.9,1-2.9c0.7-2.6-1.2-5.4,0.4-8c0.2-0.3-0.4-1.6-0.8-1.6c-3.9-0.6-9.4-2.2-11.2,0.6
				c-3.5,5.4-4.8,3.2-7.1-0.2c-0.3-0.5-1.2-0.7-1.8-0.8c-1.6-0.3-3.2-0.8-2.9-2.8c0.3-1.9,2.1-1.9,3.6-2.1c4.7-0.6,9.1,1.1,13.7,1
				c15.5-0.4,31,1.3,46.6,1.2c10.5-0.1,21.1,1.3,31.6,1.9c2.1,0.1,3,1,4.1,2.9c3.3,5.8,4,12.2,5.1,18.6c0.5,3.1,2.7,3.4,4.8,3.7
				c1.9,0.2,5.2,0,5.2-2c0.1-5.7,4.2-9.6,5.7-14.5c2.5-8.1,6.1-10.9,14.1-9.5c11.3,2,22.8,0.9,34.2,1.5c15.2,0.7,30.5,1.1,45.8,1.5
				c5.7,0.1,7.8,2.2,8.1,7.7c0.2,3,1.4,5.6,2,8.4c0.4,1.8,1.1,1.8,2.8,1.8c6-0.1,6.9-4.2,7.9-8.7c1.7-7.7,4.5-9.5,12.2-8.3
				c1,0.1,2,0.2,3.1,0.2c23.9,0.1,47.7-0.3,71.6,1.9c5,0.5,8.2,1.7,9.2,7.1c0.8-5.1-0.2-9.6-0.8-14.2c-0.4-3-1.7-4.4-5-4.4
				c-6.1,0.1-12.3,0.2-18.4-0.3c-12.2-0.9-24.6-2.3-36.7-1.3c-11.2,1-22.1-0.6-33.1-0.8c-3.8-0.1-4.5,1-4.5,4.1
				c0.1,6.3,0,12.6,0.2,18.9c0.1,3-1.7,3.6-3.8,3.4c-1.8-0.2-4.4-0.3-4-3.4c2.1-17.1-1.6-34-0.6-51.1c0-0.1-0.4-0.3-0.8-0.5
				c-0.7,0.9,0,2.5-1.4,3.2c-2.1-3-1.8-6.4-1.8-9.8c0.1-13.3-0.9-26.5-2-39.7c-0.6-6.9-2.3-14-1.5-20.8c0.8-7.3-0.4-14.3-1-21.3
				c-1-11.7,0.2-23.5-1.5-35.2c-0.2-1.2-0.4-3.1,1.5-3.2c1.7-0.1,1.9,1.5,2.2,2.9c1.2,5,1.1,10.1,1.1,15.3
				c0.9-13.8-2.1-27.5-0.6-41.3c-1.2,1.6-2,2.3-4,2.2c-10.8-0.6-21.4-3.7-32.3-3.7c-4.5,0-5.5-2.5-3.2-6.7c1-1.7,2.7-3.9,0.8-5.5
				c-2.6-2.2-0.4-2.3,0.6-3.7c1.6-2.2,3.7-2.2,5.8-2.2c5.4-0.1,10.9-0.5,17.4,1.4c-3.1-2.3-5.6-1.5-7.9-1.9
				c-18.8-2.7-37.7-5.4-56.5-8c-18.2-2.5-36.4-5-54.5-7.5c-15.8-2.2-31.6-4.6-47.4-6.8c-19.7-2.7-39.4-5.4-59.1-8.1
				c-5.2-0.7-10.3-1.8-15.4,0.9c-2.2,1.2-4.8,2.4-4,5c1.1,3.6-0.9,6.5-0.8,10.7c-3.1-7.2-3.2-7.4-10.1-5.4
				c-11.3,3.2-22.4,7-33.9,9.5c-1.9,0.4-3.6,0.9-5.2-0.6c-0.2-4,3.1-4.5,5.7-5.3C909,47.2,922,43.4,935,39.6
				c1.2-0.3,2.6-0.4,2.9-1.7C938.9,33,943,32,946.8,30.7z M974.4,334.1c-3,3.7-4.1,8.3-4.5,12.8c-1,11.5,0,22.7,2.8,34
				c3.3,13,11.8,20.7,23.6,24.6c13,4.3,25.9-2.5,32.9-14.7c3.2-5.6,4.6-11.9,8.3-17.2c1.4-2-0.5-3.1-1.9-4c-2.3-1.4-2.9,0.9-3,2.1
				c-0.2,6.8-4.1,12.2-7.3,17.7c-7.7,13.4-25.9,16.8-38,7.3c-14.9-11.6-17.4-35.5-13.9-49c0.2-0.8,0.8-1.5,2.2-1
				c0.3,3.2,1.2,7.8,0.5,9.6c-2.7,7.3-0.4,13.7,1,20.3c1.9,8.5,7.1,14.9,14.6,18.7c10.8,5.6,20.9-1.2,26.7-8.7
				c0.7-0.8,1.2-1.9,0.5-2.8c-1-1.4-2.4-0.8-3.7-0.5c-11.7,2.1-25.4-4.8-31.1-14.8c-2.4-4.3-5.6-7.8-4.5-13.3
				c0.6-2.7-3.6-4.5-2.9-6.7c1.5-5.2-2.5-9.3-2.1-14.1c4.2-1.9,5-6.6,8-9.5c10.5-10.1,27.8-12.6,39.4,0.2c1.4,1.5,3.5,2.5,5,1.2
				c1.9-1.6,0.1-3.6-1.2-4.7c-6.6-6-13.4-10.5-23.4-9.8C990.1,312.6,977.8,323.1,974.4,334.1z M1743.1,173.6c-2.3-1.3-2.7-4.7-6.4-6
				c1.9,37,5.7,73.3,7,110.2c9.9-10.3,6.9-8.3,19.8-8.4c5,0,6.5,1.9,6.3,6.9c-0.1,2-0.7,4.5,2.1,5.1c6,1.1,12,2.2,18.2,2.3
				c1,0,2.1-0.1,2.3-1.5c0.1-0.9-0.3-2-1.1-2.1c-3.7-0.5-7.6-0.8-11,0.6c-2.8,1.2-5.8,1.3-7.9,0.1c-2.6-1.5-0.3-4,0.8-5.6
				c1.9-2.7,2.5-5.8,1.8-8.8c-0.8-3.4-0.6-6.8-0.8-10.2c-0.8-11.2-1.7-22.4-2.2-33.6c-0.6-14.3-1.9-28.5-2.8-42.7
				c-0.1-1.7,0-3.5,1.8-4.4c2.3-1.2,9.7,0.3,11.9,2.4c-11.5,0.2-9.8-2-9.9,10.3c0,0.9,0,1.7,0.1,2.6c2.3,23.4,3.6,46.8,4.3,70.3
				c0.3,9.7-0.2,7.4,9,9.4c4.8,1,6.1-0.7,5.3-5.1c-0.1-0.7-0.1-1.4-0.1-2c-1.3-15.6-2.3-31.2-4.1-46.7c-1.1-10-0.2-20.1-1.7-30.1
				c-0.4-2.7-2-5.2-1.2-8.3c2.2-9.4,0.2-12.3-9.3-12.7c-4-0.2-7,0.1-6.4-5.2c0.1-1.1-0.8-2.2-2.4-2.2c-2,0.1-3.3-0.4-2.7-3
				c0.2-1.2-0.6-2.1-2.3-1.4c-1.9,0.8-0.9,1.4-0.2,2.3c1,1.5-0.7,2.9-0.1,4.5c0.3,0.9,0.8,2.1-0.7,2.4c-1.1,0.2-1.2-1-1.8-1.5
				c-0.8-0.6-0.1-2.2-1.5-2.4c-3.4,6.7-3.2,7.1,4.2,7.4c1.5,0.1,3,0.3,4.5,0.6c0.9,0.1,2.1,0.8,1.6,1.5c-2.1,2.9,1.7,4.3,1.7,6.6
				c-1.5,0.8-2.4-0.1-2.9-0.9c-2.6-3.6-6.4-4.7-10.5-5.4c-1.3-0.2-3.3,0.2-3.5-1.4c-1-6.5-6.3-5.3-10.3-5.7
				c-4.3-0.4-7.8-0.6-6.8-7.1c0.7,5.2-1.8,6.6-5.3,5.7c-4.2-1-8.2-1-12.2,0.4c-1-2.4,0.5-4.3,0.2-6.4c-0.3-1.8-1.4-4.1,0.2-6
				c-3-0.5-2.4,3.5-4.7,3.8c-0.3,0-0.6,0-1.2,0c-0.1-2.1-0.2-4.2-0.4-7.5c-0.1,1.9-0.1,2.6-0.2,3.3c-0.8,4.4-1.5,4.7-5,1.8
				c-0.7-0.6-1.6-1.1-2.3-0.4c-1.9,1.9-2.7,4.4-2.6,7c0,2.1,2.2,2,3.8,2.7c2.9,1.3,6.7-0.3,9.3,2.4c-1.2,2.2-3.1-0.3-4.2,1.2
				c2.2,7.1,8.8,4.8,13.5,6.6c4.4,1.6,6.5,0,7.1-4.2c0.4-3.2,2.8-3.9,4.7-2.7c3.9,2.6,7.7,5.7,8.7,10.8
				C1743.9,173.1,1743.5,173.3,1743.1,173.6z M1650,155.2c-0.8-0.9-1.6-2.4-2.4-2.5c-7.1-0.2-12.2-6.3-19.5-6
				c-3.8,0.1-8.2-0.9-5.8-6.9c0.3-0.7,0.3-2.2-1.1-2c-2.2,6.7,2.4,11.4,5.7,16.3c-2.6,1.1-2.5-2.4-4.7-1c0,3.3-0.2,6.7,0,10.1
				c1.5,19.9,2.2,39.8,3.2,59.7c0.6,13,0.6,25.9,0.9,38.9c0.1,3.1,0.9,6.2,1.5,9.7c5.8-7.8,7.1-9.9,6.9-14.5
				c-0.6-12.9-0.8-25.9-2.3-38.7c-1.9-16.9-2-34-3.8-50.9c-0.2-1.5,0.1-3.1,0.2-4.6c0.1-0.7,0.3-1.4,1.1-1.4c0.8,0,1.2,0.6,1.4,1.2
				c0.4,1.1,0.8,2.2,1.1,3.4c2,6.5,0.6,13.3,1.1,19.9c1.6,20.7,3.2,41.4,3,62.2c0,1.5-0.1,3.1,0.1,4.6c0.8,8.3,0.8,8.4,9.2,9.4
				c3.9,0.5,6.3,1.9,6.6,6.1c0.1,2.6,0.6,5.2,1.1,8.8c1.5-2.5,2.6-4,3.2-5.7c2.6-6.4,7.3-8.2,13.9-7.2c7.1,1,8,0,7-7.2
				c-1.4-11-1.5-22-2.1-33c-0.5-10.7-2.3-21.3-2.5-32c-0.1-8-2.7-15.8-1.7-23.9c0.4-3.4,3.2-6.2,2.4-10c-0.4-1.6,0-3.7,2.2-4
				c2.3-0.2,2.5,2,3,3.5c1.4,4.2,0.2,8.5,0.8,12.7c2.3,18.4,2.9,37,4,55.5c0.6,9.8,0.4,19.7,1.2,29.5c0.6,6.3,0.6,12.7,1.8,19.6
				c3-6.4,6.9-9.9,14.3-8.8c6.4,0.9,7,0.2,6.4-6.6c-1.4-17.3-2.1-34.6-3-52c-0.5-10.8-1.4-21.6-2-32.4c-0.1-1.5-0.5-4,1.9-4
				c1.5,0,1.9,2.2,1.9,3.8c1,23.8,3.8,47.5,3.1,71.4c-0.1,2.9,0.3,5.7,0.6,8.6c0.8,7.4-0.8,14.9,1.2,21.9c-2.6,1.3-2.6-3.2-4.7-0.9
				c-1.1,1.2-2.5,1.7-3.4,2.4c5.3,2.9,7.9,1.1,11.4-4.2c3.8-5.8,4.7-11.4,4.3-17.6c-0.8-10.3-2.4-20.6-2.6-30.9
				c-0.3-16.4-3.3-32.5-3.5-48.9c-0.1-7.4-4.1-12.9-11.3-15.5c-1.2-0.4-2.7-0.9-2.9-2.5c-0.3-2-1.7-2.2-3.3-2.4
				c-2.7-0.2-5.4-0.8-8.1-1c-4.6-0.4-8-1.8-7.4-7.4c-0.7,4.1-0.7,4-4.2,4.3c-4.5,0.4-8.8-1-13.2-1.2c-4.5-0.2-6-2.7-3.9-6.7
				c0.7-1.3,1.5-2.5,1.3-4.3c0.1,4.6-3.3,4.2-5.2,3.1c-2.1-1.2-5-1.4-6.1-2.7c-3.1-3.4-4.3,0.1-4,1.2c0.6,2.6-4.8,6,0.9,7.9
				c3.4,1.1,7.2,1,10.7,2.9c-1.8,1.3-4,0.3-4.9,2.1C1650.6,154.6,1650.3,154.9,1650,155.2z M1492.4,288.3c0.6,1.3,0.6,3.2,2.9,2.8
				c6.3-1.1,12.5,1.1,18.7,0.6c6.5-0.5,12.8,0.2,19.2,0.5c4.8,0.3,9.6,1,14.7,0.3c-1-2.6-2.9-2-4.5-2c-15.8,0-31.6-0.1-47.4-0.7
				c-1.6-0.1-2.4-0.9-3.5-1.7c0.9-3.4,3.7-2.5,5.9-2.5c15.8-0.1,31.6,1.7,47.5,1c4.9-0.2,7.7,1,7.6,6.7c-0.1,2.9-0.3,6.8,4.3,7.6
				c4.7,0.8,4.7-3.3,6.1-5.9c0.3-0.6,0.7-1.2,0.8-1.9c0.8-4.4,3.5-5.7,7.8-5.5c11.7,0.5,23.5,0.7,35.3,1.3c3.2,0.2,6.6,0.2,10.9,2.6
				c-15.7,3.2-30.3,0.3-43.8,1c10.3,2.6,21.7,0.1,32.8,2.2c2.7,0.5,5.6,1.6,8.1-1.2c1-1.1,2.3-0.1,2.9,1c1,1.7,2.1,3.4,2.4,5.5
				c0.3-2.3,0.3-4.4,0.3-6.6c0-2.2,0-4.4,0-6.7c0-7.4-0.2-7.7-7.4-7.6c-15.7,0.2-31.4-0.3-47-2c-3.1-0.3-4.3,1.1-4.4,4.1
				c0,4.6-0.2,9.2-0.3,13.8c0,2.2-0.5,4.2-3.2,4.3c-3.1,0.2-3.7-2.4-3.8-4.5c-0.3-4,0-8,0-12c0-4.7-2.2-6.9-6.9-6.9
				c-11.3,0-22.5,0-33.8,0c-7.8,0-15.5-0.6-23-3.1c-2.4-0.8-2.7-1.3-1.5-3.4c1.6-2.8,3.5-5.6,4.4-8.6c1.6-5.6,5.5-7.2,10.7-7.2
				c2.2,0,4.4,0,6.7,0c5.8,0,6.3-0.7,5.7-6.6c-1.7-15.9-2.2-31.9-3-47.9c-0.4-8.5-0.3-17.1-1.3-25.5c-0.6-5.1-0.7-10.4-1.8-15.6
				c-0.6-3,0.3-7.9,3-11.4c2.6,41.5,6.5,82.8,5,124.5c3.9-7.5,9.4-14.1,8.6-23.4c-1-11-1.1-22.1-1.9-33.1c-1-13.7-0.8-27.5-2.2-41.2
				c-0.7-7.3-0.1-14.7-0.1-22c0-1-0.2-2.2,1-2.6c1.6-0.5,1.9,1.1,2.6,1.9c0.9,0.9,0.9,2,0.6,3.3c-1.6,5.9,0.3,11.9,0.1,17.9
				c-0.3,14.6,1.1,29.3,1.4,43.9c0.3,11.8,1.8,23.5,1.1,35.3c-0.2,2.7,0.9,3.7,3.6,3.6c4.2-0.1,8.5-0.2,12.7,0
				c2.9,0.2,3.5-1.2,3.4-3.6c-0.4-8.2-0.6-16.3-1.1-24.5c-1.3-20.7-2.2-41.5-4.2-62.1c-0.8-8.8,3.6-16.5,3.1-25.2
				c-0.2-3.1,3.4-3.3,5.5-2c4.4,2.7,7.7,6.7,10.9,10.6c0.5,0.6,0.7,1.3,0.2,1.9c-0.8,0.9-1.4,0.2-2.1-0.3c-2.3-1.4-2.8-4.7-6.3-5.5
				c0,3.8-0.3,7.4,0.1,10.9c2,17.4,2.6,34.9,3.8,52.3c1.1,17,1.7,34,1.3,51.1c-0.1,2.8,0.5,5.4,1.1,8.1c0.3,1.2,1.5,2.1,2.1,1
				c2.3-4.2,7.5-6.9,7.3-12.5c-0.3-7.3-0.3-14.7-1.3-21.9c-2-14-2.6-28.1-3.7-42.2c-0.9-11.5-0.9-23.1-1.2-34.7c0-1.1-1.5-3,0.6-3.3
				c2-0.3,2.1,1.8,2.2,3.3c1.4,19,3.1,38,4,57c0.6,13.7,2.1,27.4,1.4,41.2c-0.1,1.9,1.2,2.7,2.9,2.8c2,0.2,4.1,0.4,6.1,0.5
				c9.4,0.3,11.6,3.6,8,12.5c-2.4-3.4-2.2-2.8-6.1-1c-2.6,1.1-2.7,2.7-4.1,5c3.8-0.2,7.6,1.2,9.6-1.3c4.5-5.8,9.7-11.5,9.1-19.8
				c-1.4-19-2.4-38-4.2-57c-0.9-8.8-0.2-17.7-1.6-26.5c-0.6-4-1-8.2,0.6-12.3c1.7,0.4,1.7,1.5,2,2.4c1.7,4.8,0.6,9.8,1.1,14.7
				c2.3,25.1,3.3,50.3,4,75.5c0.3,9-1.7,8.6,8.9,9.6c10.9,1,9.5,4.7,9.4,12.3c0,1,0,2.2-1.3,2.4c-1,0.1-1.2-1-1.8-1.6
				c-1-0.8,0.4-2.4-0.2-2.7c-5.5-0.7-3.2,6.8-8.4,5.8c0.9,0.3,1.5,0.4,2.2,0.4c10.5,0.2,10.4,0.2,9.9-10.5
				c-1.1-23.5-3.8-46.8-4.4-70.3c-0.2-7.1-0.2-14.3-1.1-21.4c-0.8-6.1-1.2-12.1,0.3-18.2c2.2-9.3,0.3-12-8-12.1
				c-5.1,0-6.6-2.8-4-7.4c0.7-1.3,2.4-2.2,1.4-4c-2.7,2.4-4.6-2.8-5.9-1.3c-4.1,4.8-5.8-0.2-8.1-1.7c-1.9,1.4-0.6,3.6-2.2,5.1
				c-0.8-1.3-1.5-2.4-2.1-3.3c-3.6,1.4-1.3,6.6-5.5,7.3c-3.5,0.5-6.7-1-10.1-1.2c-1.3-0.1-2.7-0.5-4-0.6c-2.9-0.2-5.7,0.1-8.6-0.9
				c-4-1.5-1-5.5-3.1-7.9c0.7,7.4,0.2,7.3-7.2,6.8c-7.7-0.5-15.2-3.8-23.6-0.8c1.1-2.8-1.2-5,0.5-7.4c0.2-0.3,0.9-1,0.1-0.9
				c-5.6,0.6-4.8-4.4-6.9-7.8c0.1,2.4,2.2,4.9-0.3,5.6c-1.9,0.5-1.7-2.4-2.7-3.7c-0.3-0.4-0.5-0.9-0.9-1.2c-1-0.7-2.1-1.4-1.6-2.8
				c0.6-1.7,2.3-1.5,3.5-1.3c5.8,0.9,11.8,0.7,17.6,1.4c23.2,2.8,46.3,6.5,69.1,11.5c0.5,0.1,1.1,0.3,1.5,0.2
				c10.6-3,20.4,2,30.6,3.1c8.5,1,17,4.3,25.3,3.7c9.5-0.6,18.1,2.3,27.1,3.5c6.9,0.9,13.6,3.4,20.5,3.8c7.7,0.4,15.4,1.2,22.9,2.4
				c13.9,2.3,27.8,4.3,41.8,5.3c9.5,0.7,18.9,2.2,28.2,3.7c7.7,1.3,15.3,4.1,23.2,2.2c-12.1-1.8-24.4-3.5-36.6-5.3
				c-7.7-1.1-15.4-3.1-23.2-3.3c-10.6-0.3-20.9-2.4-31.3-3.4c-12.3-1.2-24.5-3.7-36.7-5.5c-20.4-2.9-40.7-5.6-61.1-8.6
				c-19.8-2.9-39.6-6.1-59.4-8.9c-18.5-2.6-37.1-4.8-55.6-7.4c-15.3-2.1-30.5-4.8-45.9-6.9c-21.7-3-43.6-5.1-65.2-8.6
				c-23.5-3.9-47.2-6.3-70.7-10c-14.3-2.2-28.6-4.2-42.9-6.1c-11.6-1.6-23.3-2.3-34.8-4.5c-8.6-1.6-17.2-0.8-25.7-2.2
				c-14.8-2.4-29.6-4.1-44.4-6.1c3.9,1.2,7.8,2.2,11.7,2.6c21.3,2,42.1,6.7,63.2,9.8c1.9,0.3,4.6,1.1,5.6,0.1
				c2.7-2.3,5.6-1.8,8.3-1.5c17.7,2.4,35.3,5.7,53,7.3c8.3,0.7,15.4,4.8,23.6,5.5c11.1,1,22.2,1.4,33.3,3.4
				c12.9,2.3,25.9,3.6,38.8,5.4c3.6,0.5,6.2,1.8,5.6,6.7c-0.4,3.6-0.9,7-2.4,10.3c-0.6,1.4-1.8,3.6,0.7,4.2
				c4.6,1.1,9.3,2.4,14.1,2.1c3.7-0.2,3.3-3.5,4-5.7c0.7-1.9-0.5-3.2-2.4-3.9c-4.1-1.5-6.1-4.5-5.9-9c-3.2,1.1-0.8,4.6-3,6
				c-1.6-2.3-2.7-6.7-1.7-7.8c1.9-2.1,4.1-0.7,6.2-0.2c1.7,0.4,3.3,1,5,1c17.6,0.1,34.7,4.4,52.1,6.4c12,1.4,11.9,1.7,9.4,13.5
				c-0.1,0.5,0,1-0.1,1.5c-0.9,4.9-0.9,4.9,4,7.9c-4.5-0.2-9.3,2.7-10.1-4.5c-0.1-1.5-2.2-1.2-3.5-1.3c-4.2-0.5-8.4-1.3-12.7-1.4
				c-5.8-0.2-8.3-2.9-7.5-8.6c0-0.1-0.4-0.3-1-0.6c0,3,2.6,7.8-2.8,7.3c-5.1-0.5-10.2-0.2-15.2-1.3c-2.9-0.6-7-2.3-8.7-0.2
				c-2.5,3.1-5.3,4-9.2,4.3c2.7,4,6.8,6.3,7.1,11c-0.3,0.3-0.6,0.6-0.9,0.9c-1.9-2.2-4.1-4.2-5.5-6.6c-1.7-2.9-3.3-4.2-6.8-1.1
				c1.3-6.4-1.8-7-6-6.7c-2.2,0.1-4.7,0.3-4.5-3.2c0-0.9-0.7-1.5-1.6-1.8c-5.2-1.5-10.9-3.3-16-1.7c-2.9,0.9-4.6,1.5-7.1-2.2
				c4.2,61,7.3,120.5,7,180.1c2.4-2.6,2.4-2.6,2.8-8.6c0.2-3.7,3.2-6.3,6.6-5.7c13.3,2,26.8,2.4,40.2,2.4c4.8,0,9.5,0.6,14.2,1.1
				c2.1,0.2,2.9,1.1,3.2,3.2c0.4,3.2,1,6.4,1.6,9.7c1.4-0.7,1.7-1.5,1.6-2.4c-0.1-6.1,0-12.2-0.4-18.3c-0.2-2.9-2.3-3.8-5.1-3.8
				c-17.6,0-35.1,0.3-52.7-0.9c-3.1-0.2-5.9-0.8-8.8-1.9c-3-1.2-3-2.8-1.7-5.1c2.2-4,4.4-8.1,6.9-12c1.1-1.7,2.5-3.9,4.6-3.7
				c6.3,0.7,12.6-0.5,18.8,1.3c2.2,0.6,3.1,1.7,3.4,3.8c0.4,3.4,1,6.8,1.6,10.5c3.1-2.4,4.3-5.5,5.7-8.3c2.4-4.5,5.8-6.5,10.7-6.1
				c2.7,0.3,5.4,0.8,8.1,0.9c5.5,0.4,7.8-2,6.6-7.3c-0.6-2.7-0.7-5.4-0.8-8.1c-0.2-18.3-2.5-36.5-3.5-54.7
				c-0.8-13.6,0.1-27.4-2.7-40.9c-0.1-0.4,0.3-1.2,0.4-1.2c5.3-0.5,3.4-4.5,3.7-7.3c0.2-2.1,0.1-4.1,3.1-4.3c3-0.2,3.5,1.5,4.1,3.9
				c0.5,2.1-0.2,4-0.1,6c1.2,20.3,2.7,40.6,3.5,60.9c0.6,15.7,0.2,31.3,0.4,47c0.2,16.3,0.7,32.7,1,49c0,2.5,0.2,5.2-2.1,7
				c-0.1,0.1-0.3,0.1-0.5,0.2c0.1,0.1,0.2,0.2,0.4,0.4c3.9-0.8,2.5-3.9,2.8-6.4C1486.8,293,1487.4,289,1492.4,288.3z M884.6,123
				c0.5-0.1,1.1-0.1,1.6-0.2c-0.8-10.7,0.4-21.4-0.8-32.1c-0.5-4.3,0.3-8.7,0.5-13.1c0.1-1.3,0.7-2.4,2-2.6c1.7-0.3,1.8,1.3,2.1,2.4
				c0.4,1.4,0.6,3,0.8,4.5c0.6,6.2,0.4,12.5,0.1,18.8c-0.4,11.1,0,22.1,0.7,33.2c1.2,19.9,0,39.9,0.8,59.9
				c0.5,13.5,1.4,27.1,0.5,40.7c-0.5,7.7-0.1,15.4-0.3,23.1c-0.1,3.5-1,7-0.5,10.6c0.1,1.1,0.2,2,1.5,2.2c1.2,0.1,2.1-0.5,2.3-1.6
				c0.3-1.1,0.6-2.5,0.2-3.5c-2.7-7.4-1.3-14.9-0.9-22.3c0.9-15.2-1.2-30.4-1.2-45.6c0.1-22.1,0.3-44.1-0.7-66.2
				c-0.8-15.3-0.2-30.6-0.2-46c0-2.9,0-5.8,0.1-8.7c0-1,0.1-2.2,1.5-2.2c1.1,0,1.8,0.9,2,2c0.2,1,0.2,2,0.2,3.1
				c0.3,23.9,0.1,47.7,0.8,71.6c0.6,21.4,1.2,42.8,0.3,64.2c-0.2,6.1,0.9,12.2,1,18.3c0.1,10.6-0.7,21.1-1.1,31.6
				c-0.1,4,1.4,5.8,5.4,5.3c10.8-1.3,21.7-1.9,32.6-2.1c3.6-0.1,5.6-1.9,5.4-5.9c-0.2-6-0.7-11.9-0.8-17.8
				c-0.4-25.1-1-50.1-2.1-75.2c-0.6-12.7-0.7-25.5-1-38.2c-0.4-20.9-0.8-41.8-1.9-62.7c-0.3-6.1-0.1-6.3-5.9-4.9
				C914,67.2,898.5,71,883,74.9c-12.9,3.2-25.3,7.9-38.4,10.4c-9.4,1.8-9.3,1.8-9.2,11c0.1,37.5-0.1,75,0.1,112.4
				c0.1,19.9-0.3,39.8-1.1,59.7c-0.3,7.7,0.3,7.9,8.1,7c10.8-1.2,21.6-2.2,32.5-2.9c6.8-0.4,8.8-2.5,7.4-9.3
				c-0.7-3.5-1.2-7.2-1.2-10.4c0-3.5,0.2-7.3,0.4-10.9c0.8-15.4-0.2-30.8-0.3-46.2c-0.1-13.6-1.3-27.3-0.6-41
				c0.6-12.3-1.6-24.5-1.4-36.9c0.2-8.2,0.9-16.5,0.3-24.8c-0.3-3.7-0.1-7.5-0.1-11.2c0-1.2-0.3-3.6,1.8-3.7c2-0.1,2.1,1.8,2.3,3.3
				c0.3,3.2,0.9,6.4,0.9,9.6C884.7,101.7,884.6,112.4,884.6,123z M1222.1,261.5c-4.5-0.7-4.4-2-2.6-4.3c1.9-2.4,3.4-5.1,4.9-7.8
				c2.4-4.4,6.1-6.5,11-5.7c6.1,0.9,12.2,0.3,18.2,0.2c3.8-0.1,4.9-1.2,4.7-4.6c-0.7-8.5-1.5-16.9-2-25.4
				c-1.2-22.1-1.7-44.2-3.4-66.3c-0.7-8.8,0.1-17.7-1.6-26.5c-0.3-1.7-0.8-4.4,1.7-4.6c2-0.1,2.7,2.4,2.8,4.3
				c0.3,4.2,0.8,8.5,1,12.7c0.8,24.9,1.9,49.7,3.3,74.5c0.8,15.9-1.2,31.9-0.1,47.8c0.1,0.8,0.4,2.1-1.2,2.4
				c-0.5-1.1-0.9-2.2-1.4-3.3c-0.4-0.9-0.5-2.9-0.8-2.6c-1.7,1.5-4.7-0.6-5.1,0.9c-1.1,4.4-6.8,4.9-7.3,9.8c3.4-0.3,6.8-1.1,10-0.7
				c6.8,0.8,10.8-1.9,13.7-7.9c2-4.2,5.3-8.4,9.8-9.1c10.1-1.7,20.1,0.5,30.5,1.6c-4.4,5.4-10.1,8.2-13.4,13.5
				c-0.5,0.8-0.9,1.3-1.9,0.9c-3.7-1.5-5-1.2-8.5,1.5c6.7,2.3,13.8,0.9,20.7,1.7c5.7,0.7,7.3-0.7,6.5-6.4c-0.7-5-1.6-10.1-1.9-15.2
				c-0.8-12.5-1.4-25.1-2.1-37.7c-0.3-5.9-0.7-11.8-1.3-17.7c-1.4-13.7-2-27.4-3.1-41.1c-0.6-7.6,0.3-15.3-1.4-22.9
				c-0.4-1.9-3-5.6,2.5-4.3c0.9,0.2,1.3-0.9,1.3-1.9c0-4.2,0-8.5,0-12.7c-0.5-0.1-0.9-0.1-1.4-0.2c1.4,5.3-2.3,8.7-4.2,12.8
				c-0.6,1.2-1.6,1.6-3,0.8c-1.6-1-0.1-1.6,0.2-2.4c1.2-3,2.2-6.1,3.7-9c1.8-3.7,0.5-4.8-3.2-5c-8.8-0.5-17.6-1.7-26.3-3.3
				c-3.1-0.6-4.9-1-4.3-5.1c0.4-2.7-0.1-5.9-0.6-9.2c-2.2,2.1,0.3,5.4-3.1,6.7c-0.7-2.2-1.4-4.3-2.8-8.4c-0.1,7.3-6.2,3.5-8.2,7.1
				c-0.5,0.8-1.7-0.4-1.7-1.1c0-1.5,0.3-2.9,0.6-4.4c0.1-0.5,2.2-0.3,0.6-1.4c-0.3-0.3-1.3,0-1.8,0.3c-0.9,0.6-0.8,1.8-1.1,2.8
				c-1.3,3.7-2.6,7.3-4.2,10.9c-0.5,1.1-0.8,3.1-3.2,1.5c-6-4.1-13.2-4.6-20-5.3c-6.8-0.7-13-1.3-12.7-10.8
				c-0.5,4.2-1.4,7.6-0.2,11.7c1.4,4.7,0.1,10.1,0.5,15.2c1.1,14.4,1.6,28.8,2,43.3c0.4,14.1,1.8,28.2,1.9,42.2
				c0.2,20.6,0.3,41.2,1.1,61.9C1214.1,262.5,1213.9,262.5,1222.1,261.5z M1394.4,120.5c-2.4,1.2-2.3,2.8-2.6,4
				c-0.9,3.8-3,5.6-6.9,5.1c-4.6-0.6-9.3-1.3-13.9-2.1c-0.9-0.1-2.3-0.1-1.7-1.7c0.3-0.9,1.3-0.9,2.2-0.7c4.2,0.8,8.5,0.6,12.6,2.1
				c2,0.8,3.9,0.5,4.5-1.8c0.9-3.2,3.7-5.9,2.7-9.5c-0.1-0.3-0.8-0.6-1.3-0.6c-8.8-0.6-17.6-3.8-26.8-0.6c2.4-3.1-1.8-7.8,2.5-10.8
				c0.2-0.2-0.2-1.6-0.6-2.3c-1.6-2.4-5.8-2.8-8-0.8c-1.8,1.6-3.4,3.7-6.6,2.8c-2.1-0.6-3.7,0.8-4.8,2.9c-0.6,1.1-1.1,2.9-3.2,2.6
				c-6.7-1.1-13.4-2.2-20.1-3.3c-3.9-0.6-8.1-0.8-6-6.8c0.3-1-0.7-2.4-1.1-3.6c-0.3,0.1-0.6,0.1-0.9,0.2c2.1,55,4.1,110,6.3,166.5
				c1.6-3.1,2.5-4.7,3.2-6.5c2.3-6,5.8-8.7,12.2-8.6c4.9,0.1,9.8,0.7,14.7,1.1c3.6,0.3,5.8,2.1,6.5,5.9c0.5,3.1,0.8,6.3,3.1,9.5
				c1.9-3,3.6-5.5,5-8.1c2.7-4.9,6.6-6.7,12.2-6.6c5,0.1,9.8,1.1,14.7,1.3c4.4,0.2,5.9-1.3,5.4-5.5c-0.8-7.1-1.9-14.2-1.9-21.3
				c0-10.8-1-21.4-1.7-32.1c-1.2-18.8-2.7-37.7-2.6-56.6c0-1.3-0.5-3.1,0.7-3.9C1396.5,127.8,1394.1,124.2,1394.4,120.5z
				 M1525.2,383.2c-1.5-0.1-3.7,0.6-2.8-1.7c1.3-3-0.6-5.1-1.5-7.6c-2.7-7.5-6.7-14.8-5.3-23.4c0.3-1.7,0.1-4-1.9-4.2
				c-6.3-0.7-12.5,0.7-18.7,1.3c-0.4,0-0.8,0.6-1,1.1c-3.2,5.4-8.6,6-14.2,6.5c-7.6,0.6-15.1,1.4-22.7,1.4
				c-9.9,0.1-18.7,6.3-28.8,6.2c-6.8-0.1-14.3,3.5-19.5-4.3c-0.8-1.3-3.5-1.5-5.3-1c-1.9,0.5-3.6,0.4-5.5,0.1
				c-3.7-0.6-7.4-1.2-9.2,3.8c-0.6,1.8-3.1,3-5.6,3c-3.1,0-6.1-0.1-9.2,0c-3.7,0.1-6-1.8-6.4-5.2c-0.3-2.5-1.1-3.5-3.5-4.1
				c-4.5-1.1-6.6-7.3-3.9-10.8c-5-0.4-5.6,0.2-5.7,3.8c0,7.1,1.5,14.6-4.8,20.2c-0.4,0.3-0.3,1.3-0.4,1.9c-0.4,5.3-2.7,10.1-4.6,15
				c-1.9,5.1-2.2,5.3,3.5,4.9c17.4-1.3,34.9-0.7,52.3-1.7c24.1-1.4,48.3-1.6,72.5-2.3c10-0.3,20.1-0.6,30.1-1.4
				C1510.2,384.2,1517.7,387.4,1525.2,383.2z M1789.6,163.4c-0.8,1-1,1.8-0.6,2.6c3.5,8.3,2.4,17.2,3.2,25.7
				c1.4,15.1,1,30.3,2.5,45.4c0.7,7.3,0.6,14.6,1.4,21.9c1.2,10.6,1,21.4,1.4,32.2c0,1.5,0.1,3.4-2,3.5c-1.4,0-1.9-1.5-1.7-2.7
				c0.9-6.6-3.4-6.5-7.9-6.5c-11.6,0-23.2,0-34.8,0c-2.7,0-5.6,0.3-6.3-3.8c-0.6,6.1-0.6,11.8-0.6,17.6c0,1.9,0,4.1-2.5,4.3
				c-2.7,0.2-2.7-2.4-3-4c-0.7-3.8,0-7.8-1-11.7c-0.5-1.8-1-3.3-3.2-3.3c-4.3,0-8.4-1.3-12.7-1.2c-8.7,0.3-17.4,0.3-26-0.9
				c-1.3-0.2-3.1,0.2-3.7-1.3c-0.8-2.4-2-1.2-3.5-1c-2,0.3-1.8,1.5-1.8,3c0.1,6.3,0,12.6,0.1,19c0,1.1-0.5,3,1.1,2.8
				c1.6-0.1,1.3-1.7,1-3.2c-1-5.6,3.4-10.8,8.9-10.9c9.2-0.1,18.4,1.3,27.6,1.2c5.2-0.1,9.6,1.6,9.5,8.3c0,5.4,4.7,5.9,8.3,6.2
				c4.1,0.3,2.7-3.9,3.5-6.2c0.5-1.3,0.3-2.8,0.9-4c0.8-1.7,1.4-3.4,4.2-3.7c8.7-0.9,17.4,0.4,26.1,0.3c7.1,0,14.1,0.8,15.6,10.1
				c0.4,2.2,4.6,2.2,5.9-0.1c0.9-1.4,1.3-3.1,1.7-4.8c1-3.9,3.3-5.7,7.4-5.4c5.3,0.4,10.5,0.8,15.8,1.1c1.6,0.1,2.8,0.7,2.7,2.4
				c-0.1,1.7-1.7,1.3-2.8,1.3c-5,0.1-10.1,0-15.3,0c7.4,1.5,16.6-2.9,20.4,5.6c0-2.1,0-5.8,0-9.6c0-4-1.7-6.3-6.2-6.3
				c-5.7-0.1-11.5-0.6-17.2-1c-1.1-0.1-2.7,0.2-2.5-1.7c0.2-1.1,1.4-1.6,2.4-1.5c5.1,0.3,10.2,0.5,15.3,1.1c4.2,0.5,5.9-0.9,5-5.1
				c-1.8-8.5-1.6-17.1-1.9-25.6c-0.2-5.4-2.9-10.5-1.5-16.2c2-7.9-3.3-15.5-1.3-23.9c1.3-5.4-0.1-11.4-0.3-17.1c0-1.3-0.2-2.5-1.5-3
				c-2.5-1.1-3.3-1.9-0.2-3.4c2.2-1.1,2.1-3.5,1.2-5.4c-1.1-2.4-3.5-1.8-5.5-1.5c-2.7,0.4-1.7,2.5-1.6,4.1c1,15.8,2.4,31.6,3,47.4
				c0.7,15.8-0.8,31.8,4.3,47.2c-2.3,0.6-4.7-2.1-4.9-1.7c-3.3,4.8-7.5,1.2-11.3,1.3c-1.6,0.1-3.9,0.8-4.5-1.3c-0.5-1.9,0.5-4,2-5.5
				c2.2-2.1,4.3-3.7,7.7-2.5c3.9,1.3,4.7-0.9,4.4-4.3c-0.3-3.2-0.9-6.5-0.7-9.6c1-14.5-1.8-28.8-2.5-43.3
				c-0.4-7.1-0.9-14.2-1.1-21.3c-0.2-5.7,0.2-11.5-7.4-12.7c-0.2,0-0.3-0.7-0.5-1.2c3.7-1.8,9.1,3.1,11.1-4.1
				c1.5,2.7,2.1,5.5,5.3,4.6c1.5-0.4,2.4-1.3,2.5-2.8c0.1-1.9,0.4-3.8-0.5-5.6c-0.4-0.9-0.6-2.1-2-2c-1,0.1-1.2,1-1.7,1.7
				c-2.5,4.2-10.9,5.9-13.1,2.1c-2.5-4.4-6.1-4.2-9.8-4.8C1791.4,168.1,1789.3,167.1,1789.6,163.4z M1737.1,271.8
				c0.9-2.5-1.9-3.6-2-6c-0.5-12.9-1.2-25.8-2-38.7c-0.3-4.9-1.1-9.8-1.5-14.7c-1.1-11.6-2.5-23.2-3-34.8c-0.3-6,0-6.1-8.7-6.6
				c-5.1-0.3-2.7,3.9-3.3,6.3c-0.1,0.6,0,1.4,0.1,2c2,15.9,1.9,32,3.7,48c1.3,11.7,2.4,23.7,1.3,35.6c-0.3,3.2,1.1,4.1,4.1,4.3
				C1729.9,267.5,1734.5,267.5,1737.1,271.8z M1108.3,341.4c-3.3-0.9-6.3-0.8-9.3-0.1c-3.7,0.9-7.8,1.8-11.2,1.7
				c-7.5-0.3-15.1-0.3-22.6,0.3c-3.4,0.2-6.3,0-9.4-1.2c-2.4-1-4-2.4-3.7-5.3c0.3-2.9,1.5-4.5,4.5-5.3c2.7-0.7,5.4-0.7,8.1-0.7
				c8.8,0,17.6,0,26.4,0c0-0.4,0-0.8,0-1.2c-27.4,0.1-54.8-1.2-82.2,1.6c0,0.4,0,0.8,0,1.2c12.8,0,25.6,0,39.2,0
				c-2.1,2.9-4.1,2.2-5.9,2.2c-8,0.1-16.1,0-24.1,0.1c-1.6,0-3.7-0.7-4.2,1.7c-1,4.4-5,5.3-7.9,5c-4-0.5-7.7,0.7-11.6,0.4
				c-3.2-0.2-4.3,1.2-4.1,4.3c0.4,5.9,1.7,11.6,3.6,17.2c0.4,1.2-0.1,3.4,2,2.7c1.2-0.4,3-1.4,2.3-3.8c-1.3-4.5-0.3-9.2-0.5-13.8
				c-0.1-2.8,1.2-4,3.7-4.6c4.7-1.2,9.5-1,14.2-0.2c2.1,0.4,3.1,0.1,2.4-2.2c-0.4-1.3-2.1-3-0.4-4c1.8-1,3.4,0.6,4.7,2.2
				c3.3,4.1,6.7,8.2,11.2,11.2c-2.4-2.5-2.5-6-4.1-8.9c-1.3-2.2-0.5-5.1,1.7-5.5c5.1-0.9,10.3-2.7,15.6-0.3c3.2,1.5,5.1,4,4.6,7.2
				c-1,6,0.5,11.8,0.6,17.7c0.1,4.9-2.6,6.9-7.1,5.1c4.9,10.5,5.9,11.3,12.7,9.5c-1.4-1.3-5.7-2.6,0-4c1.5-0.4,0.8-1.9,0.9-3
				c0.5-4.5-3.6-7.7-2.9-12.7c0.9-6.5,3.5-10.3,10.1-10.6c5.4-0.3,10.9-0.3,16.3-0.9C1090.7,343.3,1099.7,346.3,1108.3,341.4z
				 M1320.6,289.3c1.8-7.3,5.5-10.1,12.9-9.7c18.8,1,37.6,2,56.4,2.7c7.2,0.3,8.6,1.3,8.6,8.7c0,3.5,0,7,2.3,9.9
				c0-8.3-0.1-16.4,0-24.6c0-2.9-0.7-4.3-4-4.3c-7-0.1-14.1-0.4-21.1-0.5c-10.7-0.2-21.4-1.4-32.1-1.6c-6.2-0.1-12.5,0.4-18.5-1.6
				c-3.9-1.3-4.5,0.4-4.5,3.6C1320.6,277.7,1320.6,283.5,1320.6,289.3z M889.8,414.9c2.2,1.7,4.7,1.3,6.9,1
				c12.7-2.2,25.5-1,38.3-1.5c27.4-1,54.8-1.2,82.1-2.4c19.9-0.8,39.7-0.9,59.6-2c17.7-1,35.4,0.2,53.2-1.1
				c11.5-0.9,23.1-0.6,34.6-0.9c15.5-0.3,31-1.3,46.5-1.4c7.8,0,15.6-0.3,23.5-0.7c18.2-1,36.3-3.1,54.5-2.4
				c1.9,0.1,4.1,0.7,6.1-1.4c-12.2,0.9-23.9-0.3-35.7,1c-12.4,1.3-25.1,0.9-37.5,1.7c-13.6,0.9-27.2,0.3-40.8,1.2
				c-13.6,0.9-27.2,1.8-40.9,1.4c-5.4-0.2-11-0.6-16.3,0.2c-15.3,2-30.6,0.1-45.9,1.7c-10.6,1.1-21.4,0-32.1,0.9
				c-15.1,1.3-30.3-0.1-45.5,1c-17.3,1.2-34.7,0.1-52,1.2c-17.8,1.1-35.6,0.8-53.5,1.2C893.2,413.7,891.3,412.9,889.8,414.9z
				 M1758.1,351.6c4.9-6.3,5.8-0.1,8.3,2.6c-0.7-6.6,4.9-2.1,6.4-4.9c-2.1-2.1-4.8-0.9-7.2-1.3c-1.2-0.2-3,0.4-3.2-1.6
				c-0.4-3,3.5-5.3,6.5-5.3c5.6,0,12.2,3.1,16.3-3.8c0.7-1.1,2-1.4,3.2-0.9c1.4,0.6,2.2,1.9,1.6,3.3c-1.3,3.4-2.3,7.3-7,7.8
				c-1.8,0.2-3.6,0.6-5.4,1c3.1,0.5,6.5-0.8,8.9,1.1c2.7,2.1,2.6,0.8,3-1.3c0.6-3.3,1.7-6.2,5.2-7.7c1.3-0.6,3.7,0.1,3.9-1.8
				c0.1-2-2.1-2.9-3.6-3.9c-1.4-0.9-3.1-2-4.6-2c-10,0.3-19.9-2-29.9-0.6c-6.1,0.8-12.4,1.3-18.6,0.7c-5.1-0.5-9.3,1.6-12.9,5.8
				c2.5,0.9,4-0.3,5.6-1.2c1.2-0.7,3-1,3.6,0.4c0.8,1.6-1.3,1.5-2.1,2.2c-2.1,1.7-4.2,3.5-6.9,5.8c3,0.2,4.1-2.5,6.5-1.6
				c-0.8,3-1.5,5.9-2.3,8.8c0,0,0.3,0.1,0.4,0.2c2.1-0.2,2-1.9,2.5-3.3c1.2-3.6,3.5-4.8,7.1-2.7c2.3,1.3,5.1,2,5,5.6
				c0,1.4,1.3,2.5,2.7,2.6c1.6,0.1,2.1-1.5,2.7-2.7c1.8-3.3-0.5-5.5-2.2-7.7c-1.5-1.9-1.3-3.8-0.7-5.8c0.3-0.9,1.3-1.1,2.2-0.9
				c2,0.5,3.6,1.5,4.4,3.7C1758.8,345,1758.4,347.9,1758.1,351.6z M1675.9,347.3c0-0.1,0-0.2,0.1-0.4c-3.2,0-6.5,0.1-9.7,0
				c-1.2,0-3.2,0.3-3.1-1.7c0.1-1.6,1.7-2,3.1-2c4.8,0.1,9.6-0.7,14.3,0.5c1,0.2,2.1,0.9,2.8-0.2c0.4-0.6,0-1.6-0.2-2.4
				c-0.4-1.4-1.5-1.3-2.4-0.9c-5.5,2.5-11.2,1-16.8,0.6c-2.3-0.2-5.3,0.3-5.2-3.2c0.1-3,2.3-4.5,5.2-4.6c2.9-0.2,5.8,0,8.7,0
				c-2.2-0.6-4.4-0.7-6.5-0.6c-12.8,0.6-25.8-5.4-38.5,1.7c-3.5,2-3.9,1.3-2,4.6c0.5,0.9,0.2,1.6-0.3,2.3c-1.6,2.8-1.5,5.8-1.4,8.9
				c0,0.9-1,2.2,0.3,2.7c1.6,0.5,1.6-1.1,2.3-2c1.5-2.4,2.6-5.6,6.8-4.2c0.4,0.1,3.3,5.2,3.5-0.5c0-0.6,1.7-0.1,2,0.6
				c1.8,3.3,5.2,6.1,3,10.7c-0.6,1.1-1.5,2.9,0,4c7.2-1.4,5-5.4,3.3-9.8c-1.6-4.3-5.9-9.1,1.8-12.7c2.7-1.3,5.1-2,7.7-1.4
				c2.7,0.6,3.2,3,3.5,5.6c0.4,2.9-0.2,5.8-0.2,8.6c0,1.8-0.5,3.8,1.8,4.9c-2.4-4.7,0.3-9.1,5.4-9.1
				C1668.7,347.3,1672.3,347.3,1675.9,347.3z M1628.3,296.1c5.5-6.6,5.9-7.1,11.8-6.2c11,1.6,22,0.8,33,1.8c3.6,0.3,6.3,0.1,5.6,5.1
				c-0.3,2.1,0.9,4.5,1.4,6.7c1.6-0.3,2-1.5,1.6-2.3c-2.7-4.7-0.9-9.7-0.8-14.5c0.1-3.8-1.1-5.8-5.3-5.5c-14,0.8-27.9-1.3-41.9-0.9
				c-3.2,0.1-5.3-0.7-6.1-4.1c-0.2,6.5-0.2,12.6-0.2,18.7C1627.5,295.3,1628,295.7,1628.3,296.1z M1314.4,373.9
				c-3.6,5-14.3,9.2-19.6,8.7c-3.3-0.3-6.3-0.2-9.5,0.2c-5.2,0.5-11.1,1.8-15.6,0.5c-7.4-2.2-11.5-0.9-14.1,6.1
				c-0.1,0.1-0.2,0.3-0.3,0.4c-0.9,0.9-2.9,1.3-2,3c0.8,1.3,2.5,0.7,3.8,0.7c12.2-0.3,24.4-0.7,36.6-0.9c3.1-0.1,3.6-1.3,2.4-3.8
				c-1.8-3.6,0.1-4,3.2-4.7c4.1-0.9,6.3,1.8,8.2,3.9c4.4,4.7,9.7,6.5,15.6,5.3c5.7-1.1,12.1-1.9,15-8.6c-2.2-0.4-3,1.3-4.1,2.1
				c-8.5,6.1-14.8,6.6-23.9,1.3c-4.1-2.4-4.3-5-1-8.5C1310.9,377.6,1313.5,376.7,1314.4,373.9z M1553.5,394
				c-2.1-1.4-3.8-0.9-5.4-0.8c-12.7,0.6-25.5,1.8-38.2,1.7c-16.1-0.1-32.2,1.1-48.3,1.8c-12.3,0.5-24.6,0.9-36.9,1.2
				c-18.7,0.6-37.3,1.5-56,1.8c-6.6,0.1-13.1,0.9-19.7,1.1c-7.7,0.2-15.3,0-23,0c0,0.5,0,1,0,1.5c4,0.3,7.9-0.3,11.9-0.4
				c22.3-0.7,44.6-0.1,66.9-1.4c7.8-0.5,15.6-0.7,23.5-1c22.8-0.9,45.7-1.9,68.5-3c15-0.8,30.2-1.8,45.4-1.2
				C1545.7,395.5,1549.3,394.5,1553.5,394z M941.1,105.2c0,2.2-0.1,4.3,0,6.5c0.3,5.9,0.8,11.8,0.9,17.7c0.4,33,0.8,65.9,1.1,98.9
				c0.1,11.4,0,22.8,0,34.3c0,2.3-0.4,4.8,2.5,7.1c0.6-6.2,0.6-11.6,0.7-17.3c0.4-17.2-1.6-34.3-1.9-51.5
				c-0.3-20.8,0.2-41.6-1.2-62.4C942.5,127.3,944.7,116.2,941.1,105.2z M1115,382.4c-3.8,3.2-7.9,4.2-12.6,4.9
				c-6.3,0.9-12.6,0.5-18.8,0.8c-4.2,0.2-8.6,0.5-10.3,5.1c-1.1,2.9-3.2,4.3-6.7,6.4c14-0.2,26.6,0.7,39.5-1.4
				c-1.5-1.8-2.7-3.2-3.8-4.7c-0.8-1.1-2.8-2.2-0.9-3.7c1.3-1,3.1-1.5,4.6,0.1c1.8,1.8,3.8,3.6,5.6,5.3
				C1106.6,389.3,1110.5,385.9,1115,382.4z M1231.2,343.9c-1.1-2.1-0.2-4.4-0.6-6.5c-0.2-1-0.3-2.2-1.7-2c-1.1,0.2-1,1.2-0.8,2.1
				c0.1,0.7,0.2,1.4,0.1,2c-0.1,1.6-0.5,3.4-2.2,3.6c-1.9,0.3-1.6-1.9-1.9-3.1c-0.8-3.1-1.7-6-5.9-5.6c-0.4,0-1-0.2-1.4-0.6
				c-3-2.7-5-2.3-7,1.6c1.7,0.6,2.9-2.7,4.4-0.7c1.2,1.6-0.9,2.8-1,4c-0.4,3.3-0.9,7.1,1,10c1.8,2.8,3.1,4.6,0.9,8
				c-1.1,1.7-1.5,5.9,2.4,6.5c2.2,0.3,5.9,1.8,6.5-1.6c0.5-2.7,2.5-7.1-2.6-8.4c-0.8-0.2-1.9,0.1-1.6-1.2c0.1-0.6,0.8-1.4,1.3-1.4
				c1.4-0.2,2.8-0.1,4.2-0.1c-0.6-0.6-1.3-0.5-1.9-0.6c-1.6-0.3-4.6,0.5-4.4-1.8c0.2-2.7,3.2-2,5.1-1.9c4.8,0.3,9.2,2,13.5,4.4
				C1237.5,342.8,1236.4,341.6,1231.2,343.9z M1224.2,331.3c7.4-1,14.8,0.4,22.1-0.8c4.3-0.7,6.5-0.7,10.2,2.6
				c4.7,4.1,5.1,8.1,4.5,13.2c-0.5,4.2-1.7,8.3-1.2,12.6c0.2,1.8,0.5,4.4,2.8,4.2c2.7-0.3,1.9-2.9,1.4-4.6c-0.9-3.1,1.4-6.5-1.7-9.5
				c-1.2-1.2,8.2-6.3,10.1-4.3c3.6,3.7,4.4,0.7,5.5-1.1c-5.2-2.9-13.8,1.8-16.1-7.9c-0.3-1.4-1.9-2.5-1-4.1c1-1.9,2.8-1.7,4.5-1.6
				c10.8,1,21.7,0.3,32.5,1.8c3.9,0.5,7.9,0.1,11.9,0.1c0-0.6,0-1.2,0-1.8C1281.2,328.8,1252.7,326.8,1224.2,331.3z M886.1,127.6
				c0.1,26.5-0.7,53.1,0.4,79.6c0.8,19.6,0.2,39.2,0.2,58.8c0,0.9,0,1.7,0,2.6c0,0.7,0,1.6,0.8,1.6c0.8,0,1.9-0.4,2.2-1
				c0.4-0.8,0.3-2,0.3-3c0.5-13.9-2-27.7-1.3-41.6c0.1-2.6-1.3-5.3-1.1-8c1.1-14.3,0.2-28.7,0.2-43
				C887.8,158.2,886.7,142.9,886.1,127.6z M942.8,402.5c9.3,1.7,18.2-0.5,27.3,0.1c-7.4-6-9.3-15.6-15.7-22.4
				C951,388.1,948.4,395.8,942.8,402.5z M830.6,307.2c-7.6,7.7-7.6,11-2.2,18.6c2.7,3.9,5.7,5.3,10.3,5c4.1-0.2,8.2,0,12.2,0.4
				c8.4,0.7,16.5-0.9,24.6-2.5c1.4-0.3,2.9-0.7,2.6-2.5c-0.3-1.7-1.8-1.9-3.2-1.8c-1.2,0.1-2.3,0.4-3.5,0.7
				c-7.7,2.1-15.2,5.1-23.4,4.3c-2.5-0.2-5-0.3-7.6-0.9c-2.5-0.6-5.4-0.8-4.4-4.1c1.4-4.8-2.1-1.7-3.2-2.4c-0.2-0.1-0.1-0.6-0.2-1
				C832.1,316.8,830,312.7,830.6,307.2z M1189,360.7c1.5,13.4,4.1,25.3,14.2,33.9c11.8,10.1,28.9,2.2,34.3-9.8
				c0.4-1,0.6-2.1-0.6-2.6c-0.9-0.4-1.6,0.5-1.9,1.3c-1.3,3-4,4.5-6.5,6.3c-5.5,4.1-11.7,5.3-18.4,3.8c-7.5-1.7-12.3-7.7-15.7-13.4
				c-2.1-3.5-3.6-8.9-3.1-14C1191.7,364.6,1192.3,362.5,1189,360.7z M1144.9,340.9c-1.5,1.7-3.6,1.6-5.5,2.3c-1.4,0.5-3.6,0.3-4,1.9
				c-1.2,4.9-4.6,8.5-6.7,12.9c-0.7,1.4-1.9,3.5,0.5,4.4c2.3,0.9,4.6,0,5.5-2.4c0.8-2.2,1-4.6,1.5-6.9c1.6-7.3,8.3-9.8,14-5.2
				c1,0.8,1.8,2.4,3.4,1.1c1.3-1,1.3-2.4,1.1-4.1c-0.6-7.6-10.3-2-11.6-8.3c-0.2-0.8-1.2-0.4-1.8,0c-2.5,1.7-4.4,0.1-6.5-0.9
				c-4.8-2.2-6.3-1.3-6.5,3.8c0,1.4-0.2,2.9-0.3,4.5C1133.5,339.4,1140.3,338.3,1144.9,340.9z M1190.4,396.6
				c-2.5-5.3-4.9-7.6-10.8-6.9c-7.2,0.9-14.6,2.4-21.8,1.2c-5.4-0.8-8.1,1.5-10.1,6.3C1161.9,398.4,1175.8,395.5,1190.4,396.6z
				 M1055.4,290.8c1.6-2.6,0.2-4.8-0.1-7c-0.3-3.5,0.4-6,4.8-4.2c4.2,1.6,8.7,0.6,13.1,1c1.3,0.1,3.7,0.8,3.4-1.6
				c-0.2-1.6-2.3-1.6-3.9-1.6c-11.8,0-23.6,0-35.5-0.1c-3.4,0-6.8-0.4-10.1-0.7c-5.6-0.6-11.3-0.2-17.3-0.2c0.7,2.1,1.6,2,2.5,2.1
				c8.9,1.8,18,0.7,27,1.2c3.9,0.2,8.1-0.2,11.8,0c5,0.2,0.9,7.4,3.5,10.7C1054.6,290.5,1054.8,290.5,1055.4,290.8z M1307.3,335.8
				c-3,1.8-4.6,6-8.7,6.5c-3.9,0.5-7.9,0.6-13.7,1c6.3,2.4,5.1,4.5,1.4,6.6c2.2,0.4,3.8,0.7,5.5,0.9c1.8,0.2,3.7,0.1,5.5,0.5
				c2.6,0.6,4.2-5.1,6.8-1.3c1.4,2.1,1.3,5.1,1.9,7.7c0.2,0.9-1,2,0.4,2.7c1.7-0.2,2.3-1.7,2.5-2.9c0.4-2.6,6.5-5.9-0.7-7.9
				c-1-0.3-1.1-2.2-1-3.7C1307.4,342.6,1307.3,339.2,1307.3,335.8z M1582.6,382.4c2.5-0.1,5.1-0.2,7.6-0.4c1-0.1,2.1-0.1,2.1-1.6
				c0-3.8-6.8-9-10.1-7c-5.5,3.2-11.3,3.3-17.2,3.3c-2.4,0-4.4,0.6-5.5,2.9c-0.4,0.9-1.6,1.6-0.9,2.7c0.6,1,1.8,0.9,2.8,0.6
				C1568.5,381.2,1575.7,384.3,1582.6,382.4z M1107.9,375.7c2.5,0.6,3.9,0.2,5.5-2.5c3.4-5.7,4.9-12.4,8.9-17.8
				c0.8-1.2,2.3-2.8,1.1-4.1c-1.5-1.6-3,0.6-4.5,1c-0.5,0.1-0.8,0.6-1.2,0.9c-5.7,3.8-5.7,3.8-8-2.4c0-0.1-0.1-0.2-0.6-0.8
				c-0.9,5.2-0.9,10-0.7,14.8c0.1,2.2-0.1,5.5,1.1,6.3C1116.1,375.4,1108.4,374,1107.9,375.7z M976.8,319.8c-1-0.2-1.7,2.9-3.1,1.2
				c-1.2-1.4,0.7-2.3,1.3-3.5c2.8-6,8.2-8.5,13.5-10.1c-6.2-3.3-9.2,0.6-11.8,5.9c-3.6,7.6-8.6,12.5-18.1,12
				c-8.6-0.5-17.3,0.5-26,1.3c-7.4,0.7-14.9,1-22.3,1.6c2.7,0.6,5.5,0.9,8.2,0.5c14.9-2,29.9-0.4,44.9-1.8
				C969.3,326.4,974.9,327.1,976.8,319.8z M1681.8,334.4c0.6,0.5,0.9,0.9,1.3,1.2c1.6,0.8,3-0.3,4.4-0.5c6.5-0.9,7.6,0.1,7.4,6.4
				c-0.1,1.8-0.8,5.1,2.3,4.5c6.4-1.3,8.6,2.3,10,7.4c0.3,1.2,1.4,1.6,2.4,1.2c1-0.4,0.4-1.5,0.1-2.3c-2-5.2-4.1-10.3-6-15.5
				c-0.9-2.5-2.2-4.7-4.8-4.7C1693.2,332,1687.3,330.8,1681.8,334.4z M804.1,280.6c-0.1,0-0.2,0-0.2,0c0-5.1,0.1-10.2,0-15.3
				c0-2,0.9-5.3-2.4-5.2c-3.1,0.1-3,3.2-2.9,5.6c0.2,4.2,0.8,8.4,0.9,12.6c0.2,6.3,0,12.6,0.1,18.8c0,1.8,0.2,3.8,2.5,3.7
				c2.5-0.1,2-2.3,2.1-3.9C804.1,291.5,804.1,286,804.1,280.6z M844.2,317.1c1.6,1.5,2.2,1.2,2.9,1c5.9-1.8,12.6-0.6,16.6,2.4
				c3.6,2.7,6.3,1.7,9.4,1.9c2.2,0.2,3.9-1.4,3.2-4.1c-1.2-4.1-0.3-6.7,4.8-6.9c-2.4-0.3-4.4-0.2-6.4-0.3c-4-0.2-7.6-0.3-7.8,5.3
				c0,1.1-0.8,2.4-2.9,1.8C857.8,316.2,851.5,317.7,844.2,317.1z M1321.4,347.5c-2.2,0.8-3.2,2-3.8,3.5c-1.5,3.8-3.7,7.4-6.3,10.4
				c-3.7,4.3-7.3,8.9-14.4,8.4c-6.5-0.5-13.1,1.5-19.7,1.6c6.7,0.5,13.4,0,20,0.6c7.3,0.7,12.2-2.6,15.8-8.1
				C1316,358.9,1319.2,353.8,1321.4,347.5z M1323.1,345.7c3.6-6.2,8-3.6,11.9-3.6c4,0,8.3-0.7,10.8,4.1
				c-2.9-9.1-10.1-10.7-17.9-11.4c-3.1-0.3-5.3,0.5-4.4,4.5C1323.9,340.8,1323.4,342.4,1323.1,345.7z M1558,393
				c0,0.4,0.1,0.8,0.1,1.2c29-1.1,58.1-2.2,87.1-3.3c0-0.2,0-0.4,0-0.6C1616.2,391.1,1587.1,392.1,1558,393z M1393,287.4
				c-21.3-0.4-42.6-2.3-64-1.8C1350.3,286,1371.6,287.6,1393,287.4z M1760.6,369.5c-2.9,0-5.8,0.1-8.6,0c-2.9-0.1-2.8,1.2-1.6,3.1
				c1,1.5,1.9,3.6,4.1,3.3c5.6-0.7,11.2-1.6,16.7-2.6c1.2-0.2,2.2-1.2,1.9-2.6c-0.3-1.4-1.6-1.1-2.5-1.1
				C1767.3,369.4,1764,369.5,1760.6,369.5z M1417.6,288c2.2,1.3,4.5,1.7,6.9,1.8c11.2,0.5,22.5-0.9,33.6,0.9c3.1,0.5,6.4,0,9.6,1
				c1.1,0.3,2.6,0,2.6-1.6c0-1.3-1.2-1.4-2.3-1.5c-1.4,0-2.7-0.1-4.1,0c-6.1,0.2-12.2,1.2-18.1,0.6
				C1436.4,288.3,1427,287.8,1417.6,288z M1553.6,246.4c1.2,6.1-2.9,14.3-0.3,22.6c0.4,1.1,0,4.3-1.5,3.3c-2.2-1.5-6.3,0.6-6.6-3.1
				c-0.3-3.2,3.2,0.3,4.3-1.8c-2.9-1.4-5.8-0.4-8.4,0.4c-1.4,0.4-2.8,2.1-2.5,4c0.3,1.7,2.1,1.5,3.4,1.5c3.2,0,6.5,0,9.7,0.1
				c1.7,0.1,2-0.3,2.2-2.2C1555.1,262.3,1553.4,253.3,1553.6,246.4z M1609.5,353.9c-1.2,7.6,1.1,16.9,5.8,24.9
				c2.6,4.4,6.6,7.4,11.5,7.1c5.4-0.3,8.9-4.1,10.2-9.5c-0.8,0.8-1.2,2.3-2.1,2.7c-2.8,1.3-3.8,5.4-7.7,4.9
				c-10.9-1.3-15.3-9.9-16.1-19C1610.9,361.2,1610.4,357.6,1609.5,353.9z M835.4,316.7c0.1,0,0.2,0,0.3,0c0-2.2,0-4.4,0-6.6
				c0-1.4,0.2-3,1.9-3c1.4,0,1.5,1.5,1.9,2.6c1.2,3.4,0.3,6.7,0,10c-0.4,4,1.1,5.9,5.5,6c4.7,0.1,9.3-1.1,14-1.3
				c-4.1,0-8.1,0.1-12.2-1c-3.1-0.8-4.8-1.9-5.3-5.6c-0.4-3.5-0.2-7.1-0.8-10.6c-0.2-1.7-0.6-3.2-2.7-2.9c-1.6,0.2-2.8,1.1-2.8,3.1
				C835.4,310.5,835.4,313.6,835.4,316.7z M1846.4,376c-15.9-0.9-31.7-0.4-47.4,1.4c0,0.5,0.1,0.9,0.1,1.4
				C1814.8,377.8,1830.6,376.9,1846.4,376z M1014.5,347.3c4.2,1.7,6.3,5.3,6.5,9.2c0.2,4.2,3,4.9,5.7,5.9c1,0.4,2.4,0.3,3.2-0.9
				c0.8-1.3,0-2.1-0.9-3.1c-1.2-1.4-3-2.7-3.3-4.3C1024.3,347.8,1018.9,348.4,1014.5,347.3z M1133.5,280.4
				c10.4,1.5,20.9,0.8,31.3,1.3C1154.6,278.2,1144,279.6,1133.5,280.4z M1631.6,326.9c-4.6-2-10-2.1-12.2-0.2
				c-6.7,5.6-8.5,13.5-10,21.4C1612.1,344.1,1627.4,328.9,1631.6,326.9z M1477.4,260.6c-1.1,1.6-2.7,2.2-2.2,3.8
				c0.3,1.1,3.2,2,0.3,3.2c-1.4,0.6-3.4,1.8-4.3-1.2c-0.2-0.6-3-3.1-3.3-0.6c-0.5,4.7-3.7,4.3-6.8,5.1c2.6,0.5,5,0.5,7.5,0.5
				C1478.2,271.3,1478.2,271.3,1477.4,260.6z M1139.8,320c-9.2-4.8-18.5-4.5-27.6,0.9c-1.2,0.7-3.5,1.3-2.3,3.2
				c0.9,1.4,3,0.8,4.1-0.3C1121.7,316,1130.6,318,1139.8,320z M962.4,379.5c2.6,12.8,14.8,26.5,24.4,27.5
				C974.2,402.1,969.1,390.8,962.4,379.5z M1176.4,280.5c0,0.5,0,1,0,1.5c6.7,2.5,13.8,1.6,20.7,1.6c0.9,0,1.7-0.4,1.5-1.5
				c-0.2-0.9-0.9-1.5-1.8-1.5C1190,280.4,1183.2,280.5,1176.4,280.5z"/>
			<path class="st1" d="M817.2,89.6c-1.1-1.9-2.4-3.4-2.1-5.4c0.9-4.9-1.3-6-5.5-4.4c-1.2,0.4-2.3,0.7-3.5-0.3
				c1.7-2.8,4.7-3.6,7.4-3.8c13.7-1.4,26-7.6,39.1-11.2c3.9-1.1,7.8-2.5,12-2.4c3.3,0.1,4.6,1.9,4.5,4.8c0,0.7,1.5,5.1-2.1,1.6
				c-0.1-0.1-0.4-0.3-0.4-0.2c-4.3,4.5-9.7-0.8-14.6,1.9c-4.8,2.6-10.7,3.2-16.1,4.7c-4.4,1.2-8.9,2.3-13.4,3.4
				c-4.1,1-6.4,4.7-3.7,7.4c4.5,4.7,3,10.2,3.2,15.4c0.4,15.7,0.2,31.4,0.2,47.2c0,2.9-0.3,5.9,2.1,8.1c0.8,0.8,1.3,2.3,0.6,2.8
				c-3.6,2.7-1.6,6.3-1.6,9.4c-0.1,31.8-0.1,63.6-0.1,95.3c0,6.5,0,12.9-0.1,19.4c0,1.2,0.3,2.8-2.5,3.9
				c-0.7-16.1,0.6-31.8-2.4-47.3c0,10.9-0.5,21.8,0.3,32.6c0.2,3.6,1.4,7.1,0.5,10.8c-0.3,1.3-0.6,2.5-2.1,2.3
				c-1.1-0.1-1.5-1.3-1.6-2.4c0-0.9-0.1-1.7-0.1-2.6c0.7-27.1-1.3-54.2-1.2-81.3c0.1-19.7-1.5-39.3-1.3-59
				c0.1-11.1,0.1-22.2,0.4-33.3c0.1-5.1,0-10.2,0.1-15.3C813.2,89.3,813.8,87.4,817.2,89.6z"/>
			<path class="st1" d="M1031.2,228.8c-1.4-4.3-1.5-8.7-1.6-13.1c-0.4-10.4-0.1-20.8-1-31.2c-1.2-14.1-1.3-28.2-2.4-42.3
				c-0.6-8.5-0.8-17.3-0.8-25.9c0-13.5-0.9-26.9-1.8-40.3c-0.3-4.7,2.4-8.8,3.6-13.2c0.4-1.4,1.3-2.7,0.3-4.3
				c-2.3-3.6-0.4-7.4,3.7-8.8c5.2-1.8,10.2-0.3,15.2,0.3c18.2,2.2,36.2,5.4,54.4,7.6c13,1.6,25.8,4.3,38.7,6.2
				c6,0.9,12.1,1,18.1,2.3c1.3,0.3,2.7,0.3,3.8,2c-2.7,0.8-5.3,1.8-5.4,5.2c0,0.6-1.7,1.4-1.8,0.3c-0.3-3.4-2.8-1.6-4.2-1.8
				c-1.7-0.3-3.1,0.2-4.8-1.6c-1.7-1.7-4.3-0.3-5.4,2.3c-1.7,3.9-3.5,7.7-5.4,12c-2.5-4.4-6.8-3.8-10.4-4.2
				c-8.1-0.8-16.2-1.9-24.3-3.1c-3.7-0.5-7.1-1.4-8.4-5.8c0,12.5,0.8,24.7,0.8,36.9c0,18.6,0.1,37.2,1.1,55.8
				c1.1,21.3,0,42.6,1.1,63.8c1,20.2,0.3,40.5,1.1,60.7c0.1,3.2,2,8.8-5,9.2c-2.9,0.2-4.1-0.5-4.3-3.3c-0.3-3.5-0.2-7-0.2-10.5
				c0.2-7,0-13.9-0.1-20.9c-0.1-4-1.9-5.5-6.1-5.5c-15,0.2-30,0.3-45,0c-14.9-0.3-29.9-1.3-44.8-2c-1.4-0.1-3.2-0.2-3.2-1.8
				c0.1-2,2.1-2,3.6-1.9c10.6,0.3,21.1,0.7,31.7,1c1.5,0,3.1,0.1,4.6-0.1c3.6-0.5,5.4-2.4,4.9-6.3c-0.7-4.7-1-9.4,0-14.1
				c2.3,0.3,2.2,1.8,2.2,3.1c0.1,2.9,0,5.8,0.1,8.7c0,1.1-0.5,2.7,0.9,3.2c1.5,0.5,2.1-0.9,2.5-2c4.4-10.6,11.7-14.7,22.9-10.2
				c0.9,0.4,2,0.1,3.1,0.1c6.7,0.2,6.5,0.2,6.7-7c0.6-18.8-0.7-37.5-1.3-56.3c-0.7-21.3-1.8-42.6-1.9-63.9c0-4.7-1.3-9.4-1-14.3
				c0.1-2,0-4.1,2.1-5.9c1,3.9,1.7,7.6,1.8,11.4c0.6,27.1,1,54.1,2.2,81.2c0.5,12.1,0.8,24.1,0.9,36.2c0.1,10.2-0.9,20.5,3.8,30.1
				c0.8,1.7,2.4,4.3,0.2,6.8c-3-2.2-2.4-5.9-3.7-8.7c-0.5-1.1-0.6-2.6-2.1-2.4c-1.3,0.1-1.2,1.5-1.3,2.5c-0.8,4.3-4,6.2-7.8,7.5
				c-3.1,1.1-4.4-0.3-4.5-3.5c0.3,4.2-2,4.4-5.1,4.4c1.2,0.4,2.5,1.2,3.7,1.3c8.3,0.3,16.7-0.2,25,1.1c3,0.5,4.3-1.2,4.3-4.2
				c-0.1-13.7,0-27.3-0.2-41c-0.1-6.8-0.9-13.5-0.8-20.3c0.6-28-1.2-56-1.4-84c0-10-0.6-20.1-0.7-30.1c0-4.1-1.4-5.5-5.7-4.2
				c-6.9,2.1-13.8-0.3-20.6-1.4c-8-1.4-16.3-0.7-24.2-3.4c-3-1-3.1,1.9-3.1,4c-0.1,6.7-0.4,13.4,0.1,20c1.3,17.9,1.6,35.7,2.1,53.6
				c0.7,25.5,2.3,51.1,1.9,76.7C1032.3,223.7,1035,226.6,1031.2,228.8z"/>
			<path class="st1" d="M1190.4,254.4c-3.7,2.9-8.1,2.1-10.5,5.1c5.6,3.3,12.2,0,18.3,2.2c-1.8,2.4-4.2,2.3-6.5,2.2
				c-17.9-0.5-35.8-0.7-53.7-1.3c-10.6-0.3-21.4,0-32-1.7c-5-0.8-6.6-3.1-4-7.6c2.5-4.2,5.4-8.2,8.2-12.3c1-1.4,2.4-2.4,4.3-2.4
				c9.2-0.3,18.4,0.5,27.5,1.8c3.8,0.5,6,2.6,6.6,6.6c0.4,2.9,1.3,5.6,1.9,8.5c0.3,1.4,0.6,2.7,2.1,3.2c1.9,0.6,2.5-0.9,3.7-1.9
				c2.7-2.2,3.8-5.2,5.3-8c3.9-7.2,8.2-9.3,16.3-8.1c4.9,0.7,9.8,1.6,14.7,1.8c3.7,0.2,7,0.2,6.8,5.4c1.7-1.2-0.1-3.4,1.8-3.6
				c1.9-0.2,1.9,1.8,2.2,2.9c0.9,3.7,1.5,7.6,2.3,12c-3.5-1.6-4.3-4.5-5.9-6.7c-1.4-1.8-2.4-3.6-4.8-4.3c-1.2-0.3-2.5-2.7-2.9,0.7
				c0,0.4-1,0.8-1.5,1.1c-0.8,0.4-1.4-2-2.4-0.3C1190.1,250.8,1184.1,254.6,1190.4,254.4z M1117.6,257.7c6.3,0.8,12.5-1.7,18.9,1.1
				c2.6,1.1,6.1,0.2,9.1,0.2c1.1,0,2.2-0.3,2.2-1.6c0-1.1-0.8-2.1-1.8-2.2c-2.3-0.1-4.8,0.5-3.1-3.3c0.4-1.1-1.3-1.2-2.2-1.7
				c-1.1-0.6-1.8,0.2-1.8,1c-0.4,4-3.4,4-6.1,3.9C1127.4,254.8,1122.7,257.5,1117.6,257.7z"/>
			<path class="st1" d="M983,250.7c-2.8-6.8-2.2-13.7-2.5-20.3c-0.6-16,0-32.1-0.3-48.1c-0.4-18-0.7-36-1.2-53.9
				c-0.5-18-1.3-36.1-1.8-54.1c-0.1-2.8-0.8-7.4,3.1-7.2c2.9,0.2,1.8,4.7,2,7.4c1.2,17.6-0.2,35.3,1.7,52.9c0.1,1.2,0,2.4,0,3.6
				c0,36.3,1.8,72.7,1.1,109C985.1,243.4,986.9,247.3,983,250.7z"/>
			<path class="st1" d="M1103.3,85.6c4.8,4.1,9.4,7.5,9.5,15.7c0.1,9.5,0.9,19.2,1.2,28.8c0.3,7.2,0.2,14.6,0.2,22
				c0.1,22.5,2,44.9,1.1,67.4c0,1-0.3,1.9-1.2,2.9c-0.5-4-1.2-7.9-1.4-11.9c-0.8-15.1-1.2-30.2-2.2-45.3c-1.5-22.1-2.1-44.2-2-66.3
				C1108.5,93.7,1103.9,90.6,1103.3,85.6z"/>
			<path class="st1" d="M1168.4,225.2c-2.3-6.2-1.4-11.3-1.7-16.2c-1-18-2.1-36-3-54c-0.8-15.8-1-31.6-2.6-47.3
				c-0.2-1.9,0.4-4.3,2.5-4.3c1.6,0,2,2.5,2,4.1c0.3,5.8,0.8,11.6,0.9,17.3c0.2,12.1,1.1,24.1,1.4,36.2c0.4,18.9,1.3,37.8,2,56.7
				C1169.8,219.6,1170.1,221.7,1168.4,225.2z"/>
			<path class="st1" d="M1042.2,88.9c2.3,3.4,2.6,6.6,2.5,9.8c-0.5,17.9,0.9,35.8,1.3,53.7c0.5,22.6,1.9,45.2,1.8,67.9
				c0,2,0.8,4.4-1.7,6.4c-1.4-8.7-0.8-17.1-1.3-25.4c-1.3-19.3-0.7-38.8-2.7-58.1c-0.1-0.5-0.1-1-0.1-1.5c0.4-15.6-0.7-31.3-1-46.9
				C1040.8,93,1040.5,91.1,1042.2,88.9z"/>
			<path class="st1" d="M1145.4,237.3c0-2.2,0-4.4,0-6.6c-0.2-27-2.4-54-3.8-81c-0.7-14.6-1.7-29.3-1.3-43.9c0-1.2-0.6-3.2,1.1-3.4
				c1.8-0.2,2.1,1.9,2.5,3.3c0.2,0.8,0.2,1.7,0.2,2.5c-0.3,13.8,0.8,27.5,1.4,41.3c0.7,19.5,1.8,39,1.9,58.6
				c0,8.1-0.6,16.3,0.8,24.4C1148.5,234.5,1147.8,236.2,1145.4,237.3z"/>
			<path class="st1" d="M1197.1,227.3c-2.2-37.3-5.9-74.6-5.8-112.1C1195.3,152.4,1197.3,189.8,1197.1,227.3z"/>
			<path class="st1" d="M1420.2,240.2c-1.8-5.4-0.5-10.4-1.7-15.2c-1.1-4.2-1-8.8-1.2-13.2c-0.8-16.7-1.2-33.4-2.2-50
				c-0.5-9.3-1.7-18.6-1.4-27.9c0.1-3.1-3.4-4.9-3.9-8.5c6,7.4,15.5,4.7,22.8,9.1c-3.4,0-7,0.6-10.3-0.1c-5.2-1.3-5.9,1.6-5.1,5.2
				c1.5,6.7,0.7,13.6,1.4,20.3c1.1,10.4,1.3,21,1.8,31.5c0.6,14.1,1.2,28.2,1.7,42.3C1422.1,235.6,1422.7,237.8,1420.2,240.2z"/>
			<path class="st1" d="M1449.8,138.9c1.1,0.2,2.6,0.1,2.9,1.6c1.1,5.3,2.7,10.6,2.5,16.2c-0.3,5.1-0.5,10.3-0.1,15.4
				c0.9,10.3,2,20.7,1.9,31.1c-0.1,11.1,1.7,22.1,1,33.2c-0.1,1.8,0.5,3.7-1.5,6.3c-2.7-34.9-5.8-68.8-7.5-102.8
				C1449.2,139.5,1449.5,139.2,1449.8,138.9z"/>
			<path class="st1" d="M1443.5,248.4c-1.9-3.4-1.3-7-1.6-10.2c-1.4-20.3-2.9-40.7-3.8-61c-0.5-11.2-1.9-22.4-1.4-33.7
				c0.1-2,0.6-4.2-1.5-5.6c-0.6-0.4-1.9-0.6-0.9-1.7c0.5-0.5,1.5-1,2.2-0.9c1.8,0.3,2.7,1.4,3.2,3.4c1.6,7,1.1,14.2,1.6,21.3
				c0.9,11,1,22.1,1.4,33.2c0.7,16.5,2.3,32.9,2,49.5C1444.6,244.4,1445.3,246.4,1443.5,248.4z"/>
			<path class="st1" d="M1497.1,251.9c-2.8-7.2-2.4-14.9-2.8-22.3c-1-19.3-2.7-38.6-4.1-57.9c-0.6-8.5,0.7-17-0.7-25.5
				c-0.2-0.9,0.2-1.7,1.1-2.1c1-0.4,1.6,0.3,2,1c0.7,1.4,1.9,3,1.6,4.2c-1.4,6.5,1,12.7,1,19.1c0,19.7,1.3,39.4,1.9,59.2
				C1497.4,235.6,1498.8,243.6,1497.1,251.9z"/>
			<path class="st1" d="M1592.4,255.9c-2.2-33.4-5.9-66.7-4.8-100.2C1591.8,188.9,1592.2,222.4,1592.4,255.9z"/>
			<path class="st1" d="M844.5,260.7c-1.2,0-2.4,0-3.6,0c-1.4-0.1-2.8-0.2-3-2.1c-0.2-1.5,0.4-2.8,1.7-3.4c1.9-0.8,3.8-1.3,5.9-1.4
				c9.3-0.4,18.6-1.5,27.9-2.8c2.2-0.3,4.9-0.8,5.5,2.1c0.7,3.2-2,3.2-4.2,3.7C864.9,259.3,854.6,259.1,844.5,260.7z"/>
			<path class="st1" d="M909.1,252.6c-1,0-2.1,0-3.1,0c-1.8,0-3.5-0.3-3.5-2.7c-0.1-2.2,0.6-3.8,2.9-4c9.1-1.1,18.2-2.1,27.4-3
				c1.8-0.2,2.9,0.6,3,2.6c0.1,2.2-0.6,3.7-3,4c-7.9,1.2-15.8,2.4-23.7,3.5C909.1,252.8,909.1,252.7,909.1,252.6z"/>
			<path class="st1" d="M841,179.7c-1.4,0-3-0.1-3.1-2.2c-0.1-1.8,0.7-2.9,2.4-3.4c10.6-3.2,21.6-4.4,32.5-6.2
				c1.5-0.3,3.1,0,3.7,1.9c0.5,1.5-0.3,2.3-1.6,2.6C863.9,175.6,852.6,178,841,179.7z"/>
			<path class="st1" d="M842,241.2c-1.2-0.2-3.6,0.7-4-2.1c-0.4-2.7,1.4-3.4,3.7-3.7c11.1-1.5,22.2-3.1,33.3-4.7
				c1.5-0.2,2.8-0.3,3.2,1.5c0.3,2-0.5,3.4-2.5,3.7C864.6,237.7,853.5,239.4,842,241.2z"/>
			<path class="st1" d="M842.4,220.8c-2.2,0.1-4.6-0.4-4.8-2.7c-0.2-2.5,2.2-2.9,4.4-3.2c10.1-1.4,20.2-2.5,30.1-4.8
				c0.5-0.1,1-0.2,1.5-0.3c1.7-0.1,3.8-0.2,4.2,1.9c0.4,1.9-1.6,2.5-3,2.8c-6.3,1.5-12.5,3.2-18.9,4
				C851.4,219.2,847,220.4,842.4,220.8z"/>
			<path class="st1" d="M841.1,200c-1.9,0.2-3.2-0.8-3.5-2.4c-0.5-2,0.9-3.1,2.8-3.5c7.2-1.3,14.3-2.6,21.5-3.9
				c3.8-0.7,7.7-1.5,11.5-2c1.4-0.2,3.3-0.5,3.7,1.6c0.3,2-1.1,2.5-2.7,2.9C863.2,195.2,852.2,197.6,841.1,200z"/>
			<path class="st1" d="M908.1,230.3c-2.5,0.5-5.1,0.8-5.4-2.6c-0.3-3.1,2.4-3.3,4.6-3.6c7.9-1.1,15.8-2.2,23.7-3
				c1.8-0.2,4.6-0.8,4.6,2.4c0,2.7-2.3,3-4.3,3.3C923.6,228.1,915.8,229.2,908.1,230.3z"/>
			<path class="st1" d="M841.5,138.7c-1.6-0.2-3.2,0.1-3.4-1.8c-0.2-1.6,0.9-2.5,2.3-2.9c5.3-1.4,10.5-3,15.8-3.9
				c4.6-0.7,9-1.9,13.5-2.9c1.3-0.3,2.7-0.3,4-0.4c1.3,0,2.3,0.5,2.7,1.9c0.5,1.7-0.9,2.2-1.9,2.5
				C863.6,134.4,852.4,136.3,841.5,138.7z"/>
			<path class="st1" d="M906.5,209.5c-1.5-0.2-3.6,0.4-3.9-2.1c-0.3-2.5,1.6-3.3,3.4-3.6c8.1-1.5,16.3-2.8,24.5-4.1
				c1.6-0.3,3.8-0.6,4.4,1.4c0.7,2.2-1.2,3.3-2.9,4c-6.2,2.4-13,2-19.4,3.4C910.6,208.9,908.6,209.1,906.5,209.5z"/>
			<path class="st1" d="M841.3,159.2c-1,0-2.5-0.2-2.9-1.7c-0.6-2,0.9-2.8,2.5-3.1c6.8-1.4,13.6-2.9,20.5-4c4.3-0.7,8.5-2.7,13-2.1
				c1,0.1,2.2,0,2.4,1.3c0.2,1.2-0.7,1.9-1.7,2.2C864,154.4,853,157.3,841.3,159.2z"/>
			<path class="st1" d="M906.4,145.8c-2.5,0.1-4.2-0.1-4.3-1.7c-0.2-1.8,0.8-3.4,2.7-3.9c4.1-1,8.2-2,12.4-2.8
				c4.3-0.9,8.7-1.5,13.1-2.2c1.3-0.2,2.9-0.3,3.3,1.6c0.3,1.6-0.2,2.6-1.9,3C922.9,141.8,914.1,143.9,906.4,145.8z"/>
			<path class="st1" d="M904.7,187.9c-1.1-0.1-2.8,0.1-3-1.7c-0.2-1.6,0.8-2.7,2.2-3c3.6-0.9,7.2-1.6,10.9-2.3c5.3-1,10.6-2,16-2.8
				c1.4-0.2,3.4-0.4,3.7,1.7c0.3,1.8-1,2.7-2.7,3.1C922.9,184.9,913.9,186.6,904.7,187.9z"/>
			<path class="st1" d="M906.7,123.9c-1.6,0.3-2.7-0.4-3-1.9c-0.5-2.7,1.7-3.7,3.6-4.1c5.6-1.3,11.3-2.3,16.9-3.4c2-0.4,4-0.7,6-1.2
				c1.5-0.3,2.8-0.4,3.3,1.3c0.5,1.8-0.4,3-2.1,3.5C923.2,120.1,915.2,122.9,906.7,123.9z"/>
			<path class="st1" d="M930.5,155.7c2.1-0.2,3.5,0.2,3.5,1.6c0.1,1.4-1.2,2.5-2.5,2.8c-5.7,1.5-11.5,2.9-17.3,4.2
				c-3,0.7-6,1.2-9,1.8c-1.7,0.3-3.1-0.2-3.6-2c-0.5-1.8,0.5-3.1,2.2-3.4C913,159,922.2,157.3,930.5,155.7z"/>
			<path class="st1" d="M843.3,118.2c-2.5-0.2-4.4-0.4-4.6-2.4c-0.2-1.9,1.6-2.3,3.1-2.6c10.1-2.3,20.1-4.6,30.2-6.8
				c1.2-0.3,3-0.6,3.6,0.9c0.6,1.3-0.5,2.3-1.7,2.6C863.5,112.7,853.1,115.6,843.3,118.2z"/>
			<path class="st1" d="M904.1,101.7c-1.2,0-2.6-0.1-3-1.4c-0.4-1.4,0.3-2.8,1.7-3.3c2.2-0.8,4.5-1.5,6.8-1.9
				c6.2-1,12.2-2.9,18.2-4.6c1.6-0.5,3.2-1.1,4,0.7c0.9,1.9-0.5,3.3-2.2,3.8C921.3,97.7,912.8,99.9,904.1,101.7z"/>
			<path class="st1" d="M1230.1,233.9c-0.9-7.3-2.3-14.1-2.5-21c-0.4-16.2-1.9-32.2-2.4-48.4c-0.5-15.3-1.2-30.5-1.8-45.8
				c-0.1-2.2-1.2-6,1.6-6.2c3.3-0.3,1.9,3.6,2.2,5.7c1.7,12.4,1.8,25,1.9,37.5c0.3,24,2.7,47.9,2.1,71.9
				C1231.3,229.5,1231.9,231.6,1230.1,233.9z"/>
			<path class="st1" d="M1279.5,233.2c-2.8-6.4-1.5-13-2.4-19.4c-1.1-7.4-0.6-14.9-1.2-22.4c-1.7-22.7-2.7-45.4-4-68.1
				c-0.1-1.5-0.3-3.2,1.3-4.1c1.1-0.7,1.8,0.3,2.7,0.8c1.7,0.9,1,2.1,1.1,3.5c0.6,5.6-0.3,11.4,0.9,16.7c0.9,3.7,0,7.2,0.3,10.7
				c1,12.2,1,24.5,1.4,36.8c0.4,14,0.8,28.1,1.2,42.1C1280.8,231,1281,232.1,1279.5,233.2z"/>
			<path class="st1" d="M1331.5,238.5c-0.5-2.1-1.2-4.2-1.3-6.3c-0.8-14.8-1.3-29.5-2.2-44.3c-1.2-19.8-3.3-39.7-3.4-59.5
				c0-6.3-4.1-9.8-5.3-14.8c0.5-0.2,0.7-0.4,0.7-0.3c6.6,8.6,16.7,7.5,25.8,9.4c0.8,0.2,1.6,0.4,2.4,0.8c0.4,0.2,0.6,0.7,1.7,2.2
				c-7.3-2.2-13.9-0.5-20.6-1.4c1.4,3.2-0.4,7.1,1.7,11.3c0.9,1.7-0.9,6.9-1.2,10.6c-0.2,2.9,0.2,5.4,4,7.1
				c-3.8,1.1-4.5,3.6-3.9,6.2c2,8.2,1.3,16.7,1.6,24.9c0.6,17.5,2.2,35.1,1.3,52.6c0,0.5-0.3,1-0.4,1.4
				C1332.1,238.4,1331.8,238.5,1331.5,238.5z"/>
			<path class="st1" d="M1357.6,240.9c-2.3-1.1-2.3-3-2.3-4.3c0.2-12.8-1.1-25.5-1.7-38.2c-1.1-21.1-4-42-4.1-63.1
				c0-1.6-0.7-2.9-1.7-4.2c-0.9-1.1-3.1-2.7-1.3-3.6c1.3-0.7,4.4-0.4,5.7,1.7c0.8,1.2,1.1,2.9,1.2,4.4c1.5,18,2.3,36,3.4,54
				c1,15.5-0.4,31,1.7,46.5C1358.8,236.2,1358.8,238.5,1357.6,240.9z"/>
			<path class="st1" d="M1360.3,120.1c2.9,1.2,4.7,2.9,5.6,5.3c1.9,5,5.9,9.2,3.2,15.6c-1.3,3.1,0.5,7.3,0.7,11
				c0.4,13.6,0.1,27.3,1.3,40.8c1.2,13.3,0.1,26.6,1.7,39.8c0.2,1.8,0.9,4.1-2.2,5.9c-0.6-6.3-1.2-12.3-1.6-18.2
				c-1.2-20.5-1.4-41.1-3.7-61.6c-0.6-5.4-0.3-10.8-0.4-16.2c-0.1-3.9-0.2-7.8-0.3-11.7C1364.4,126.6,1360.6,124.4,1360.3,120.1z"/>
			<path class="st1" d="M1650.9,154.4c4.2,7.3,12.7,5.9,19.9,8.9c-3.7,1.8-6.4-0.3-9.2,0c-2.5,0.3-3.8,0.6-3.5,3.6
				c1.3,14.1,1.4,28.2,2.2,42.3c1,16.2,1.9,32.3,2,48.5c0,0.7,0.3,1.4-1.3,2.3c-0.6-4.4-1.4-8.5-1.6-12.7
				c-1.7-24.6-3.2-49.2-4.8-73.8c-0.1-1.2,0-2.4,0.2-3.6c1.1-5.8-2.1-10.2-4.8-14.8C1650.3,154.9,1650.6,154.6,1650.9,154.4z"/>
			<path class="st1" d="M1682.3,157.1c4.7,5.2,8.3,8.9,8.8,15.6c1.6,19.8,2.3,39.7,3.6,59.5c0.5,8.1,1.9,16.2,1.3,24.4
				c-0.1,1.5,0.2,3.1-1,4.4c-1.9,0.1-1.7-1.4-1.8-2.4c-0.4-13.8-2.1-27.4-3.1-41.1c-1.2-16.3-2.2-32.5-3-48.8
				C1686.8,164.5,1682.7,162.6,1682.3,157.1z"/>
			<path class="st1" d="M1651.8,259c-0.9-6.4-1.1-12.8-1.6-19.2c-1.4-18.5-1.7-37.1-3.6-55.5c-0.6-6.3-0.4-12.5-0.6-18.7
				c0-1.2-0.5-3.2,1.5-3.2c1.4,0,2,1.7,2.1,3.1c0.4,4.4,1,8.8,1,13.2c0.1,21.1,2.8,42.1,2.4,63.3
				C1653,247.7,1654.3,253.4,1651.8,259z"/>
			<path class="st1" d="M1744.3,172.9c1.5,4.7,6.9,8.4,3.2,14.3c-0.6,1-0.3,2.7-0.2,4c2.8,23.4,3.1,47,4.5,70.6
				c0.1,1.3,1.2,3-0.9,3.3c-1.6,0.2-1.2-1.7-1.4-2.8c-1.9-12.8-2.4-25.7-3.4-38.6c-1.3-15.9-2.4-31.8-3.5-47.7
				c-0.1-0.8,0.3-1.6,0.5-2.4C1743.5,173.3,1743.9,173.1,1744.3,172.9z"/>
			<path class="st1" d="M1771,268.1c-2.5-1.6-1.9-3.4-1.9-5c-0.7-15.4-2.3-30.8-3.8-46.2c-1.2-12.7-1.8-25.4-2.7-38.2
				c-0.1-1.4,0.2-2.7,1.5-2.7c1.4,0,1.5,1.6,1.6,2.8c0.7,6.6,1.6,13.2,2,19.8c1.2,16.6,2.3,33.2,3.5,49.8
				C1771.6,254.7,1773.5,261.3,1771,268.1z"/>
			<path class="st1" d="M1802.9,270.8c-1-14.8-2-29.7-3.1-44.5c-0.9-13-1.8-26.1-2.8-39.1c-0.2-2.2,0.3-4.9,2-5c2.8-0.1,2.5,2.5,3,5
				c1.2,5-2.6,10.7,2.1,15.2c1.2,1.2-0.9,2.4-1.1,4c-0.9,9.7,0.9,19.3,1.2,29c0.3,10,1,20,1.4,30.1c0.1,1.9-0.9,3.8-1.4,5.7
				C1803.8,271,1803.3,270.9,1802.9,270.8z"/>
		</g>
	</g>
</g>
<g>
	<path class="st6" d="M1572.2,30.8h231.1V110l-144.4,231.1h144.4v79.7h-245.5v-79.7L1702.2,110h-130V30.8z"/>
</g>
<g>
	<path class="st6" d="M1124.4,30.8h89l62.4,283.7l63-283.7h89l-86.1,390h-131.1L1124.4,30.8z"/>
</g>
<g>
	<path class="st5" d="M683.1,476.2h18c1.7,0,3.1,0.6,4.3,1.7s1.7,2.6,1.7,4.3v42c0,1.7-0.6,3.1-1.7,4.3c-1.2,1.2-2.6,1.7-4.3,1.7
		h-18c-1.7,0-3.1-0.6-4.3-1.7c-1.2-1.2-1.7-2.6-1.7-4.3v-42c0-1.7,0.6-3.1,1.7-4.3S681.4,476.2,683.1,476.2z M696.6,484.5h-9
		c-1,0-1.5,0.5-1.5,1.5v34.4c0,1,0.5,1.5,1.5,1.5h9c1,0,1.5-0.5,1.5-1.5V486C698.1,485,697.6,484.5,696.6,484.5z"/>
	<path class="st5" d="M713.9,476.2h28.5v8.3h-19.5v11.2h15c1.7,0,3.1,0.6,4.3,1.7s1.7,2.6,1.7,4.3v22.5c0,1.7-0.6,3.1-1.7,4.3
		c-1.2,1.2-2.6,1.7-4.3,1.7h-24V476.2z M733.4,504h-10.5v17.9h10.5c1,0,1.5-0.5,1.5-1.5v-14.9C734.9,504.5,734.4,504,733.4,504z"/>
	<path class="st5" d="M750.8,476.2h25.5v8.3h-16.5V499h15v8.3h-15v14.6h18v8.3h-27V476.2z"/>
	<path class="st5" d="M790.6,476.2h19.5v8.3h-15c-1,0-1.5,0.5-1.5,1.5v34.4c0,1,0.5,1.5,1.5,1.5h16.5v8.3h-21
		c-1.7,0-3.1-0.6-4.3-1.7c-1.2-1.2-1.7-2.6-1.7-4.3v-42c0-1.7,0.6-3.1,1.7-4.3S788.9,476.2,790.6,476.2z"/>
	<path class="st5" d="M818.4,476.2h31.5v54h-9v-45.7h-13.5v45.7h-9V476.2z"/>
	<path class="st5" d="M856.8,476.2h25.5v8.3h-16.5V499h15v8.3h-15v14.6h18v8.3h-27V476.2z"/>
	<path class="st5" d="M890.6,476.2h9v24.7c0,1,0.5,1.5,1.5,1.5h9c1,0,1.5-0.5,1.5-1.5v-24.7h9v54h-9v-22.5c-0.2,0.9-0.7,1.6-1.5,2.2
		c-0.8,0.6-1.7,0.8-2.6,0.8h-10.9c-1.7,0-3.1-0.6-4.3-1.7c-1.2-1.2-1.7-2.6-1.7-4.3V476.2z"/>
	<path class="st5" d="M927.5,476.2H953v8.3h-16.5V499h15v8.3h-15v14.6h18v8.3h-27V476.2z"/>
	<path class="st5" d="M961.3,476.2h9V499h13.5v-22.9h9v54h-9v-22.9h-13.5v22.9h-9V476.2z"/>
	<path class="st5" d="M999.6,476.2h9v31.7l12.8-31.7h9.7v54h-9v-31.7l-12.7,31.7h-9.8V476.2z"/>
	<path class="st5" d="M1038,476.2h25.5v8.3H1047V499h15v8.3h-15v14.6h18v8.3h-27V476.2z"/>
</g>
<g>
	<path class="st6" d="M1092.8,476.2h23.6c1.7,0,3.1,0.6,4.3,1.7c1.2,1.2,1.7,2.6,1.7,4.3v16.5c0,1.2-0.4,2.2-1.2,3
		c-0.8,0.8-1.9,1.3-3.2,1.5c1.3,0.2,2.4,0.7,3.4,1.5c0.9,0.9,1.4,1.9,1.4,3v16.5c0,1.7-0.6,3.1-1.7,4.3c-1.2,1.2-2.6,1.7-4.3,1.7
		h-24V476.2z M1111.9,484.5h-10.1V499h10.1c1,0,1.5-0.5,1.5-1.5V486C1113.4,485,1112.9,484.5,1111.9,484.5z M1112.3,507.3h-10.5
		v14.6h10.5c1,0,1.5-0.5,1.5-1.5v-11.6C1113.8,507.8,1113.3,507.3,1112.3,507.3z"/>
	<path class="st6" d="M1141.2,476.2h11.3l13.1,54h-9.2l-2.9-12h-13.1l-2.9,12h-9.2L1141.2,476.2z M1146.8,490.9l-4.6,19h9.2
		L1146.8,490.9L1146.8,490.9z"/>
	<path class="st6" d="M1171,476.2h25.5v8.3H1180v45.7h-9V476.2z"/>
	<path class="st6" d="M1210,476.2h18c1.7,0,3.1,0.6,4.3,1.7s1.7,2.6,1.7,4.3v42c0,1.7-0.6,3.1-1.7,4.3c-1.2,1.2-2.6,1.7-4.3,1.7h-18
		c-1.7,0-3.1-0.6-4.3-1.7c-1.2-1.2-1.7-2.6-1.7-4.3v-42c0-1.7,0.6-3.1,1.7-4.3C1206.9,476.8,1208.3,476.2,1210,476.2z M1223.5,484.5
		h-9c-1,0-1.5,0.5-1.5,1.5v34.4c0,1,0.5,1.5,1.5,1.5h9c1,0,1.5-0.5,1.5-1.5V486C1225,485,1224.5,484.5,1223.5,484.5z"/>
	<path class="st6" d="M1240.8,476.2h9V499h13.5v-22.9h9v54h-9v-22.9h-13.5v22.9h-9V476.2z"/>
	<path class="st6" d="M1279.1,476.2h9V499h13.5v-22.9h9v54h-9v-22.9h-13.5v22.9h-9V476.2z"/>
	<path class="st6" d="M1317.5,476.2h9v19.5h15c1.7,0,3.1,0.6,4.3,1.7s1.7,2.6,1.7,4.3v22.5c0,1.7-0.6,3.1-1.7,4.3
		c-1.2,1.2-2.6,1.7-4.3,1.7h-24V476.2z M1337,504h-10.5v17.9h10.5c1,0,1.5-0.5,1.5-1.5v-14.9C1338.5,504.5,1338,504,1337,504z
		 M1356.5,476.2h9v54h-9V476.2z"/>
	<path class="st6" d="M1375.3,476.2h13.8l9.8,40.3h0.1l9.8-40.3h13.8v54h-9v-38.6l-9.4,38.6h-10.5l-9.4-38.6v38.6h-9V476.2z"/>
	<path class="st6" d="M1429.4,476.2h9v31.7l12.8-31.7h9.7v54h-9v-31.7l-12.7,31.7h-9.8V476.2z"/>
</g>
<g>
	<path class="st5" d="M1488.2,476.2h19.1c1.7,0,3.1,0.6,4.3,1.7c1.2,1.2,1.7,2.6,1.7,4.3v16.5c0,1.2-0.4,2.2-1.2,3
		c-0.8,0.8-1.9,1.3-3.2,1.5c1.3,0.2,2.4,0.7,3.4,1.5c0.9,0.9,1.4,1.9,1.4,3v16.5c0,1.7-0.6,3.1-1.7,4.3c-1.2,1.2-2.6,1.7-4.3,1.7
		h-21v-8.3h16.5c1,0,1.5-0.5,1.5-1.5v-11.6c0-1-0.5-1.5-1.5-1.5h-13.5V499h13.1c1,0,1.5-0.5,1.5-1.5V486c0-1-0.5-1.5-1.5-1.5h-14.6
		V476.2z"/>
	<path class="st5" d="M1532.1,476.2h11.3l13.1,54h-9.2l-2.9-12h-13.1l-2.9,12h-9.2L1532.1,476.2z M1537.8,490.9l-4.6,19h9.2
		L1537.8,490.9L1537.8,490.9z"/>
	<path class="st5" d="M1561.9,476.2h31.5v54h-9v-45.7h-13.5v45.7h-9V476.2z"/>
	<path class="st5" d="M1600.2,476.2h9v24.7c0,1,0.5,1.5,1.5,1.5h9c1,0,1.5-0.5,1.5-1.5v-24.7h9v54h-9v-22.5
		c-0.2,0.9-0.7,1.6-1.5,2.2c-0.8,0.6-1.7,0.8-2.6,0.8h-10.9c-1.7,0-3.1-0.6-4.3-1.7c-1.2-1.2-1.7-2.6-1.7-4.3V476.2z"/>
	<path class="st5" d="M1648.7,476.2h11.3l13.1,54h-9.2l-2.9-12h-13.1l-2.9,12h-9.2L1648.7,476.2z M1654.3,490.9l-4.6,19h9.2
		L1654.3,490.9L1654.3,490.9z"/>
	<path class="st5" d="M1684.4,476.2h19.5v8.3h-15c-1,0-1.5,0.5-1.5,1.5v34.4c0,1,0.5,1.5,1.5,1.5h16.5v8.3h-21
		c-1.7,0-3.1-0.6-4.3-1.7c-1.2-1.2-1.7-2.6-1.7-4.3v-42c0-1.7,0.6-3.1,1.7-4.3C1681.3,476.8,1682.7,476.2,1684.4,476.2z"/>
	<path class="st5" d="M1712.3,476.2h28.4v8.3h-9.7v45.7h-9v-45.7h-9.7V476.2z"/>
	<path class="st5" d="M1753.6,476.2h24v54h-9v-22.9h-1.7l-10.9,22.9h-10l10.8-22.9h-3.3c-1.7,0-3.1-0.6-4.3-1.7
		c-1.2-1.2-1.7-2.6-1.7-4.3v-19.1c0-1.6,0.6-3,1.8-4.2C1750.5,476.8,1752,476.2,1753.6,476.2z M1768.6,484.5h-10.5
		c-1,0-1.5,0.5-1.5,1.5v11.6c0,1,0.5,1.5,1.5,1.5h10.5V484.5z"/>
	<path class="st5" d="M1784.4,476.2h13.8l9.8,40.3h0.1l9.8-40.3h13.8v54h-9v-38.6l-9.4,38.6h-10.5l-9.4-38.6v38.6h-9V476.2z"/>
	<path class="st5" d="M1838.6,476.2h9v31.7l12.8-31.7h9.7v54h-9v-31.7l-12.7,31.7h-9.8V476.2z"/>
</g>
<g>
	<path class="st6" d="M790.2,31.8h158.9c16.2,0,29.8,5.6,41,16.8c11.2,11.2,16.8,24.8,16.8,41V364c0,16.2-5.6,29.9-16.8,41
		c-11.2,11.2-24.8,16.8-41,16.8H790.2c-16.2,0-29.9-5.6-41-16.8c-11.2-11.2-16.8-24.8-16.8-41V89.6c0-16.2,5.6-29.8,16.8-41
		C760.4,37.4,774.1,31.8,790.2,31.8z M905.8,111.6h-72.2c-9.6,0-14.4,4.8-14.4,14.4v201.6c0,9.6,4.8,14.4,14.4,14.4h72.2
		c9.6,0,14.4-4.8,14.4-14.4V126C920.2,116.4,915.4,111.6,905.8,111.6z"/>
</g>
<rect x="1838.2" y="341.1" class="st5" width="31.7" height="79.7"/>
<g>
	<defs>
		<path id="SVGID_11_" d="M721.9,410.9c-11.2-11.2-16.8-24.8-16.8-41V86.1c0-16.2,5.6-29.8,16.8-41c4.2-4.2,8.7-7.6,13.6-10.2V30
			H11.5v437.9h723.9v-46.7C730.6,418.5,726.1,415.1,721.9,410.9z"/>
	</defs>
	<clipPath id="SVGID_4_">
		<use xlink:href="#SVGID_11_"  style="overflow:visible;"/>
	</clipPath>
	<path class="st2" d="M892.5,185.2C948.3,267,1003.9,349,1059.6,431c2.1,3.1,4.4,6,6.6,9c21.3-7.2,42.1-14.2,65-21.9
		c-3.3-4.2-5.8-7.8-8.7-11C1032.3,304.7,942,202.4,851.9,100c-4.3-4.9-7.5-10.6-11.2-16c53.5,57.2,107.1,114.4,160.4,171.7
		c43.1,46.3,86,92.8,129,139.2c2.1,2.3,4.6,4.2,8.7,7.9c1.1-23.7,2.5-45.1,2.6-66.5c0-4.3-3.6-10.2-7.4-12.6
		c-58.6-37.3-105.9-88-157.6-133.4c-46.4-40.8-91.2-83.5-136.7-125.4c4.3,2.6,9.1,4.7,13,8c58.7,49.1,117.4,98.2,176,147.4
		c25.2,21.2,50.2,42.6,76.5,64.8c0.6-4.2,0.9-6.5,1.3-8.7c4.2-27.2,10.1-32.1,38.3-31.9c10.6,0.1,21.2,0,31.8,0
		c0.2-0.9,0.4-1.7,0.5-2.6C1071.2,180.5,965.5,119,859.7,57.5c2.6-2,4-2,5.1-1.4c116.5,63.4,232.9,127,349.5,190.2
		c13.1,7.1,15.2,18.2,14.7,31c-0.3,7.9-0.8,15.7-1.3,23.6c1.1-1,2.2-2.1,3.3-3.1c17.8,10.5,35.7,21,53.5,31.6
		c-0.5,1.2-1.1,2.5-1.6,3.7c-30.6,0-61.2,0-93.1,0c-0.7,14.4-1.4,28-2.2,43.4c6.8,0,12.3,0,17.9,0c47.3,0,94.5,0,141.8,0.1
		c4.2,0,9.3-0.9,12.5,1c23.6,14,46.9,28.7,70.3,43.1c-0.4,1.1-0.8,2.2-1.2,3.3c-62.4,0-124.9,0-191.5,0c6.7,6.1,12,8.7,13.8,12.8
		c3.2,7.7,5.5,16.3,5.4,24.4c0,2-10.7,5.5-16.4,5.6c-46.8,0.5-93.6-1-140.4,0.8c-24.4,0.9-42.2-4.2-51.4-28.4
		c-4.8-12.5-14-15.9-27.7-15.9c-198.5,0.5-391.4,0.9-589.9-0.3c-23.5-0.1-37.3,7.1-45.6,27.4c-5.5,13.5-15.4,17-29.1,16.9
		c-52.5-0.5-156,0.8-168.2,0.6c-10.2,0-8.9-28.9-6.2-34.7c2.1-6.1,17.5-9.8,17.5-9.8s-125.7,0-188.4,0c-0.6-1.5,0.2-14.5,0.7-14.9
		c17.5-13.2,41.3-17.8,59.7-28.6c4.5-2.7,10.8-3.2,16.3-3.2c46.8-0.2,93.6-0.1,140.4-0.1c5.9,0,11.8,0,17.4,0c0-15.8,0-29.2,0-44.3
		c-32,0-57.1,0-87.8,0c-0.3-1.1-0.5-16.4-0.8-17.5c18-10.3,30.4-6.5,50-17.7c0-0.8,0.5-4.6-0.1-8.3c-4.3-25,6.3-39.2,29-51.1
		c84.1-44.3,167.4-90.2,250.8-135.7c8.1-4.4,16.3-8.9,24.4-13.3c22.6-12.3,45.2-24.5,67.8-36.8c0.6,1,1.1,2,1.7,3
		c-107.5,62.6-215,125.1-322.5,187.7c14.6,2.3,28.2,2.1,41.9,2.4c17.5,0.4,25.8,7.9,28.4,25.2c0.7,4.4,0.8,8.9,1.4,15.4
		c85.8-72.1,170.1-142.9,254.4-213.7c-46.9,47.6-95.2,93.5-145.3,137.4c-44.7,39.2-91.3,76.1-136.9,114.3c-3.3,2.8-7.1,7.3-7.3,11.1
		c-0.7,22-0.3,44-0.3,66c2.4,1.2,4.8,2.4,7.1,3.6c2.3-4.1,3.9-8.8,7-12.2c81.1-87.9,162.2-175.6,243.5-263.2
		c9.9-10.6,21-20.2,31.5-30.2C528.9,160.6,474.6,222.9,420.2,285c-38.3,43.7-76.8,87.1-116.8,132.6c22.7,7.8,43.7,15,65.8,22.6
		c20.1-29.4,40.4-58.9,60.5-88.5c63.5-93.3,198.2-296.9,203.6-296.8c52.8,0.6,111.2,0.4,164,0.1c3.4,0,6.8,8.3,10.3,6.7
		C835.8,102.8,864.3,143.9,892.5,185.2z M981.7,337.1c-2.6-3.3-9.8-4.2-14.9-4.2c-132.7-0.2-265.4-0.2-398.1-0.2
		c-33.5,0-67.1,0.2-100.6-0.2c-8.9-0.1-14.9,1.7-19.3,10.2c-5.6,10.7-12.9,20.6-20.6,32.6c193.6,0,384.9,0,579.1,0
		C998,361.1,990.6,348.4,981.7,337.1z M915,271.7c-132.2,1.4-264.5,1.4-396.7,0c-23.1-0.2-33.1,9.5-40.5,29c159.8,0,319.1,0,479.3,0
		C949.7,280,938.2,271.5,915,271.7z M1241.9,452.6c0.2-0.9,0.5-1.9,0.7-2.8c-15.3-5.1-30.5-10.3-45.8-15.2
		c-21.8-7-24.1-10.1-23.5-33.5c0.4-18.9,1.4-37.8,1.4-56.6c0-17.5,7.8-29.1,23.1-37.4c6.3-3.4,14.2-9.6,15.5-15.7
		c6.4-32,1.4-34.1-26.4-32.8c-16,0.8-32.1,0.5-48.1-0.1c-12.1-0.5-16.7,5.2-18.2,16.5c-2,15.3-0.4,27.3,16.5,34
		c14.8,5.9,20.1,19,19.3,34.6c-1,20.3-2,40.5-2.9,60.8c-0.7,14.8-6.8,24.6-22.1,28.8c-17.1,4.7-33.7,11-50.5,16.7
		c0.2,0.9,0.4,1.8,0.6,2.7C1134.9,452.6,1188.4,452.6,1241.9,452.6z M354.5,452.3c0.1-0.7,0.3-1.5,0.4-2.2
		c-17.7-5.9-35.3-12.1-53.1-17.6c-12.4-3.9-18.8-11.5-19.3-24.7c-0.7-20.8-1.4-41.6-3-62.3c-1.4-17.6,4.8-29.8,20.6-38.2
		c14.2-7.6,19.8-26.1,12.3-40.4c-2.1-3.9-8.6-7.7-13.2-7.8c-22.2-0.8-44.4-1-66.6,0.2c-4.4,0.2-11.3,6.9-12.2,11.4
		c-3.8,20.2,0,27.6,18.3,37.4c15,8,21.7,19.7,21.7,36.6c0,19.8,1.4,39.6,2,59.5c0.5,17.2-4.2,23.7-20.6,29.2
		c-16.3,5.4-32.6,10.8-48.9,16.2c0.3,0.9,0.6,1.8,0.9,2.7C247.5,452.3,301,452.3,354.5,452.3z M893.8,229.1
		c-117.7,0.6-235.3,0.6-353-0.1c-15.7-0.1-25,4.6-29.9,20.1c137.8,0,275.4,0,412.8,0C919.6,232,909,229,893.8,229.1z M878.2,196.7
		c-107.1,0.4-214.2,0.4-321.3,0c-11.7,0-18.8,3.3-22,15.7c121.8,0,243.1,0,365.2,0C897.1,199.9,889.9,196.6,878.2,196.7z
		 M863.8,172.1c-88.9,0.1-177.7,0.1-266.6,0.1c-9.5,0-19-0.8-28.3,0.3c-5.8,0.7-11.3,4.3-16.9,6.6c0.5,1.6,1,3.2,1.5,4.8
		c109.1,0,218.2,0,327.7,0C880,172.3,872.3,172.1,863.8,172.1z M866.7,161.9c-0.4-11.1-8.4-9.6-15.2-9.6c-51.5-0.1-102.9,0-154.4,0
		c-37.8,0-75.5-0.3-113.3,0.1c-5.7,0.1-11.3,3.2-17,5c0.4,1.5,0.9,3,1.3,4.5C667.6,161.9,766.9,161.9,866.7,161.9z M854.8,143.6
		c0.3-1.5,0.6-2.9,1-4.4c-5-0.9-10-2.5-15-2.5c-59.9-0.2-119.8-0.1-179.7-0.1c-22.6,0-45.3-0.1-67.9,0.1c-4.6,0-9.1,1.4-13.7,2.2
		c0.3,1.6,0.6,3.1,0.9,4.7C671.9,143.6,763.3,143.6,854.8,143.6z M846.5,128.2c-7.8-6.5-242.5-8.1-257.2,0
		C674.9,128.2,760.4,128.2,846.5,128.2z M837.9,116.3c0-0.9,0-1.9,0-2.8c-80.2,0-160.5,0-240.7,0c0,0.9,0,1.9,0,2.8
		C677.4,116.3,757.6,116.3,837.9,116.3z M831.3,105.1c0-0.6,0-1.3,0-1.9c-75.6,0-151.2,0-226.9,0c0,0.6,0,1.3,0,1.9
		C680.1,105.1,755.7,105.1,831.3,105.1z M610.9,94.2c0,0.7,0,1.4,0,2.1c71.1,0,142.3,0,213.4,0c0.1-0.7,0.2-1.4,0.3-2.1
		C753.3,94.2,682.1,94.2,610.9,94.2z M818.2,88.4c0-0.5,0-1,0-1.5c-66.6,0-133.3,0-199.9,0c-0.1,0.5-0.2,1-0.3,1.5
		C684.7,88.4,751.4,88.4,818.2,88.4z M813.2,82.3c0-0.5,0-1,0-1.5c-64,0-128,0-192,0c0,0.5,0,1,0,1.5
		C685.2,82.3,749.2,82.3,813.2,82.3z M630.2,69.6c0,0.5,0,1.1,0,1.6c58.1,0,116.2,0,174.3,0c0.1-0.5,0.3-1.1,0.4-1.6
		C746.7,69.6,688.5,69.6,630.2,69.6z M791.4,76.7c0-0.4,0-0.8,0-1.2c-53.9,0-107.8,0-161.8,0c-0.1,0.4-0.1,0.8-0.2,1.2
		C683.4,76.7,737.4,76.7,791.4,76.7z M247.7,397.4c-10.3,9.5-19.2,17.6-30,27.5C246.5,420.3,249.6,417.6,247.7,397.4z M1217.6,425.4
		c-10.3-9.6-18.9-17.6-29.1-27.1C1185.5,417.5,1188,419.7,1217.6,425.4z"/>
	<path class="st4" d="M362.1,436.6c0-3-0.4-3.5-3.2-4.4c-0.5-0.2-1.1-0.3-1.6-0.4c-12.3-3-36-14.6-48.3-17.6
		c-13.1-3.2-15-11.5-17.4-24.8c-1.8-9.8-1.6-19.6-1.2-29.5c0.2-4.4,0.4-8.7,0.6-13.2c0,0,0,0,0,0c0.4-11.6,0.7-17.5,1.1-29.1
		c0.1-3.6,0.4-7.2,1.1-10.7c0.8-4,3.2-6.7,7.6-7.6c5.3-1.1,10.5-8.2,15.7-9.6c2.7-0.7,4-2.1,4-4.5c-0.3-8.9,2.4-17.9,1.7-26.8
		c-0.5-6.3-3.7-11.2-10-13.3c-2.2-0.8-4.5-1.4-6.9-1.7c-15.3-2-44.8-4.8-60.1-2.6c-9.2,1.4-23.2,6.8-23.8,16.1
		c-0.5,8.3,5,19.4,4.9,27.7c-0.1,3.2,1,4.5,4.1,5.3c5.2,1.3,7.6,2.7,12.9,3.9c3.5,0.8,8.7,5.6,9.7,8.9c0.8,2.8,7,2.9,7.1,5.8
		c0.5,12.4,3.7,24.7,4.1,37.1c0,0.5,0.1,1,0.1,1.4c0.2,5.6,0.4,11,0.7,16.4c0.4,9.2,0.2,18.4-1.6,27.5c-2.4,11.7-9,19.7-20.7,22.8
		c-10.5,2.8-21,13.8-31.4,16.5c-3.2,0.8-6.4,1.6-9.5,2.4c-1.9,0.5-5.8,1.6-5.6,3.8c0.2,2.3,0.1-1,0,1.3c-0.1,1.6,3.4,2.4,4.9,2.6
		c0.7,0.1,1.3,0.2,2,0.2c10.4,0.1,20.7-2.5,31.1-2.6c37.5-0.1,86.4,2.7,123.9,2.6c0.8,0,1.7-0.2,2.5-0.4c1.2-0.2,1.7-1,1.6-2.2
		C362,435.5,362.1,438.9,362.1,436.6z"/>
	<path class="st3" d="M897.9,170.7c55.8,81.9,111.4,163.9,167.1,245.8c2.1,3.1,4.4,6,6.6,9c21.3-7.2,42.1-14.2,65-21.9
		c-3.3-4.2-5.8-7.8-8.7-11c-90.2-102.3-180.4-204.6-270.5-307c-4.3-4.9-7.5-10.6-11.2-16c53.5,57.2,107.1,114.4,160.4,171.7
		c43.1,46.3,86,92.8,129,139.2c2.1,2.3,4.6,4.2,8.7,7.9c1.1-23.7,2.5-45.1,2.6-66.5c0-4.3-3.6-10.2-7.4-12.6
		c-58.6-37.3-105.9-88-157.6-133.4c-46.4-40.8-91.2-83.5-136.7-125.4c4.3,2.6,9.1,4.7,13,8c58.7,49.1,117.4,98.2,176,147.4
		c25.2,21.2,50.2,42.6,76.5,64.8c0.6-4.2,0.9-6.5,1.3-8.7c4.2-27.2,10.1-32.1,38.3-31.9c10.6,0.1,21.2,0,31.8,0
		c0.2-0.9,0.4-1.7,0.5-2.6C1076.7,166.1,970.9,104.5,865.1,43c2.6-2,4-2,5.1-1.4c116.5,63.4,232.9,127,349.5,190.2
		c13.1,7.1,15.2,18.2,14.7,31c-0.3,7.9-0.8,15.7-1.3,23.6c1.1-1,2.2-2.1,3.3-3.1c17.8,10.5,35.7,21,53.5,31.6
		c-0.5,1.2-1.1,2.5-1.6,3.7c-30.6,0-61.2,0-93.1,0c-0.7,14.4-1.4,28-2.2,43.4c6.8,0,12.3,0,17.9,0c47.3,0,94.5,0,141.8,0.1
		c4.2,0,9.3-0.9,12.5,1c23.6,14,46.9,28.7,70.3,43.1c-0.4,1.1-0.8,2.2-1.2,3.3c-62.4,0-124.9,0-191.5,0c6.7,6.1,12,8.7,13.8,12.8
		c3.2,7.7,5.5,16.3,5.4,24.4c0,2-10.7,5.5-16.4,5.6c-46.8,0.5-93.6-1-140.4,0.8c-24.4,0.9-42.2-4.2-51.4-28.4
		c-4.8-12.5-14-15.9-27.7-15.9c-198.5,0.5-397,0.9-595.5-0.3c-23.5-0.1-37.3,7.1-45.6,27.4c-5.5,13.5-15.4,17-29.1,16.9
		c-52.5-0.5-151-0.4-157.4-0.4c-6.3,0-9.3-0.9-14.2-4.6c-6.9-6.1-3.1-17.9,3.1-20.2c6.2-2.2,51.3-18.7,51.3-18.7l0,0
		c-62.7,0-165,0-227.7,0c21.6-16.4,43.4-30.3,65.7-43.5c4.5-2.7,10.8-3.2,16.3-3.2c46.8-0.2,93.6-0.1,140.4-0.1c5.9,0,11.8,0,17.4,0
		c0-15.8,0-29.2,0-44.3c-32,0-62.8,0-93.5,0c-0.3-1.1-0.5-2.2-0.8-3.4c18-10.3,36.1-20.7,55.6-31.9c0-0.8,0.5-4.6-0.1-8.3
		c-4.3-25,6.3-39.2,29-51.1C325,178.8,561.4,49.5,584,37.2c0.6,1,1.1,2,1.7,3c-107.5,62.6-215,125.1-322.5,187.7
		c14.6,2.3,28.2,2.1,41.9,2.4c17.5,0.4,25.8,7.9,28.4,25.2c0.7,4.4,0.8,8.9,1.4,15.4C420.6,198.7,505,127.9,589.3,57.1
		C542.4,104.7,494,150.6,444,194.5c-44.7,39.2-91.3,76.1-136.9,114.3c-3.3,2.8-7.1,7.3-7.3,11.1c-0.7,22-0.3,44-0.3,66
		c0,2.7,2,2.8,4.3,0.8c5.1-4,172.1-185,253.4-272.6c9.9-10.6,21-20.2,31.5-30.2c-54.4,62.2-239.9,273.8-280,319.2
		c22.7,7.8,43.7,15,65.8,22.6C394.7,396.3,562,150.5,625.2,57c3.3-5.3,4.3-5.3,19.2-5.3c52.8,0,105.5,0.4,158.3,0.1
		c3.4,0,6.8-3,10.3-4.6C841.3,88.3,869.8,129.4,897.9,170.7z M987.2,322.6c-2.6-3.3-9.8-4.2-14.9-4.2
		c-132.7-0.2-265.4-0.2-398.1-0.2c-33.5,0-67.1,0.2-100.6-0.2c-8.9-0.1-14.9,1.7-19.3,10.2c-5.6,10.7-12.9,20.6-20.6,32.6
		c193.6,0,384.9,0,579.1,0C1003.4,346.6,996.1,333.9,987.2,322.6z M920.5,257.3c-132.2,1.4-264.5,1.4-396.7,0
		c-23.1-0.2-33.1,9.5-40.5,29c159.8,0,319.1,0,479.4,0C955.1,265.5,943.7,257,920.5,257.3z M1247.4,438.1c0.2-0.9,0.5-1.9,0.7-2.8
		c-15.3-5.1-30.5-10.3-45.8-15.2c-21.8-7-24.1-10.1-23.5-33.5c0.4-18.9,1.4-37.8,1.4-56.6c0-17.5,7.8-29.1,23.1-37.4
		c6.3-3.4,14.2-9.6,15.5-15.7c6.4-32,1.4-34.1-26.4-32.8c-16,0.8-32.1,0.5-48.1-0.1c-12.1-0.5-16.7,5.2-18.2,16.5
		c-2,15.3-0.4,27.3,16.5,34c14.8,5.9,20.1,19,19.3,34.6c-1,20.3-2,40.5-2.9,60.8c-0.7,14.8-6.8,24.6-22.1,28.8
		c-17.1,4.7-33.7,11-50.5,16.7c0.2,0.9,0.4,1.8,0.6,2.7C1140.4,438.1,1193.9,438.1,1247.4,438.1z M360,437.8
		c0.1-0.7,0.3-1.5,0.4-2.2c-17.7-5.9-35.3-12.1-53.1-17.6c-12.4-3.9-18.8-11.5-19.3-24.7c-0.7-20.8-1.4-41.6-3-62.3
		c-1.4-17.6,4.8-29.8,20.6-38.2c14.2-7.6,19.8-26.1,12.3-40.4c-2.1-3.9-8.6-7.7-13.2-7.8c-22.2-0.8-44.4-1-66.6,0.2
		c-4.4,0.2-11.3,6.9-12.2,11.4c-3.8,20.2,0,27.6,18.3,37.4c15,8,21.7,19.7,21.7,36.6c0,19.8,1.4,39.6,2,59.5
		c0.5,17.2-4.2,23.7-20.6,29.2c-16.3,5.4-31.8,10.5-48.1,15.9c0.5-0.4-0.1,1.7,0.2,2.9C253,437.8,306.5,437.8,360,437.8z
		 M899.3,214.6c-117.7,0.6-235.3,0.6-353-0.1c-15.7-0.1-25,4.6-29.9,20.1c137.8,0,275.4,0,412.8,0
		C925,217.5,914.4,214.5,899.3,214.6z M883.7,182.2c-107.1,0.4-214.2,0.4-321.3,0c-11.7,0-18.8,3.3-22,15.7c121.8,0,243.1,0,365.2,0
		C902.6,185.4,895.4,182.2,883.7,182.2z M869.3,157.6c-88.9,0.1-285.6-0.7-294.9,0.4c-5.8,0.7-11.3,4.3-16.9,6.6
		c0.5,1.6,1,3.2,1.5,4.8c109.1,0,218.2,0,327.7,0C885.4,157.8,877.8,157.6,869.3,157.6z M872.2,147.4c-0.4-11.1-8.4-9.6-15.2-9.6
		c-51.5-0.1-102.9,0-154.4,0c-37.8,0-75.5-0.3-113.3,0.1c-5.7,0.1-11.3,3.2-17,5c0.4,1.5,0.9,3,1.3,4.5
		C673,147.4,772.4,147.4,872.2,147.4z M860.3,129.1c0.3-1.5,0.6-2.9,1-4.4c-5-0.9-10-2.5-15-2.5c-59.9-0.2-224.9-0.2-247.6,0
		c-4.6,0-9.1,1.4-13.7,2.2c0.3,1.6,0.6,3.1,0.9,4.7C677.3,129.1,768.8,129.1,860.3,129.1z M852,113.8c-7.8-6.5-242.5-8.1-257.2,0
		C680.3,113.8,765.8,113.8,852,113.8z M843.3,101.8c0-0.9,0-1.9,0-2.8c-80.2,0-160.5,0-240.7,0c0,0.9,0,1.9,0,2.8
		C682.9,101.8,763.1,101.8,843.3,101.8z M836.8,90.6c0-0.6,0-1.3,0-1.9c-75.6,0-151.2,0-226.9,0c0,0.6,0,1.3,0,1.9
		C685.6,90.6,761.2,90.6,836.8,90.6z M616.4,79.7c0,0.7,0,1.4,0,2.1c71.1,0,142.3,0,213.4,0c0.1-0.7,0.2-1.4,0.3-2.1
		C758.8,79.7,687.6,79.7,616.4,79.7z M823.6,74c0-0.5,0-1,0-1.5c-66.6,0-133.3,0-199.9,0c-0.1,0.5-0.2,1-0.3,1.5
		C690.2,74,756.9,74,823.6,74z M818.6,67.8c0-0.5,0-1,0-1.5c-64,0-128,0-192,0c0,0.5,0,1,0,1.5C690.6,67.8,754.6,67.8,818.6,67.8z
		 M635.7,55.1c0,0.5,0,1.1,0,1.6c58.1,0,116.2,0,174.3,0c0.1-0.5,0.3-1.1,0.4-1.6C752.2,55.1,693.9,55.1,635.7,55.1z M796.8,62.2
		c0-0.4,0-0.8,0-1.2c-53.9,0-107.8,0-161.8,0c-0.1,0.4-0.1,0.8-0.2,1.2C688.9,62.2,742.9,62.2,796.8,62.2z"/>
</g>
</svg>
