<svg width="305" height="64" fill="none" xmlns="http://www.w3.org/2000/svg"><g clip-path="url(#clip0)"><path d="M150.192 21.11h-.545v26.086h.545V21.109z" fill="#24282A"/><path d="M55.349 38.618c-6.46-6.45-16.959-6.45-23.402 0l-4.184-4.177c8.768-8.755 23.018-8.755 31.786 0l-4.2 4.177z" fill="#327EC1"/><path d="M54.58 48.524a22.485 22.485 0 01-15.901-6.562l4.183-4.177c6.46 6.45 16.96 6.45 23.403 0l4.183 4.177c-4.344 4.37-10.098 6.562-15.868 6.562zm3.574-29.655c0 3.809-3.094 6.881-6.892 6.881a6.887 6.887 0 01-6.893-6.881c0-3.81 3.094-6.882 6.893-6.882a6.877 6.877 0 016.892 6.882z" fill="#327EC1"/><path d="M115.025 22.598h-1.411c-8.623 0-16.157 7.425-16.157 16.42v1.488h-1.699v4.977h21.703v-4.977h-2.452V22.598h.016zM107.7 29.43c.833-.592 1.586-.96 2.308-1.248v12.323h-7.005c.096-5.633 1.603-8.866 4.697-11.075zm-20.261-6.752V32.6c-1.378.352-2.66.528-3.767.56h-.032a17.278 17.278 0 01-2.404-.272 1.664 1.664 0 01-1.363-1.632v-8.658l-1.266-.016h-3.75v9.442c0 1.889.945 3.44 2.34 4.53 1.554 1.2 3.927 1.551 5.978 1.551 1.62 0 3.158-.223 4.264-.448v7.762h5.193V22.726l-5.193-.048zM134.58 34.04c.225-.175.433-.335.641-.528 2.934-2.576 4.472-6.145 4.585-10.642h-5.114c-.112 2.976-1.026 5.201-2.821 6.802-1.747 1.536-4.071 2.256-6.091 2.576V22.87h-5.193v22.565h5.193v-8.034a21.91 21.91 0 004.072-.912l5.433 8.946h6.204L134.58 34.04z" fill="#24282A"/><path d="M196.292 28.631h2.933v16.804h-2.933V38.41h-8.72v7.025h-2.917V28.631h2.917v6.994h8.72V28.63zm21.414 0v16.804h-2.933V31.448h-6.636v6.85c0 2.752-.561 4.673-1.667 5.761-1.106 1.088-2.677 1.536-4.696 1.36v-2.752c1.138.16 2.003-.096 2.58-.753.577-.656.866-1.888.866-3.68v-9.619h12.486v.016zm18.386 0h2.933v16.804h-2.933V42.54c-1.459 2.224-3.575 3.328-6.364 3.328-2.356 0-4.36-.864-6.027-2.576-1.667-1.713-2.484-3.81-2.484-6.274s.833-4.56 2.484-6.273c1.667-1.713 3.671-2.577 6.027-2.577 2.789 0 4.905 1.104 6.364 3.329V28.63zm-5.995 14.42c1.699 0 3.125-.576 4.279-1.729 1.139-1.152 1.716-2.576 1.716-4.289 0-1.696-.577-3.137-1.716-4.289-1.138-1.152-2.564-1.728-4.279-1.728-1.683 0-3.094.576-4.248 1.728-1.138 1.152-1.715 2.577-1.715 4.29 0 1.696.577 3.136 1.715 4.288 1.154 1.153 2.565 1.729 4.248 1.729zm25.582-14.42h2.356v16.804h-2.885V33.641l-9.329 11.794h-2.356V28.631h2.901v11.795l9.313-11.795zm-9.457-5.073h9.088v2.56h-9.088v-2.56zm27.906 5.073h2.934v16.804h-2.934V38.41h-8.72v7.025h-2.933V28.631h2.933v6.994h8.72V28.63zm-97.151-2.801l-.321.32-1.827 1.825c1.683 1.744 2.516 3.889 2.516 6.45 0 2.576-.865 4.753-2.612 6.497-1.747 1.76-3.895 2.64-6.476 2.64s-4.745-.88-6.476-2.64c-1.747-1.76-2.612-3.92-2.612-6.497 0-2.593.865-4.786 2.612-6.546l.016-.016c-.721-.704-1.442-1.408-2.164-2.129l-.016.016c-2.356 2.369-3.542 5.25-3.542 8.658 0 3.377 1.17 6.258 3.542 8.643 2.357 2.368 5.242 3.569 8.656 3.569 3.414 0 6.299-1.185 8.672-3.57 2.372-2.368 3.558-5.249 3.558-8.642-.032-3.36-1.202-6.225-3.526-8.578z" fill="#F49C55"/><path d="M168.257 46.796c-3.446 0-6.396-1.217-8.768-3.617-2.372-2.4-3.574-5.346-3.574-8.754 0-3.441 1.202-6.386 3.574-8.77l.128-.113.113.096c.721.705 1.442 1.425 2.163 2.129l.113.112-.129.128c-1.699 1.728-2.564 3.889-2.564 6.434 0 2.528.865 4.673 2.564 6.385 1.7 1.713 3.847 2.593 6.364 2.593 2.533 0 4.664-.864 6.363-2.593 1.7-1.712 2.565-3.873 2.565-6.385 0-2.497-.833-4.626-2.484-6.338l-.113-.112 2.389-2.385.112.112c2.356 2.369 3.542 5.314 3.542 8.707 0 3.408-1.218 6.353-3.59 8.754-2.388 2.4-5.338 3.617-8.768 3.617zm-8.64-20.822c-2.26 2.305-3.398 5.154-3.398 8.45 0 3.33 1.17 6.194 3.495 8.53 2.308 2.337 5.193 3.522 8.543 3.522 3.35 0 6.235-1.185 8.559-3.521 2.325-2.337 3.511-5.202 3.511-8.53 0-3.265-1.122-6.082-3.334-8.37l-1.924 1.92c1.635 1.744 2.453 3.92 2.453 6.45 0 2.608-.898 4.833-2.661 6.61-1.763 1.776-3.975 2.688-6.588 2.688s-4.841-.896-6.588-2.689c-1.763-1.776-2.661-4-2.661-6.61 0-2.576.866-4.785 2.549-6.545a73.51 73.51 0 01-1.956-1.905z" fill="#F49C55"/><path d="M169.443 22.39h-2.356v8.834h2.356V22.39z" fill="#F49C55"/><path d="M169.555 31.336h-2.564v-9.074h2.564v9.074zm-2.356-.24h2.148v-8.594h-2.148v8.594z" fill="#F49C55"/></g><defs><clipPath id="clip0"><path fill="#fff" transform="translate(-5)" d="M0 0h310v64H0z"/></clipPath></defs></svg>