<svg width="19" height="19" fill="none" xmlns="http://www.w3.org/2000/svg"><g clip-path="url(#clip0)"><path d="M19 12.858a6.16 6.16 0 00-3.379-5.485c-.062 4.52-3.728 8.186-8.248 8.248A6.16 6.16 0 0012.858 19a6.12 6.12 0 003.125-.854l2.99.827-.827-2.99A6.12 6.12 0 0019 12.858z" fill="#2A2C2D"/><path d="M14.51 7.255c0-4-3.255-7.255-7.255-7.255S0 3.254 0 7.255c0 1.304.347 2.573 1.006 3.688l-.98 3.54 3.541-.98a7.233 7.233 0 003.688 1.007c4 0 7.255-3.255 7.255-7.255zM6.142 5.566H5.028c0-1.227 1-2.226 2.227-2.226a2.228 2.228 0 011.502 3.87l-.945.865v.868H6.698V7.585l1.308-1.197a1.115 1.115 0 10-1.864-.822zm.556 4.49h1.114v1.114H6.698v-1.113z" fill="#327EC1"/></g><defs><clipPath id="clip0"><path fill="#fff" d="M0 0h19v19H0z"/></clipPath></defs></svg>