<?xml version="1.0" encoding="utf-8"?><svg xmlns="http://www.w3.org/2000/svg" xmlns:xlink="http://www.w3.org/1999/xlink"><symbol viewBox="0 0 40 40" id="blockquote" xmlns="http://www.w3.org/2000/svg"><path d="M28.308 35.683l-.56 2.285a108.1 108.1 0 01-4.013 1.512c-.998.347-2.158.52-3.48.52-2.03 0-3.609-.497-4.735-1.485-1.126-.992-1.689-2.248-1.689-3.772 0-.59.04-1.197.126-1.816.085-.619.222-1.316.408-2.096l2.096-7.416c.186-.71.345-1.383.471-2.02.13-.632.191-1.214.191-1.738 0-.947-.196-1.61-.586-1.982-.39-.371-1.136-.56-2.242-.56-.541 0-1.098.087-1.666.255-.57.168-1.057.331-1.466.482l.56-2.286a52.44 52.44 0 013.94-1.435c1.255-.398 2.441-.597 3.563-.597 2.016 0 3.571.487 4.664 1.461 1.092.975 1.638 2.24 1.638 3.797 0 .322-.036.89-.113 1.702a11.379 11.379 0 01-.42 2.236l-2.086 7.387a19.619 19.619 0 00-.459 2.035c-.138.758-.204 1.338-.204 1.726 0 .981.22 1.65.658 2.007.441.356 1.202.533 2.282.533.508 0 1.085-.09 1.726-.267.64-.177 1.106-.332 1.396-.468zm.529-31.012c0 1.287-.485 2.386-1.46 3.29-.972.907-2.144 1.361-3.514 1.361-1.375 0-2.55-.454-3.533-1.36-.982-.905-1.474-2.004-1.474-3.29 0-1.285.492-2.386 1.474-3.301C21.31.457 22.488 0 23.863 0c1.37 0 2.542.458 3.514 1.37.975.916 1.46 2.017 1.46 3.301z"/></symbol><symbol viewBox="0 0 17 16" id="calendar" xmlns="http://www.w3.org/2000/svg"><path d="M13.982 1.733h-.543v-.526C13.439.541 12.846 0 12.117 0c-.73 0-1.321.541-1.321 1.207v.526H9.44v-.526C9.44.541 8.847 0 8.118 0 7.39 0 6.797.541 6.797 1.207v.526H5.44v-.526C5.44.541 4.848 0 4.12 0c-.73 0-1.322.541-1.322 1.207v.526h-.693C.944 1.733 0 2.57 0 3.598v10.536C0 15.163.944 16 2.104 16h11.878c1.16 0 2.104-.837 2.104-1.866V3.598c0-1.028-.944-1.865-2.104-1.865zm-2.444-.526c0-.302.26-.549.58-.549.319 0 .578.247.578.55v2.149c0 .302-.259.548-.579.548-.319 0-.579-.246-.579-.548v-2.15zm-3.999 0c0-.302.26-.549.58-.549.318 0 .578.247.578.55v2.149c0 .302-.26.548-.579.548-.32 0-.579-.246-.579-.548v-2.15zm-4 0c0-.302.26-.549.58-.549.319 0 .579.247.579.55v2.149c0 .302-.26.548-.58.548-.319 0-.579-.246-.579-.548v-2.15zm11.31 12.928c0 .423-.39.768-.867.768H2.104c-.478 0-.867-.345-.867-.768V4.477h13.611v9.658z"/><path d="M4.625 6.42H2.351v1.796h2.274V6.42zm3.036 0H5.386v1.796h2.275V6.42zm3.038 0H8.424v1.796H10.7V6.42zm3.036 0H11.46v1.796h2.275V6.42zm-9.11 2.397H2.351v1.793h2.274V8.817zm3.036 0H5.386v1.793h2.275V8.817zm3.038 0H8.424v1.793H10.7V8.817zm3.036 0H11.46v1.793h2.275V8.817zm-9.11 2.395H2.351v1.794h2.274v-1.794zm3.036 0H5.386v1.794h2.275v-1.794zm3.038 0H8.424v1.794H10.7v-1.794zm3.036 0H11.46v1.794h2.275v-1.794z"/></symbol><symbol viewBox="0 0 30 32" id="call-center-operator" xmlns="http://www.w3.org/2000/svg"><path d="M28.598 26.01V26c-8.164 7.5-19.172 7.5-27.196 0v.009c0-1.884 1.624-4.204 3.609-5.146l4.415-2.098 3.066 6.387 1.569-4.255c.31.059.616.137.939.137.323 0 .629-.078.939-.137l1.49 4.046 3.005-6.25 4.558 2.169c1.982.942 3.606 3.262 3.606 5.148zM5.413 12.025V9.143c0-.488.255-.916.639-1.163.515-4.485 4.33-7.98 8.95-7.98 4.62 0 8.436 3.495 8.952 7.98.383.247.637.675.637 1.163v2.882a1.386 1.386 0 11-2.771 0v-.605c-.75 3.772-3.513 7.275-6.817 7.275-3.305 0-6.067-3.503-6.817-7.275v.605c0 .62-.412 1.14-.975 1.317a8.087 8.087 0 003.465 4.563c.312-.103.706-.084 1.088.115.613.32.926.94.694 1.383-.232.444-.916.543-1.533.223-.45-.235-.736-.63-.766-.999a8.982 8.982 0 01-3.875-5.318c-.509-.204-.87-.7-.87-1.284zm1.583-4.369c.042.003.082.004.121.02.1.036.173.108.224.192.3.128.54.361.687.65C8.437 4.687 11.398 2.66 15 2.66c3.602 0 6.563 2.027 6.972 5.858a1.375 1.375 0 011.05-.742C22.424 3.881 19.06.886 15 .886c-4.018 0-7.355 2.935-8.004 6.77z"/></symbol><symbol viewBox="0 0 18 24" id="download" xmlns="http://www.w3.org/2000/svg"><path d="M17.962 6.309a.476.476 0 00-.109-.163L11.854.147A.504.504 0 0011.5 0h-10C.673 0 0 .673 0 1.5v21c0 .827.673 1.5 1.5 1.5h15c.827 0 1.5-.673 1.5-1.5v-16a.504.504 0 00-.038-.191zM13.5 18h-9a.5.5 0 010-1h9a.5.5 0 010 1zm0-4h-9a.5.5 0 010-1h9a.5.5 0 010 1zm0-4h-9a.5.5 0 010-1h9a.5.5 0 010 1zm-1-4a.5.5 0 01-.5-.5V1.707L16.293 6H12.5z"/></symbol><symbol viewBox="0 0 20 20" id="file" xmlns="http://www.w3.org/2000/svg"><path d="M1.864 17.606a6.342 6.342 0 004.5 1.861c1.629 0 3.259-.62 4.5-1.86l7.807-7.808a4.55 4.55 0 000-6.428 4.515 4.515 0 00-3.214-1.332 4.516 4.516 0 00-3.214 1.332l-7.165 7.165a2.73 2.73 0 000 3.856 2.73 2.73 0 003.857 0l4.718-4.718a.91.91 0 00-1.286-1.285L7.65 13.107a.91.91 0 01-1.286-1.286l7.165-7.165a2.71 2.71 0 011.929-.799 2.71 2.71 0 011.928.8 2.73 2.73 0 010 3.856l-7.807 7.808a4.55 4.55 0 01-6.429 0 4.515 4.515 0 01-1.33-3.214c0-1.214.472-2.356 1.33-3.214l7.808-7.808A.91.91 0 009.672.799L1.864 8.607A6.322 6.322 0 000 13.107c0 1.7.662 3.297 1.864 4.5z"/></symbol><symbol viewBox="0 0 30 30" id="live-chat" xmlns="http://www.w3.org/2000/svg"><path d="M30 12.313c0-5.75-5.577-10.426-12.432-10.426-6.856 0-12.433 4.677-12.433 10.425 0 5.75 5.578 10.426 12.433 10.426.576 0 1.154-.033 1.723-.099 2.64 1.678 4.59 2.596 5.798 2.73a1.148 1.148 0 001.087-.51c.239-.364.254-.824.041-1.2-.01-.017-.942-1.718-.673-3.343C28.38 18.33 30 15.43 30 12.313zm-15.81 1.573a1.842 1.842 0 110-3.683 1.842 1.842 0 010 3.683zm6.753 0a1.842 1.842 0 110-3.683 1.842 1.842 0 010 3.683z"/><path d="M7.762 20.654c-1.234-1.021-2.206-2.217-2.89-3.553a9.697 9.697 0 01-1.086-4.456A9.698 9.698 0 015.044 7.87C1.999 9.614 0 12.526 0 15.817c0 2.957 1.593 5.7 4.376 7.543.514 2.02-.679 4.159-.692 4.18a.384.384 0 00.377.57c1.392-.154 3.844-1.569 5.701-2.762a14.19 14.19 0 001.903.128c2.44 0 4.707-.624 6.582-1.689-.42.034-.841.052-1.262.052-3.467 0-6.743-1.131-9.223-3.185z"/></symbol><symbol viewBox="0 0 21 19" id="lk-mobile" xmlns="http://www.w3.org/2000/svg"><path d="M13.018 13C9.97 9.998 5.015 9.998 1.974 13L0 11.056c4.138-4.075 10.862-4.075 15 0L13.018 13zm.49 6C10.79 19 8.074 17.775 6 15.334L7.975 13c3.05 3.604 8.007 3.604 11.05 0L21 15.334C18.949 17.775 16.232 19 13.508 19zM15 3.5C15 5.437 13.653 7 12 7c-1.66 0-3-1.57-3-3.5C9 1.563 10.347 0 12 0c1.66 0 3 1.563 3 3.5z"/></symbol><symbol viewBox="0 0 18 16" id="microphone" xmlns="http://www.w3.org/2000/svg"><path d="M14.591 7.5c0-.259-.227-.469-.508-.469-.28 0-.508.21-.508.469 0 2.499-2.202 4.531-4.908 4.531-2.707 0-4.91-2.032-4.91-4.531 0-.259-.227-.469-.507-.469s-.508.21-.508.469c0 2.858 2.387 5.21 5.417 5.448v2.114H5.417c-.28 0-.508.21-.508.47 0 .258.227.468.508.468h6.5c.28 0 .508-.21.508-.469s-.228-.469-.508-.469H9.174v-2.114c3.03-.238 5.417-2.59 5.417-5.448z"/><path d="M10.563 7.969c-.281 0-.508-.21-.508-.469s.227-.469.508-.469h1.861V5.97h-2.403c-.28 0-.508-.21-.508-.469s.227-.469.508-.469h2.403V3.97h-1.861c-.281 0-.508-.21-.508-.469s.227-.469.508-.469h1.848C12.258 1.336 10.729 0 8.87 0h-.406c-1.86 0-3.389 1.336-3.543 3.031H6.77c.28 0 .508.21.508.469s-.228.469-.508.469H4.909V5.03h2.403c.28 0 .508.21.508.469s-.227.469-.508.469H4.91V7.03h1.86c.28 0 .508.21.508.469s-.228.469-.508.469H4.922c.155 1.678 1.684 3 3.542 3h.406c1.857 0 3.386-1.322 3.541-3h-1.848z"/></symbol><symbol viewBox="0 0 17 17" id="mob-calendare" xmlns="http://www.w3.org/2000/svg"><path d="M9.928 10.525a.664.664 0 100-1.328.664.664 0 000 1.328zm0-2.888a.664.664 0 100-1.328.664.664 0 000 1.328zM7.04 10.525a.664.664 0 100-1.328.664.664 0 000 1.328zm0-2.888a.664.664 0 100-1.328.664.664 0 000 1.328zm0 5.777a.664.664 0 100-1.328.664.664 0 000 1.328zm5.776-5.777a.664.664 0 100-1.328.664.664 0 000 1.328zm-8.666 0a.664.664 0 100-1.328.664.664 0 000 1.328zm9.862 2.125a2.992 2.992 0 00-2.989 2.988c0 .558.154 1.08.422 1.528l-1.588 1.588a.664.664 0 10.939.94l1.565-1.566a2.97 2.97 0 001.65.498A2.992 2.992 0 0017 12.75a2.992 2.992 0 00-2.988-2.988zm0 4.648c-.916 0-1.66-.745-1.66-1.66 0-.915.744-1.66 1.66-1.66.915 0 1.66.745 1.66 1.66 0 .915-.745 1.66-1.66 1.66zm-9.862-.996a.664.664 0 100-1.328.664.664 0 000 1.328z"/><path d="M14.344 1.328h-.864V.664a.664.664 0 10-1.328 0v.664H9.131V.664a.664.664 0 10-1.328 0v.664H4.814V.664a.664.664 0 10-1.328 0v.664h-.83A2.66 2.66 0 000 3.984v10.36A2.66 2.66 0 002.656 17h4.35a.664.664 0 100-1.328h-4.35a1.33 1.33 0 01-1.328-1.328V3.984a1.33 1.33 0 011.328-1.328h.83v.664a.664.664 0 101.328 0v-.664h2.989v.664a.664.664 0 101.328 0v-.664h3.021v.664a.664.664 0 101.329 0v-.664h.863a1.33 1.33 0 011.328 1.328V7.97a.664.664 0 101.328 0V3.984a2.66 2.66 0 00-2.656-2.656z"/><path d="M4.15 10.525a.664.664 0 100-1.328.664.664 0 000 1.328z"/></symbol><symbol viewBox="0 0 120 120" id="nav-icon-1" xmlns="http://www.w3.org/2000/svg"><path d="M104.08 54.384c0-16.176-15.68-29.328-34.976-29.328-19.28 0-34.976 13.152-34.976 29.328s15.68 29.328 34.976 29.328a44.53 44.53 0 004.848-.272c7.424 4.72 12.912 7.296 16.304 7.68.112.016.24.016.352.016a3.244 3.244 0 002.704-1.456 3.21 3.21 0 00.112-3.376c-.032-.048-2.656-4.832-1.888-9.408 7.984-5.584 12.544-13.744 12.544-22.512zm-44.464 4.432c-2.864 0-5.184-2.32-5.184-5.184s2.32-5.184 5.184-5.184 5.184 2.32 5.184 5.184c-.016 2.864-2.336 5.184-5.184 5.184zm18.992 0c-2.864 0-5.184-2.32-5.184-5.184s2.32-5.184 5.184-5.184a5.183 5.183 0 015.184 5.184 5.183 5.183 0 01-5.184 5.184z"/><path d="M41.52 77.84c-3.472-2.88-6.208-6.24-8.128-10-2.032-3.968-3.056-8.176-3.056-12.528s1.024-8.56 3.056-12.528c.16-.304.32-.608.48-.896C25.312 46.8 19.68 54.992 19.68 64.24c0 8.32 4.48 16.032 12.304 21.216 1.44 5.68-1.904 11.696-1.952 11.76-.192.352-.192.784.032 1.12.208.304.544.48.896.48h.112c3.92-.432 10.816-4.416 16.032-7.776 1.76.24 3.552.352 5.36.352 6.864 0 13.232-1.76 18.512-4.752a43.934 43.934 0 01-3.552.144c-9.712.016-18.928-3.152-25.904-8.944z"/></symbol><symbol viewBox="0 0 120 120" id="nav-icon-10" xmlns="http://www.w3.org/2000/svg"><path d="M30.032 28.656c-7.824 7.824-12.16 18.224-12.16 29.296s4.304 21.456 12.144 29.296a41.447 41.447 0 0029.328 12.144 41.19 41.19 0 0019.552-4.928c5.52 3.968 10.912 4.832 14.576 4.832 1.36 0 2.48-.128 3.28-.24 1.68-.256 2.976-1.584 3.248-3.264a3.865 3.865 0 00-2.112-4.064c-3.168-1.552-5.312-4.672-6.64-7.36 13.584-16.352 12.528-40.576-2.608-55.712-7.824-7.824-18.224-12.144-29.296-12.144-11.104 0-21.488 4.304-29.312 12.144zm3.344 55.232C19.072 69.584 19.072 46.32 33.392 32 47.68 17.696 70.96 17.696 85.28 32c13.696 13.696 14.368 35.776 1.536 50.256a2.414 2.414 0 00-.576 1.328 2.277 2.277 0 00.128 1.52c1.312 2.992 3.552 6.848 7.12 9.44h-.016c-3.088 0-7.744-.768-12.496-4.448a.861.861 0 00-.192-.144 2.365 2.365 0 00-2.88-.368c-14.4 8.464-32.704 6.128-44.528-5.696z"/><path d="M29.552 87.68C21.6 79.728 17.216 69.168 17.216 57.936c0-11.216 4.384-21.792 12.352-29.744C37.52 20.24 48.08 15.856 59.312 15.856s21.792 4.384 29.744 12.336c15.104 15.104 16.352 39.728 2.928 56.256 1.216 2.336 3.216 5.248 6.16 6.688a4.52 4.52 0 012.48 4.752 4.515 4.515 0 01-3.776 3.792 22.93 22.93 0 01-3.376.256c-3.616 0-9.056-.832-14.624-4.72a41.98 41.98 0 01-19.504 4.816c-11.264-.016-21.84-4.4-29.792-12.352zm49.712 6.24c5.408 3.888 10.704 4.72 14.192 4.72 1.104 0 2.16-.08 3.168-.24a3.26 3.26 0 002.704-2.72 3.2 3.2 0 00-1.76-3.376c-3.424-1.68-5.664-5.088-6.928-7.648l-.192-.384.272-.32c13.296-16.016 12.176-40.096-2.576-54.832-7.712-7.712-17.952-11.952-28.832-11.952s-21.12 4.24-28.832 11.952-11.968 17.952-11.968 28.832 4.24 21.12 11.952 28.832 17.952 11.952 28.864 11.952c6.704 0 13.36-1.68 19.248-4.848l.352-.192.336.224zm-46.352-9.584c-7.04-7.04-10.928-16.416-10.928-26.4s3.888-19.36 10.944-26.4c7.04-7.04 16.416-10.928 26.4-10.928s19.36 3.872 26.416 10.928c13.936 13.936 14.624 36.4 1.568 51.136-.24.272-.384.624-.432 1.072-.096.368-.064.752.08 1.104 1.216 2.784 3.408 6.624 6.896 9.184L95.44 95.2h-1.984c-3.184 0-8-.8-12.976-4.656l-.16-.112a1.699 1.699 0 00-2.08-.272 37.169 37.169 0 01-18.88 5.136c-9.68 0-19.248-3.76-26.448-10.96zm48.256 5.104c.08.048.16.112.192.144 3.696 2.864 7.328 3.904 10.176 4.208-2.832-2.608-4.672-5.936-5.776-8.448-.256-.624-.304-1.296-.176-1.84.064-.624.32-1.216.736-1.696 12.592-14.24 11.936-35.92-1.52-49.376-6.8-6.8-15.856-10.544-25.488-10.544S40.624 25.632 33.84 32.432c-6.8 6.8-10.56 15.856-10.56 25.488s3.744 18.688 10.544 25.488l-.464.464.464-.464c11.616 11.616 29.6 13.92 43.744 5.616a2.96 2.96 0 011.536-.416 3.075 3.075 0 012.064.832z"/><path d="M54.4 62.944c0-1.712.496-3.344 1.472-4.88s2.064-2.768 3.232-3.712 2.256-1.984 3.232-3.136c.992-1.152 1.472-2.256 1.472-3.296 0-2.016-1.232-3.024-3.712-3.024-2.56 0-4.576 1.664-6.032 4.96l-9.552-5.472c1.376-3.392 3.504-5.968 6.384-7.728 2.864-1.76 6.08-2.64 9.648-2.64 4.016 0 7.44 1.12 10.24 3.36 2.8 2.24 4.208 5.296 4.208 9.152 0 1.76-.352 3.392-1.04 4.864-.688 1.488-1.52 2.736-2.48 3.744s-1.936 1.936-2.896 2.8c-.96.864-1.792 1.712-2.48 2.544-.688.832-1.04 1.664-1.04 2.448H54.4v.016zm9.968 15.024c-1.28 1.264-2.816 1.888-4.624 1.888-1.808 0-3.344-.624-4.624-1.888s-1.92-2.8-1.92-4.656c0-1.808.64-3.344 1.92-4.624s2.816-1.92 4.624-1.92c1.808 0 3.344.64 4.624 1.92 1.28 1.28 1.92 2.816 1.92 4.624 0 1.84-.64 3.392-1.92 4.656z"/></symbol><symbol viewBox="0 0 120 120" id="nav-icon-11" xmlns="http://www.w3.org/2000/svg"><path d="M91.632 41.488H77.328c2.064-1.728 2.624-3.696 2.624-5.312 0-5.392-3.088-8.48-8.48-8.48-5.472 0-9.28 5.312-11.664 10.256-2.384-4.944-6.192-10.256-11.664-10.256-5.392 0-8.48 3.088-8.48 8.48 0 1.616.56 3.584 2.624 5.312H27.984a2.127 2.127 0 00-2.128 2.128v14.848c0 1.168.944 2.128 2.128 2.128v32.88c0 1.168.944 2.128 2.128 2.128H89.52a2.127 2.127 0 002.128-2.128v-32.88a2.127 2.127 0 002.128-2.128V43.616c-.016-1.168-.976-2.128-2.144-2.128zm-2.128 14.864h-20.16V45.744h20.16v10.608zM54.496 45.744h10.608v10.608H54.496V45.744zm16.976-13.792c3.056 0 4.24 1.184 4.24 4.24 0 2.992-6.16 4.784-12.816 5.2 1.696-3.952 4.864-9.44 8.576-9.44zm-23.344 0c3.712 0 6.88 5.504 8.576 9.456-6.656-.432-12.816-2.224-12.816-5.2 0-3.072 1.2-4.256 4.24-4.256zM30.096 45.744h20.16v10.608h-20.16V45.744zm2.128 14.848h20.16V91.36h-20.16V60.592zm24.4 30.768V60.592h6.368V91.36h-6.368zm30.768 0h-20.16V60.592h20.16V91.36z"/><path d="M89.504 96.256H30.096a2.769 2.769 0 01-2.768-2.768v-32.32a2.782 2.782 0 01-2.128-2.704V43.616a2.769 2.769 0 012.768-2.768h12.736c-1.136-1.344-1.712-2.928-1.712-4.656 0-5.728 3.408-9.136 9.136-9.136 4.464 0 8.384 3.184 11.664 9.456 3.296-6.272 7.2-9.456 11.664-9.456 5.728 0 9.136 3.408 9.136 9.136 0 1.728-.592 3.296-1.712 4.656h12.736a2.769 2.769 0 012.768 2.768v14.848c0 1.312-.912 2.4-2.128 2.704v32.304a2.749 2.749 0 01-2.752 2.784zm-61.52-54.112c-.816 0-1.472.656-1.472 1.472v14.848c0 .816.656 1.472 1.472 1.472h.656v33.536c0 .816.656 1.472 1.472 1.472H89.52c.816 0 1.472-.656 1.472-1.472V59.936h.656c.816 0 1.472-.656 1.472-1.472V43.616c0-.816-.656-1.472-1.472-1.472H75.536l1.376-1.152c1.584-1.328 2.4-2.944 2.4-4.8 0-5.056-2.784-7.84-7.84-7.84-5.216 0-8.896 5.376-11.088 9.888l-.592 1.216-.592-1.216c-2.176-4.512-5.872-9.888-11.088-9.888-5.056 0-7.84 2.784-7.84 7.84 0 1.856.816 3.472 2.4 4.8l1.376 1.152H27.984zM88.048 92H66.576V59.936h21.456V92h.016zm-20.176-1.296h18.864V61.248H67.872v29.456zM63.632 92h-7.664V59.936h7.664V92zm-6.352-1.296h5.056V61.248H57.28v29.456zM53.024 92H31.568V59.936h21.456V92zM32.88 90.704h18.848V61.248H32.88v29.456zm57.28-33.712H68.704V45.088H90.16v11.904zM70 55.696h18.848v-9.312H70v9.312zm-4.24 1.296H53.84V45.088h11.92v11.904zm-10.608-1.296h9.312v-9.312h-9.312v9.312zm-4.24 1.296H29.456V45.088h21.456v11.904zm-20.16-1.296H49.6v-9.312H30.752v9.312zm26.976-13.584l-1.056-.064c-6.496-.416-13.424-2.176-13.424-5.856 0-3.424 1.456-4.896 4.896-4.896 4.304 0 7.6 6.16 9.168 9.84l.416.976zm-9.584-9.52c-2.688 0-3.6.912-3.6 3.6 0 2.08 4.608 3.904 11.12 4.48-1.28-2.752-4.208-8.08-7.52-8.08zm13.728 9.52l.416-.976c1.568-3.68 4.864-9.84 9.184-9.84 3.424 0 4.896 1.456 4.896 4.896 0 3.68-6.944 5.44-13.424 5.856l-1.072.064zm9.6-9.52c-3.328 0-6.256 5.328-7.536 8.064 6.512-.576 11.136-2.4 11.136-4.48 0-2.672-.912-3.584-3.6-3.584z"/></symbol><symbol viewBox="0 0 120 120" id="nav-icon-12" xmlns="http://www.w3.org/2000/svg"><path d="M93.952 59.024a7.219 7.219 0 001.84-4.8c0-3.968-3.232-7.2-7.2-7.2H74.624c1.392-4.208 1.968-9.776 1.968-12.16v-2.4c0-5.296-4.304-9.6-9.6-9.6h-2.4a2.412 2.412 0 00-2.336 1.824l-1.312 5.232c-1.84 7.328-7.648 15.408-13.664 16.88a7.212 7.212 0 00-6.704-4.56h-14.4a2.397 2.397 0 00-2.4 2.4v43.2c0 1.328 1.072 2.4 2.4 2.4h14.4a7.188 7.188 0 006.496-4.112l8.24 2.752a26.472 26.472 0 008.352 1.36h20.112c3.968 0 7.2-3.232 7.2-7.2a6.95 6.95 0 00-.512-2.656c3.056-.832 5.312-3.632 5.312-6.944 0-1.84-.704-3.52-1.84-4.8a7.219 7.219 0 001.84-4.8 7.216 7.216 0 00-1.824-4.816zm-50.976 24c0 1.328-1.072 2.4-2.4 2.4h-12v-38.4h12c1.328 0 2.4 1.072 2.4 2.4v33.6zm40.8-21.6h4.8c1.328 0 2.4 1.072 2.4 2.4 0 1.328-1.072 2.4-2.4 2.4h-4.8c-1.328 0-2.4 1.072-2.4 2.4s1.072 2.4 2.4 2.4h4.8c1.328 0 2.4 1.072 2.4 2.4s-1.072 2.4-2.4 2.4h-4.8c-1.328 0-2.4 1.072-2.4 2.4s1.072 2.4 2.4 2.4 2.4 1.072 2.4 2.4-1.072 2.4-2.4 2.4H63.68c-2.32 0-4.624-.368-6.832-1.104l-9.056-3.024V51.6c3.76-.72 7.456-3.104 10.784-7.008 3.248-3.808 5.888-8.864 7.04-13.52l.848-3.408h.528c2.64 0 4.8 2.16 4.8 4.8v2.4c0 3.216-1.008 9.408-2.304 12.16h-4.896c-1.328 0-2.4 1.072-2.4 2.4s1.072 2.4 2.4 2.4h24c1.328 0 2.4 1.072 2.4 2.4s-1.072 2.4-2.4 2.4h-4.8c-1.328 0-2.4 1.072-2.4 2.4s1.072 2.4 2.384 2.4z"/><path d="M83.776 90.544H63.68a26.55 26.55 0 01-8.448-1.376l-7.984-2.656a7.553 7.553 0 01-6.656 4.032h-14.4a2.718 2.718 0 01-2.72-2.72v-43.2a2.718 2.718 0 012.72-2.72h14.4a7.52 7.52 0 016.896 4.496c6-1.664 11.472-9.824 13.168-16.576l1.312-5.232a2.72 2.72 0 012.64-2.064h2.4c5.472 0 9.92 4.448 9.92 9.92v2.4c0 2.432-.592 7.76-1.856 11.84h13.536c4.144 0 7.52 3.376 7.52 7.52 0 1.76-.608 3.456-1.728 4.8a7.485 7.485 0 011.728 4.8c0 1.76-.608 3.456-1.728 4.8a7.485 7.485 0 011.728 4.8 7.538 7.538 0 01-5.2 7.152c.272.784.4 1.6.4 2.448-.016 4.16-3.392 7.536-7.552 7.536zm-36.864-4.816l8.512 2.832a25.773 25.773 0 008.24 1.344h20.112c3.792 0 6.88-3.088 6.88-6.88 0-.88-.16-1.728-.48-2.528l-.128-.336.352-.096a6.903 6.903 0 005.072-6.64 6.79 6.79 0 00-1.76-4.576l-.192-.224.192-.224a6.86 6.86 0 001.76-4.592 6.86 6.86 0 00-1.76-4.592l-.192-.224.192-.224a6.86 6.86 0 001.76-4.592c0-3.792-3.088-6.88-6.88-6.88H74.16l.144-.432c1.344-4.048 1.952-9.6 1.952-12.064v-2.4c0-5.12-4.16-9.28-9.28-9.28h-2.4c-.96 0-1.776.64-2.016 1.568l-1.312 5.232c-1.76 7.024-7.568 15.568-13.904 17.12l-.272.064-.096-.256c-1.04-2.656-3.552-4.352-6.4-4.352h-14.4c-1.152 0-2.08.928-2.08 2.08v43.2c0 1.152.928 2.08 2.08 2.08h14.4a6.92 6.92 0 006.208-3.92l.128-.208zm36.864.016H63.68c-2.368 0-4.704-.384-6.928-1.12l-9.28-3.088V51.328l.256-.048c3.68-.704 7.344-3.088 10.592-6.896 3.216-3.776 5.824-8.784 6.976-13.392l.912-3.664h.784a5.125 5.125 0 015.12 5.12v2.4c0 3.312-1.04 9.536-2.336 12.304l-.08.192h-5.104c-1.152 0-2.08.928-2.08 2.08 0 1.152.928 2.08 2.08 2.08h24a2.718 2.718 0 012.72 2.72 2.718 2.718 0 01-2.72 2.72h-4.8c-1.152 0-2.08.928-2.08 2.08s.928 2.08 2.08 2.08h4.8a2.718 2.718 0 012.72 2.72 2.718 2.718 0 01-2.72 2.72h-4.8c-1.152 0-2.08.928-2.08 2.08s.928 2.08 2.08 2.08h4.8a2.718 2.718 0 012.72 2.72 2.718 2.718 0 01-2.72 2.72h-4.8c-1.152 0-2.08.928-2.08 2.08 0 1.152.928 2.08 2.08 2.08a2.718 2.718 0 012.72 2.72 2.731 2.731 0 01-2.736 2.72zm-35.68-4.688L56.944 84a21.361 21.361 0 006.736 1.088h20.112c1.152 0 2.08-.928 2.08-2.08s-.928-2.08-2.08-2.08a2.718 2.718 0 01-2.72-2.72 2.718 2.718 0 012.72-2.72h4.8c1.152 0 2.08-.928 2.08-2.08 0-1.152-.928-2.08-2.08-2.08h-4.8c-1.504 0-2.72-1.216-2.72-2.72s1.216-2.72 2.72-2.72h4.8c1.152 0 2.08-.928 2.08-2.08 0-1.152-.928-2.08-2.08-2.08h-4.8a2.718 2.718 0 01-2.72-2.72 2.718 2.718 0 012.72-2.72h4.8c1.152 0 2.08-.928 2.08-2.08 0-1.152-.928-2.08-2.08-2.08h-24a2.718 2.718 0 01-2.72-2.72 2.718 2.718 0 012.72-2.72h4.688c1.216-2.768 2.176-8.656 2.176-11.84v-2.4a4.493 4.493 0 00-4.48-4.48h-.272l-.784 3.168c-1.168 4.704-3.84 9.808-7.12 13.648-3.264 3.84-6.96 6.272-10.704 7.056v29.216zm-7.52 4.688h-12.32v-39.04h12.32a2.718 2.718 0 012.72 2.72v33.6a2.718 2.718 0 01-2.72 2.72zm-11.68-.64h11.68c1.152 0 2.08-.928 2.08-2.08v-33.6c0-1.152-.928-2.08-2.08-2.08h-11.68v37.76z"/></symbol><symbol viewBox="0 0 120 120" id="nav-icon-2" xmlns="http://www.w3.org/2000/svg"><path d="M94.128 32.208H26.08a9.184 9.184 0 00-9.184 9.184v37.744a9.184 9.184 0 009.184 9.184h68.064a9.184 9.184 0 009.184-9.184V41.392c-.016-5.072-4.128-9.184-9.2-9.184zm2.704 45.488c0 2.16-1.92 3.92-4.304 3.92H27.376c-2.384 0-4.304-1.76-4.304-3.92V42.688c0-2.16 1.92-3.92 4.304-3.92h65.152c2.384 0 4.304 1.76 4.304 3.92v35.008z"/><path d="M87.44 44.832h-4.576c-.56 0-1.008-.448-1.008-1.008V27.696c0-.56.448-1.008 1.008-1.008h4.576c.56 0 1.008.448 1.008 1.008v16.128c.016.56-.448 1.008-1.008 1.008zm-7.776 0h-4.576c-.56 0-1.008-.448-1.008-1.008V27.696c0-.56.448-1.008 1.008-1.008h4.576c.56 0 1.008.448 1.008 1.008v16.128c0 .56-.448 1.008-1.008 1.008zm-42.816 0h-4.576c-.56 0-1.008-.448-1.008-1.008V27.696c0-.56.448-1.008 1.008-1.008h4.576c.56 0 1.008.448 1.008 1.008v16.128c0 .56-.448 1.008-1.008 1.008zm7.776 0h-4.576c-.56 0-1.008-.448-1.008-1.008V27.696c0-.56.448-1.008 1.008-1.008h4.576c.56 0 1.008.448 1.008 1.008v16.128c.016.56-.448 1.008-1.008 1.008z"/></symbol><symbol viewBox="0 0 120 120" id="nav-icon-3" xmlns="http://www.w3.org/2000/svg"><path d="M46.176 42.368c2.032-1.024 4.72-.32 5.856 1.952l15.904 31.824c1.136 2.272.08 4.848-1.952 5.856a4.382 4.382 0 01-2.208.448L47.264 78.16l-8.416 4.208c-2.48 1.248-5.504.24-6.752-2.256l-4.752-9.504c-1.248-2.48-.24-5.504 2.256-6.752l8.416-4.208 6.48-15.776c.448-.672 1.024-1.184 1.68-1.504m-1.76-3.504a8.19 8.19 0 00-3.2 2.848 3.354 3.354 0 00-.352.672L34.944 56.8l-7.104 3.552c-4.416 2.208-6.208 7.6-4 12.016l4.752 9.504c2.208 4.416 7.6 6.208 12.016 4l7.104-3.552L62.8 86.24c.24.064.496.112.752.112a8.372 8.372 0 004.192-.848c4.096-2.048 5.76-7.04 3.712-11.12L55.536 42.56c-2.032-4.08-7.024-5.744-11.12-3.696z"/><path d="M68.032 86.096a9.003 9.003 0 01-4.528.912 4.044 4.044 0 01-.88-.144l-14.848-3.872-6.896 3.44c-4.736 2.368-10.512.432-12.88-4.304l-4.752-9.504c-2.368-4.736-.448-10.512 4.288-12.88l6.88-3.44 5.824-14.192c.112-.272.256-.544.416-.784a9.002 9.002 0 013.456-3.072c4.416-2.208 9.792-.416 11.984 4L72 74.08a8.922 8.922 0 01-3.968 12.016zM28.144 60.928c-4.096 2.048-5.76 7.04-3.712 11.136l4.752 9.504c2.048 4.096 7.04 5.76 11.136 3.712l7.328-3.664L62.96 85.6c.208.048.416.08.624.096a7.665 7.665 0 003.872-.784c3.776-1.888 5.296-6.48 3.424-10.256L54.976 42.832c-1.888-3.776-6.48-5.296-10.256-3.424a7.619 7.619 0 00-2.944 2.624 3.792 3.792 0 00-.304.56l-6 14.64-7.328 3.696zm38.128 21.664c-.784.4-1.648.56-2.544.512l-16.4-4.256-8.208 4.096c-2.8 1.408-6.224.256-7.616-2.544l-4.752-9.504c-1.408-2.8-.256-6.224 2.544-7.616l8.208-4.096 6.384-15.552c2.288-3.552 7.088-2.848 8.72.416l15.904 31.824c1.248 2.464.24 5.472-2.24 6.72zM29.888 64.448a4.407 4.407 0 00-1.968 5.888l4.752 9.504a4.407 4.407 0 005.888 1.968l8.64-4.32 16.752 4.352a3.8 3.8 0 001.76-.4c1.6-.8 2.688-2.928 1.664-4.992L51.472 44.624c-1.024-2.048-3.392-2.464-4.992-1.664a3.644 3.644 0 00-1.424 1.28l-6.512 15.888-8.656 4.32zM83.872 66.928c-.48.24-1.04.304-1.584.128a2.136 2.136 0 01-1.408-2.672c1.152-3.712.432-9.52-1.712-13.808-2.128-4.256-6.288-8.288-9.904-9.616A2.122 2.122 0 0168 38.224c.416-1.104 1.632-1.68 2.736-1.264 4.608 1.68 9.648 6.496 12.256 11.712 2.624 5.264 3.44 12.24 1.968 16.976a2.225 2.225 0 01-1.088 1.28z"/><path d="M84.16 67.504a2.757 2.757 0 01-3.696-1.184 2.702 2.702 0 01-.192-2.112c1.104-3.568.4-9.168-1.664-13.328-2.064-4.112-6.064-8.032-9.536-9.296-.704-.256-1.248-.768-1.568-1.44s-.352-1.424-.096-2.128c.256-.704.736-1.232 1.44-1.568a2.73 2.73 0 012.128-.096c4.752 1.744 9.936 6.688 12.608 12.032 2.704 5.392 3.52 12.576 2.016 17.456-.256.72-.768 1.328-1.44 1.664zM69.328 37.648a1.594 1.594 0 00-.736.816c-.144.368-.112.768.048 1.136.16.352.464.64.832.768 3.76 1.376 8.064 5.552 10.256 9.936 2.208 4.416 2.944 10.432 1.744 14.288-.112.384-.08.784.112 1.136.176.352.496.608.88.72.752.24 1.616-.224 1.856-.976 1.424-4.592.624-11.376-1.936-16.496-2.544-5.072-7.424-9.76-11.888-11.392-.368-.144-.768-.112-1.136.048 0 0-.016 0-.032.016z"/><path d="M92.544 69.552a2.182 2.182 0 01-1.712.096 2.137 2.137 0 01-1.248-2.752c2.24-5.936 1.584-14.256-1.648-20.704-3.2-6.4-9.392-11.904-15.424-13.696a2.13 2.13 0 01-1.44-2.656 2.143 2.143 0 012.656-1.44c7.088 2.112 14.336 8.48 18.016 15.872 3.712 7.44 4.448 17.136 1.824 24.112a1.96 1.96 0 01-1.024 1.168z"/><path d="M92.832 70.128a2.763 2.763 0 01-2.224.112 2.773 2.773 0 01-1.552-1.456 2.73 2.73 0 01-.064-2.128c2.176-5.776 1.536-13.888-1.616-20.176-3.12-6.24-9.168-11.616-15.024-13.36-1.472-.432-2.304-1.984-1.872-3.456a2.709 2.709 0 011.344-1.648c.624-.32 1.408-.432 2.112-.224 7.248 2.16 14.656 8.672 18.416 16.208 3.792 7.6 4.544 17.488 1.84 24.624-.24.656-.736 1.2-1.36 1.504zM72.48 29.136c-.016 0-.032.016-.048.016a1.46 1.46 0 00-.72.88c-.24.784.208 1.616.992 1.84 6.192 1.84 12.544 7.472 15.824 14.032 3.296 6.592 3.968 15.12 1.664 21.216-.144.368-.128.768.032 1.136.16.368.464.64.832.784.736.272 1.632-.128 1.904-.864 2.576-6.816 1.856-16.304-1.792-23.6-3.616-7.232-10.704-13.488-17.632-15.552a1.44 1.44 0 00-1.056.112z"/></symbol><symbol viewBox="0 0 120 120" id="nav-icon-4" xmlns="http://www.w3.org/2000/svg"><path d="M41.616 74.72l18.352-10.592c2.416-1.392 2.416-3.664 0-5.056L41.616 48.48c-2.416-1.392-4.384-.256-4.384 2.528v21.184c0 2.768 1.968 3.92 4.384 2.528z"/><path d="M104.64 39.312a3.2 3.2 0 00-3.104-.144l-20.944 10.48v-7.616a9.58 9.58 0 00-9.584-9.584H26.24a9.58 9.58 0 00-9.584 9.584V80.4a9.58 9.58 0 009.584 9.584h44.768a9.58 9.58 0 009.584-9.584v-7.616l20.944 10.496c1.584.784 3.504.144 4.288-1.424.224-.448.336-.944.336-1.44V42.032c0-1.12-.576-2.144-1.52-2.72zM74.192 80.4a3.2 3.2 0 01-3.2 3.2H26.24a3.2 3.2 0 01-3.2-3.2V42.032a3.2 3.2 0 013.2-3.2h44.768a3.2 3.2 0 013.2 3.2V80.4h-.016zm25.584-5.184l-19.184-9.584V56.8l19.184-9.584v28z"/></symbol><symbol viewBox="0 0 120 120" id="nav-icon-5" xmlns="http://www.w3.org/2000/svg"><path d="M93.76 31.904H25.712a9.184 9.184 0 00-9.184 9.184v37.744a9.184 9.184 0 009.184 9.184H93.76a9.184 9.184 0 009.184-9.184V41.088a9.184 9.184 0 00-9.184-9.184zm2.704 45.488c0 2.16-1.92 3.92-4.304 3.92H26.992c-2.384 0-4.304-1.76-4.304-3.92V42.384c0-2.16 1.92-3.92 4.304-3.92H92.16c2.384 0 4.304 1.76 4.304 3.92v35.008z"/><path d="M52.848 72.768L71.2 62.176c2.416-1.392 2.416-3.664 0-5.056L52.848 46.528c-2.416-1.392-4.384-.256-4.384 2.528V70.24c0 2.784 1.968 3.92 4.384 2.528z"/></symbol><symbol viewBox="0 0 120 120" id="nav-icon-6" xmlns="http://www.w3.org/2000/svg"><path d="M93.424 27.04H29.056a8.686 8.686 0 00-8.688 8.688v35.696c0 4.8 3.888 8.688 8.688 8.688h64.368c4.8 0 8.688-3.888 8.688-8.688V35.728c0-4.784-3.888-8.688-8.688-8.688zm2.56 43.024c0 2.048-1.824 3.712-4.064 3.712H30.272c-2.256 0-4.064-1.664-4.064-3.712V36.96c0-2.048 1.824-3.712 4.064-3.712h61.632c2.256 0 4.064 1.664 4.064 3.712v33.104h.016zm9.968 16.096v4.32c0 .528-.432.96-.96.96h-87.36a.963.963 0 01-.96-.96v-4.32c0-.528.432-.96.96-.96h87.36c.528 0 .96.432.96.96z"/><path d="M91.648 45.008v3.024a.676.676 0 01-.672.672H32.704a.676.676 0 01-.672-.672v-3.024c0-.368.304-.672.672-.672h58.272c.368 0 .672.304.672.672zm0 7.52v3.024a.676.676 0 01-.672.672H32.704a.676.676 0 01-.672-.672v-3.024c0-.368.304-.672.672-.672h58.272c.368.016.672.304.672.672z"/></symbol><symbol viewBox="0 0 120 120" id="nav-icon-7" xmlns="http://www.w3.org/2000/svg"><path d="M44.208 33.92a5.927 5.927 0 015.92 5.92v2.064h32.544a5.927 5.927 0 015.92 5.92v36.56c0 3.28-2.656 5.936-5.92 5.936H30.48a5.859 5.859 0 01-5.856-5.856v-42.56h.016V39.84c0-3.28 2.656-5.92 5.92-5.92h13.648m0-4.192H30.56c-5.568 0-10.096 4.528-10.096 10.112v1.744c0 .112-.016.208-.016.32v42.56c0 5.536 4.496 10.032 10.032 10.032h52.208c5.568 0 10.096-4.528 10.096-10.112V47.84c0-5.568-4.528-10.112-10.096-10.112H54.096c-.976-4.56-5.04-8-9.888-8z"/><path d="M82.688 95.152H30.48c-5.888 0-10.688-4.8-10.688-10.688v-42.56c0-.128 0-.256.016-.384v-1.68c0-5.936 4.816-10.752 10.752-10.752h13.648c4.864 0 9.152 3.328 10.4 8h28.08c5.936 0 10.752 4.832 10.752 10.752V84.4c0 5.936-4.816 10.752-10.752 10.752zM30.56 30.384c-5.216 0-9.456 4.24-9.456 9.456v1.744c-.016.144-.016.24-.016.32v42.56c0 5.184 4.208 9.392 9.392 9.392h52.208c5.216 0 9.456-4.24 9.456-9.456V47.84c0-5.216-4.24-9.456-9.456-9.456h-29.12l-.112-.512c-.928-4.336-4.816-7.472-9.248-7.472H30.56v-.016zm52.128 60.592H30.48a6.518 6.518 0 01-6.512-6.512l.016-44.624a6.576 6.576 0 016.576-6.576h13.648a6.576 6.576 0 016.576 6.576v1.424h31.904a6.576 6.576 0 016.576 6.576V84.4a6.576 6.576 0 01-6.576 6.576zM25.28 42.56v41.904c0 2.864 2.336 5.216 5.216 5.216h52.208a5.285 5.285 0 005.28-5.28V47.84a5.285 5.285 0 00-5.28-5.28H49.488v-2.72a5.285 5.285 0 00-5.28-5.28H30.56a5.285 5.285 0 00-5.28 5.28v2.72z"/><path d="M82.128 94.512a2.093 2.093 0 01-2.096-2.096c0-1.152.928-2.096 2.096-2.096 2.832 0 5.392-1.792 6.384-4.464l10.192-27.344c.256-.704.16-1.44-.256-2.064a2.18 2.18 0 00-1.792-.944H55.28c-2.816 0-5.392 1.776-6.4 4.416-.288.8-7.328 20.784-10.224 27.488-3.136 7.248-9.584 7.024-12.544 5.888a2.114 2.114 0 01-1.216-2.704 2.114 2.114 0 012.704-1.216c.8.288 4.976 1.504 7.216-3.648 2.848-6.56 10.064-27.04 10.128-27.248 1.632-4.304 5.776-7.152 10.32-7.152h41.392a6.398 6.398 0 015.232 2.736 6.414 6.414 0 01.736 5.904L92.432 87.312c-1.6 4.32-5.744 7.2-10.304 7.2z"/><path d="M82.128 95.152c-1.504 0-2.736-1.232-2.736-2.736s1.232-2.736 2.736-2.736c2.56 0 4.88-1.616 5.776-4.048l10.192-27.344a1.527 1.527 0 00-.176-1.456 1.516 1.516 0 00-1.264-.672H55.28c-2.544 0-4.88 1.6-5.776 4l-.096.256c-2.224 6.272-7.648 21.504-10.16 27.248-3.344 7.712-10.192 7.456-13.36 6.24a2.64 2.64 0 01-1.52-1.44 2.721 2.721 0 01-.064-2.096c.544-1.408 2.16-2.128 3.536-1.584.72.256 4.384 1.328 6.4-3.296 2.816-6.496 10.048-27.008 10.112-27.2 1.728-4.544 6.112-7.6 10.944-7.6h41.392a7.036 7.036 0 015.76 3.024 7.068 7.068 0 01.816 6.496L93.072 87.552c-1.728 4.56-6.112 7.6-10.944 7.6zM55.28 54.88h41.392c.944 0 1.792.448 2.32 1.232.544.8.672 1.76.336 2.656L89.136 86.112a7.505 7.505 0 01-7.008 4.88c-.8 0-1.44.64-1.44 1.44 0 .8.64 1.44 1.44 1.44 4.288 0 8.192-2.72 9.696-6.752l10.192-27.344a5.775 5.775 0 00-.656-5.296 5.745 5.745 0 00-4.688-2.464H55.28c-4.272 0-8.176 2.704-9.712 6.736-.064.176-7.28 20.688-10.144 27.28-2.528 5.824-7.472 4.208-8.032 4a1.455 1.455 0 00-1.872.832c-.144.368-.128.752.032 1.104.16.352.448.624.8.752 2.768 1.056 8.768 1.248 11.712-5.536 2.544-5.872 8.384-22.272 10.112-27.168l.096-.272c1.104-2.928 3.92-4.864 7.008-4.864z"/><path d="M89.696 64.384H64.784a2.093 2.093 0 01-2.096-2.096c0-1.152.928-2.096 2.096-2.096h24.912c1.152 0 2.096.928 2.096 2.096a2.103 2.103 0 01-2.096 2.096zM-105.584 49.92a5.927 5.927 0 015.92 5.92v2.064h32.544a5.927 5.927 0 015.92 5.92v36.56c0 3.28-2.656 5.936-5.92 5.936h-52.192a5.859 5.859 0 01-5.856-5.856v-42.56h.016V55.84c0-3.28 2.656-5.92 5.92-5.92h13.648m0-4.192h-13.648c-5.568 0-10.096 4.528-10.096 10.112v1.744c0 .112-.016.208-.016.32v42.56c0 5.536 4.496 10.032 10.032 10.032h52.208c5.568 0 10.096-4.528 10.096-10.112V63.84c0-5.568-4.528-10.112-10.096-10.112h-28.592c-.976-4.56-5.04-8-9.888-8z"/><path d="M-67.104 111.152h-52.208c-5.888 0-10.688-4.8-10.688-10.688v-42.56c0-.128 0-.256.016-.384v-1.68c0-5.936 4.816-10.752 10.752-10.752h13.648c4.864 0 9.152 3.328 10.4 8h28.08c5.936 0 10.752 4.832 10.752 10.752v36.56c0 5.936-4.816 10.752-10.752 10.752zm-52.128-64.768c-5.216 0-9.456 4.24-9.456 9.456v1.744c-.016.144-.016.24-.016.32v42.56c0 5.184 4.208 9.392 9.392 9.392h52.208c5.216 0 9.456-4.24 9.456-9.456V63.84c0-5.216-4.24-9.456-9.456-9.456h-29.12l-.112-.512c-.928-4.336-4.816-7.472-9.248-7.472h-13.648v-.016zm52.128 60.592h-52.208a6.518 6.518 0 01-6.512-6.512l.016-44.624a6.576 6.576 0 016.576-6.576h13.648a6.576 6.576 0 016.576 6.576v1.424h31.904a6.576 6.576 0 016.576 6.576v36.56a6.576 6.576 0 01-6.576 6.576zm-57.408-48.416v41.904c0 2.864 2.336 5.216 5.216 5.216h52.208a5.285 5.285 0 005.28-5.28V63.84a5.285 5.285 0 00-5.28-5.28h-33.216v-2.72a5.285 5.285 0 00-5.28-5.28h-13.648a5.285 5.285 0 00-5.28 5.28v2.72z"/><g><path d="M-67.664 110.512a2.093 2.093 0 01-2.096-2.096c0-1.152.928-2.096 2.096-2.096 2.832 0 5.392-1.792 6.384-4.464l10.192-27.344c.256-.704.16-1.44-.256-2.064a2.18 2.18 0 00-1.792-.944h-41.376c-2.816 0-5.392 1.776-6.4 4.416-.288.8-7.328 20.784-10.224 27.488-3.136 7.248-9.584 7.024-12.544 5.888a2.114 2.114 0 01-1.216-2.704 2.114 2.114 0 012.704-1.216c.8.288 4.976 1.504 7.216-3.648 2.848-6.56 10.064-27.04 10.128-27.248 1.632-4.304 5.776-7.152 10.32-7.152h41.392a6.398 6.398 0 015.232 2.736 6.414 6.414 0 01.736 5.904l-10.192 27.344c-1.6 4.32-5.744 7.2-10.304 7.2z"/><path d="M-67.664 111.152c-1.504 0-2.736-1.232-2.736-2.736s1.232-2.736 2.736-2.736c2.56 0 4.88-1.616 5.776-4.048l10.192-27.344a1.527 1.527 0 00-.176-1.456 1.516 1.516 0 00-1.264-.672h-41.376c-2.544 0-4.88 1.6-5.776 4l-.096.256c-2.224 6.272-7.648 21.504-10.16 27.248-3.344 7.712-10.192 7.456-13.36 6.24a2.64 2.64 0 01-1.52-1.44 2.721 2.721 0 01-.064-2.096c.544-1.408 2.16-2.128 3.536-1.584.72.256 4.384 1.328 6.4-3.296 2.816-6.496 10.048-27.008 10.112-27.2 1.728-4.544 6.112-7.6 10.944-7.6h41.392a7.036 7.036 0 015.76 3.024 7.068 7.068 0 01.816 6.496l-10.192 27.344c-1.728 4.56-6.112 7.6-10.944 7.6zM-94.512 70.88h41.392c.944 0 1.792.448 2.32 1.232.544.8.672 1.76.336 2.656l-10.192 27.344a7.505 7.505 0 01-7.008 4.88c-.8 0-1.44.64-1.44 1.44 0 .8.64 1.44 1.44 1.44 4.288 0 8.192-2.72 9.696-6.752l10.192-27.344a5.775 5.775 0 00-.656-5.296 5.745 5.745 0 00-4.688-2.464h-41.392c-4.272 0-8.176 2.704-9.712 6.736-.064.176-7.28 20.688-10.144 27.28-2.528 5.824-7.472 4.208-8.032 4a1.455 1.455 0 00-1.872.832c-.144.368-.128.752.032 1.104.16.352.448.624.8.752 2.768 1.056 8.768 1.248 11.712-5.536 2.544-5.872 8.384-22.272 10.112-27.168l.096-.272c1.104-2.928 3.92-4.864 7.008-4.864z"/></g><path d="M-60.096 80.384h-24.912a2.093 2.093 0 01-2.096-2.096c0-1.152.928-2.096 2.096-2.096h24.912c1.152 0 2.096.928 2.096 2.096a2.103 2.103 0 01-2.096 2.096z"/></symbol><symbol viewBox="0 0 120 120" id="nav-icon-8" xmlns="http://www.w3.org/2000/svg"><path d="M68.256 94.448c-1.824 1.824-4 2.72-6.544 2.72s-4.72-.912-6.544-2.72c-1.824-1.824-2.736-4-2.736-6.544s.912-4.72 2.736-6.544c1.824-1.808 4-2.72 6.544-2.72s4.72.912 6.544 2.72c1.824 1.824 2.736 4 2.736 6.544s-.912 4.72-2.736 6.544zM56.16 70.128l-2.944-28.896V19.44h16.896v21.808L67.28 70.144H56.16v-.016z"/></symbol><symbol viewBox="0 0 120 120" id="nav-icon-9" xmlns="http://www.w3.org/2000/svg"><path d="M39.952 48.304h4.656V71.92h-3.536L30.96 57.488V71.92h-4.656V48.304h3.536l10.112 14.4v-14.4zm13.696 19.168H63.6v4.448H48.992V48.304h14.432v4.448h-9.776v5.024h8.944v4.384h-8.944v5.312zm18.144 4.448l-6.608-23.616h4.896l4.512 17.504 4.928-17.504h3.984l4.96 17.504 4.528-17.504h4.896L91.28 71.92h-5.296l-4.448-15.584L77.12 71.92h-5.328z"/></symbol><symbol viewBox="0 0 12 12" id="next" xmlns="http://www.w3.org/2000/svg"><g clip-path="url(#avclip0)"><path d="M9.097 5.67L3.556.13a.462.462 0 00-.653.653l5.215 5.214-5.215 5.215a.462.462 0 00.653.653l5.541-5.541a.462.462 0 000-.653z"/></g><defs><clipPath id="avclip0"><path d="M0 0h12v12H0z"/></clipPath></defs></symbol><symbol viewBox="0 0 12 12" id="notification" xmlns="http://www.w3.org/2000/svg"><g clip-path="url(#awclip0)"><path d="M6 12a1.76 1.76 0 001.61-1.055H4.39A1.76 1.76 0 006 12zm3.633-6.19v-.77a3.64 3.64 0 00-2.578-3.477v-.508a1.056 1.056 0 00-2.11 0v.508a3.64 3.64 0 00-2.578 3.476v.77A5.52 5.52 0 01.824 9.647a.352.352 0 00.254.595h9.844a.352.352 0 00.254-.595A5.52 5.52 0 019.633 5.81zM6.352 1.422a3.664 3.664 0 00-.704 0v-.368a.352.352 0 01.704 0v.368zm4.218 3.617a.352.352 0 00.703 0A5.24 5.24 0 009.73 1.31a.352.352 0 00-.497.497A4.54 4.54 0 0110.57 5.04zm-9.492.351a.352.352 0 00.352-.351 4.54 4.54 0 011.338-3.232.352.352 0 10-.497-.497A5.239 5.239 0 00.727 5.04c0 .194.157.352.351.352z"/></g><defs><clipPath id="awclip0"><path d="M0 0h12v12H0z"/></clipPath></defs></symbol><symbol viewBox="0 0 12 12" id="prev" xmlns="http://www.w3.org/2000/svg"><g clip-path="url(#axclip0)"><path d="M2.903 6.33l5.541 5.54a.462.462 0 00.653-.652L3.882 6.002 9.097.788a.462.462 0 00-.653-.653L2.903 5.676a.462.462 0 000 .653z"/></g><defs><clipPath id="axclip0"><path transform="rotate(-180 6 6)" d="M0 0h12v12H0z"/></clipPath></defs></symbol><symbol viewBox="0 0 20 20" id="return" xmlns="http://www.w3.org/2000/svg"><path d="M12.069 20H1.034a1.034 1.034 0 010-2.069H12.07a5.869 5.869 0 005.862-5.862 5.869 5.869 0 00-5.862-5.862H5.287L3.908 5.172l1.38-1.034h6.781c4.373 0 7.931 3.558 7.931 7.931S16.442 20 12.069 20zM0 5.172A1.035 1.035 0 00.414 6l5.517 4.138a1.035 1.035 0 001.241-1.655L2.76 5.173l4.413-3.31A1.034 1.034 0 105.931.206L.414 4.345A1.034 1.034 0 000 5.172z"/></symbol><symbol viewBox="0 0 17 16" id="ruble" xmlns="http://www.w3.org/2000/svg"><g clip-path="url(#azclip0)"><path d="M9.05 5.32H7.36v2.023h1.69c.56 0 1.017-.454 1.017-1.011 0-.558-.456-1.012-1.017-1.012z"/><path d="M13.73 2.345a8.067 8.067 0 00-11.373 0 7.964 7.964 0 000 11.311 8.067 8.067 0 0011.372 0 7.964 7.964 0 000-11.311zM9.05 8.658H7.362v.688h1.352c.365 0 .66.294.66.657a.659.659 0 01-.66.657H7.362v.678a.659.659 0 01-.66.657.659.659 0 01-.661-.657v-.678h-.682a.659.659 0 01-.66-.657c0-.363.296-.657.66-.657h.682v-.688h-.682A.659.659 0 014.7 8c0-.363.296-.657.66-.657h.682v-2.68c0-.363.296-.657.66-.657H9.05a2.334 2.334 0 012.338 2.325A2.334 2.334 0 019.05 8.658z"/></g><defs><clipPath id="azclip0"><path d="M0 0h16.086v16H0z"/></clipPath></defs></symbol><symbol viewBox="0 0 30 30" id="technical-support" xmlns="http://www.w3.org/2000/svg"><path d="M12.902 18.637c.32-.941.79-1.824 1.395-2.614v-2.229l1.486-.743a.704.704 0 00.389-.63v-1.405a.703.703 0 00-1.406 0v.971l-1.172.586-1.172-.586v-.971a.703.703 0 00-1.406 0v1.406a.704.704 0 00.388.629l1.487.743v4.722a.7.7 0 00.01.121z"/><path d="M12.632 19.611a6.095 6.095 0 01-.466-11.948 6.097 6.097 0 017.445 4.97 9.13 9.13 0 017.342 1.553v-3.11a.703.703 0 00-.617-.697l-2.026-.251-.688-1.66 1.256-1.611a.704.704 0 00-.058-.93l-3.56-3.56a.703.703 0 00-.93-.057l-1.61 1.255-1.66-.687L16.809.85a.703.703 0 00-.698-.617h-5.035a.703.703 0 00-.697.617l-.251 2.027-1.66.687L6.856 2.31a.703.703 0 00-.93.057l-3.56 3.56a.703.703 0 00-.057.93l1.255 1.61-.687 1.66-2.027.252a.703.703 0 00-.617.697v5.035a.703.703 0 00.617.698l2.027.25.687 1.661-1.255 1.61a.703.703 0 00.057.93l3.56 3.56a.703.703 0 00.93.058l1.61-1.256 1.66.688.252 2.026a.703.703 0 00.697.617h3.11a9.13 9.13 0 01-1.554-7.342z"/><path d="M21.563 13.125c-4.653 0-8.438 3.785-8.438 8.438 0 4.652 3.785 8.437 8.438 8.437C26.215 30 30 26.215 30 21.562c0-4.652-3.785-8.437-8.438-8.437zm-.605 3.75a.703.703 0 011.407 0v.938a.703.703 0 01-1.407 0v-.938zm-3.039.335a.703.703 0 01.965.24l.483.804a.704.704 0 01-1.206.724l-.482-.803a.705.705 0 01.24-.965zm7.024 8.806H18.38a.703.703 0 010-1.407h.235v-2.578a2.58 2.58 0 012.578-2.578h.937a2.581 2.581 0 012.578 2.578v2.578h.235a.703.703 0 010 1.407zm.701-7.841l-.483.803a.702.702 0 11-1.205-.724l.483-.803a.703.703 0 011.205.724z"/><path d="M21.662 21.328a.703.703 0 00-.704.703v2.578h1.407v-2.578a.703.703 0 00-.703-.703z"/></symbol><symbol viewBox="0 0 30 30" id="video" xmlns="http://www.w3.org/2000/svg"><path d="M25.607 4.393c-5.858-5.857-15.356-5.857-21.214 0-5.857 5.858-5.857 15.356 0 21.214 5.858 5.857 15.356 5.857 21.214 0 5.857-5.858 5.857-15.356 0-21.214zm-4.053 11.525l-4.686 2.692-4.591 2.66a.974.974 0 01-.601.19 1.068 1.068 0 01-1.077-1.077V9.586c0-.19.032-.349.127-.539.285-.506.95-.696 1.456-.38l4.623 2.66c.031 0 .031.032.063.032l4.686 2.691c.158.095.285.222.412.38.285.538.095 1.203-.412 1.488z"/></symbol><symbol viewBox="0 0 30 30" id="vk" xmlns="http://www.w3.org/2000/svg"><path d="M15 0C6.716 0 0 6.716 0 15c0 8.284 6.716 15 15 15 8.284 0 15-6.716 15-15 0-8.284-6.716-15-15-15zm7.609 16.622c.699.683 1.439 1.326 2.066 2.08.278.333.54.677.74 1.065.285.553.027 1.159-.467 1.192l-3.073-.001c-.794.066-1.426-.255-1.958-.797-.425-.433-.82-.894-1.229-1.342a2.871 2.871 0 00-.553-.492c-.42-.272-.783-.189-1.023.249-.245.445-.3.939-.324 1.434-.033.725-.252.914-.979.948-1.554.073-3.028-.163-4.398-.946-1.208-.69-2.144-1.666-2.959-2.77-1.587-2.152-2.803-4.514-3.895-6.944-.246-.547-.066-.84.538-.85a85.522 85.522 0 013.009-.002c.408.007.678.24.835.625.542 1.334 1.206 2.603 2.039 3.78.222.313.448.625.77.846.357.245.628.164.796-.233.107-.253.154-.523.177-.794.08-.927.09-1.854-.049-2.777-.086-.578-.41-.951-.987-1.06-.293-.056-.25-.165-.108-.332.248-.29.48-.47.944-.47h3.472c.547.107.67.353.744.904l.003 3.859c-.006.213.107.845.49.985.307.101.51-.145.693-.34.833-.883 1.426-1.926 1.957-3.005.235-.476.437-.969.634-1.462.146-.365.373-.545.785-.539l3.343.004c.099 0 .199.001.296.018.564.097.718.339.544.889-.275.863-.808 1.583-1.329 2.304-.558.772-1.154 1.517-1.707 2.293-.508.709-.468 1.066.163 1.681z"/></symbol><symbol viewBox="0 0 30 30" id="zoom-in" xmlns="http://www.w3.org/2000/svg"><path d="M29.1 24.9l-4.2-4.2c1.35-2.1 2.1-4.5 2.1-7.2C27 6 21 0 13.5 0S0 6 0 13.5 6 27 13.5 27c2.7 0 5.1-.75 7.2-2.1l4.2 4.2c1.2 1.2 3 1.2 4.2 0 1.2-1.2 1.2-3 0-4.2zM13.5 24C7.65 24 3 19.35 3 13.5S7.65 3 13.5 3 24 7.65 24 13.5 19.2 24 13.5 24z"/><path d="M19.5 12H15V7.5c0-.9-.6-1.5-1.5-1.5S12 6.75 12 7.5V12H7.5c-.75 0-1.5.6-1.5 1.5S6.6 15 7.5 15H12v4.5c0 .9.6 1.5 1.5 1.5s1.5-.6 1.5-1.5V15h4.5c.9 0 1.5-.6 1.5-1.5s-.75-1.5-1.5-1.5z"/></symbol></svg>