<?xml version="1.0" encoding="utf-8"?><svg viewBox="0 0 77 60" xmlns="http://www.w3.org/2000/svg" xmlns:xlink="http://www.w3.org/1999/xlink"><style>:root>svg{display:none}:root>svg:target{display:block}</style><svg viewBox="0 0 77 60" id="icon-add-image" xmlns="http://www.w3.org/2000/svg"><path d="M32 35.5h5.5V41h2v-5.5H45v-2h-5.5V28h-2v5.5H32v2z"/><path fill-rule="evenodd" clip-rule="evenodd" d="M54 34.5C54 43.06 47.06 50 38.5 50 29.94 50 23 43.06 23 34.5 23 25.94 29.94 19 38.5 19 47.06 19 54 25.94 54 34.5zm-2 0C52 41.956 45.956 48 38.5 48S25 41.956 25 34.5 31.044 21 38.5 21 52 27.044 52 34.5z"/><path fill-rule="evenodd" clip-rule="evenodd" d="M23 0h31l4.278 11H77v49H0V11h18.926L23 0zm-2.682 13H2v45h73V13H56.91L52.632 2h-28.24l-4.074 11z"/><path d="M17 7H3V5h14v2z"/></svg><svg viewBox="0 0 40 39" id="icon-ads" xmlns="http://www.w3.org/2000/svg"><path d="M6.75 26.991a5.7 5.7 0 012.087-7.786l4.936-2.85 5.7 9.873-4.936 2.85A5.7 5.7 0 016.75 26.99z"/><path d="M16.355 28.028l3.118-1.8 3.3 5.715-3.117 1.8-3.3-5.715zM33.25 11.691a3.3 3.3 0 01-1.208 4.508l-.26.15-3.3-5.716.26-.15a3.3 3.3 0 014.508 1.208zm-19.478 4.664L23.382 1.8l13.5 23.383-17.41 1.045-5.7-9.873zm7.393-11.196l11.7 20.265"/></svg><svg viewBox="0 0 11 18" id="icon-arrow" xmlns="http://www.w3.org/2000/svg"><path d="M1 17l8-8-8-8"/></svg><svg viewBox="0 0 13 12" id="icon-back" xmlns="http://www.w3.org/2000/svg"><path d="M1.612 5.898H12M5.689 1L1.001 6l4.688 5"/></svg><svg viewBox="0 0 40 39" id="icon-board" xmlns="http://www.w3.org/2000/svg"><path d="M6.75 26.991a5.7 5.7 0 012.087-7.786l4.936-2.85 5.7 9.873-4.936 2.85A5.7 5.7 0 016.75 26.99z"/><path d="M16.355 28.028l3.118-1.8 3.3 5.715-3.117 1.8-3.3-5.715zM33.25 11.691a3.3 3.3 0 01-1.208 4.508l-.26.15-3.3-5.716.26-.15a3.3 3.3 0 014.508 1.208zm-19.478 4.664L23.382 1.8l13.5 23.383-17.41 1.045-5.7-9.873zm7.393-11.196l11.7 20.265"/></svg><svg viewBox="0 0 21 18" id="icon-burger" xmlns="http://www.w3.org/2000/svg"><path d="M1 1h19M1 9h19M1 17h19"/></svg><svg viewBox="0 0 11 15" id="icon-delete" xmlns="http://www.w3.org/2000/svg"><path d="M1.833.938H0v1.875h11V.937H9.167L6.875 0h-2.75L1.833.938z"/><path fill-rule="evenodd" clip-rule="evenodd" d="M.917 4.688h9.167V12a3 3 0 01-3 3H3.917a3 3 0 01-3-3V4.687zm1.338 2.386l2.4 2.4L2.4 11.727l.872.872 2.255-2.254 2.4 2.4.82-.82-2.4-2.4L8.6 7.272l-.872-.873-2.254 2.255-2.4-2.4-.82.82z"/></svg><svg viewBox="0 0 16 16" id="icon-edite" xmlns="http://www.w3.org/2000/svg"><path d="M16 3.429l-1.714 1.714-3.428-3.429L12.572 0 16 3.429zm-6.286-.572l3.428 3.429L3.428 16H0v-3.429l9.714-9.714z"/></svg><svg viewBox="0 0 18 18" id="icon-elements" xmlns="http://www.w3.org/2000/svg"><path d="M2.371 8.67C1.64 7.395 1.287 6.353 1.074 5.298c-.315-1.561.406-3.086 1.6-4.06.504-.41 1.082-.27 1.38.265l.674 1.209c.534.958.801 1.437.748 1.944-.053.508-.413.922-1.133 1.749L2.371 8.67zm0 0c1.48 2.581 3.804 4.905 6.388 6.387m0 0c1.275.732 2.316 1.085 3.372 1.298 1.56.314 3.086-.406 4.059-1.6.411-.505.27-1.083-.265-1.381l-1.208-.674c-.958-.534-1.437-.8-1.945-.748-.507.053-.921.413-1.748 1.133l-2.265 1.972zM10.257 4.727a4.625 4.625 0 012.444 2.444M10.761 1a8.313 8.313 0 015.668 5.667"/></svg><svg viewBox="0 0 18 15" id="icon-email" xmlns="http://www.w3.org/2000/svg"><path d="M1 2.929L6.333 5.95c1.966 1.114 2.797 1.114 4.763 0l5.333-3.021"/><path d="M1.012 8.695c.05 2.365.076 3.548.948 4.424.873.876 2.087.906 4.516.967 1.497.038 2.98.038 4.476 0 2.43-.06 3.644-.091 4.516-.967.873-.876.898-2.059.948-4.424.017-.76.017-1.516 0-2.276-.05-2.365-.075-3.547-.948-4.423-.872-.876-2.087-.907-4.516-.968a88.792 88.792 0 00-4.476 0c-2.429.061-3.643.092-4.516.968-.872.876-.897 2.058-.948 4.423-.016.76-.016 1.516 0 2.276z"/></svg><svg viewBox="0 0 14 14" id="icon-login" xmlns="http://www.w3.org/2000/svg"><path d="M6.64 10.674l-2.82 2.762m2.82-2.762H1m5.64 0L3.82 8.03m2.929 5.055h6.25v-.417c0-.92-.244-2.272-.973-3.4-.738-1.143-1.948-2.017-3.819-2.017-.974 0-1.768.237-2.41.625"/><circle cx="8" cy="3.5" r="2.5"/></svg><svg viewBox="0 0 14 14" id="icon-logout" xmlns="http://www.w3.org/2000/svg"><path d="M1 10.792L3.82 8.03M1 10.792h5.639m-5.64 0l2.82 2.644m2.931-.351H13v-.417c0-.92-.244-2.272-.973-3.4-.739-1.143-1.948-2.017-3.82-2.017-.973 0-1.768.237-2.41.625"/><circle cx="8" cy="3.5" r="2.5"/></svg><svg viewBox="0 0 18 18" id="icon-phone" xmlns="http://www.w3.org/2000/svg"><path d="M2.371 8.67C1.64 7.395 1.287 6.353 1.074 5.298c-.315-1.561.406-3.086 1.6-4.06.504-.41 1.082-.27 1.38.265l.674 1.209c.534.958.801 1.437.748 1.944-.053.508-.413.922-1.133 1.749L2.371 8.67zm0 0c1.48 2.581 3.804 4.905 6.388 6.387m0 0c1.275.732 2.316 1.085 3.372 1.298 1.56.314 3.086-.406 4.059-1.6.411-.505.27-1.083-.265-1.381l-1.208-.674c-.958-.534-1.437-.8-1.945-.748-.507.053-.921.413-1.748 1.133l-2.265 1.972zM10.257 4.727a4.625 4.625 0 012.444 2.444M10.761 1a8.313 8.313 0 015.668 5.667"/></svg><svg viewBox="0 0 77 60" id="icon-photo" xmlns="http://www.w3.org/2000/svg"><path d="M32 35.5h5.5V41h2v-5.5H45v-2h-5.5V28h-2v5.5H32v2z"/><path fill-rule="evenodd" clip-rule="evenodd" d="M54 34.5C54 43.06 47.06 50 38.5 50 29.94 50 23 43.06 23 34.5 23 25.94 29.94 19 38.5 19 47.06 19 54 25.94 54 34.5zm-2 0C52 41.956 45.956 48 38.5 48S25 41.956 25 34.5 31.044 21 38.5 21 52 27.044 52 34.5z"/><path fill-rule="evenodd" clip-rule="evenodd" d="M23 0h31l4.278 11H77v49H0V11h18.926L23 0zm-2.682 13H2v45h73V13H56.91L52.632 2h-28.24l-4.074 11z"/><path d="M17 7H3V5h14v2z"/></svg><svg viewBox="0 0 12 12" id="icon-plus" xmlns="http://www.w3.org/2000/svg"><path d="M0 6h12M6 0v12"/></svg><svg viewBox="0 0 36 35" id="icon-price" xmlns="http://www.w3.org/2000/svg"><path clip-rule="evenodd" d="M28.683 12.178L23 6.495l-8.524 2.03L1.08 21.92l12.178 12.178 13.396-13.395 2.03-8.525zm-8.524 2.841a2.87 2.87 0 104.06-4.059 2.87 2.87 0 00-4.06 4.06z"/><path d="M27.997 15.051a4.593 4.593 0 10-3.353-.589M6.736 24.749l9.193-9.193 2.475 2.475a3.5 3.5 0 01-4.95 4.95l-3.89-3.89m-2.12 2.122l4.242 4.243"/></svg><svg viewBox="0 0 14 14" id="icon-registration" xmlns="http://www.w3.org/2000/svg"><path d="M6.749 13.085h6.25v-.417c0-.92-.244-2.272-.973-3.4-.738-1.143-1.948-2.017-3.819-2.017-.974 0-1.768.237-2.41.625m-1.977.036v5.524m2.82-2.762H1"/><circle cx="8" cy="3.5" r="2.5"/></svg><svg viewBox="0 0 12 12" id="icon-search" xmlns="http://www.w3.org/2000/svg"><path d="M10.646 11.354a.5.5 0 00.708-.708l-.708.708zm-2-2l2 2 .708-.708-2-2-.708.708zM10.5 5.5a5 5 0 00-5-5v1a4 4 0 014 4h1zm-5-5a5 5 0 00-5 5h1a4 4 0 014-4v-1zm-5 5a5 5 0 005 5v-1a4 4 0 01-4-4h-1zm5 5a5 5 0 005-5h-1a4 4 0 01-4 4v1z"/></svg><svg viewBox="0 0 36 35" id="icon-services" xmlns="http://www.w3.org/2000/svg"><path clip-rule="evenodd" d="M28.683 12.178L23 6.495l-8.524 2.03L1.08 21.92l12.178 12.178 13.396-13.395 2.03-8.525zm-8.524 2.841a2.87 2.87 0 104.06-4.059 2.87 2.87 0 00-4.06 4.06z"/><path d="M27.997 15.051a4.593 4.593 0 10-3.353-.589M6.736 24.749l9.193-9.193 2.475 2.475a3.5 3.5 0 01-4.95 4.95l-3.89-3.89m-2.12 2.122l4.242 4.243"/></svg><svg viewBox="0 0 14 17" id="icon-user" xmlns="http://www.w3.org/2000/svg"><path d="M7.087 9.913A6.087 6.087 0 001 16h12.174a6.087 6.087 0 00-6.087-6.087z"/><circle cx="7.088" cy="4.044" r="3.044"/></svg></svg>